<svg fill="rgba(255, 255, 255, 0)" xmlns="http://www.w3.org/2000/svg">
<path d="M350.797 533.365C350.797 592.328 398.596 640.128 457.559 640.128C516.523 640.128 564.322 592.328 564.322 533.365C564.322 474.402 516.523 426.603 457.559 426.603C398.596 426.603 350.797 474.402 350.797 533.365Z" stroke="#5C5C5C" stroke-width="12"/>
<path d="M501.05 503.758L469.97 472.678C469.082 471.79 468.194 471.346 466.862 471.346H422.462C417.578 471.346 413.582 475.342 413.582 480.226V586.787C413.582 591.671 417.578 595.667 422.462 595.667H493.502C498.386 595.667 502.382 591.671 502.382 586.787V506.866C502.382 505.534 501.938 504.646 501.05 503.758ZM466.862 482.002L491.726 506.866H466.862V482.002ZM493.502 586.787H422.462V480.226H457.982V506.866C457.982 511.75 461.978 515.746 466.862 515.746H493.502V586.787Z" fill="#5C5C5C"/>
<path d="M431.342 560.146H484.622V569.026H431.342V560.146Z" fill="#5C5C5C"/>
<path d="M431.342 533.506H484.622V542.386H431.342V533.506Z" fill="#5C5C5C"/>
</svg>
