<svg width="308" height="51" viewBox="0 0 308 51" fill="none" xmlns="http://www.w3.org/2000/svg">
<path d="M17.1391 39.48C14.0351 39.48 11.2031 38.776 8.64306 37.368C6.11506 35.96 4.37106 34.12 3.41106 31.848C3.25106 31.464 3.17106 31.144 3.17106 30.888C3.17106 30.408 3.34706 29.992 3.69906 29.64C4.05106 29.256 4.53106 29 5.13906 28.872C5.23506 28.84 5.39506 28.824 5.61906 28.824C6.13106 28.824 6.61106 28.984 7.05906 29.304C7.53906 29.592 7.89106 29.992 8.11506 30.504C8.69106 31.752 9.82706 32.808 11.5231 33.672C13.2191 34.536 15.0911 34.968 17.1391 34.968C19.5391 34.968 21.5711 34.424 23.2351 33.336C24.8991 32.216 25.7311 30.696 25.7311 28.776C25.7311 26.952 25.0271 25.4 23.6191 24.12C22.2111 22.808 20.0671 22.008 17.1871 21.72C13.2191 21.336 10.0991 20.184 7.82706 18.264C5.55506 16.312 4.41906 13.88 4.41906 10.968C4.41906 8.92 4.99506 7.16 6.14706 5.688C7.33106 4.184 8.93106 3.048 10.9471 2.28C12.9951 1.48 15.2831 1.08 17.8111 1.08C20.5631 1.08 22.8831 1.64 24.7711 2.76C26.6591 3.88 28.2591 5.48 29.5711 7.56C29.9551 8.168 30.1471 8.744 30.1471 9.288C30.1471 9.992 29.8271 10.568 29.1871 11.016C28.8351 11.24 28.4191 11.352 27.9391 11.352C27.4591 11.352 27.0111 11.24 26.5951 11.016C26.1791 10.76 25.8591 10.424 25.6351 10.008C24.7711 8.568 23.6831 7.48 22.3711 6.744C21.0911 5.976 19.4591 5.592 17.4751 5.592C15.0431 5.592 13.0751 6.072 11.5711 7.032C10.0671 7.96 9.31506 9.32 9.31506 11.112C9.31506 12.776 9.98706 14.168 11.3311 15.288C12.6751 16.408 15.0751 17.144 18.5311 17.496C22.3711 17.88 25.3471 19.048 27.4591 21C29.5711 22.92 30.6271 25.464 30.6271 28.632C30.6271 30.936 30.0031 32.92 28.7551 34.584C27.5071 36.216 25.8431 37.448 23.7631 38.28C21.7151 39.08 19.5071 39.48 17.1391 39.48ZM59.4499 12.696C60.1859 12.696 60.7779 12.92 61.2259 13.368C61.6739 13.816 61.8979 14.408 61.8979 15.144V36.552C61.8979 37.256 61.6739 37.848 61.2259 38.328C60.7779 38.776 60.1859 39 59.4499 39C58.7459 39 58.1539 38.776 57.6739 38.328C57.2259 37.848 57.0019 37.256 57.0019 36.552V36.024C55.9779 37.048 54.7619 37.848 53.3539 38.424C51.9459 38.968 50.4419 39.24 48.8419 39.24C46.6339 39.24 44.6499 38.76 42.8899 37.8C41.1299 36.84 39.7539 35.448 38.7619 33.624C37.7699 31.768 37.2739 29.544 37.2739 26.952V15.144C37.2739 14.44 37.4979 13.864 37.9459 13.416C38.4259 12.936 39.0179 12.696 39.7219 12.696C40.4259 12.696 41.0019 12.936 41.4499 13.416C41.9299 13.864 42.1699 14.44 42.1699 15.144V26.952C42.1699 29.544 42.8579 31.512 44.2339 32.856C45.6419 34.168 47.4979 34.824 49.8019 34.824C51.1459 34.824 52.3619 34.552 53.4499 34.008C54.5699 33.464 55.4339 32.728 56.0419 31.8C56.6819 30.872 57.0019 29.832 57.0019 28.68V15.144C57.0019 14.408 57.2259 13.816 57.6739 13.368C58.1539 12.92 58.7459 12.696 59.4499 12.696ZM83.7207 12.552C86.1847 12.552 88.4247 13.144 90.4407 14.328C92.4887 15.48 94.0887 17.08 95.2407 19.128C96.3927 21.144 96.9687 23.4 96.9687 25.896C96.9687 28.392 96.4247 30.664 95.3367 32.712C94.2807 34.728 92.8087 36.312 90.9207 37.464C89.0647 38.616 86.9847 39.192 84.6807 39.192C82.8247 39.192 81.0967 38.808 79.4967 38.04C77.8967 37.272 76.5367 36.2 75.4167 34.824V47.784C75.4167 48.52 75.1927 49.112 74.7447 49.56C74.2967 50.008 73.7047 50.232 72.9687 50.232C72.2647 50.232 71.6727 50.008 71.1927 49.56C70.7447 49.112 70.5207 48.52 70.5207 47.784V25.896C70.5207 23.4 71.0967 21.144 72.2487 19.128C73.4327 17.08 75.0167 15.48 77.0007 14.328C79.0167 13.144 81.2567 12.552 83.7207 12.552ZM83.7207 34.872C85.3207 34.872 86.7607 34.488 88.0407 33.72C89.3527 32.92 90.3767 31.848 91.1127 30.504C91.8807 29.128 92.2647 27.592 92.2647 25.896C92.2647 24.2 91.8807 22.664 91.1127 21.288C90.3767 19.912 89.3527 18.84 88.0407 18.072C86.7607 17.272 85.3207 16.872 83.7207 16.872C82.1207 16.872 80.6647 17.272 79.3527 18.072C78.0727 18.84 77.0647 19.912 76.3287 21.288C75.5927 22.664 75.2247 24.2 75.2247 25.896C75.2247 27.592 75.5927 29.128 76.3287 30.504C77.0647 31.848 78.0727 32.92 79.3527 33.72C80.6647 34.488 82.1207 34.872 83.7207 34.872ZM127.839 25.464C127.839 26.072 127.631 26.584 127.215 27C126.799 27.384 126.271 27.576 125.631 27.576H107.391C107.743 29.816 108.751 31.624 110.415 33C112.111 34.376 114.175 35.064 116.607 35.064C117.567 35.064 118.559 34.888 119.583 34.536C120.639 34.184 121.503 33.752 122.175 33.24C122.623 32.888 123.151 32.712 123.759 32.712C124.367 32.712 124.847 32.872 125.199 33.192C125.775 33.672 126.063 34.216 126.063 34.824C126.063 35.4 125.807 35.88 125.295 36.264C124.207 37.128 122.847 37.832 121.215 38.376C119.615 38.92 118.079 39.192 116.607 39.192C113.983 39.192 111.631 38.632 109.551 37.512C107.471 36.36 105.839 34.776 104.655 32.76C103.503 30.744 102.927 28.456 102.927 25.896C102.927 23.336 103.471 21.048 104.559 19.032C105.679 16.984 107.215 15.4 109.167 14.28C111.151 13.128 113.391 12.552 115.887 12.552C118.351 12.552 120.479 13.096 122.271 14.184C124.063 15.272 125.439 16.792 126.399 18.744C127.359 20.696 127.839 22.936 127.839 25.464ZM115.887 16.68C113.551 16.68 111.647 17.32 110.175 18.6C108.735 19.88 107.823 21.592 107.439 23.736H123.423C123.135 21.592 122.335 19.88 121.023 18.6C119.711 17.32 117.999 16.68 115.887 16.68ZM146.947 12.456C148.643 12.456 149.971 12.712 150.931 13.224C151.891 13.736 152.371 14.376 152.371 15.144C152.371 15.368 152.355 15.528 152.323 15.624C152.035 16.648 151.395 17.16 150.403 17.16C150.243 17.16 150.003 17.128 149.683 17.064C148.403 16.84 147.363 16.728 146.563 16.728C144.259 16.728 142.403 17.256 140.995 18.312C139.587 19.368 138.883 20.792 138.883 22.584V36.6C138.883 37.368 138.675 37.96 138.259 38.376C137.875 38.792 137.283 39 136.483 39C135.715 39 135.123 38.808 134.707 38.424C134.291 38.008 134.083 37.4 134.083 36.6V15.144C134.083 14.376 134.291 13.784 134.707 13.368C135.123 12.952 135.715 12.744 136.483 12.744C138.083 12.744 138.883 13.544 138.883 15.144V16.056C139.843 14.936 141.027 14.056 142.435 13.416C143.843 12.776 145.347 12.456 146.947 12.456ZM166.979 39.192C164.803 39.192 162.755 38.856 160.835 38.184C158.915 37.512 157.411 36.632 156.323 35.544C155.907 35.128 155.699 34.632 155.699 34.056C155.699 33.288 156.019 32.664 156.659 32.184C157.267 31.736 157.827 31.512 158.339 31.512C158.979 31.512 159.587 31.8 160.163 32.376C160.771 33.048 161.683 33.64 162.899 34.152C164.115 34.632 165.411 34.872 166.787 34.872C168.611 34.872 170.019 34.568 171.011 33.96C172.035 33.352 172.547 32.536 172.547 31.512C172.547 30.52 172.051 29.704 171.059 29.064C170.067 28.392 168.387 27.832 166.019 27.384C159.875 26.2 156.803 23.672 156.803 19.8C156.803 18.232 157.267 16.904 158.195 15.816C159.123 14.728 160.339 13.912 161.843 13.368C163.347 12.824 164.947 12.552 166.643 12.552C168.723 12.552 170.579 12.888 172.211 13.56C173.875 14.232 175.187 15.16 176.147 16.344C176.563 16.856 176.771 17.368 176.771 17.88C176.771 18.424 176.499 18.92 175.955 19.368C175.603 19.624 175.155 19.752 174.611 19.752C173.779 19.752 173.027 19.448 172.355 18.84C171.555 18.104 170.707 17.592 169.811 17.304C168.915 16.984 167.827 16.824 166.547 16.824C165.075 16.824 163.859 17.08 162.899 17.592C161.971 18.072 161.507 18.76 161.507 19.656C161.507 20.296 161.667 20.84 161.987 21.288C162.307 21.704 162.915 22.104 163.811 22.488C164.707 22.84 166.003 23.192 167.699 23.544C171.187 24.248 173.651 25.224 175.091 26.472C176.563 27.72 177.299 29.336 177.299 31.32C177.299 32.792 176.899 34.136 176.099 35.352C175.299 36.536 174.115 37.48 172.547 38.184C171.011 38.856 169.155 39.192 166.979 39.192ZM214.832 39.48C211.408 39.48 208.272 38.632 205.424 36.936C202.608 35.24 200.384 32.92 198.752 29.976C197.12 27.032 196.304 23.784 196.304 20.232C196.304 16.712 197.12 13.496 198.752 10.584C200.384 7.64 202.608 5.32 205.424 3.624C208.272 1.896 211.408 1.032 214.832 1.032C217.264 1.032 219.36 1.352 221.12 1.992C222.912 2.632 224.72 3.688 226.544 5.16C226.928 5.448 227.184 5.752 227.312 6.072C227.44 6.36 227.504 6.712 227.504 7.128C227.504 7.768 227.264 8.296 226.784 8.712C226.336 9.128 225.808 9.336 225.2 9.336C224.592 9.336 224.032 9.128 223.52 8.712C222.208 7.592 220.928 6.792 219.68 6.312C218.432 5.8 216.816 5.544 214.832 5.544C212.336 5.544 210.032 6.2 207.92 7.512C205.84 8.824 204.176 10.616 202.928 12.888C201.712 15.128 201.104 17.576 201.104 20.232C201.104 22.92 201.712 25.384 202.928 27.624C204.176 29.864 205.84 31.64 207.92 32.952C210.032 34.264 212.336 34.92 214.832 34.92C217.904 34.92 220.848 33.864 223.664 31.752C224.208 31.368 224.736 31.176 225.248 31.176C225.856 31.176 226.352 31.4 226.736 31.848C227.152 32.264 227.36 32.824 227.36 33.528C227.36 34.2 227.104 34.792 226.592 35.304C223.136 38.088 219.216 39.48 214.832 39.48ZM244.847 12.552C247.311 12.552 249.535 13.144 251.519 14.328C253.535 15.48 255.119 17.08 256.271 19.128C257.455 21.144 258.047 23.4 258.047 25.896V36.6C258.047 37.304 257.807 37.896 257.327 38.376C256.879 38.824 256.303 39.048 255.599 39.048C254.895 39.048 254.303 38.824 253.823 38.376C253.375 37.896 253.151 37.304 253.151 36.6V34.824C252.031 36.2 250.671 37.272 249.071 38.04C247.471 38.808 245.743 39.192 243.887 39.192C241.583 39.192 239.487 38.616 237.599 37.464C235.743 36.312 234.271 34.728 233.183 32.712C232.127 30.664 231.599 28.392 231.599 25.896C231.599 23.4 232.175 21.144 233.327 19.128C234.479 17.08 236.063 15.48 238.079 14.328C240.127 13.144 242.383 12.552 244.847 12.552ZM244.847 34.872C246.447 34.872 247.887 34.488 249.167 33.72C250.479 32.92 251.503 31.848 252.239 30.504C252.975 29.128 253.343 27.592 253.343 25.896C253.343 24.2 252.975 22.664 252.239 21.288C251.503 19.912 250.479 18.84 249.167 18.072C247.887 17.272 246.447 16.872 244.847 16.872C243.247 16.872 241.791 17.272 240.479 18.072C239.199 18.84 238.175 19.912 237.407 21.288C236.671 22.664 236.303 24.2 236.303 25.896C236.303 27.592 236.671 29.128 237.407 30.504C238.175 31.848 239.199 32.92 240.479 33.72C241.791 34.488 243.247 34.872 244.847 34.872ZM276.661 5.928C274.869 5.928 273.429 6.52 272.341 7.704C271.253 8.888 270.709 10.456 270.709 12.408V13.704H275.605C276.277 13.704 276.821 13.896 277.237 14.28C277.653 14.664 277.861 15.176 277.861 15.816C277.861 16.392 277.653 16.872 277.237 17.256C276.821 17.64 276.277 17.832 275.605 17.832H270.709V36.552C270.709 37.288 270.485 37.88 270.037 38.328C269.589 38.776 268.965 39 268.165 39C267.525 39 266.965 38.776 266.485 38.328C266.037 37.88 265.813 37.288 265.813 36.552V17.832H263.749C263.077 17.832 262.533 17.64 262.117 17.256C261.701 16.872 261.493 16.392 261.493 15.816C261.493 15.176 261.701 14.664 262.117 14.28C262.533 13.896 263.077 13.704 263.749 13.704H265.813V12.888C265.813 10.616 266.261 8.632 267.157 6.936C268.085 5.208 269.365 3.88 270.997 2.952C272.661 1.992 274.549 1.512 276.661 1.512C277.365 1.512 277.941 1.72 278.389 2.136C278.869 2.552 279.109 3.08 279.109 3.72C279.109 4.36 278.869 4.888 278.389 5.304C277.941 5.72 277.365 5.928 276.661 5.928ZM305.589 25.464C305.589 26.072 305.381 26.584 304.965 27C304.549 27.384 304.021 27.576 303.381 27.576H285.141C285.493 29.816 286.501 31.624 288.165 33C289.861 34.376 291.925 35.064 294.357 35.064C295.317 35.064 296.309 34.888 297.333 34.536C298.389 34.184 299.253 33.752 299.925 33.24C300.373 32.888 300.901 32.712 301.509 32.712C302.117 32.712 302.597 32.872 302.949 33.192C303.525 33.672 303.813 34.216 303.813 34.824C303.813 35.4 303.557 35.88 303.045 36.264C301.957 37.128 300.597 37.832 298.965 38.376C297.365 38.92 295.829 39.192 294.357 39.192C291.733 39.192 289.381 38.632 287.301 37.512C285.221 36.36 283.589 34.776 282.405 32.76C281.253 30.744 280.677 28.456 280.677 25.896C280.677 23.336 281.221 21.048 282.309 19.032C283.429 16.984 284.965 15.4 286.917 14.28C288.901 13.128 291.141 12.552 293.637 12.552C296.101 12.552 298.229 13.096 300.021 14.184C301.813 15.272 303.189 16.792 304.149 18.744C305.109 20.696 305.589 22.936 305.589 25.464ZM293.637 16.68C291.301 16.68 289.397 17.32 287.925 18.6C286.485 19.88 285.573 21.592 285.189 23.736H301.173C300.885 21.592 300.085 19.88 298.773 18.6C297.461 17.32 295.749 16.68 293.637 16.68Z" fill="#F56546"/>
<path d="M8.64306 37.368L8.49708 37.6301L8.49848 37.6309L8.64306 37.368ZM3.41106 31.848L3.13413 31.9634L3.13471 31.9648L3.41106 31.848ZM3.69906 29.64L3.91139 29.8523L3.92021 29.8427L3.69906 29.64ZM5.13906 28.872L5.20086 29.1656L5.21765 29.162L5.23393 29.1566L5.13906 28.872ZM7.05906 29.304L6.88469 29.5481L6.89444 29.5551L6.90471 29.5612L7.05906 29.304ZM8.11506 30.504L7.84016 30.6243L7.84267 30.6297L8.11506 30.504ZM23.2351 33.336L23.3992 33.5871L23.4026 33.5849L23.2351 33.336ZM23.6191 24.12L23.4145 24.3395L23.4173 24.342L23.6191 24.12ZM17.1871 21.72L17.2169 21.4215L17.216 21.4214L17.1871 21.72ZM7.82706 18.264L7.63155 18.4916L7.63342 18.4931L7.82706 18.264ZM6.14706 5.688L5.91134 5.50243L5.91081 5.50311L6.14706 5.688ZM10.9471 2.28L11.0539 2.56035L11.0562 2.55944L10.9471 2.28ZM24.7711 2.76L24.9241 2.50198L24.9241 2.50198L24.7711 2.76ZM29.5711 7.56L29.3173 7.72005L29.3174 7.7202L29.5711 7.56ZM29.1871 11.016L29.3483 11.2693L29.3591 11.2618L29.1871 11.016ZM26.5951 11.016L26.4378 11.2715L26.4452 11.276L26.4528 11.2801L26.5951 11.016ZM25.6351 10.008L25.8995 9.86562L25.8923 9.85365L25.6351 10.008ZM22.3711 6.744L22.2166 7.00136L22.2243 7.00564L22.3711 6.744ZM11.5711 7.032L11.7286 7.28734L11.7325 7.28488L11.5711 7.032ZM11.3311 15.288L11.139 15.5185L11.139 15.5185L11.3311 15.288ZM18.5311 17.496L18.5007 17.7945L18.5012 17.7945L18.5311 17.496ZM27.4591 21L27.2554 21.2203L27.2573 21.222L27.4591 21ZM28.7551 34.584L28.9934 34.7662L28.9951 34.764L28.7551 34.584ZM23.7631 38.28L23.8722 38.5594L23.8745 38.5585L23.7631 38.28ZM17.1391 39.18C14.0824 39.18 11.3006 38.4873 8.78763 37.1051L8.49848 37.6309C11.1055 39.0647 13.9878 39.78 17.1391 39.78V39.18ZM8.78903 37.1059C6.30894 35.7246 4.61703 33.9314 3.6874 31.7312L3.13471 31.9648C4.12509 34.3086 5.92117 36.1954 8.49708 37.6301L8.78903 37.1059ZM3.68798 31.7326C3.53487 31.3651 3.47106 31.0873 3.47106 30.888H2.87106C2.87106 31.2007 2.96725 31.5629 3.13414 31.9634L3.68798 31.7326ZM3.47106 30.888C3.47106 30.4908 3.61312 30.1502 3.91119 29.8521L3.48693 29.4279C3.081 29.8338 2.87106 30.3252 2.87106 30.888H3.47106ZM3.92021 29.8427C4.22222 29.5132 4.64205 29.2832 5.20086 29.1656L5.07726 28.5784C4.42007 28.7168 3.8799 28.9988 3.47791 29.4373L3.92021 29.8427ZM5.23393 29.1566C5.28026 29.1412 5.39784 29.124 5.61906 29.124V28.524C5.39228 28.524 5.18986 28.5388 5.04419 28.5874L5.23393 29.1566ZM5.61906 29.124C6.06374 29.124 6.48352 29.2616 6.88469 29.5481L7.23343 29.0599C6.7386 28.7064 6.19838 28.524 5.61906 28.524V29.124ZM6.90471 29.5612C7.33139 29.8173 7.64122 30.1694 7.84021 30.6242L8.38991 30.3838C8.14089 29.8146 7.74673 29.3667 7.21341 29.0468L6.90471 29.5612ZM7.84267 30.6297C8.456 31.9586 9.65363 33.0563 11.3869 33.9393L11.6592 33.4047C10.0005 32.5597 8.92612 31.5454 8.38745 30.3783L7.84267 30.6297ZM11.3869 33.9393C13.1282 34.8264 15.0474 35.268 17.1391 35.268V34.668C15.1347 34.668 13.3099 34.2456 11.6592 33.4047L11.3869 33.9393ZM17.1391 35.268C19.5852 35.268 21.6771 34.7131 23.3992 33.5871L23.0709 33.0849C21.465 34.1349 19.493 34.668 17.1391 34.668V35.268ZM23.4026 33.5849C25.145 32.4121 26.0311 30.8011 26.0311 28.776H25.4311C25.4311 30.5909 24.6531 32.0199 23.0675 33.0871L23.4026 33.5849ZM26.0311 28.776C26.0311 26.8634 25.2883 25.2321 23.8209 23.898L23.4173 24.342C24.7658 25.5679 25.4311 27.0406 25.4311 28.776H26.0311ZM23.8236 23.9005C22.3488 22.5263 20.1309 21.7129 17.2169 21.4215L17.1572 22.0185C20.0032 22.3031 22.0734 23.0897 23.4145 24.3395L23.8236 23.9005ZM17.216 21.4214C13.2884 21.0413 10.2327 19.9041 8.0207 18.0349L7.63342 18.4931C9.96545 20.4639 13.1497 21.6307 17.1582 22.0186L17.216 21.4214ZM8.02256 18.0364C5.81472 16.1396 4.71906 13.7897 4.71906 10.968H4.11906C4.11906 13.9703 5.2954 16.4844 7.63156 18.4916L8.02256 18.0364ZM4.71906 10.968C4.71906 8.98021 5.27663 7.28699 6.38331 5.87289L5.91081 5.50311C4.71349 7.03301 4.11906 8.85979 4.11906 10.968H4.71906ZM6.38278 5.87357C7.52906 4.41748 9.08202 3.31152 11.0539 2.56034L10.8403 1.99965C8.7801 2.78447 7.13305 3.95052 5.91134 5.50243L6.38278 5.87357ZM11.0562 2.55944C13.0646 1.7749 15.3149 1.38 17.8111 1.38V0.779999C15.2512 0.779999 12.9255 1.1851 10.8379 2.00056L11.0562 2.55944ZM17.8111 1.38C20.5227 1.38 22.7867 1.93166 24.618 3.01801L24.9241 2.50198C22.9794 1.34834 20.6034 0.779999 17.8111 0.779999V1.38ZM24.618 3.01801C26.4605 4.111 28.0276 5.67532 29.3173 7.72005L29.8248 7.39995C28.4905 5.28467 26.8577 3.64899 24.9241 2.50198L24.618 3.01801ZM29.3174 7.7202C29.6807 8.29534 29.8471 8.81624 29.8471 9.288H30.4471C30.4471 8.67176 30.2295 8.04066 29.8247 7.3998L29.3174 7.7202ZM29.8471 9.288C29.8471 9.88222 29.5851 10.3712 29.015 10.7702L29.3591 11.2618C30.069 10.7648 30.4471 10.1018 30.4471 9.288H29.8471ZM29.026 10.7629C28.729 10.9519 28.3708 11.052 27.9391 11.052V11.652C28.4673 11.652 28.9411 11.5281 29.3481 11.2691L29.026 10.7629ZM27.9391 11.052C27.5079 11.052 27.1089 10.9519 26.7373 10.7519L26.4528 11.2801C26.9133 11.5281 27.4102 11.652 27.9391 11.652V11.052ZM26.7523 10.7605C26.3797 10.5312 26.0973 10.2336 25.8992 9.86577L25.3709 10.1502C25.6208 10.6144 25.9784 10.9888 26.4378 11.2715L26.7523 10.7605ZM25.8923 9.85365C25.0046 8.3742 23.8805 7.24677 22.5178 6.48235L22.2243 7.00564C23.4856 7.71322 24.5375 8.76179 25.3778 10.1623L25.8923 9.85365ZM22.5254 6.48675C21.1858 5.68301 19.4961 5.292 17.4751 5.292V5.892C19.4221 5.892 20.9963 6.26898 22.2167 7.00125L22.5254 6.48675ZM17.4751 5.292C15.006 5.292 12.9764 5.77907 11.4096 6.77912L11.7325 7.28488C13.1737 6.36492 15.0802 5.892 17.4751 5.892V5.292ZM11.4135 6.77669C9.81947 7.76026 9.01506 9.21773 9.01506 11.112H9.61506C9.61506 9.42227 10.3146 8.15974 11.7286 7.28731L11.4135 6.77669ZM9.01506 11.112C9.01506 12.8701 9.73064 14.3448 11.139 15.5185L11.5231 15.0575C10.2435 13.9912 9.61506 12.6818 9.61506 11.112H9.01506ZM11.139 15.5185C12.5559 16.6992 15.0339 17.4414 18.5007 17.7945L18.5615 17.1975C15.1163 16.8466 12.7943 16.1168 11.5231 15.0575L11.139 15.5185ZM18.5012 17.7945C22.2983 18.1742 25.2053 19.3255 27.2554 21.2203L27.6627 20.7797C25.4888 18.7705 22.4438 17.5858 18.5609 17.1975L18.5012 17.7945ZM27.2573 21.222C29.2995 23.0785 30.3271 25.5382 30.3271 28.632H30.9271C30.9271 25.3898 29.8427 22.7615 27.6609 20.778L27.2573 21.222ZM30.3271 28.632C30.3271 30.8785 29.7199 32.7975 28.5151 34.404L28.9951 34.764C30.2862 33.0425 30.9271 30.9935 30.9271 28.632H30.3271ZM28.5168 34.4018C27.3045 35.987 25.6861 37.1877 23.6516 38.0015L23.8745 38.5585C26 37.7083 27.7096 36.445 28.9934 34.7662L28.5168 34.4018ZM23.6539 38.0006C21.6433 38.786 19.4726 39.18 17.1391 39.18V39.78C19.5415 39.78 21.7868 39.374 23.8722 38.5594L23.6539 38.0006ZM61.2259 38.328L61.4382 38.5403L61.4453 38.5327L61.2259 38.328ZM57.6739 38.328L57.4546 38.5327L57.4617 38.5403L57.4692 38.5473L57.6739 38.328ZM57.0019 36.024H57.3019V35.2997L56.7898 35.8119L57.0019 36.024ZM53.3539 38.424L53.4621 38.7039L53.4675 38.7017L53.3539 38.424ZM42.8899 37.8L42.7463 38.0634L42.7463 38.0634L42.8899 37.8ZM38.7619 33.624L38.4973 33.7654L38.4984 33.7673L38.7619 33.624ZM37.9459 13.416L37.7338 13.2039L37.7338 13.2039L37.9459 13.416ZM41.4499 13.416L41.2306 13.6207L41.2377 13.6283L41.2452 13.6353L41.4499 13.416ZM44.2339 32.856L44.0243 33.0707L44.0294 33.0755L44.2339 32.856ZM53.4499 34.008L53.3189 33.7381L53.3158 33.7397L53.4499 34.008ZM56.0419 31.8L55.7949 31.6296L55.791 31.6356L56.0419 31.8ZM57.6739 13.368L57.4691 13.1486L57.4618 13.1559L57.6739 13.368ZM59.4499 12.996C60.1203 12.996 60.6312 13.1975 61.0138 13.5801L61.4381 13.1559C60.9247 12.6425 60.2516 12.396 59.4499 12.396V12.996ZM61.0138 13.5801C61.3964 13.9627 61.5979 14.4737 61.5979 15.144H62.1979C62.1979 14.3423 61.9515 13.6693 61.4381 13.1559L61.0138 13.5801ZM61.5979 15.144V36.552H62.1979V15.144H61.5979ZM61.5979 36.552C61.5979 37.186 61.3988 37.7031 61.0066 38.1233L61.4453 38.5327C61.9491 37.9929 62.1979 37.326 62.1979 36.552H61.5979ZM61.0138 38.1159C60.6312 38.4985 60.1203 38.7 59.4499 38.7V39.3C60.2516 39.3 60.9247 39.0535 61.4381 38.5401L61.0138 38.1159ZM59.4499 38.7C58.8159 38.7 58.2988 38.5009 57.8786 38.1087L57.4692 38.5473C58.009 39.0511 58.676 39.3 59.4499 39.3V38.7ZM57.8933 38.1233C57.5011 37.7031 57.3019 37.186 57.3019 36.552H56.7019C56.7019 37.326 56.9508 37.9929 57.4546 38.5327L57.8933 38.1233ZM57.3019 36.552V36.024H56.7019V36.552H57.3019ZM56.7898 35.8119C55.7954 36.8063 54.6134 37.5846 53.2403 38.1463L53.4675 38.7017C54.9105 38.1114 56.1605 37.2897 57.2141 36.2361L56.7898 35.8119ZM53.2458 38.1442C51.8743 38.6741 50.4072 38.94 48.8419 38.94V39.54C50.4767 39.54 52.0175 39.2619 53.4621 38.7038L53.2458 38.1442ZM48.8419 38.94C46.6789 38.94 44.7452 38.4702 43.0336 37.5366L42.7463 38.0634C44.5547 39.0498 46.5889 39.54 48.8419 39.54V38.94ZM43.0336 37.5366C41.3261 36.6053 39.9909 35.2559 39.0255 33.4807L38.4984 33.7673C39.5169 35.6401 40.9337 37.0747 42.7463 38.0634L43.0336 37.5366ZM39.0265 33.4826C38.0626 31.6791 37.5739 29.5059 37.5739 26.952H36.9739C36.9739 29.5821 37.4773 31.8569 38.4974 33.7654L39.0265 33.4826ZM37.5739 26.952V15.144H36.9739V26.952H37.5739ZM37.5739 15.144C37.5739 14.5099 37.7728 14.0134 38.1581 13.6281L37.7338 13.2039C37.223 13.7146 36.9739 14.3701 36.9739 15.144H37.5739ZM38.1581 13.6281C38.5795 13.2067 39.0942 12.996 39.7219 12.996V12.396C38.9417 12.396 38.2724 12.6653 37.7338 13.2039L38.1581 13.6281ZM39.7219 12.996C40.3495 12.996 40.8438 13.2062 41.2306 13.6207L41.6693 13.2113C41.1601 12.6658 40.5024 12.396 39.7219 12.396V12.996ZM41.2452 13.6353C41.6597 14.0221 41.8699 14.5164 41.8699 15.144H42.4699C42.4699 14.3636 42.2002 13.7058 41.6546 13.1967L41.2452 13.6353ZM41.8699 15.144V26.952H42.4699V15.144H41.8699ZM41.8699 26.952C41.8699 29.5958 42.5726 31.6527 44.0243 33.0706L44.4436 32.6414C43.1432 31.3713 42.4699 29.4922 42.4699 26.952H41.8699ZM44.0294 33.0755C45.5036 34.4491 47.4379 35.124 49.8019 35.124V34.524C47.558 34.524 45.7803 33.8869 44.4385 32.6365L44.0294 33.0755ZM49.8019 35.124C51.1876 35.124 52.4502 34.8433 53.5841 34.2763L53.3158 33.7397C52.2736 34.2607 51.1043 34.524 49.8019 34.524V35.124ZM53.581 34.2779C54.7436 33.7131 55.6517 32.9431 56.2929 31.9644L55.791 31.6356C55.2162 32.5129 54.3962 33.2149 53.3189 33.7381L53.581 34.2779ZM56.2889 31.9703C56.9642 30.9911 57.3019 29.8914 57.3019 28.68H56.7019C56.7019 29.7726 56.3996 30.7529 55.795 31.6297L56.2889 31.9703ZM57.3019 28.68V15.144H56.7019V28.68H57.3019ZM57.3019 15.144C57.3019 14.4737 57.5035 13.9627 57.8861 13.5801L57.4618 13.1559C56.9484 13.6693 56.7019 14.3423 56.7019 15.144H57.3019ZM57.8786 13.5873C58.2988 13.1951 58.8159 12.996 59.4499 12.996V12.396C58.676 12.396 58.009 12.6449 57.4692 13.1487L57.8786 13.5873ZM90.4407 14.328L90.2887 14.5867L90.2936 14.5895L90.4407 14.328ZM95.2407 19.128L94.9792 19.2751L94.9802 19.2768L95.2407 19.128ZM95.3367 32.712L95.0717 32.5713L95.0709 32.5728L95.3367 32.712ZM90.9207 37.464L90.7644 37.2079L90.7625 37.2091L90.9207 37.464ZM79.4967 38.04L79.3669 38.3105L79.3669 38.3105L79.4967 38.04ZM75.4167 34.824L75.6494 34.6346L75.1167 33.9802V34.824H75.4167ZM71.1927 49.56L70.9804 49.7723L70.988 49.7793L71.1927 49.56ZM72.2487 19.128L71.989 18.9778L71.9882 18.9792L72.2487 19.128ZM77.0007 14.328L77.1513 14.5874L77.1526 14.5867L77.0007 14.328ZM88.0407 33.72L88.195 33.9773L88.1969 33.9761L88.0407 33.72ZM91.1127 30.504L90.8507 30.3578L90.8496 30.3599L91.1127 30.504ZM91.1127 21.288L90.8481 21.4295L90.8507 21.4342L91.1127 21.288ZM88.0407 18.072L87.8816 18.3265L87.8891 18.3309L88.0407 18.072ZM79.3527 18.072L79.507 18.3293L79.5089 18.3281L79.3527 18.072ZM76.3287 30.504L76.0641 30.6455L76.0656 30.6481L76.3287 30.504ZM79.3527 33.72L79.1936 33.9745L79.2011 33.9789L79.3527 33.72ZM83.7207 12.852C86.1343 12.852 88.3213 13.4312 90.2888 14.5867L90.5926 14.0693C88.528 12.8568 86.2351 12.252 83.7207 12.252V12.852ZM90.2936 14.5895C92.2937 15.7145 93.8541 17.275 94.9792 19.2751L95.5022 18.9809C94.3232 16.885 92.6836 15.2455 90.5878 14.0665L90.2936 14.5895ZM94.9802 19.2768C96.1044 21.2441 96.6687 23.4482 96.6687 25.896H97.2687C97.2687 23.3518 96.681 21.0439 95.5012 18.9792L94.9802 19.2768ZM96.6687 25.896C96.6687 28.3468 96.135 30.5699 95.0718 32.5713L95.6016 32.8527C96.7144 30.7581 97.2687 28.4372 97.2687 25.896H96.6687ZM95.0709 32.5728C94.0394 34.5421 92.6046 36.0851 90.7644 37.2079L91.0769 37.7201C93.0128 36.5389 94.522 34.9139 95.6024 32.8512L95.0709 32.5728ZM90.7625 37.2091C88.9566 38.33 86.932 38.892 84.6807 38.892V39.492C87.0374 39.492 89.1727 38.902 91.0789 37.7189L90.7625 37.2091ZM84.6807 38.892C82.8675 38.892 81.1841 38.5172 79.6265 37.7695L79.3669 38.3105C81.0092 39.0988 82.7819 39.492 84.6807 39.492V38.892ZM79.6265 37.7695C78.0663 37.0207 76.7414 35.9763 75.6494 34.6346L75.184 35.0134C76.3319 36.4237 77.727 37.5233 79.3669 38.3105L79.6265 37.7695ZM75.1167 34.824V47.784H75.7167V34.824H75.1167ZM75.1167 47.784C75.1167 48.4543 74.9152 48.9653 74.5326 49.3479L74.9568 49.7721C75.4702 49.2587 75.7167 48.5857 75.7167 47.784H75.1167ZM74.5326 49.3479C74.1499 49.7305 73.639 49.932 72.9687 49.932V50.532C73.7703 50.532 74.4434 50.2855 74.9568 49.7721L74.5326 49.3479ZM72.9687 49.932C72.3347 49.932 71.8176 49.7329 71.3974 49.3407L70.988 49.7793C71.5278 50.2831 72.1947 50.532 72.9687 50.532V49.932ZM71.4048 49.3479C71.0222 48.9653 70.8207 48.4543 70.8207 47.784H70.2207C70.2207 48.5857 70.4672 49.2587 70.9806 49.7721L71.4048 49.3479ZM70.8207 47.784V25.896H70.2207V47.784H70.8207ZM70.8207 25.896C70.8207 23.4482 71.385 21.2441 72.5092 19.2768L71.9882 18.9792C70.8084 21.0439 70.2207 23.3518 70.2207 25.896H70.8207ZM72.5084 19.2781C73.6671 17.274 75.214 15.7123 77.1513 14.5874L76.85 14.0686C74.8193 15.2477 73.1983 16.886 71.989 18.9778L72.5084 19.2781ZM77.1526 14.5867C79.12 13.4312 81.3071 12.852 83.7207 12.852V12.252C81.2063 12.252 78.9133 12.8568 76.8488 14.0693L77.1526 14.5867ZM83.7207 35.172C85.371 35.172 86.865 34.7752 88.195 33.9772L87.8863 33.4628C86.6563 34.2008 85.2704 34.572 83.7207 34.572V35.172ZM88.1969 33.9761C89.5536 33.1489 90.6145 32.0383 91.3758 30.6481L90.8496 30.3599C90.1389 31.6577 89.1518 32.6911 87.8845 33.4639L88.1969 33.9761ZM91.3746 30.6502C92.1695 29.2261 92.5647 27.6392 92.5647 25.896H91.9647C91.9647 27.5448 91.5919 29.0299 90.8507 30.3578L91.3746 30.6502ZM92.5647 25.896C92.5647 24.1528 92.1695 22.5659 91.3746 21.1418L90.8507 21.4342C91.5919 22.7621 91.9647 24.2472 91.9647 25.896H92.5647ZM91.3772 21.1465C90.6158 19.7231 89.5533 18.6098 88.1922 17.8131L87.8891 18.3309C89.152 19.0702 90.1375 20.1009 90.8482 21.4295L91.3772 21.1465ZM88.1997 17.8176C86.8691 16.986 85.3734 16.572 83.7207 16.572V17.172C85.268 17.172 86.6523 17.558 87.8817 18.3264L88.1997 17.8176ZM83.7207 16.572C82.068 16.572 80.5575 16.986 79.1965 17.8159L79.5089 18.3281C80.7718 17.558 82.1734 17.172 83.7207 17.172V16.572ZM79.1983 17.8148C77.8697 18.612 76.8245 19.7249 76.0641 21.1465L76.5932 21.4295C77.3048 20.0991 78.2757 19.068 79.507 18.3292L79.1983 17.8148ZM76.0641 21.1465C75.3029 22.5697 74.9247 24.155 74.9247 25.896H75.5247C75.5247 24.245 75.8825 22.7583 76.5932 21.4295L76.0641 21.1465ZM74.9247 25.896C74.9247 27.637 75.3029 29.2223 76.0641 30.6455L76.5932 30.3625C75.8825 29.0337 75.5247 27.547 75.5247 25.896H74.9247ZM76.0656 30.6481C76.8259 32.0365 77.8694 33.1467 79.1937 33.9744L79.5117 33.4656C78.276 32.6933 77.3035 31.6595 76.5918 30.3599L76.0656 30.6481ZM79.2011 33.9789C80.5616 34.7752 82.0703 35.172 83.7207 35.172V34.572C82.171 34.572 80.7678 34.2008 79.5042 33.4611L79.2011 33.9789ZM127.215 27L127.418 27.2206L127.427 27.2121L127.215 27ZM107.391 27.576V27.276H107.04L107.094 27.6226L107.391 27.576ZM110.415 33L110.223 33.2312L110.226 33.233L110.415 33ZM119.583 34.536L119.488 34.2514L119.485 34.2523L119.583 34.536ZM122.175 33.24L122.357 33.4787L122.36 33.4759L122.175 33.24ZM125.199 33.192L124.997 33.4142L125.007 33.4225L125.199 33.192ZM125.295 36.264L125.115 36.0239L125.108 36.0291L125.295 36.264ZM121.215 38.376L121.12 38.0914L121.118 38.092L121.215 38.376ZM109.551 37.512L109.405 37.7745L109.408 37.7761L109.551 37.512ZM104.655 32.76L104.394 32.9089L104.396 32.9119L104.655 32.76ZM104.559 19.032L104.295 18.8881L104.295 18.8895L104.559 19.032ZM109.167 14.28L109.316 14.5402L109.317 14.5394L109.167 14.28ZM122.271 14.184L122.426 13.9276L122.426 13.9276L122.271 14.184ZM126.399 18.744L126.129 18.8764L126.129 18.8764L126.399 18.744ZM110.175 18.6L109.978 18.3736L109.975 18.3758L110.175 18.6ZM107.439 23.736L107.143 23.6831L107.08 24.036H107.439V23.736ZM123.423 23.736V24.036H123.766L123.72 23.6961L123.423 23.736ZM121.023 18.6L120.813 18.8147L120.813 18.8147L121.023 18.6ZM127.539 25.464C127.539 25.9954 127.36 26.4302 127.003 26.7879L127.427 27.2121C127.901 26.7378 128.139 26.1486 128.139 25.464H127.539ZM127.011 26.7796C126.658 27.1056 126.206 27.276 125.631 27.276V27.876C126.336 27.876 126.939 27.6624 127.418 27.2204L127.011 26.7796ZM125.631 27.276H107.391V27.876H125.631V27.276ZM107.094 27.6226C107.457 29.9309 108.5 31.8061 110.224 33.2312L110.606 32.7688C109.001 31.4419 108.028 29.7011 107.687 27.5294L107.094 27.6226ZM110.226 33.233C111.981 34.6573 114.114 35.364 116.607 35.364V34.764C114.235 34.764 112.24 34.0947 110.604 32.767L110.226 33.233ZM116.607 35.364C117.604 35.364 118.629 35.1811 119.68 34.8197L119.485 34.2523C118.489 34.5949 117.53 34.764 116.607 34.764V35.364ZM119.678 34.8206C120.756 34.4613 121.651 34.0158 122.356 33.4786L121.993 33.0014C121.354 33.4882 120.522 33.9067 119.488 34.2514L119.678 34.8206ZM122.36 33.4759C122.751 33.1683 123.213 33.012 123.759 33.012V32.412C123.088 32.412 122.494 32.6077 121.989 33.0041L122.36 33.4759ZM123.759 33.012C124.314 33.012 124.714 33.157 124.997 33.414L125.4 32.97C124.979 32.587 124.42 32.412 123.759 32.412V33.012ZM125.007 33.4225C125.532 33.86 125.763 34.3255 125.763 34.824H126.363C126.363 34.1065 126.018 33.484 125.391 32.9615L125.007 33.4225ZM125.763 34.824C125.763 35.2941 125.561 35.6894 125.115 36.024L125.475 36.504C126.053 36.0706 126.363 35.5059 126.363 34.824H125.763ZM125.108 36.0291C124.053 36.8668 122.726 37.5559 121.12 38.0914L121.31 38.6606C122.967 38.1081 124.36 37.3892 125.481 36.4989L125.108 36.0291ZM121.118 38.092C119.545 38.6269 118.041 38.892 116.607 38.892V39.492C118.116 39.492 119.685 39.2131 121.311 38.66L121.118 38.092ZM116.607 38.892C114.027 38.892 111.725 38.3418 109.693 37.2479L109.408 37.7761C111.537 38.9222 113.939 39.492 116.607 39.492V38.892ZM109.696 37.2496C107.662 36.1231 106.07 34.5769 104.913 32.6081L104.396 32.9119C105.608 34.9751 107.279 36.5969 109.405 37.7744L109.696 37.2496ZM104.915 32.6112C103.792 30.645 103.227 28.4093 103.227 25.896H102.627C102.627 28.5027 103.214 30.843 104.394 32.9088L104.915 32.6112ZM103.227 25.896C103.227 23.3798 103.761 21.1418 104.823 19.1745L104.295 18.8895C103.18 20.9542 102.627 23.2922 102.627 25.896H103.227ZM104.822 19.1759C105.916 17.1746 107.414 15.6316 109.316 14.5402L109.017 14.0198C107.016 15.1684 105.441 16.7934 104.295 18.8881L104.822 19.1759ZM109.317 14.5394C111.252 13.4163 113.439 12.852 115.887 12.852V12.252C113.343 12.252 111.05 12.8397 109.016 14.0206L109.317 14.5394ZM115.887 12.852C118.306 12.852 120.378 13.3856 122.115 14.4404L122.426 13.9276C120.58 12.8064 118.396 12.252 115.887 12.252V12.852ZM122.115 14.4404C123.856 15.4976 125.194 16.9737 126.129 18.8764L126.668 18.6116C125.684 16.6103 124.269 15.0464 122.426 13.9276L122.115 14.4404ZM126.129 18.8764C127.066 20.781 127.539 22.9745 127.539 25.464H128.139C128.139 22.8975 127.651 20.611 126.668 18.6116L126.129 18.8764ZM115.887 16.38C113.493 16.38 111.515 17.0372 109.978 18.3736L110.372 18.8264C111.779 17.6028 113.608 16.98 115.887 16.98V16.38ZM109.975 18.3758C108.479 19.7063 107.538 21.482 107.143 23.6831L107.734 23.7889C108.108 21.702 108.991 20.0537 110.374 18.8242L109.975 18.3758ZM107.439 24.036H123.423V23.436H107.439V24.036ZM123.72 23.6961C123.425 21.4981 122.6 19.7202 121.232 18.3853L120.813 18.8147C122.069 20.0398 122.845 21.6859 123.125 23.7759L123.72 23.6961ZM121.232 18.3853C119.856 17.0422 118.064 16.38 115.887 16.38V16.98C117.933 16.98 119.566 17.5978 120.813 18.8147L121.232 18.3853ZM150.931 13.224L150.79 13.4887L150.79 13.4887L150.931 13.224ZM152.323 15.624L152.039 15.5291L152.036 15.5359L152.034 15.5428L152.323 15.624ZM149.683 17.064L149.742 16.7697L149.735 16.7685L149.683 17.064ZM140.995 18.312L140.815 18.072L140.815 18.072L140.995 18.312ZM138.259 38.376L138.047 38.1637L138.039 38.1725L138.259 38.376ZM134.707 38.424L134.495 38.6363L134.504 38.6444L134.707 38.424ZM134.707 13.368L134.919 13.5801L134.919 13.5801L134.707 13.368ZM138.883 16.056H138.583V16.867L139.111 16.2512L138.883 16.056ZM142.435 13.416L142.311 13.1429L142.311 13.1429L142.435 13.416ZM146.947 12.756C148.619 12.756 149.891 13.0093 150.79 13.4887L151.072 12.9593C150.051 12.4147 148.667 12.156 146.947 12.156V12.756ZM150.79 13.4887C151.698 13.9731 152.071 14.5307 152.071 15.144H152.671C152.671 14.2213 152.084 13.4989 151.072 12.9593L150.79 13.4887ZM152.071 15.144C152.071 15.3652 152.054 15.4828 152.039 15.5291L152.608 15.7189C152.656 15.5732 152.671 15.3708 152.671 15.144H152.071ZM152.034 15.5428C151.902 16.0123 151.698 16.3351 151.44 16.5417C151.183 16.7468 150.846 16.86 150.403 16.86V17.46C150.952 17.46 151.431 17.3172 151.815 17.0103C152.196 16.7049 152.456 16.2597 152.612 15.7052L152.034 15.5428ZM150.403 16.86C150.274 16.86 150.058 16.8331 149.742 16.7698L149.624 17.3582C149.948 17.4229 150.212 17.46 150.403 17.46V16.86ZM149.735 16.7685C148.447 16.5431 147.388 16.428 146.563 16.428V17.028C147.339 17.028 148.359 17.1369 149.631 17.3595L149.735 16.7685ZM146.563 16.428C144.214 16.428 142.289 16.9665 140.815 18.072L141.175 18.552C142.517 17.5455 144.304 17.028 146.563 17.028V16.428ZM140.815 18.072C139.33 19.1859 138.583 20.6996 138.583 22.584H139.183C139.183 20.8844 139.844 19.5501 141.175 18.552L140.815 18.072ZM138.583 22.584V36.6H139.183V22.584H138.583ZM138.583 36.6C138.583 37.3137 138.391 37.8198 138.047 38.1639L138.471 38.5881C138.959 38.1002 139.183 37.4223 139.183 36.6H138.583ZM138.039 38.1725C137.732 38.5051 137.235 38.7 136.483 38.7V39.3C137.331 39.3 138.019 39.0789 138.48 38.5795L138.039 38.1725ZM136.483 38.7C135.763 38.7 135.254 38.5205 134.911 38.2036L134.504 38.6444C134.992 39.0955 135.667 39.3 136.483 39.3V38.7ZM134.919 38.2119C134.577 37.87 134.383 37.3498 134.383 36.6H133.783C133.783 37.4502 134.005 38.146 134.495 38.6361L134.919 38.2119ZM134.383 36.6V15.144H133.783V36.6H134.383ZM134.383 15.144C134.383 14.4303 134.575 13.9242 134.919 13.5801L134.495 13.1559C134.007 13.6438 133.783 14.3217 133.783 15.144H134.383ZM134.919 13.5801C135.263 13.2361 135.769 13.044 136.483 13.044V12.444C135.661 12.444 134.983 12.6679 134.495 13.1559L134.919 13.5801ZM136.483 13.044C137.237 13.044 137.747 13.2322 138.071 13.5561C138.395 13.88 138.583 14.3902 138.583 15.144H139.183C139.183 14.2978 138.971 13.608 138.495 13.1319C138.019 12.6558 137.329 12.444 136.483 12.444V13.044ZM138.583 15.144V16.056H139.183V15.144H138.583ZM139.111 16.2512C140.041 15.166 141.189 14.3119 142.559 13.6891L142.311 13.1429C140.865 13.8001 139.645 14.706 138.655 15.8608L139.111 16.2512ZM142.559 13.6891C143.927 13.0674 145.388 12.756 146.947 12.756V12.156C145.306 12.156 143.759 12.4845 142.311 13.1429L142.559 13.6891ZM160.835 38.184L160.934 37.9008L160.934 37.9008L160.835 38.184ZM156.323 35.544L156.535 35.3319L156.535 35.3319L156.323 35.544ZM156.659 32.184L156.481 31.9425L156.479 31.944L156.659 32.184ZM160.163 32.376L160.385 32.1747L160.38 32.1692L160.375 32.1639L160.163 32.376ZM162.899 34.152L162.782 34.4286L162.789 34.431L162.899 34.152ZM171.011 33.96L170.858 33.702L170.854 33.7042L171.011 33.96ZM171.059 29.064L170.891 29.3124L170.896 29.3161L171.059 29.064ZM166.019 27.384L165.962 27.6786L165.963 27.6788L166.019 27.384ZM158.195 15.816L158.423 16.0107L158.423 16.0107L158.195 15.816ZM161.843 13.368L161.741 13.0859L161.741 13.0859L161.843 13.368ZM172.211 13.56L172.097 13.8374L172.099 13.8382L172.211 13.56ZM176.147 16.344L175.914 16.5329L175.914 16.5332L176.147 16.344ZM175.955 19.368L176.131 19.6106L176.139 19.6053L176.146 19.5996L175.955 19.368ZM172.355 18.84L172.152 19.0608L172.154 19.0625L172.355 18.84ZM169.811 17.304L169.71 17.5867L169.719 17.5896L169.811 17.304ZM162.899 17.592L163.037 17.8585L163.04 17.8567L162.899 17.592ZM161.987 21.288L161.743 21.4625L161.749 21.4709L161.987 21.288ZM163.811 22.488L163.693 22.7639L163.701 22.7672L163.811 22.488ZM167.699 23.544L167.638 23.8377L167.64 23.8381L167.699 23.544ZM175.091 26.472L174.894 26.6987L174.897 26.7008L175.091 26.472ZM176.099 35.352L176.348 35.52L176.35 35.5169L176.099 35.352ZM172.547 38.184L172.667 38.4589L172.67 38.4577L172.547 38.184ZM166.979 38.892C164.834 38.892 162.82 38.5609 160.934 37.9008L160.736 38.4672C162.69 39.1511 164.772 39.492 166.979 39.492V38.892ZM160.934 37.9008C159.043 37.2391 157.583 36.3795 156.535 35.3319L156.111 35.7561C157.239 36.8845 158.786 37.7849 160.736 38.4672L160.934 37.9008ZM156.535 35.3319C156.174 34.9708 155.999 34.5505 155.999 34.056H155.399C155.399 34.7135 155.64 35.2852 156.111 35.7561L156.535 35.3319ZM155.999 34.056C155.999 33.3869 156.271 32.8501 156.839 32.424L156.479 31.944C155.767 32.4779 155.399 33.1891 155.399 34.056H155.999ZM156.837 32.4255C157.417 31.9983 157.915 31.812 158.339 31.812V31.212C157.739 31.212 157.117 31.4737 156.481 31.9425L156.837 32.4255ZM158.339 31.812C158.879 31.812 159.415 32.0523 159.951 32.5881L160.375 32.1639C159.759 31.5477 159.079 31.212 158.339 31.212V31.812ZM159.94 32.5773C160.588 33.2931 161.543 33.9066 162.783 34.4285L163.015 33.8755C161.823 33.3734 160.954 32.8029 160.385 32.1747L159.94 32.5773ZM162.789 34.431C164.042 34.9256 165.375 35.172 166.787 35.172V34.572C165.447 34.572 164.188 34.3384 163.009 33.873L162.789 34.431ZM166.787 35.172C168.638 35.172 170.109 34.8647 171.168 34.2158L170.854 33.7042C169.929 34.2713 168.584 34.572 166.787 34.572V35.172ZM171.164 34.218C172.262 33.5664 172.847 32.6609 172.847 31.512H172.247C172.247 32.4111 171.808 33.1376 170.858 33.702L171.164 34.218ZM172.847 31.512C172.847 30.3975 172.28 29.495 171.222 28.8119L170.896 29.3161C171.822 29.913 172.247 30.6425 172.247 31.512H172.847ZM171.227 28.8156C170.182 28.1074 168.45 27.5387 166.075 27.0892L165.963 27.6788C168.323 28.1253 169.952 28.6766 170.891 29.3124L171.227 28.8156ZM166.076 27.0894C163.027 26.502 160.779 25.5874 159.298 24.3684C157.829 23.1595 157.103 21.6435 157.103 19.8H156.503C156.503 21.8285 157.313 23.5125 158.916 24.8316C160.507 26.1406 162.866 27.082 165.962 27.6786L166.076 27.0894ZM157.103 19.8C157.103 18.296 157.546 17.039 158.423 16.0107L157.967 15.6213C156.988 16.769 156.503 18.168 156.503 19.8H157.103ZM158.423 16.0107C159.314 14.9668 160.484 14.1786 161.945 13.6501L161.741 13.0859C160.194 13.6454 158.932 14.4892 157.967 15.6213L158.423 16.0107ZM161.945 13.6501C163.414 13.1186 164.98 12.852 166.643 12.852V12.252C164.914 12.252 163.28 12.5294 161.741 13.0859L161.945 13.6501ZM166.643 12.852C168.691 12.852 170.507 13.1827 172.097 13.8374L172.325 13.2826C170.651 12.5933 168.755 12.252 166.643 12.252V12.852ZM172.099 13.8382C173.724 14.4945 174.991 15.3949 175.914 16.5329L176.38 16.1551C175.383 14.9251 174.026 13.9695 172.323 13.2818L172.099 13.8382ZM175.914 16.5332C176.299 17.0074 176.471 17.4547 176.471 17.88H177.071C177.071 17.2813 176.826 16.7046 176.38 16.1548L175.914 16.5332ZM176.471 17.88C176.471 18.3093 176.261 18.7273 175.764 19.1364L176.146 19.5996C176.737 19.1127 177.071 18.5387 177.071 17.88H176.471ZM175.778 19.1254C175.489 19.3357 175.108 19.452 174.611 19.452V20.052C175.202 20.052 175.717 19.9123 176.131 19.6106L175.778 19.1254ZM174.611 19.452C173.86 19.452 173.178 19.1805 172.556 18.6175L172.154 19.0625C172.875 19.7155 173.698 20.052 174.611 20.052V19.452ZM172.558 18.6192C171.731 17.8583 170.846 17.3216 169.903 17.0184L169.719 17.5896C170.568 17.8624 171.379 18.3497 172.152 19.0608L172.558 18.6192ZM169.912 17.0215C168.974 16.6867 167.85 16.524 166.547 16.524V17.124C167.804 17.124 168.855 17.2813 169.71 17.5865L169.912 17.0215ZM166.547 16.524C165.042 16.524 163.774 16.7854 162.758 17.3273L163.04 17.8567C163.944 17.3746 165.108 17.124 166.547 17.124V16.524ZM162.761 17.3255C162.264 17.5828 161.873 17.9051 161.606 18.3003C161.338 18.6978 161.207 19.1532 161.207 19.656H161.807C161.807 19.2628 161.908 18.9262 162.104 18.6357C162.301 18.3429 162.606 18.0812 163.037 17.8585L162.761 17.3255ZM161.207 19.656C161.207 20.348 161.381 20.9556 161.743 21.4624L162.231 21.1136C161.953 20.7244 161.807 20.244 161.807 19.656H161.207ZM161.749 21.4709C162.117 21.9493 162.784 22.3741 163.693 22.7637L163.929 22.2123C163.046 21.8339 162.497 21.4587 162.225 21.1051L161.749 21.4709ZM163.701 22.7672C164.621 23.1285 165.936 23.4846 167.638 23.8377L167.76 23.2503C166.07 22.8994 164.793 22.5515 163.921 22.2088L163.701 22.7672ZM167.64 23.8381C171.114 24.5393 173.515 25.5029 174.894 26.6987L175.287 26.2453C173.787 24.9451 171.26 23.9567 167.758 23.2499L167.64 23.8381ZM174.897 26.7008C176.3 27.89 176.999 29.4213 176.999 31.32H177.599C177.599 29.2507 176.826 27.55 175.285 26.2432L174.897 26.7008ZM176.999 31.32C176.999 32.7341 176.616 34.0207 175.848 35.1871L176.35 35.5169C177.182 34.2513 177.599 32.8499 177.599 31.32H176.999ZM175.85 35.184C175.087 36.3132 173.952 37.2245 172.424 37.9103L172.67 38.4577C174.278 37.7355 175.51 36.7588 176.348 35.52L175.85 35.184ZM172.427 37.9092C170.938 38.5604 169.125 38.892 166.979 38.892V39.492C169.185 39.492 171.084 39.1516 172.667 38.4588L172.427 37.9092ZM205.424 36.936L205.269 37.193L205.27 37.1938L205.424 36.936ZM198.752 29.976L199.014 29.8305L198.752 29.976ZM198.752 10.584L199.014 10.7307L199.014 10.7295L198.752 10.584ZM205.424 3.624L205.579 3.88099L205.58 3.88048L205.424 3.624ZM221.12 1.992L221.017 2.27394L221.019 2.27452L221.12 1.992ZM226.544 5.16L226.355 5.3936L226.364 5.4L226.544 5.16ZM227.312 6.072L227.033 6.18349L227.038 6.19384L227.312 6.072ZM226.784 8.712L226.587 8.48516L226.58 8.49216L226.784 8.712ZM223.52 8.712L223.325 8.94023L223.331 8.94483L223.52 8.712ZM219.68 6.312L219.566 6.58962L219.572 6.592L219.68 6.312ZM207.92 7.512L207.762 7.25716L207.76 7.25826L207.92 7.512ZM202.928 12.888L202.665 12.7436L202.664 12.7449L202.928 12.888ZM202.928 27.624L202.664 27.7671L202.666 27.77L202.928 27.624ZM207.92 32.952L207.76 33.2057L207.762 33.2068L207.92 32.952ZM223.664 31.752L223.491 31.5068L223.484 31.512L223.664 31.752ZM226.736 31.848L226.508 32.0432L226.516 32.052L226.524 32.0601L226.736 31.848ZM226.592 35.304L226.78 35.5376L226.793 35.5275L226.804 35.5161L226.592 35.304ZM214.832 39.18C211.46 39.18 208.377 38.3457 205.577 36.6782L205.27 37.1938C208.166 38.9183 211.356 39.78 214.832 39.78V39.18ZM205.579 36.679C202.809 35.0108 200.621 32.7297 199.014 29.8305L198.49 30.1215C200.146 33.1103 202.407 35.4692 205.269 37.193L205.579 36.679ZM199.014 29.8305C197.408 26.9335 196.604 23.736 196.604 20.232H196.004C196.004 23.832 196.832 27.1305 198.49 30.1215L199.014 29.8305ZM196.604 20.232C196.604 16.7605 197.408 13.5954 199.014 10.7307L198.49 10.4373C196.832 13.3966 196.004 16.6635 196.004 20.232H196.604ZM199.014 10.7295C200.621 7.83026 202.809 5.5492 205.579 3.88099L205.269 3.36701C202.407 5.09079 200.146 7.44974 198.49 10.4385L199.014 10.7295ZM205.58 3.88048C208.379 2.18177 211.461 1.332 214.832 1.332V0.732C211.355 0.732 208.165 1.61023 205.268 3.36752L205.58 3.88048ZM214.832 1.332C217.239 1.332 219.298 1.64886 221.017 2.27394L221.222 1.71006C219.421 1.05514 217.289 0.732 214.832 0.732V1.332ZM221.019 2.27452C222.773 2.90092 224.552 3.93789 226.356 5.39346L226.732 4.92654C224.888 3.43811 223.051 2.36308 221.221 1.70948L221.019 2.27452ZM226.364 5.4C226.72 5.66738 226.932 5.93078 227.033 6.18342L227.59 5.96058C227.436 5.57321 227.135 5.22861 226.724 4.92L226.364 5.4ZM227.038 6.19384C227.144 6.4333 227.204 6.74119 227.204 7.128H227.804C227.804 6.68281 227.736 6.28669 227.586 5.95016L227.038 6.19384ZM227.204 7.128C227.204 7.68175 227.001 8.12677 226.587 8.48529L226.98 8.9387C227.527 8.46523 227.804 7.85424 227.804 7.128H227.204ZM226.58 8.49216C226.187 8.85695 225.732 9.036 225.2 9.036V9.636C225.884 9.636 226.485 9.39905 226.988 8.93184L226.58 8.49216ZM225.2 9.036C224.667 9.036 224.173 8.85567 223.709 8.47916L223.331 8.94483C223.891 9.40033 224.517 9.636 225.2 9.636V9.036ZM223.715 8.48383C222.384 7.34782 221.075 6.52717 219.788 6.03199L219.572 6.592C220.781 7.05683 222.032 7.83618 223.325 8.94017L223.715 8.48383ZM219.794 6.03445C218.497 5.50237 216.838 5.244 214.832 5.244V5.844C216.794 5.844 218.367 6.09763 219.566 6.58955L219.794 6.03445ZM214.832 5.244C212.28 5.244 209.921 5.91552 207.762 7.25717L208.078 7.76683C210.143 6.48448 212.392 5.844 214.832 5.844V5.244ZM207.76 7.25826C205.635 8.59887 203.936 10.4295 202.665 12.7436L203.191 13.0324C204.416 10.8025 206.045 9.04913 208.08 7.76574L207.76 7.25826ZM202.664 12.7449C201.423 15.0307 200.804 17.5282 200.804 20.232H201.404C201.404 17.6238 202 15.2253 203.192 13.0311L202.664 12.7449ZM200.804 20.232C200.804 22.9672 201.423 25.4808 202.664 27.7671L203.192 27.4809C202.001 25.2872 201.404 22.8728 201.404 20.232H200.804ZM202.666 27.77C203.937 30.052 205.636 31.8658 207.76 33.2057L208.08 32.6983C206.044 31.4142 204.415 29.676 203.19 27.478L202.666 27.77ZM207.762 33.2068C209.921 34.5485 212.28 35.22 214.832 35.22V34.62C212.392 34.62 210.143 33.9795 208.078 32.6972L207.762 33.2068ZM214.832 35.22C217.978 35.22 220.984 34.137 223.844 31.992L223.484 31.512C220.712 33.591 217.83 34.62 214.832 34.62V35.22ZM223.837 31.9971C224.345 31.6381 224.814 31.476 225.248 31.476V30.876C224.658 30.876 224.07 31.0979 223.491 31.5069L223.837 31.9971ZM225.248 31.476C225.771 31.476 226.183 31.664 226.508 32.0432L226.964 31.6528C226.521 31.136 225.94 30.876 225.248 30.876V31.476ZM226.524 32.0601C226.873 32.409 227.06 32.8868 227.06 33.528H227.66C227.66 32.7612 227.431 32.119 226.948 31.6359L226.524 32.0601ZM227.06 33.528C227.06 34.1139 226.84 34.6313 226.38 35.0919L226.804 35.5161C227.368 34.9527 227.66 34.2861 227.66 33.528H227.06ZM226.404 35.0704C223 37.812 219.147 39.18 214.832 39.18V39.78C219.285 39.78 223.272 38.364 226.78 35.5376L226.404 35.0704ZM251.519 14.328L251.365 14.5857L251.37 14.5885L251.519 14.328ZM256.271 19.128L256.009 19.2751L256.012 19.2799L256.271 19.128ZM257.327 38.376L257.539 38.5881L257.539 38.5881L257.327 38.376ZM253.823 38.376L253.603 38.5807L253.61 38.5883L253.618 38.5953L253.823 38.376ZM253.151 34.824H253.451V33.9802L252.918 34.6346L253.151 34.824ZM249.071 38.04L249.2 38.3105L249.2 38.3105L249.071 38.04ZM237.599 37.464L237.44 37.7189L237.442 37.7201L237.599 37.464ZM233.183 32.712L232.916 32.8495L232.919 32.8545L233.183 32.712ZM233.327 19.128L233.587 19.2768L233.588 19.2751L233.327 19.128ZM238.079 14.328L238.227 14.5885L238.229 14.5877L238.079 14.328ZM249.167 33.72L249.321 33.9773L249.323 33.9761L249.167 33.72ZM252.239 30.504L252.502 30.6481L252.503 30.6455L252.239 30.504ZM252.239 21.288L251.974 21.4295L251.974 21.4295L252.239 21.288ZM249.167 18.072L249.007 18.3265L249.015 18.3309L249.167 18.072ZM240.479 18.072L240.633 18.3293L240.635 18.3281L240.479 18.072ZM237.407 21.288L237.145 21.1418L237.142 21.1465L237.407 21.288ZM237.407 30.504L237.142 30.6456L237.146 30.6528L237.407 30.504ZM240.479 33.72L240.319 33.9745L240.327 33.9789L240.479 33.72ZM244.847 12.852C247.26 12.852 249.43 13.4312 251.365 14.5856L251.672 14.0704C249.639 12.8568 247.361 12.252 244.847 12.252V12.852ZM251.37 14.5885C253.338 15.7132 254.883 17.2738 256.009 19.2751L256.532 18.9809C255.354 16.8862 253.731 15.2468 251.667 14.0675L251.37 14.5885ZM256.012 19.2799C257.167 21.2467 257.747 23.4497 257.747 25.896H258.347C258.347 23.3503 257.742 21.0413 256.529 18.9761L256.012 19.2799ZM257.747 25.896V36.6H258.347V25.896H257.747ZM257.747 36.6C257.747 37.2277 257.536 37.7424 257.114 38.1639L257.539 38.5881C258.077 38.0496 258.347 37.3803 258.347 36.6H257.747ZM257.114 38.1639C256.729 38.5491 256.233 38.748 255.599 38.748V39.348C256.372 39.348 257.028 39.0989 257.539 38.5881L257.114 38.1639ZM255.599 38.748C254.965 38.748 254.447 38.5489 254.027 38.1567L253.618 38.5953C254.158 39.0991 254.825 39.348 255.599 39.348V38.748ZM254.042 38.1713C253.65 37.7511 253.451 37.234 253.451 36.6H252.851C252.851 37.374 253.099 38.0409 253.603 38.5807L254.042 38.1713ZM253.451 36.6V34.824H252.851V36.6H253.451ZM252.918 34.6346C251.826 35.9763 250.501 37.0207 248.941 37.7695L249.2 38.3105C250.84 37.5233 252.235 36.4237 253.383 35.0134L252.918 34.6346ZM248.941 37.7695C247.383 38.5172 245.7 38.892 243.887 38.892V39.492C245.785 39.492 247.558 39.0988 249.2 38.3105L248.941 37.7695ZM243.887 38.892C241.635 38.892 239.594 38.33 237.755 37.2079L237.442 37.7201C239.379 38.902 241.53 39.492 243.887 39.492V38.892ZM237.757 37.2091C235.947 36.0861 234.511 34.5418 233.447 32.5695L232.919 32.8545C234.03 34.9142 235.538 36.5379 237.44 37.7189L237.757 37.2091ZM233.449 32.5745C232.417 30.5725 231.899 28.3482 231.899 25.896H231.299C231.299 28.4358 231.836 30.7555 232.916 32.8495L233.449 32.5745ZM231.899 25.896C231.899 23.4482 232.463 21.2441 233.587 19.2768L233.066 18.9792C231.886 21.0439 231.299 23.3518 231.299 25.896H231.899ZM233.588 19.2751C234.714 17.2738 236.259 15.7132 238.227 14.5885L237.93 14.0675C235.866 15.2468 234.243 16.8862 233.065 18.9809L233.588 19.2751ZM238.229 14.5877C240.229 13.4312 242.433 12.852 244.847 12.852V12.252C242.332 12.252 240.024 12.8568 237.928 14.0683L238.229 14.5877ZM244.847 35.172C246.497 35.172 247.991 34.7752 249.321 33.9772L249.012 33.4628C247.782 34.2008 246.396 34.572 244.847 34.572V35.172ZM249.323 33.9761C250.679 33.1489 251.74 32.0383 252.502 30.6481L251.975 30.3599C251.265 31.6577 250.278 32.6911 249.01 33.4639L249.323 33.9761ZM252.503 30.6455C253.264 29.2223 253.643 27.637 253.643 25.896H253.043C253.043 27.547 252.685 29.0337 251.974 30.3625L252.503 30.6455ZM253.643 25.896C253.643 24.155 253.264 22.5697 252.503 21.1465L251.974 21.4295C252.685 22.7583 253.043 24.245 253.043 25.896H253.643ZM252.503 21.1465C251.742 19.7231 250.679 18.6098 249.318 17.8131L249.015 18.3309C250.278 19.0702 251.263 20.1009 251.974 21.4295L252.503 21.1465ZM249.326 17.8176C247.995 16.986 246.499 16.572 244.847 16.572V17.172C246.394 17.172 247.778 17.558 249.008 18.3264L249.326 17.8176ZM244.847 16.572C243.194 16.572 241.683 16.986 240.322 17.8159L240.635 18.3281C241.898 17.558 243.299 17.172 244.847 17.172V16.572ZM240.324 17.8148C238.997 18.6112 237.937 19.7227 237.145 21.1418L237.669 21.4342C238.412 20.1013 239.4 19.0688 240.633 18.3292L240.324 17.8148ZM237.142 21.1465C236.381 22.5697 236.003 24.155 236.003 25.896H236.603C236.603 24.245 236.96 22.7583 237.671 21.4295L237.142 21.1465ZM236.003 25.896C236.003 27.637 236.381 29.2223 237.142 30.6455L237.671 30.3625C236.96 29.0337 236.603 27.547 236.603 25.896H236.003ZM237.146 30.6528C237.938 32.0387 238.996 33.1474 240.32 33.9744L240.638 33.4656C239.401 32.6926 238.411 31.6573 237.667 30.3552L237.146 30.6528ZM240.327 33.9789C241.687 34.7752 243.196 35.172 244.847 35.172V34.572C243.297 34.572 241.894 34.2008 240.63 33.4611L240.327 33.9789ZM272.341 7.704L272.562 7.90699L272.562 7.90699L272.341 7.704ZM270.709 13.704H270.409V14.004H270.709V13.704ZM277.237 14.28L277.441 14.0596L277.441 14.0596L277.237 14.28ZM277.237 17.256L277.441 17.4764L277.441 17.4764L277.237 17.256ZM270.709 17.832V17.532H270.409V17.832H270.709ZM270.037 38.328L270.249 38.5401L270.037 38.328ZM266.485 38.328L266.273 38.5403L266.28 38.5473L266.485 38.328ZM265.813 17.832H266.113V17.532H265.813V17.832ZM262.117 17.256L261.914 17.4764L261.914 17.4764L262.117 17.256ZM262.117 14.28L261.914 14.0596L261.914 14.0596L262.117 14.28ZM265.813 13.704V14.004H266.113V13.704H265.813ZM267.157 6.936L266.893 6.79406L266.892 6.79586L267.157 6.936ZM270.997 2.952L271.145 3.21279L271.147 3.21185L270.997 2.952ZM278.389 2.136L278.185 2.35597L278.193 2.36271L278.389 2.136ZM278.389 5.304L278.193 5.07716L278.185 5.08416L278.389 5.304ZM276.661 5.628C274.796 5.628 273.272 6.24775 272.12 7.50101L272.562 7.90699C273.586 6.79225 274.942 6.228 276.661 6.228V5.628ZM272.12 7.50101C270.971 8.75169 270.409 10.3978 270.409 12.408H271.009C271.009 10.5142 271.535 9.02431 272.562 7.90699L272.12 7.50101ZM270.409 12.408V13.704H271.009V12.408H270.409ZM270.709 14.004H275.605V13.404H270.709V14.004ZM275.605 14.004C276.217 14.004 276.683 14.1769 277.034 14.5004L277.441 14.0596C276.959 13.6151 276.338 13.404 275.605 13.404V14.004ZM277.034 14.5004C277.38 14.82 277.561 15.2477 277.561 15.816H278.161C278.161 15.1043 277.927 14.508 277.441 14.0596L277.034 14.5004ZM277.561 15.816C277.561 16.3099 277.387 16.7095 277.034 17.0356L277.441 17.4764C277.919 17.0345 278.161 16.4741 278.161 15.816H277.561ZM277.034 17.0356C276.683 17.3591 276.217 17.532 275.605 17.532V18.132C276.338 18.132 276.959 17.9209 277.441 17.4764L277.034 17.0356ZM275.605 17.532H270.709V18.132H275.605V17.532ZM270.409 17.832V36.552H271.009V17.832H270.409ZM270.409 36.552C270.409 37.2223 270.208 37.7333 269.825 38.1159L270.249 38.5401C270.763 38.0267 271.009 37.3537 271.009 36.552H270.409ZM269.825 38.1159C269.447 38.4938 268.908 38.7 268.165 38.7V39.3C269.023 39.3 269.731 39.0582 270.249 38.5401L269.825 38.1159ZM268.165 38.7C267.603 38.7 267.116 38.5063 266.69 38.1087L266.28 38.5473C266.814 39.0457 267.447 39.3 268.165 39.3V38.7ZM266.697 38.1159C266.315 37.7333 266.113 37.2223 266.113 36.552H265.513C265.513 37.3537 265.76 38.0267 266.273 38.5401L266.697 38.1159ZM266.113 36.552V17.832H265.513V36.552H266.113ZM265.813 17.532H263.749V18.132H265.813V17.532ZM263.749 17.532C263.138 17.532 262.671 17.3591 262.321 17.0356L261.914 17.4764C262.395 17.9209 263.017 18.132 263.749 18.132V17.532ZM262.321 17.0356C261.967 16.7095 261.793 16.3099 261.793 15.816H261.193C261.193 16.4741 261.435 17.0345 261.914 17.4764L262.321 17.0356ZM261.793 15.816C261.793 15.2477 261.975 14.82 262.321 14.5004L261.914 14.0596C261.428 14.508 261.193 15.1043 261.193 15.816H261.793ZM262.321 14.5004C262.671 14.1769 263.138 14.004 263.749 14.004V13.404C263.017 13.404 262.395 13.6151 261.914 14.0596L262.321 14.5004ZM263.749 14.004H265.813V13.404H263.749V14.004ZM266.113 13.704V12.888H265.513V13.704H266.113ZM266.113 12.888C266.113 10.6559 266.553 8.72164 267.422 7.07613L266.892 6.79586C265.969 8.54236 265.513 10.5761 265.513 12.888H266.113ZM267.421 7.07794C268.324 5.39734 269.565 4.11159 271.145 3.21278L270.849 2.69121C269.166 3.6484 267.846 5.01865 266.893 6.79406L267.421 7.07794ZM271.147 3.21185C272.761 2.28071 274.596 1.812 276.661 1.812V1.212C274.502 1.212 272.561 1.70328 270.847 2.69214L271.147 3.21185ZM276.661 1.812C277.302 1.812 277.801 1.99916 278.185 2.35584L278.593 1.91616C278.081 1.44084 277.429 1.212 276.661 1.212V1.812ZM278.193 2.36271C278.606 2.72123 278.809 3.16624 278.809 3.72H279.409C279.409 2.99375 279.132 2.38277 278.586 1.90929L278.193 2.36271ZM278.809 3.72C278.809 4.27375 278.606 4.71877 278.193 5.07729L278.586 5.53071C279.132 5.05723 279.409 4.44624 279.409 3.72H278.809ZM278.185 5.08416C277.801 5.44084 277.302 5.628 276.661 5.628V6.228C277.429 6.228 278.081 5.99916 278.593 5.52384L278.185 5.08416ZM304.965 27L305.168 27.2206L305.177 27.2121L304.965 27ZM285.141 27.576V27.276H284.79L284.844 27.6226L285.141 27.576ZM288.165 33L287.973 33.2312L287.976 33.233L288.165 33ZM297.333 34.536L297.238 34.2514L297.235 34.2523L297.333 34.536ZM299.925 33.24L300.107 33.4787L300.11 33.4759L299.925 33.24ZM302.949 33.192L302.747 33.4142L302.757 33.4225L302.949 33.192ZM303.045 36.264L302.865 36.0239L302.858 36.0291L303.045 36.264ZM298.965 38.376L298.87 38.0914L298.868 38.092L298.965 38.376ZM287.301 37.512L287.155 37.7745L287.158 37.7761L287.301 37.512ZM282.405 32.76L282.144 32.9089L282.146 32.9119L282.405 32.76ZM282.309 19.032L282.045 18.8881L282.045 18.8895L282.309 19.032ZM286.917 14.28L287.066 14.5402L287.067 14.5394L286.917 14.28ZM300.021 14.184L300.176 13.9276L300.176 13.9276L300.021 14.184ZM304.149 18.744L303.879 18.8764L303.879 18.8764L304.149 18.744ZM287.925 18.6L287.728 18.3736L287.725 18.3758L287.925 18.6ZM285.189 23.736L284.893 23.6831L284.83 24.036H285.189V23.736ZM301.173 23.736V24.036H301.516L301.47 23.6961L301.173 23.736ZM298.773 18.6L298.563 18.8147L298.563 18.8147L298.773 18.6ZM305.289 25.464C305.289 25.9954 305.11 26.4302 304.753 26.7879L305.177 27.2121C305.651 26.7378 305.889 26.1486 305.889 25.464H305.289ZM304.761 26.7796C304.408 27.1056 303.956 27.276 303.381 27.276V27.876C304.086 27.876 304.689 27.6624 305.168 27.2204L304.761 26.7796ZM303.381 27.276H285.141V27.876H303.381V27.276ZM284.844 27.6226C285.207 29.9309 286.25 31.8061 287.974 33.2312L288.356 32.7688C286.751 31.4419 285.778 29.7011 285.437 27.5294L284.844 27.6226ZM287.976 33.233C289.731 34.6573 291.864 35.364 294.357 35.364V34.764C291.985 34.764 289.99 34.0947 288.354 32.767L287.976 33.233ZM294.357 35.364C295.354 35.364 296.379 35.1811 297.43 34.8197L297.235 34.2523C296.239 34.5949 295.28 34.764 294.357 34.764V35.364ZM297.428 34.8206C298.506 34.4613 299.401 34.0158 300.106 33.4786L299.743 33.0014C299.104 33.4882 298.272 33.9067 297.238 34.2514L297.428 34.8206ZM300.11 33.4759C300.501 33.1683 300.963 33.012 301.509 33.012V32.412C300.838 32.412 300.244 32.6077 299.739 33.0041L300.11 33.4759ZM301.509 33.012C302.064 33.012 302.464 33.157 302.747 33.414L303.15 32.97C302.729 32.587 302.17 32.412 301.509 32.412V33.012ZM302.757 33.4225C303.282 33.86 303.513 34.3255 303.513 34.824H304.113C304.113 34.1065 303.768 33.484 303.141 32.9615L302.757 33.4225ZM303.513 34.824C303.513 35.2941 303.311 35.6894 302.865 36.024L303.225 36.504C303.803 36.0706 304.113 35.5059 304.113 34.824H303.513ZM302.858 36.0291C301.803 36.8668 300.476 37.5559 298.87 38.0914L299.06 38.6606C300.717 38.1081 302.11 37.3892 303.231 36.4989L302.858 36.0291ZM298.868 38.092C297.295 38.6269 295.791 38.892 294.357 38.892V39.492C295.866 39.492 297.435 39.2131 299.061 38.66L298.868 38.092ZM294.357 38.892C291.777 38.892 289.475 38.3418 287.443 37.2479L287.158 37.7761C289.287 38.9222 291.689 39.492 294.357 39.492V38.892ZM287.446 37.2496C285.412 36.1231 283.82 34.5769 282.663 32.6081L282.146 32.9119C283.358 34.9751 285.029 36.5969 287.155 37.7744L287.446 37.2496ZM282.665 32.6112C281.542 30.645 280.977 28.4093 280.977 25.896H280.377C280.377 28.5027 280.964 30.843 282.144 32.9088L282.665 32.6112ZM280.977 25.896C280.977 23.3798 281.511 21.1418 282.573 19.1745L282.045 18.8895C280.93 20.9542 280.377 23.2922 280.377 25.896H280.977ZM282.572 19.1759C283.666 17.1746 285.164 15.6316 287.066 14.5402L286.767 14.0198C284.766 15.1684 283.191 16.7934 282.045 18.8881L282.572 19.1759ZM287.067 14.5394C289.002 13.4163 291.189 12.852 293.637 12.852V12.252C291.093 12.252 288.8 12.8397 286.766 14.0206L287.067 14.5394ZM293.637 12.852C296.056 12.852 298.128 13.3856 299.865 14.4404L300.176 13.9276C298.33 12.8064 296.146 12.252 293.637 12.252V12.852ZM299.865 14.4404C301.606 15.4976 302.944 16.9737 303.879 18.8764L304.418 18.6116C303.434 16.6103 302.019 15.0464 300.176 13.9276L299.865 14.4404ZM303.879 18.8764C304.816 20.781 305.289 22.9745 305.289 25.464H305.889C305.889 22.8975 305.401 20.611 304.418 18.6116L303.879 18.8764ZM293.637 16.38C291.243 16.38 289.265 17.0372 287.728 18.3736L288.122 18.8264C289.529 17.6028 291.358 16.98 293.637 16.98V16.38ZM287.725 18.3758C286.229 19.7063 285.288 21.482 284.893 23.6831L285.484 23.7889C285.858 21.702 286.741 20.0537 288.124 18.8242L287.725 18.3758ZM285.189 24.036H301.173V23.436H285.189V24.036ZM301.47 23.6961C301.175 21.4981 300.35 19.7202 298.982 18.3853L298.563 18.8147C299.819 20.0398 300.595 21.6859 300.875 23.7759L301.47 23.6961ZM298.982 18.3853C297.606 17.0422 295.814 16.38 293.637 16.38V16.98C295.683 16.98 297.316 17.5978 298.563 18.8147L298.982 18.3853Z" fill="#5C5C5C"/>
</svg>
