<svg fill="rgba(255, 255, 255, 0)" xmlns="http://www.w3.org/2000/svg">
<circle r="106.762" transform="matrix(-1 0 0 1 533.11 277.395)" stroke="rgba(160, 220, 175, .6)" stroke-width="12"/>
<path d="M524.1 270.029C520.37 269.287 516.895 272.306 516.895 276.119V289.014C516.895 291.624 518.709 293.722 521.162 294.643C525.812 296.383 529.158 300.886 529.158 306.157C529.158 312.937 523.666 318.438 516.895 318.438C510.125 318.438 504.632 312.937 504.632 306.157V242.703C504.632 239.3 501.898 236.562 498.5 236.562H486.237C482.839 236.562 480.105 239.3 480.105 242.703V306.157C480.105 329.057 501.08 347.146 524.815 342.157C538.714 339.24 549.93 327.982 552.842 314.089C557.288 292.878 543.389 273.867 524.1 270.029ZM533.502 211.999C531.151 211.871 529.158 213.739 529.158 216.093V224.178C529.158 226.353 530.845 228.144 532.991 228.247C566.051 230.038 592.622 256.903 594.538 290.038C594.666 292.187 596.454 293.876 598.6 293.876H606.801C609.152 293.876 611.017 291.88 610.889 289.526C608.717 247.769 575.197 214.2 533.502 211.999ZM533.578 236.562C531.202 236.383 529.158 238.276 529.158 240.682V248.895C529.158 251.044 530.819 252.809 532.94 252.963C552.561 254.575 568.197 270.413 569.96 290.114C570.164 292.238 571.902 293.876 574.022 293.876H582.249C584.625 293.876 586.541 291.829 586.362 289.449C584.216 261.279 561.708 238.737 533.578 236.562Z" fill="rgba(92, 92, 92, .6)"/>
</svg>
