<svg fill="rgba(255, 255, 255, 0)" xmlns="http://www.w3.org/2000/svg">
<path d="M6.87241 277.395C6.87241 336.358 54.6715 384.157 113.635 384.157C172.598 384.157 220.397 336.358 220.397 277.395C220.397 218.432 172.598 170.633 113.635 170.633C54.6715 170.633 6.87241 218.432 6.87241 277.395Z" stroke="rgba(195, 75, 215, .6)" stroke-width="12"/>
<path d="M153.101 267.472C155.325 267.472 157.483 267.668 159.642 267.995V221.691C159.642 214.496 153.755 208.61 146.561 208.61L68.0786 208.61C60.8844 208.61 54.9982 214.496 54.9982 221.691L54.9982 326.334C54.9982 333.528 60.8844 339.414 68.0786 339.414H115.561C110.77 332.554 107.952 324.512 107.414 316.162C106.876 307.812 108.639 299.474 112.51 292.056C116.381 284.638 122.212 278.424 129.369 274.089C136.526 269.755 144.734 267.466 153.101 267.472ZM81.159 267.472L81.159 221.691H113.86V267.472L97.5096 257.662L81.159 267.472Z" fill="rgba(92, 92, 92, .6)"/>
<path d="M153.101 280.552C135.05 280.552 120.4 295.203 120.4 313.254C120.4 331.304 135.05 345.955 153.101 345.955C171.152 345.955 185.802 331.304 185.802 313.254C185.802 295.203 171.152 280.552 153.101 280.552ZM144.926 329.604V296.903L171.087 313.254L144.926 329.604Z" fill="rgba(100, 80, 75, .6)"/>
</svg>
