<svg fill="rgba(255, 255, 255, 0)" xmlns="http://www.w3.org/2000/svg">
<path d="M84.6783 533.365C84.6783 592.328 132.477 640.128 191.441 640.128C250.404 640.128 298.203 592.328 298.203 533.365C298.203 474.402 250.404 426.603 191.441 426.603C132.477 426.603 84.6783 474.402 84.6783 533.365Z" stroke="#4065F7" stroke-width="12"/>
<path d="M246.433 499.809L206.663 525.785V503.861C206.666 503.144 206.464 502.442 206.081 501.835C205.698 501.228 205.15 500.742 204.501 500.432C203.851 500.123 203.126 500.003 202.411 500.087C201.696 500.172 201.019 500.456 200.46 500.907L176.484 520.863H160.995V483.224L138.16 478.112V520.863H130.549V585.235C130.549 586.239 130.95 587.202 131.664 587.913C132.377 588.623 133.345 589.022 134.355 589.022H248.526C249.536 589.022 250.504 588.623 251.218 587.913C251.931 587.202 252.332 586.239 252.332 585.235V502.952C252.329 502.27 252.14 501.602 251.786 501.018C251.433 500.434 250.927 499.955 250.323 499.633C249.719 499.311 249.039 499.158 248.354 499.189C247.669 499.22 247.006 499.434 246.433 499.809ZM176.218 577.662H145.772V570.089H176.218V577.662ZM176.218 562.515H145.772V554.942H176.218V562.515ZM176.218 547.369H145.772V539.796H176.218V547.369ZM206.663 577.662H199.052V566.302H206.663V577.662ZM206.663 554.942H199.052V543.582H206.663V554.942ZM221.886 577.662H214.275V566.302H221.886V577.662ZM221.886 554.942H214.275V543.582H221.886V554.942ZM237.109 577.662H229.498V566.302H237.109V577.662ZM237.109 554.942H229.498V543.582H237.109V554.942Z" fill="#5C5C5C"/>
</svg>
