<?xml version="1.0" encoding="utf-8"?>
<!DOCTYPE svg PUBLIC "-//W3C//DTD SVG 20010904//EN" "http://www.w3.org/TR/2001/REC-SVG-20010904/DTD/svg10.dtd">
<svg version="1.0" xmlns="http://www.w3.org/2000/svg" width="600px" height="600px" viewBox="0 0 600 600" preserveAspectRatio="xMidYMid meet">
 <g fill="#0f100f">
  <path d="M18 522 c0 -60 0 -60 60 -60 60 0 60 0 60 60 0 60 0 60 -60 60 -60 0 -60 0 -60 -60z m102 1 c0 -43 0 -43 -43 -43 -43 0 -43 0 -43 43 0 43 0 43 43 43 43 0 43 0 43 -43z"/>
  <path d="M52 523 c0 -25 0 -25 25 -25 25 0 25 0 25 25 0 25 0 25 -25 25 -25 0 -25 0 -25 -25z"/>
  <path d="M188 574 c0 -8 0 -8 -8 -8 -8 0 -8 0 -8 -9 0 -9 0 -9 -9 -9 -9 0 -9 0 -9 -25 0 -25 0 -25 9 -25 9 0 9 0 9 -18 0 -18 0 -18 -9 -18 -9 0 -9 0 -9 -8 0 -8 0 -8 9 -8 9 0 9 0 9 -9 0 -9 0 -9 -9 -9 -9 0 -9 0 -9 -8 0 -8 0 -8 -17 -8 -17 0 -17 0 -17 8 0 8 0 8 9 8 9 0 9 0 9 9 0 9 0 9 -9 9 -9 0 -9 0 -9 -9 0 -9 0 -9 -26 -9 -26 0 -26 0 -26 9 0 9 0 9 -8 9 -8 0 -8 0 -8 -9 0 -9 0 -9 8 -9 8 0 8 0 8 -8 0 -8 0 -8 -8 -8 -8 0 -8 0 -8 -17 0 -17 0 -17 8 -17 8 0 8 0 8 -9 0 -9 0 -9 17 -9 17 0 17 0 17 -9 0 -9 0 -9 9 -9 9 0 9 0 9 -8 0 -8 0 -8 -9 -8 -9 0 -9 0 -9 -9 0 -9 0 -9 9 -9 9 0 9 0 9 -8 0 -8 0 -8 9 -8 9 0 9 0 9 -9 0 -9 0 -9 -18 -9 -18 0 -18 0 -18 -8 0 -8 0 -8 -8 -8 -8 0 -8 0 -8 -26 0 -26 0 -26 8 -26 8 0 8 0 8 -17 0 -17 0 -17 -25 -17 -25 0 -25 0 -25 -9 0 -9 0 -9 25 -9 25 0 25 0 25 9 0 9 0 9 9 9 9 0 9 0 9 -9 0 -9 0 -9 9 -9 9 0 9 0 9 9 0 9 0 9 -9 9 -9 0 -9 0 -9 8 0 8 0 8 9 8 9 0 9 0 9 9 0 9 0 9 17 9 17 0 17 0 17 -17 0 -17 0 -17 -9 -17 -9 0 -9 0 -9 -35 0 -35 0 -35 9 -35 9 0 9 0 9 -17 0 -17 0 -17 -9 -17 -9 0 -9 0 -9 -25 0 -25 0 -25 9 -25 9 0 9 0 9 25 0 25 0 25 8 25 8 0 8 0 8 17 0 17 0 17 9 17 9 0 9 0 9 18 0 18 0 18 8 18 8 0 8 0 8 -18 0 -18 0 -18 9 -18 9 0 9 0 9 -8 0 -8 0 -8 -9 -8 -9 0 -9 0 -9 -9 0 -9 0 -9 9 -9 9 0 9 0 9 -8 0 -8 0 -8 -26 -8 -26 0 -26 0 -26 -17 0 -17 0 -17 9 -17 9 0 9 0 9 8 0 8 0 8 17 8 17 0 17 0 17 9 0 9 0 9 9 9 9 0 9 0 9 -9 0 -9 0 -9 8 -9 8 0 8 0 8 -8 0 -8 0 -8 9 -8 9 0 9 0 9 8 0 8 0 8 -9 8 -9 0 -9 0 -9 9 0 9 0 9 17 9 17 0 17 0 17 -17 0 -17 0 -17 17 -17 17 0 17 0 17 25 0 25 0 25 -8 25 -8 0 -8 0 -8 9 0 9 0 9 17 9 17 0 17 0 17 -9 0 -9 0 -9 9 -9 9 0 9 0 9 -17 0 -17 0 -17 -9 -17 -9 0 -9 0 -9 -8 0 -8 0 -8 17 -8 17 0 17 0 17 8 0 8 0 8 9 8 9 0 9 0 9 -8 0 -8 0 -8 17 -8 17 0 17 0 17 34 0 34 0 34 -17 34 -17 0 -17 0 -17 -9 0 -9 0 -9 -17 -9 -17 0 -17 0 -17 17 0 17 0 17 8 17 8 0 8 0 8 9 0 9 0 9 9 9 9 0 9 0 9 -9 0 -9 0 -9 17 -9 17 0 17 0 17 18 0 18 0 18 -9 18 -9 0 -9 0 -9 17 0 17 0 17 9 17 9 0 9 0 9 -9 0 -9 0 -9 26 -9 26 0 26 0 26 9 0 9 0 9 -9 9 -9 0 -9 0 -9 8 0 8 0 8 9 8 9 0 9 0 9 9 0 9 0 9 -9 9 -9 0 -9 0 -9 -9 0 -9 0 -9 -9 -9 -9 0 -9 0 -9 17 0 17 0 17 -8 17 -8 0 -8 0 -8 9 0 9 0 9 -9 9 -9 0 -9 0 -9 9 0 9 0 9 -8 9 -8 0 -8 0 -8 17 0 17 0 17 8 17 8 0 8 0 8 8 0 8 0 8 9 8 9 0 9 0 9 -25 0 -25 0 -25 8 -25 8 0 8 0 8 -9 0 -9 0 -9 9 -9 9 0 9 0 9 -9 0 -9 0 -9 9 -9 9 0 9 0 9 9 0 9 0 9 -9 9 -9 0 -9 0 -9 9 0 9 0 9 9 9 9 0 9 0 9 8 0 8 0 8 -9 8 -9 0 -9 0 -9 9 0 9 0 9 17 9 17 0 17 0 17 -17 0 -17 0 -17 26 -17 26 0 26 0 26 -9 0 -9 0 -9 -9 -9 -9 0 -9 0 -9 -9 0 -9 0 -9 -8 -9 -8 0 -8 0 -8 -8 0 -8 0 -8 -9 -8 -9 0 -9 0 -9 -9 0 -9 0 -9 26 -9 26 0 26 0 26 -8 0 -8 0 -8 -17 -8 -17 0 -17 0 -17 -9 0 -9 0 -9 25 -9 25 0 25 0 25 17 0 17 0 17 -8 17 -8 0 -8 0 -8 9 0 9 0 9 -9 9 -9 0 -9 0 -9 8 0 8 0 8 17 8 17 0 17 0 17 18 0 18 0 18 -8 18 -8 0 -8 0 -8 8 0 8 0 8 8 8 8 0 8 0 8 26 0 26 0 26 -8 26 -8 0 -8 0 -8 8 0 8 0 8 8 8 8 0 8 0 8 9 0 9 0 9 -8 9 -8 0 -8 0 -8 -9 0 -9 0 -9 -9 -9 -9 0 -9 0 -9 9 0 9 0 9 -8 9 -8 0 -8 0 -8 9 0 9 0 9 -26 9 -26 0 -26 0 -26 8 0 8 0 8 43 8 43 0 43 0 43 -8 0 -8 0 -8 8 -8 8 0 8 0 8 8 0 8 0 8 -8 8 -8 0 -8 0 -8 9 0 9 0 9 -9 9 -9 0 -9 0 -9 8 0 8 0 8 9 8 9 0 9 0 9 9 0 9 0 9 8 9 8 0 8 0 8 8 0 8 0 8 -8 8 -8 0 -8 0 -8 9 0 9 0 9 8 9 8 0 8 0 8 17 0 17 0 17 -8 17 -8 0 -8 0 -8 9 0 9 0 9 -9 9 -9 0 -9 0 -9 -17 0 -17 0 -17 -8 -17 -8 0 -8 0 -8 8 0 8 0 8 -9 8 -9 0 -9 0 -9 9 0 9 0 9 -8 9 -8 0 -8 0 -8 -9 0 -9 0 -9 -18 -9 -18 0 -18 0 -18 9 0 9 0 9 9 9 9 0 9 0 9 8 0 8 0 8 9 8 9 0 9 0 9 9 0 9 0 9 -9 9 -9 0 -9 0 -9 8 0 8 0 8 -9 8 -9 0 -9 0 -9 -8 0 -8 0 -8 -8 -8 -8 0 -8 0 -8 8 0 8 0 8 -17 8 -17 0 -17 0 -17 -8 0 -8 0 -8 -9 -8 -9 0 -9 0 -9 -9 0 -9 0 -9 -8 -9 -8 0 -8 0 -8 -8 0 -8 0 -8 8 -8 8 0 8 0 8 8 0 8 0 8 9 8 9 0 9 0 9 -17 0 -17 0 -17 -43 -17 -43 0 -43 0 -43 -17 0 -17 0 -17 -9 -17 -9 0 -9 0 -9 -17 0 -17 0 -17 9 -17 9 0 9 0 9 -17 0 -17 0 -17 -9 -17 -9 0 -9 0 -9 8 0 8 0 8 -8 8 -8 0 -8 0 -8 9 0 9 0 9 -9 9 -9 0 -9 0 -9 -9 0 -9 0 -9 -8 -9 -8 0 -8 0 -8 -8 0 -8 0 -8 -9 -8 -9 0 -9 0 -9 -9 0 -9 0 -9 9 -9 9 0 9 0 9 9 0 9 0 9 8 9 8 0 8 0 8 8 0 8 0 8 9 8 9 0 9 0 9 -25 0 -25 0 -25 -9 -25 -9 0 -9 0 -9 -9 0 -9 0 -9 -8 -9 -8 0 -8 0 -8 9 0 9 0 9 -9 9 -9 0 -9 0 -9 -9 0 -9 0 -9 -26 -9 -26 0 -26 0 -26 9 0 9 0 9 9 9 9 0 9 0 9 8 0 8 0 8 8 8 8 0 8 0 8 9 0 9 0 9 -8 9 -8 0 -8 0 -8 -9 0 -9 0 -9 -9 -9 -9 0 -9 0 -9 9 0 9 0 9 -8 9 -8 0 -8 0 -8 8 0 8 0 8 25 8 25 0 25 0 25 9 0 9 0 9 -8 9 -8 0 -8 0 -8 8 0 8 0 8 8 8 8 0 8 0 8 9 0 9 0 9 9 9 9 0 9 0 9 9 0 9 0 9 17 9 17 0 17 0 17 -9 0 -9 0 -9 9 -9 9 0 9 0 9 9 0 9 0 9 8 9 8 0 8 0 8 8 0 8 0 8 -25 8 -25 0 -25 0 -25 9 0 9 0 9 51 9 51 0 51 0 51 8 0 8 0 8 -9 8 -9 0 -9 0 -9 9 0 9 0 9 18 9 18 0 18 0 18 8 0 8 0 8 -18 8 -18 0 -18 0 -18 -8 0 -8 0 -8 -8 -8 -8 0 -8 0 -8 8 0 8 0 8 -9 8 -9 0 -9 0 -9 -8 0 -8 0 -8 -8 -8 -8 0 -8 0 -8 8 0 8 0 8 -17 8 -17 0 -17 0 -17 -8 0 -8 0 -8 -9 -8 -9 0 -9 0 -9 8 0 8 0 8 -26 8 -26 0 -26 0 -26 -8z m52 -17 c0 -9 0 -9 9 -9 9 0 9 0 9 -8 0 -8 0 -8 -9 -8 -9 0 -9 0 -9 8 0 8 0 8 -26 8 -26 0 -26 0 -26 -17 0 -17 0 -17 -8 -17 -8 0 -8 0 -8 17 0 17 0 17 8 17 8 0 8 0 8 9 0 9 0 9 26 9 26 0 26 0 26 -9z m52 0 c0 -9 0 -9 -9 -9 -9 0 -9 0 -9 9 0 9 0 9 9 9 9 0 9 0 9 -9z m154 0 c0 -9 0 -9 -17 -9 -17 0 -17 0 -17 9 0 9 0 9 17 9 17 0 17 0 17 -9z m-224 -34 c0 -9 0 -9 9 -9 9 0 9 0 9 -8 0 -8 0 -8 -9 -8 -9 0 -9 0 -9 8 0 8 0 8 -8 8 -8 0 -8 0 -8 9 0 9 0 9 8 9 8 0 8 0 8 -9z m224 0 c0 -9 0 -9 -9 -9 -9 0 -9 0 -9 -8 0 -8 0 -8 -8 -8 -8 0 -8 0 -8 -9 0 -9 0 -9 8 -9 8 0 8 0 8 -17 0 -17 0 -17 -17 -17 -17 0 -17 0 -17 -9 0 -9 0 -9 -8 -9 -8 0 -8 0 -8 9 0 9 0 9 -18 9 -18 0 -18 0 -18 8 0 8 0 8 -8 8 -8 0 -8 0 -8 9 0 9 0 9 8 9 8 0 8 0 8 9 0 9 0 9 35 9 35 0 35 0 35 8 0 8 0 8 8 8 8 0 8 0 8 9 0 9 0 9 9 9 9 0 9 0 9 -9z m52 -51 c0 -26 0 -26 -26 -26 -26 0 -26 0 -26 26 0 26 0 26 26 26 26 0 26 0 26 -26z m50 -1 c0 -9 0 -9 9 -9 9 0 9 0 9 -8 0 -8 0 -8 -9 -8 -9 0 -9 0 -9 -9 0 -9 0 -9 -17 -9 -17 0 -17 0 -17 9 0 9 0 9 9 9 9 0 9 0 9 17 0 17 0 17 8 17 8 0 8 0 8 -9z m-360 -17 c0 -8 0 -8 -8 -8 -8 0 -8 0 -8 8 0 8 0 8 8 8 8 0 8 0 8 -8z m172 -34 c0 -8 0 -8 9 -8 9 0 9 0 9 -9 0 -9 0 -9 8 -9 8 0 8 0 8 -17 0 -17 0 -17 -17 -17 -17 0 -17 0 -17 9 0 9 0 9 -9 9 -9 0 -9 0 -9 8 0 8 0 8 -8 8 -8 0 -8 0 -8 -18 0 -18 0 -18 4.9 -18 9.2 0 17.8 -4.5 22.8 -12.1 1.5 -2.2 3.4 -3.9 4.4 -3.9 1.7 0 1.9 -0.9 1.9 -8 0 -4.7 -0.4 -8 -1 -8 -0.6 0 -1 -10.9 -1 -30.8 0 -35.8 -0.3 -37.6 -8 -45.2 -5.2 -5.3 -11.7 -8 -19.2 -8 -2.6 0 -4.8 -0.4 -4.8 -1 0 -0.6 -3.7 -1 -9 -1 -5.3 0 -9 0.4 -9 1 0 0.6 -6.3 1 -17 1 -10.7 0 -17 -0.4 -17 -1 0 -0.6 6.3 -1 17 -1 17 0 17 0 17 -26 0 -26 0 -26 9 -26 9 0 9 0 9 -17 0 -17 0 -17 8 -17 8 0 8 0 8 26 0 26 0 26 -8 26 -8 0 -8 0 -8 8 0 8 0 8 8 8 8 0 8 0 8 -8 0 -8 0 -8 9 -8 9 0 9 0 9 -9 0 -9 0 -9 9 -9 9 0 9 0 9 -8 0 -8 0 -8 8 -8 8 0 8 0 8 17 0 17 0 17 9 17 9 0 9 0 9 8 0 8 0 8 -9 8 -9 0 -9 0 -9 9 0 9 0 9 -8 9 -8 0 -8 0 -8 17 0 17 0 17 8 17 8 0 8 0 8 -17 0 -17 0 -17 9 -17 9 0 9 0 9 -9 0 -9 0 -9 8 -9 8 0 8 0 8 -17 0 -17 0 -17 -8 -17 -8 0 -8 0 -8 -25 0 -25 0 -25 8 -25 8 0 8 0 8 -9 0 -9 0 -9 -8 -9 -8 0 -8 0 -8 9 0 9 0 9 -9 9 -9 0 -9 0 -9 -9 0 -9 0 -9 -8 -9 -8 0 -8 0 -8 9 0 9 0 9 8 9 8 0 8 0 8 8 0 8 0 8 -26 8 -26 0 -26 0 -26 -8 0 -8 0 -8 9 -8 9 0 9 0 9 -18 0 -18 0 -18 -9 -18 -9 0 -9 0 -9 18 0 18 0 18 -8 18 -8 0 -8 0 -8 -26 0 -26 0 -26 -9 -26 -9 0 -9 0 -9 8 0 8 0 8 -17 8 -17 0 -17 0 -17 18 0 18 0 18 -8 18 -8 0 -8 0 -8 -9 0 -9 0 -9 -9 -9 -9 0 -9 0 -9 9 0 9 0 9 -9 9 -9 0 -9 0 -9 8 0 8 0 8 -25 8 -25 0 -25 0 -25 9 0 9 0 9 25 9 25 0 25 0 25 17 0 17 0 17 9 17 9 0 9 0 9 -17 0 -17 0 -17 -9 -17 -9 0 -9 0 -9 -9 0 -9 0 -9 18 -9 18 0 18 0 18 9 0 9 0 9 8 9 8 0 8 0 8 8 0 8 0 8 9 8 9 0 9 0 9 17 0 17 0 17 -9 17 -9 0 -9 0 -9 -8 0 -8 0 -8 -8 -8 -8 0 -8 0 -8 8 0 8 0 8 -18 8 -18 0 -18 0 -18 9 0 9 0 9 -8 9 -8 0 -8 0 -8 -9 0 -9 0 -9 -9 -9 -9 0 -9 0 -9 18 0 18 0 18 -8 18 -8 0 -8 0 -8 8 0 8 0 8 -9 8 -9 0 -9 0 -9 9 0 9 0 9 -8 9 -8 0 -8 0 -8 8 0 8 0 8 -9 8 -9 0 -9 0 -9 9 0 9 0 9 9 9 9 0 9 0 9 -9 0 -9 0 -9 8 -9 8 0 8 0 8 9 0 9 0 9 9 9 9 0 9 0 9 8 0 8 0 8 17 8 17 0 17 0 17 -8 0 -8 0 -8 8 -8 8 0 8 0 8 -9 0 -9 0 -9 -8 -9 -8 0 -8 0 -8 -8 0 -8 0 -8 17 -8 17 0 17 0 17 -9 0 -9 0 -9 -9 -9 -9 0 -9 0 -9 -17 0 -17 0 -17 18 -17 16.9 0 18 0.1 18 1.9 0 1 -1.7 2.9 -3.9 4.4 -9.6 6.3 -12.1 13 -12.1 31.8 0 8.6 -0.4 13.9 -1 13.9 -0.6 0 -1 6.3 -1 17 0 10.7 0.4 17 1 17 0.6 0 1 2.2 1 4.8 0 7.5 2.7 14 8 19.2 6.6 6.7 11.2 8 28.2 8 8.5 0 13.8 0.4 13.8 1 0 0.6 3.3 1 8 1 8 0 8 0 8 17 0 17 0 17 9 17 9 0 9 0 9 9 0 9 0 9 8 9 8 0 8 0 8 8 0 8 0 8 9 8 9 0 9 0 9 -8z m138 0 c0 -8 0 -8 -9 -8 -9 0 -9 0 -9 -9 0 -9 0 -9 -17 -9 -17 0 -17 0 -17 17 0 17 0 17 26 17 26 0 26 0 26 -8z m-396 -25 c0 -17 0 -17 -8 -17 -8 0 -8 0 -8 8 0 8 0 8 -9 8 -9 0 -9 0 -9 9 0 9 0 9 17 9 17 0 17 0 17 -17z m70 8 c0 -9 0 -9 8 -9 8 0 8 0 8 -8 0 -8 0 -8 -8 -8 -8 0 -8 0 -8 8 0 8 0 8 -9 8 -9 0 -9 0 -9 9 0 9 0 9 9 9 9 0 9 0 9 -9z m256 -17 c0 -26 0 -26 -8 -26 -8 0 -8 0 -8 26 0 26 0 26 8 26 8 0 8 0 8 -26z m-290 0 c0 -8 0 -8 8 -8 8 0 8 0 8 -18 0 -18 0 -18 -17 -18 -17 0 -17 0 -17 9 0 9 0 9 9 9 9 0 9 0 9 9 0 9 0 9 -9 9 -9 0 -9 0 -9 8 0 8 0 8 9 8 9 0 9 0 9 -8z m342 -26 c0 -18 0 -18 -9 -18 -9 0 -9 0 -9 18 0 18 0 18 9 18 9 0 9 0 9 -18z m34 -9 c0 -9 0 -9 9 -9 9 0 9 0 9 -8 0 -8 0 -8 8 -8 8 0 8 0 8 -9 0 -9 0 -9 -25 -9 -25 0 -25 0 -25 26 0 26 0 26 8 26 8 0 8 0 8 -9z m-120 -17 c0 -8 0 -8 9 -8 9 0 9 0 9 8 0 8 0 8 17 8 17 0 17 0 17 -8 0 -8 0 -8 17 -8 17 0 17 0 17 -17 0 -17 0 -17 -9 -17 -9 0 -9 0 -9 8 0 8 0 8 -8 8 -8 0 -8 0 -8 9 0 9 0 9 -17 9 -17 0 -17 0 -17 -17 0 -17 0 -17 -26 -17 -26 0 -26 0 -26 8 0 8 0 8 9 8 9 0 9 0 9 17 0 17 0 17 8 17 8 0 8 0 8 -8z m-240 -85 c0 -9 0 -9 9 -9 9 0 9 0 9 -9 0 -9 0 -9 -17 -9 -17 0 -17 0 -17 -8 0 -8 0 -8 -9 -8 -9 0 -9 0 -9 8 0 8 0 8 9 8 9 0 9 0 9 9 0 9 0 9 -18 9 -18 0 -18 0 -18 9 0 9 0 9 26 9 26 0 26 0 26 -9z m34 -129 c0 -18 0 -18 -8 -18 -8 0 -8 0 -8 18 0 18 0 18 8 18 8 0 8 0 8 -18z m104 -43 c0 -9 0 -9 -9 -9 -9 0 -9 0 -9 -8 0 -8 0 -8 -8 -8 -8 0 -8 0 -8 17 0 17 0 17 17 17 17 0 17 0 17 -9z m136 -34 c0 -9 0 -9 -8 -9 -8 0 -8 0 -8 9 0 9 0 9 8 9 8 0 8 0 8 -9z"/>
  <path d="M342 471 c0 -9 0 -9 9 -9 9 0 9 0 9 9 0 9 0 9 -9 9 -9 0 -9 0 -9 -9z"/>
  <path d="M394 471 c0 -9 0 -9 9 -9 9 0 9 0 9 9 0 9 0 9 -9 9 -9 0 -9 0 -9 -9z"/>
  <path d="M462 471 c0 -9 0 -9 9 -9 9 0 9 0 9 9 0 9 0 9 -9 9 -9 0 -9 0 -9 -9z"/>
  <path d="M342 403 c0 -9 0 -9 9 -9 9 0 9 0 9 -8 0 -8 0 -8 9 -8 9 0 9 0 9 8 0 8 0 8 -9 8 -9 0 -9 0 -9 9 0 9 0 9 -9 9 -9 0 -9 0 -9 -9z"/>
  <path d="M172 317 c0 -9 0 -9 8 -9 8 0 8 0 8 9 0 9 0 9 -8 9 -8 0 -8 0 -8 -9z"/>
  <path d="M172 283 c0 -9 0 -9 17 -9 17 0 17 0 17 9 0 9 0 9 -17 9 -17 0 -17 0 -17 -9z"/>
  <path d="M292 137 c0 -17 0 -17 8 -17 8 0 8 0 8 17 0 17 0 17 -8 17 -8 0 -8 0 -8 -17z"/>
  <path d="M532 574 c0 -8 0 -8 -9 -8 -9 0 -9 0 -9 -9 0 -9 0 -9 17 -9 17 0 17 0 17 9 0 9 0 9 9 9 9 0 9 0 9 8 0 8 0 8 -17 8 -17 0 -17 0 -17 -8z"/>
  <path d="M240 454 c0 -8 0 -8 9 -8 9 0 9 0 9 8 0 8 0 8 -9 8 -9 0 -9 0 -9 -8z"/>
  <path d="M18 403 c0 -43 0 -43 8 -43 8 0 8 0 8 43 0 43 0 43 -8 43 -8 0 -8 0 -8 -43z"/>
  <path d="M18 334 c0 -8 0 -8 17 -8 17 0 17 0 17 -9 0 -9 0 -9 -17 -9 -17 0 -17 0 -17 -8 0 -8 0 -8 17 -8 17 0 17 0 17 -9 0 -9 0 -9 8 -9 8 0 8 0 8 9 0 9 0 9 9 9 9 0 9 0 9 8 0 8 0 8 -9 8 -9 0 -9 0 -9 9 0 9 0 9 9 9 9 0 9 0 9 8 0 8 0 8 -34 8 -34 0 -34 0 -34 -8z m50 -34 c0 -8 0 -8 -8 -8 -8 0 -8 0 -8 8 0 8 0 8 8 8 8 0 8 0 8 -8z"/>
  <path d="M18 257 c0 -17 0 -17 25 -17 25 0 25 0 25 9 0 9 0 9 -17 9 -17 0 -17 0 -17 8 0 8 0 8 -8 8 -8 0 -8 0 -8 -17z"/>
  <path d="M18 214 c0 -8 0 -8 8 -8 8 0 8 0 8 -9 0 -9 0 -9 -8 -9 -8 0 -8 0 -8 -8 0 -8 0 -8 8 -8 8 0 8 0 8 8 0 8 0 8 17 8 17 0 17 0 17 17 0 17 0 17 -8 17 -8 0 -8 0 -8 -8 0 -8 0 -8 -9 -8 -9 0 -9 0 -9 8 0 8 0 8 -8 8 -8 0 -8 0 -8 -8z"/>
  <path d="M18 78 c0 -60 0 -60 60 -60 60 0 60 0 60 60 0 60 0 60 -60 60 -60 0 -60 0 -60 -60z m102 -1 c0 -43 0 -43 -43 -43 -43 0 -43 0 -43 43 0 43 0 43 43 43 43 0 43 0 43 -43z"/>
  <path d="M52 77 c0 -25 0 -25 25 -25 25 0 25 0 25 25 0 25 0 25 -25 25 -25 0 -25 0 -25 -25z"/>
  <path d="M462 78 c0 -60 0 -60 60 -60 60 0 60 0 60 60 0 60 0 60 -60 60 -60 0 -60 0 -60 -60z m104 -1 c0 -43 0 -43 -43 -43 -43 0 -43 0 -43 43 0 43 0 43 43 43 43 0 43 0 43 -43z"/>
  <path d="M498 77 c0 -25 0 -25 25 -25 25 0 25 0 25 25 0 25 0 25 -25 25 -25 0 -25 0 -25 -25z"/>
 </g>
 <g fill="#06b53a">
  <path d="M268.6 343.5 c-4.4 -1.5 -9 -5.6 -11.4 -10 -1.5 -2.6 -1.7 -7.2 -2 -31.1 -0.2 -19.3 0 -29.5 0.8 -32.5 1.5 -5.6 8.1 -12.3 13.5 -13.8 5.4 -1.5 55.6 -1.5 61 0 5.2 1.5 11.9 8.2 13.4 13.4 1.5 5.4 1.5 55.6 0 61 -1.5 5.2 -8.2 11.9 -13.4 13.4 -6.1 1.7 -56.9 1.4 -61.9 -0.4z m40.2 -21.4 c17.5 -11.7 23.2 -21.6 19.3 -33.4 -1.7 -5 -9.6 -12 -16.4 -14.6 -17.8 -6.6 -39.3 3.8 -40.8 19.9 -1.1 11.5 7.3 20.9 22.4 25 4.6 1.2 4.7 1.4 4.7 5.1 0 2.2 0.4 3.9 0.9 3.9 0.5 0 5 -2.7 9.9 -5.9z"/>
  <path d="M280 296.5 c0 -6.7 0.2 -7.6 1.8 -7.3 1.3 0.2 1.8 1.5 2 5.6 0.3 5.1 0.4 5.2 3.3 5.2 2.4 0 3 0.4 2.7 1.8 -0.2 1.3 -1.5 1.8 -5.1 2 -4.7 0.3 -4.7 0.3 -4.7 -7.3z"/>
  <path d="M291.4 302.7 c-0.3 -0.8 -0.4 -4.1 -0.2 -7.3 0.2 -4.4 0.7 -5.9 1.8 -5.9 1.2 0 1.5 1.4 1.5 6.9 0 4.7 -0.4 7.1 -1.2 7.3 -0.7 0.3 -1.5 -0.2 -1.9 -1z"/>
  <path d="M296.4 302.7 c-0.3 -0.8 -0.4 -4.1 -0.2 -7.3 0.4 -7.1 2.1 -8 5.8 -3 2.5 3.4 2.5 3.4 3 0.3 0.3 -2 1.1 -3.2 2 -3.2 1.1 0 1.6 1.5 1.8 6.4 0.4 8.6 -0.9 9.7 -5.3 4.7 -3.4 -3.9 -3.4 -3.9 -3.7 -0.6 -0.3 3.5 -2.4 5.2 -3.4 2.7z"/>
  <path d="M310.8 302.3 c-0.2 -1 -0.4 -4.3 -0.3 -7.3 0 -5.5 0 -5.5 4.8 -5.8 4.2 -0.3 4.7 -0.1 4.7 1.7 0 1.7 -0.6 2.1 -3.1 2.1 -1.7 0 -2.8 0.4 -2.4 1 0.3 0.6 1.7 1 3.1 1 1.5 0 2.4 0.6 2.4 1.5 0 0.9 -0.9 1.5 -2.5 1.5 -1.4 0 -2.5 0.5 -2.5 1 0 0.6 1.1 1 2.5 1 1.8 0 2.5 0.5 2.5 2 0 1.7 -0.7 2 -4.4 2 -3.3 0 -4.5 -0.4 -4.8 -1.7z"/>
  <path d="M356 259.5 c0 -0.3 0.2 -0.5 0.5 -0.5 0.3 0 0.5 0.2 0.5 0.5 0 0.3 -0.2 0.5 -0.5 0.5 -0.3 0 -0.5 -0.2 -0.5 -0.5z"/>
 </g>
</svg>