<svg width="60" height="60" viewBox="0 0 60 60" fill="none" xmlns="http://www.w3.org/2000/svg">
<path d="M7.56757 0H52.4324C56.6667 0 60 3.33333 60 7.56757V52.4324C60 54.6847 59.0991 56.3964 57.7477 57.7477C56.4865 59.009 54.5045 60 52.4324 60H7.56757C3.33333 60 0 56.6667 0 52.4324V7.56757C0 5.4955 0.990991 3.51351 2.25225 2.25225C3.6036 0.900901 5.31532 0 7.56757 0ZM17.5676 39.9099C23.1532 39.9099 27.7477 35.4054 27.7477 29.8198C27.7477 24.2342 23.1532 19.6396 17.5676 19.6396C12.0721 19.6396 7.38739 24.2342 7.38739 29.8198C7.38739 35.4054 12.0721 39.9099 17.5676 39.9099ZM42.4324 39.9099C47.9279 39.9099 52.6126 35.4054 52.6126 29.8198C52.6126 24.2342 47.9279 19.6396 42.4324 19.6396C36.8468 19.6396 32.1622 24.2342 32.1622 29.8198C32.1622 35.4054 36.8468 39.9099 42.4324 39.9099Z" fill="#67514C"/>
</svg>
