<svg width="63" height="65" viewBox="0 0 63 65" fill="none" xmlns="http://www.w3.org/2000/svg">
<path fill-rule="evenodd" clip-rule="evenodd" d="M31.1669 0.000199018C23.7666 0.00126358 16.6081 2.81661 10.9718 7.94261C5.33559 13.0686 1.5893 20.1709 0.403112 27.9789C-0.783077 35.787 0.668219 43.7915 4.49739 50.5605C8.32656 57.3296 14.2838 62.4216 21.3035 64.9257C22.862 65.2351 23.53 64.2117 23.53 63.3311V57.6668C14.8689 59.666 13.0432 53.1925 13.0432 53.1925C12.4341 51.1524 11.1522 49.4185 9.43623 48.3135C6.60857 46.2668 9.65888 46.2906 9.65888 46.2906C10.6466 46.4397 11.5893 46.8282 12.4151 47.4263C13.2409 48.0244 13.9279 48.8163 14.4236 49.7415C15.286 51.395 16.7274 52.6146 18.4309 53.1323C20.1344 53.65 21.9605 53.4234 23.5077 52.5023C23.6334 50.8136 24.3299 49.2316 25.467 48.0518C18.5649 47.195 11.2842 44.339 11.2842 31.5824C11.2337 28.2692 12.3824 25.0632 14.4904 22.6337C13.5362 19.7639 13.6478 16.6123 14.8021 13.8278C14.8021 13.8278 17.4071 12.9234 23.3741 17.2312C28.4761 15.7436 33.8576 15.7436 38.9596 17.2312C44.9044 12.9234 47.5094 13.8278 47.5094 13.8278C48.6637 16.6123 48.7752 19.7639 47.8211 22.6337C49.9291 25.0632 51.0777 28.2692 51.0272 31.5824C51.0272 44.3866 43.7466 47.195 36.7999 48.028C37.544 48.8342 38.1179 49.8016 38.4827 50.8649C38.8476 51.9282 38.995 53.0627 38.9151 54.1921V63.3311C38.9151 64.4259 39.4717 65.2589 41.1416 64.9257C48.1705 62.4185 54.1339 57.3167 57.9624 50.5351C61.791 43.7536 63.2343 35.736 62.0335 27.92C60.8327 20.1041 57.0664 13.001 51.4099 7.88448C45.7534 2.76801 38.5767 -0.0271646 31.1669 0.000199018Z" fill="#5C5C5C"/>
</svg>
