<svg width="61" height="61" viewBox="0 0 61 61" fill="none" xmlns="http://www.w3.org/2000/svg">
<path d="M48.6026 24.5433C48.8152 24.5356 49.0272 24.573 49.2258 24.6533C49.4244 24.7336 49.6056 24.8552 49.7586 25.0107C49.9116 25.1662 50.0333 25.3526 50.1164 25.5587C50.1995 25.7647 50.2424 25.9863 50.2424 26.2101C50.2424 26.434 50.1995 26.6556 50.1164 26.8616C50.0333 27.0677 49.9116 27.254 49.7586 27.4096C49.6056 27.5651 49.4244 27.6867 49.2258 27.7669C49.0272 27.8472 48.8152 27.8846 48.6026 27.8769H44.1993V30.848H48.6026C48.8165 30.837 49.0303 30.8719 49.2311 30.9504C49.4318 31.029 49.6152 31.1496 49.7703 31.305C49.9254 31.4604 50.0489 31.6473 50.1333 31.8545C50.2176 32.0616 50.2611 32.2845 50.2611 32.5099C50.2611 32.7352 50.2176 32.9582 50.1333 33.1653C50.0489 33.3724 49.9254 33.5593 49.7703 33.7147C49.6152 33.8701 49.4318 33.9908 49.2311 34.0693C49.0303 34.1479 48.8165 34.1827 48.6026 34.1717H42.6217C42.2036 34.1701 41.8031 33.9944 41.5078 33.683C41.2125 33.3716 41.0464 32.9498 41.0459 32.5099V19.9124C41.0459 18.9953 41.7519 18.2426 42.6217 18.2426H48.6139C49.0204 18.2647 49.4033 18.4505 49.6831 18.7615C49.963 19.0725 50.1185 19.4848 50.1172 19.9131C50.116 20.3414 49.9583 20.7528 49.6767 21.062C49.395 21.3713 49.0111 21.5547 48.6045 21.5742H44.2011V24.5453L48.6026 24.5433ZM38.9374 32.5079C38.934 32.949 38.7651 33.3709 38.4675 33.6817C38.17 33.9926 37.7678 34.1672 37.3485 34.1678C37.1003 34.1703 36.8549 34.112 36.6317 33.9975C36.4085 33.8831 36.2137 33.7155 36.0627 33.5082L29.9349 24.7394V32.5059C29.9349 32.9467 29.7685 33.3694 29.4723 33.681C29.1761 33.9927 28.7744 34.1678 28.3554 34.1678C27.9365 34.1678 27.5348 33.9927 27.2386 33.681C26.9424 33.3694 26.776 32.9467 26.776 32.5059V19.9084C26.776 19.1973 27.2184 18.5595 27.8547 18.3317C28.0118 18.2733 28.1775 18.2445 28.3442 18.2466C28.8336 18.2466 29.2854 18.5259 29.5885 18.918L35.7653 27.7066V19.9084C35.7653 18.9913 36.4713 18.2386 37.3448 18.2386C38.2183 18.2386 38.9337 18.9913 38.9337 19.9084L38.9374 32.5079ZM24.5244 32.5079C24.5224 32.9497 24.3541 33.3727 24.0562 33.6842C23.7584 33.9957 23.3554 34.1703 22.9355 34.1697C22.5187 34.1661 22.1201 33.9894 21.8265 33.6782C21.5328 33.367 21.3678 32.9464 21.3673 32.5079V19.9104C21.3673 18.9933 22.0733 18.2406 22.9468 18.2406C23.8184 18.2406 24.5263 18.9933 24.5263 19.9104L24.5244 32.5079ZM18.3363 34.1697H12.3441C11.9246 34.1687 11.5225 33.9936 11.225 33.6825C10.9275 33.3713 10.7587 32.9492 10.7552 32.5079V19.9104C10.7552 18.9933 11.4706 18.2406 12.3441 18.2406C13.2176 18.2406 13.9236 18.9933 13.9236 19.9104V30.8461H18.3363C18.7553 30.8461 19.157 31.0211 19.4532 31.3328C19.7494 31.6445 19.9158 32.0672 19.9158 32.5079C19.9158 32.9486 19.7494 33.3713 19.4532 33.683C19.157 33.9947 18.7553 34.1697 18.3363 34.1697ZM60.2426 25.7278C60.2426 11.5437 46.72 0 30.1213 0C13.5226 0 0 11.5437 0 25.7278C0 38.4382 10.7175 49.0847 25.1889 51.107C26.1698 51.3229 27.5026 51.7884 27.8472 52.6659C28.1502 53.4582 28.0429 54.6862 27.945 55.5241L27.5328 58.2159C27.4142 59.0102 26.9247 61.3435 30.1608 59.9193C33.4064 58.4952 47.5258 49.1501 53.8494 41.4925C58.1737 36.511 60.2426 31.3927 60.2426 25.7278Z" fill="#67514C"/>
</svg>
