<svg width="57" height="61" viewBox="0 0 57 61" fill="none" xmlns="http://www.w3.org/2000/svg">
<path d="M0 4.36391C0 1.95348 1.87382 0 4.18582 0H52.8126C55.1246 0 56.9984 1.95348 56.9984 4.36391V56.5633C56.9984 58.9737 55.1246 60.9272 52.8126 60.9272H4.18582C1.87382 60.9272 0 58.9737 0 56.5633V4.36391ZM17.6089 51.0037V23.4912H9.05562V51.0037H17.6089ZM13.3341 19.7328C16.3158 19.7328 18.1718 17.6232 18.1718 14.9805C18.1184 12.2806 16.3193 10.2281 13.3911 10.2281C10.4628 10.2281 8.54976 12.2844 8.54976 14.9805C8.54976 17.6232 10.4058 19.7328 13.2771 19.7328H13.3341ZM30.8183 51.0037V35.6386C30.8183 34.8161 30.8753 33.9936 31.1033 33.4071C31.7196 31.7659 33.1267 30.0638 35.4922 30.0638C38.5879 30.0638 39.8241 32.5846 39.8241 36.2859V51.0037H48.3774V35.2235C48.3774 26.7699 44.1595 22.8401 38.5309 22.8401C33.9924 22.8401 31.9583 25.5056 30.8183 27.383V27.4782H30.7613C30.7802 27.4464 30.7992 27.4146 30.8183 27.383V23.4912H22.2686C22.3754 26.073 22.2686 51.0037 22.2686 51.0037H30.8183Z" fill="#5C5C5C"/>
</svg>
