<svg width="63" height="47" viewBox="0 0 63 47" fill="none" xmlns="http://www.w3.org/2000/svg">
<path d="M61.03 7.2827C60.6753 5.87386 59.9805 4.58932 59.0154 3.55766C58.0503 2.526 56.8486 1.7834 55.5306 1.40418C50.6768 4.25571e-07 31.1727 0 31.1727 0C31.1727 0 11.6685 4.25571e-07 6.81476 1.40418C5.49676 1.7834 4.29506 2.526 3.32992 3.55766C2.36479 4.58932 1.67007 5.87386 1.31531 7.2827C0.409003 12.574 -0.0308025 17.9445 0.0016753 23.3237C-0.0308025 28.7028 0.409003 34.0734 1.31531 39.3647C1.67007 40.7735 2.36479 42.058 3.32992 43.0897C4.29506 44.1214 5.49676 44.864 6.81476 45.2432C11.6685 46.6474 31.1727 46.6474 31.1727 46.6474C31.1727 46.6474 50.6768 46.6474 55.5306 45.2432C56.8486 44.864 58.0503 44.1214 59.0154 43.0897C59.9805 42.058 60.6753 40.7735 61.03 39.3647C61.9363 34.0734 62.3761 28.7028 62.3437 23.3237C62.3761 17.9445 61.9363 12.574 61.03 7.2827ZM24.9385 33.3195V13.3278L41.1251 23.3237L24.9385 33.3195Z" fill="#5C5C5C"/>
</svg>
