<svg width="39" height="48" viewBox="0 0 39 48" fill="none" xmlns="http://www.w3.org/2000/svg">
<path d="M28.4512 41.3C26.3112 41.3 24.3512 40.77 22.5712 39.71C20.8112 38.65 19.4212 37.2 18.4012 35.36C17.3812 33.52 16.8712 31.49 16.8712 29.27C16.8712 27.07 17.3812 25.06 18.4012 23.24C19.4212 21.4 20.8112 19.95 22.5712 18.89C24.3512 17.81 26.3112 17.27 28.4512 17.27C29.9712 17.27 31.2812 17.47 32.3812 17.87C33.5012 18.27 34.6312 18.93 35.7712 19.85C36.0112 20.03 36.1712 20.22 36.2512 20.42C36.3312 20.6 36.3712 20.82 36.3712 21.08C36.3712 21.48 36.2212 21.81 35.9212 22.07C35.6412 22.33 35.3112 22.46 34.9312 22.46C34.5512 22.46 34.2012 22.33 33.8812 22.07C33.0612 21.37 32.2612 20.87 31.4812 20.57C30.7012 20.25 29.6912 20.09 28.4512 20.09C26.8912 20.09 25.4512 20.5 24.1312 21.32C22.8312 22.14 21.7912 23.26 21.0112 24.68C20.2512 26.08 19.8712 27.61 19.8712 29.27C19.8712 30.95 20.2512 32.49 21.0112 33.89C21.7912 35.29 22.8312 36.4 24.1312 37.22C25.4512 38.04 26.8912 38.45 28.4512 38.45C30.3712 38.45 32.2112 37.79 33.9712 36.47C34.3112 36.23 34.6412 36.11 34.9612 36.11C35.3412 36.11 35.6512 36.25 35.8912 36.53C36.1512 36.79 36.2812 37.14 36.2812 37.58C36.2812 38 36.1212 38.37 35.8012 38.69C33.6412 40.43 31.1912 41.3 28.4512 41.3Z" fill="#F56546"/>
<path d="M22.5712 39.71L22.3648 40.0527L22.3665 40.0537L22.5712 39.71ZM18.4012 35.36L18.751 35.1661L18.4012 35.36ZM18.4012 23.24L18.7501 23.4356L18.751 23.4339L18.4012 23.24ZM22.5712 18.89L22.7775 19.2327L22.7787 19.232L22.5712 18.89ZM32.3812 17.87L32.2445 18.2459L32.2466 18.2467L32.3812 17.87ZM35.7712 19.85L35.52 20.1613L35.5255 20.1657L35.5312 20.17L35.7712 19.85ZM36.2512 20.42L35.8798 20.5686L35.8826 20.5756L35.8856 20.5825L36.2512 20.42ZM35.9212 22.07L35.659 21.7675L35.649 21.7769L35.9212 22.07ZM33.8812 22.07L33.6214 22.3743L33.6289 22.3804L33.8812 22.07ZM31.4812 20.57L31.3293 20.9402L31.3376 20.9433L31.4812 20.57ZM24.1312 21.32L23.9201 20.9802L23.9178 20.9817L24.1312 21.32ZM21.0112 24.68L20.6606 24.4874L20.6596 24.4892L21.0112 24.68ZM21.0112 33.89L20.6596 34.0808L20.6617 34.0847L21.0112 33.89ZM24.1312 37.22L23.9178 37.5583L23.9201 37.5598L24.1312 37.22ZM33.9712 36.47L33.7404 36.1431L33.7312 36.15L33.9712 36.47ZM35.8912 36.53L35.5875 36.7903L35.5975 36.802L35.6083 36.8128L35.8912 36.53ZM35.8012 38.69L36.0521 39.0015L36.0688 38.988L36.084 38.9728L35.8012 38.69ZM28.4512 40.9C26.3807 40.9 24.4918 40.3882 22.7758 39.3663L22.3665 40.0537C24.2105 41.1518 26.2416 41.7 28.4512 41.7V40.9ZM22.7775 39.3673C21.0791 38.3444 19.7379 36.9463 18.751 35.1661L18.0513 35.5539C19.1044 37.4537 20.5433 38.9556 22.3648 40.0527L22.7775 39.3673ZM18.751 35.1661C17.7657 33.3887 17.2712 31.426 17.2712 29.27H16.4712C16.4712 31.554 16.9966 33.6513 18.0513 35.5539L18.751 35.1661ZM17.2712 29.27C17.2712 27.1346 17.7654 25.1925 18.7501 23.4356L18.0522 23.0444C16.9969 24.9275 16.4712 27.0054 16.4712 29.27H17.2712ZM18.751 23.4339C19.7379 21.6537 21.0791 20.2556 22.7775 19.2327L22.3648 18.5473C20.5433 19.6444 19.1044 21.1463 18.0513 23.0461L18.751 23.4339ZM22.7787 19.232C24.4943 18.191 26.3822 17.67 28.4512 17.67V16.87C26.2401 16.87 24.208 17.429 22.3637 18.548L22.7787 19.232ZM28.4512 17.67C29.9377 17.67 31.1992 17.8658 32.2445 18.2459L32.5179 17.4941C31.3632 17.0742 30.0046 16.87 28.4512 16.87V17.67ZM32.2466 18.2467C33.3158 18.6286 34.4071 19.2632 35.52 20.1613L36.0224 19.5387C34.8552 18.5968 33.6865 17.9114 32.5157 17.4933L32.2466 18.2467ZM35.5312 20.17C35.7345 20.3225 35.8357 20.4584 35.8798 20.5686L36.6226 20.2714C36.5066 19.9816 36.2878 19.7375 36.0112 19.53L35.5312 20.17ZM35.8856 20.5825C35.9369 20.6977 35.9712 20.8589 35.9712 21.08H36.7712C36.7712 20.7811 36.7255 20.5023 36.6167 20.2575L35.8856 20.5825ZM35.9712 21.08C35.9712 21.365 35.8708 21.5844 35.6592 21.7677L36.1831 22.3723C36.5716 22.0356 36.7712 21.595 36.7712 21.08H35.9712ZM35.649 21.7769C35.4425 21.9686 35.2096 22.06 34.9312 22.06V22.86C35.4128 22.86 35.8398 22.6914 36.1934 22.3631L35.649 21.7769ZM34.9312 22.06C34.6511 22.06 34.3886 21.9669 34.1334 21.7596L33.6289 22.3804C34.0137 22.6931 34.4513 22.86 34.9312 22.86V22.06ZM34.1409 21.7658C33.2959 21.0444 32.4574 20.5169 31.6248 20.1967L31.3376 20.9433C32.065 21.2231 32.8265 21.6956 33.6215 22.3742L34.1409 21.7658ZM31.633 20.1999C30.7877 19.8532 29.7209 19.69 28.4512 19.69V20.49C29.6614 20.49 30.6146 20.6468 31.3293 20.9401L31.633 20.1999ZM28.4512 19.69C26.8169 19.69 25.3037 20.1207 23.9201 20.9802L24.3422 21.6598C25.5986 20.8793 26.9655 20.49 28.4512 20.49V19.69ZM23.9178 20.9817C22.5573 21.8398 21.4714 23.0113 20.6606 24.4874L21.3618 24.8726C22.111 23.5087 23.105 22.4402 24.3446 21.6583L23.9178 20.9817ZM20.6596 24.4892C19.8665 25.9502 19.4712 27.5463 19.4712 29.27H20.2712C20.2712 27.6737 20.6359 26.2098 21.3627 24.8708L20.6596 24.4892ZM19.4712 29.27C19.4712 31.0129 19.8661 32.619 20.6596 34.0808L21.3627 33.6992C20.6363 32.361 20.2712 30.8871 20.2712 29.27H19.4712ZM20.6617 34.0847C21.4729 35.5406 22.5587 36.701 23.9178 37.5583L24.3446 36.8817C23.1037 36.099 22.1094 35.0394 21.3606 33.6953L20.6617 34.0847ZM23.9201 37.5598C25.3037 38.4193 26.8169 38.85 28.4512 38.85V38.05C26.9655 38.05 25.5986 37.6607 24.3422 36.8802L23.9201 37.5598ZM28.4512 38.85C30.47 38.85 32.3925 38.154 34.2112 36.79L33.7312 36.15C32.0299 37.426 30.2723 38.05 28.4512 38.05V38.85ZM34.2018 36.7968C34.4945 36.5902 34.7454 36.51 34.9612 36.51V35.71C34.5369 35.71 34.1278 35.8698 33.7405 36.1432L34.2018 36.7968ZM34.9612 36.51C35.2285 36.51 35.4261 36.602 35.5875 36.7903L36.1949 36.2697C35.8763 35.898 35.4539 35.71 34.9612 35.71V36.51ZM35.6083 36.8128C35.7789 36.9834 35.8812 37.2237 35.8812 37.58H36.6812C36.6812 37.0563 36.5235 36.5966 36.174 36.2472L35.6083 36.8128ZM35.8812 37.58C35.8812 37.8852 35.7697 38.1557 35.5183 38.4072L36.084 38.9728C36.4726 38.5843 36.6812 38.1148 36.6812 37.58H35.8812ZM35.5502 38.3785C33.4604 40.062 31.0987 40.9 28.4512 40.9V41.7C31.2837 41.7 33.822 40.798 36.0521 39.0015L35.5502 38.3785Z" fill="#5C5C5C"/>
<path d="M10.6129 26.3C8.67285 26.3 6.90285 25.86 5.30285 24.98C3.72285 24.1 2.63285 22.95 2.03285 21.53C1.93285 21.29 1.88285 21.09 1.88285 20.93C1.88285 20.63 1.99285 20.37 2.21285 20.15C2.43285 19.91 2.73285 19.75 3.11285 19.67C3.17285 19.65 3.27285 19.64 3.41285 19.64C3.73285 19.64 4.03285 19.74 4.31285 19.94C4.61285 20.12 4.83285 20.37 4.97285 20.69C5.33285 21.47 6.04285 22.13 7.10285 22.67C8.16285 23.21 9.33285 23.48 10.6129 23.48C12.1129 23.48 13.3829 23.14 14.4229 22.46C15.4629 21.76 15.9829 20.81 15.9829 19.61C15.9829 18.47 15.5429 17.5 14.6629 16.7C13.7829 15.88 12.4429 15.38 10.6429 15.2C8.16285 14.96 6.21285 14.24 4.79285 13.04C3.37285 11.82 2.66285 10.3 2.66285 8.48C2.66285 7.2 3.02285 6.1 3.74285 5.18C4.48285 4.24 5.48285 3.53 6.74285 3.05C8.02285 2.55 9.45285 2.3 11.0329 2.3C12.7529 2.3 14.2029 2.65 15.3829 3.35C16.5629 4.05 17.5629 5.05 18.3829 6.35C18.6229 6.73 18.7429 7.09 18.7429 7.43C18.7429 7.87 18.5429 8.23 18.1429 8.51C17.9229 8.65 17.6629 8.72 17.3629 8.72C17.0629 8.72 16.7829 8.65 16.5229 8.51C16.2629 8.35 16.0629 8.14 15.9229 7.88C15.3829 6.98 14.7029 6.3 13.8829 5.84C13.0829 5.36 12.0629 5.12 10.8229 5.12C9.30285 5.12 8.07285 5.42 7.13285 6.02C6.19285 6.6 5.72285 7.45 5.72285 8.57C5.72285 9.61 6.14285 10.48 6.98285 11.18C7.82285 11.88 9.32285 12.34 11.4829 12.56C13.8829 12.8 15.7429 13.53 17.0629 14.75C18.3829 15.95 19.0429 17.54 19.0429 19.52C19.0429 20.96 18.6529 22.2 17.8729 23.24C17.0929 24.26 16.0529 25.03 14.7529 25.55C13.4729 26.05 12.0929 26.3 10.6129 26.3Z" fill="#F56546"/>
<path d="M5.30285 24.98L5.10822 25.3295L5.11008 25.3305L5.30285 24.98ZM2.03285 21.53L1.66362 21.6838L1.66439 21.6857L2.03285 21.53ZM2.21285 20.15L2.49569 20.4328L2.50184 20.4267L2.50771 20.4203L2.21285 20.15ZM3.11285 19.67L3.19526 20.0614L3.21764 20.0567L3.23934 20.0495L3.11285 19.67ZM4.31285 19.94L4.08036 20.2655L4.09336 20.2748L4.10705 20.283L4.31285 19.94ZM4.97285 20.69L4.60632 20.8504L4.60967 20.8576L4.97285 20.69ZM14.4229 22.46L14.6418 22.7948L14.6462 22.7918L14.4229 22.46ZM14.6629 16.7L14.3901 16.9927L14.3938 16.996L14.6629 16.7ZM10.6429 15.2L10.6827 14.802L10.6814 14.8019L10.6429 15.2ZM4.79285 13.04L4.53217 13.3434L4.53467 13.3455L4.79285 13.04ZM3.74285 5.18L3.42856 4.93258L3.42785 4.93348L3.74285 5.18ZM6.74285 3.05L6.88526 3.42381L6.88839 3.42258L6.74285 3.05ZM15.3829 3.35L15.5869 3.00598L15.5869 3.00598L15.3829 3.35ZM18.3829 6.35L18.0445 6.5634L18.0447 6.5636L18.3829 6.35ZM18.1429 8.51L18.3576 8.84747L18.365 8.84274L18.3722 8.83769L18.1429 8.51ZM16.5229 8.51L16.3132 8.85066L16.323 8.85671L16.3332 8.86219L16.5229 8.51ZM15.9229 7.88L16.275 7.69036L16.2706 7.68217L16.2658 7.6742L15.9229 7.88ZM13.8829 5.84L13.677 6.18314L13.6872 6.18886L13.8829 5.84ZM7.13285 6.02L7.34292 6.36045L7.34807 6.35717L7.13285 6.02ZM6.98285 11.18L6.72678 11.4873L6.72678 11.4873L6.98285 11.18ZM11.4829 12.56L11.4423 12.9579L11.4431 12.958L11.4829 12.56ZM17.0629 14.75L16.7913 15.0438L16.7938 15.046L17.0629 14.75ZM17.8729 23.24L18.1906 23.483L18.1929 23.48L17.8729 23.24ZM14.7529 25.55L14.8984 25.9226L14.9014 25.9214L14.7529 25.55ZM10.6129 25.9C8.73591 25.9 7.03287 25.475 5.49562 24.6295L5.11008 25.3305C6.77284 26.245 8.6098 26.7 10.6129 26.7V25.9ZM5.49748 24.6305C3.98136 23.7861 2.96082 22.6985 2.40131 21.3743L1.66439 21.6857C2.30489 23.2015 3.46434 24.4139 5.10822 25.3295L5.49748 24.6305ZM2.40208 21.3762C2.31126 21.1582 2.28285 21.0144 2.28285 20.93H1.48285C1.48285 21.1656 1.55444 21.4218 1.66362 21.6838L2.40208 21.3762ZM2.28285 20.93C2.28285 20.7404 2.3476 20.5809 2.49569 20.4328L1.93001 19.8672C1.6381 20.1591 1.48285 20.5196 1.48285 20.93H2.28285ZM2.50771 20.4203C2.66107 20.253 2.88084 20.1276 3.19526 20.0614L3.03045 19.2786C2.58486 19.3724 2.20464 19.567 1.91799 19.8797L2.50771 20.4203ZM3.23934 20.0495C3.22978 20.0527 3.23707 20.0491 3.27265 20.0455C3.30543 20.0422 3.35141 20.04 3.41285 20.04V19.24C3.26914 19.24 3.11259 19.2485 2.98636 19.2905L3.23934 20.0495ZM3.41285 20.04C3.64309 20.04 3.8628 20.1101 4.08036 20.2655L4.54535 19.6145C4.2029 19.3699 3.82261 19.24 3.41285 19.24V20.04ZM4.10705 20.283C4.33596 20.4203 4.49974 20.6066 4.60639 20.8503L5.33931 20.5297C5.16597 20.1334 4.88975 19.8197 4.51865 19.597L4.10705 20.283ZM4.60967 20.8576C5.01944 21.7455 5.81161 22.4611 6.92128 23.0264L7.28442 22.3136C6.27409 21.7989 5.64626 21.1945 5.33604 20.5224L4.60967 20.8576ZM6.92128 23.0264C8.04173 23.5972 9.27464 23.88 10.6129 23.88V23.08C9.39106 23.08 8.28397 22.8228 7.28442 22.3136L6.92128 23.0264ZM10.6129 23.88C12.1743 23.88 13.5243 23.5255 14.6418 22.7948L14.204 22.1252C13.2414 22.7545 12.0514 23.08 10.6129 23.08V23.88ZM14.6462 22.7918C15.7907 22.0215 16.3829 20.9501 16.3829 19.61H15.5829C15.5829 20.6699 15.135 21.4985 14.1995 22.1282L14.6462 22.7918ZM16.3829 19.61C16.3829 18.3519 15.8912 17.2761 14.9319 16.404L14.3938 16.996C15.1945 17.7239 15.5829 18.5881 15.5829 19.61H16.3829ZM14.9355 16.4074C13.9664 15.5043 12.528 14.9865 10.6827 14.802L10.6031 15.598C12.3577 15.7735 13.5993 16.2557 14.3902 16.9926L14.9355 16.4074ZM10.6814 14.8019C8.25527 14.5671 6.39099 13.8668 5.05104 12.7345L4.53467 13.3455C6.03471 14.6132 8.07043 15.3529 10.6043 15.5981L10.6814 14.8019ZM5.05352 12.7366C3.71906 11.5901 3.06285 10.1796 3.06285 8.48H2.26285C2.26285 10.4204 3.02664 12.0499 4.53218 13.3434L5.05352 12.7366ZM3.06285 8.48C3.06285 7.28028 3.39827 6.26932 4.05785 5.42652L3.42785 4.93348C2.64743 5.93068 2.26285 7.11972 2.26285 8.48H3.06285ZM4.05715 5.42742C4.74686 4.5513 5.68413 3.88136 6.88525 3.42379L6.60045 2.6762C5.28157 3.17863 4.21885 3.92869 3.42856 4.93258L4.05715 5.42742ZM6.88839 3.42258C8.11561 2.9432 9.49528 2.7 11.0329 2.7V1.9C9.41043 1.9 7.9301 2.1568 6.59731 2.67742L6.88839 3.42258ZM11.0329 2.7C12.6991 2.7 14.0744 3.03888 15.1788 3.69402L15.5869 3.00598C14.3313 2.26112 12.8066 1.9 11.0329 1.9V2.7ZM15.1788 3.69402C16.2981 4.358 17.2542 5.31043 18.0445 6.5634L18.7212 6.1366C17.8715 4.78956 16.8276 3.74199 15.5869 3.00598L15.1788 3.69402ZM18.0447 6.5636C18.257 6.89979 18.3429 7.18632 18.3429 7.43H19.1429C19.1429 6.99368 18.9887 6.56021 18.721 6.1364L18.0447 6.5636ZM18.3429 7.43C18.3429 7.72363 18.2202 7.96759 17.9135 8.18231L18.3722 8.83769C18.8655 8.49241 19.1429 8.01637 19.1429 7.43H18.3429ZM17.9281 8.17253C17.7815 8.26583 17.5985 8.32 17.3629 8.32V9.12C17.7272 9.12 18.0642 9.03417 18.3576 8.84747L17.9281 8.17253ZM17.3629 8.32C17.1279 8.32 16.9132 8.26591 16.7125 8.15781L16.3332 8.86219C16.6525 9.03409 16.9978 9.12 17.3629 9.12V8.32ZM16.7325 8.16934C16.5304 8.04494 16.3805 7.88619 16.275 7.69036L15.5707 8.06964C15.7452 8.39381 15.9953 8.65505 16.3132 8.85066L16.7325 8.16934ZM16.2658 7.6742C15.6943 6.7216 14.9661 5.98903 14.0786 5.49114L13.6872 6.18886C14.4396 6.61097 15.0714 7.23839 15.5799 8.0858L16.2658 7.6742ZM14.0887 5.497C13.2092 4.96935 12.1122 4.72 10.8229 4.72V5.52C12.0135 5.52 12.9565 5.75064 13.6771 6.183L14.0887 5.497ZM10.8229 4.72C9.2534 4.72 7.94129 5.02943 6.91764 5.68283L7.34807 6.35717C8.20441 5.81056 9.35231 5.52 10.8229 5.52V4.72ZM6.92281 5.67959C5.86273 6.33368 5.32285 7.31364 5.32285 8.57H6.12285C6.12285 7.58636 6.52297 6.86632 7.34289 6.36041L6.92281 5.67959ZM5.32285 8.57C5.32285 9.73553 5.80095 10.7158 6.72678 11.4873L7.23893 10.8727C6.48475 10.2442 6.12285 9.48446 6.12285 8.57H5.32285ZM6.72678 11.4873C7.66392 12.2682 9.26792 12.7365 11.4423 12.9579L11.5234 12.1621C9.37779 11.9435 7.98178 11.4918 7.23893 10.8727L6.72678 11.4873ZM11.4431 12.958C13.7859 13.1923 15.5539 13.9 16.7914 15.0437L17.3343 14.4562C15.9318 13.16 13.9798 12.4077 11.5227 12.162L11.4431 12.958ZM16.7938 15.046C18.0207 16.1614 18.6429 17.6389 18.6429 19.52H19.4429C19.4429 17.4411 18.745 15.7386 17.3319 14.454L16.7938 15.046ZM18.6429 19.52C18.6429 20.8833 18.2753 22.0367 17.5529 23L18.1929 23.48C19.0304 22.3633 19.4429 21.0367 19.4429 19.52H18.6429ZM17.5551 22.997C16.8228 23.9546 15.8436 24.6829 14.6043 25.1786L14.9014 25.9214C16.2621 25.3771 17.3629 24.5654 18.1906 23.483L17.5551 22.997ZM14.6073 25.1774C13.3772 25.6579 12.0469 25.9 10.6129 25.9V26.7C12.1388 26.7 13.5685 26.4421 14.8984 25.9226L14.6073 25.1774Z" fill="#5C5C5C"/>
</svg>
