<svg width="304" height="51" viewBox="0 0 304 51" fill="none" xmlns="http://www.w3.org/2000/svg">
<mask id="path-1-outside-1" maskUnits="userSpaceOnUse" x="0.197021" y="0.0319977" width="304" height="51" fill="black">
<rect fill="white" x="0.197021" y="0.0319977" width="304" height="51"/>
<path d="M15.165 39.48C12.061 39.48 9.22902 38.776 6.66902 37.368C4.14102 35.96 2.39702 34.12 1.43702 31.848C1.27702 31.464 1.19702 31.144 1.19702 30.888C1.19702 30.408 1.37302 29.992 1.72502 29.64C2.07702 29.256 2.55702 29 3.16502 28.872C3.26102 28.84 3.42102 28.824 3.64502 28.824C4.15702 28.824 4.63702 28.984 5.08502 29.304C5.56502 29.592 5.91702 29.992 6.14102 30.504C6.71702 31.752 7.85302 32.808 9.54902 33.672C11.245 34.536 13.117 34.968 15.165 34.968C17.565 34.968 19.597 34.424 21.261 33.336C22.925 32.216 23.757 30.696 23.757 28.776C23.757 26.952 23.053 25.4 21.645 24.12C20.237 22.808 18.093 22.008 15.213 21.72C11.245 21.336 8.12502 20.184 5.85302 18.264C3.58102 16.312 2.44502 13.88 2.44502 10.968C2.44502 8.92 3.02102 7.16 4.17302 5.688C5.35702 4.184 6.95702 3.048 8.97302 2.28C11.021 1.48 13.309 1.08 15.837 1.08C18.589 1.08 20.909 1.64 22.797 2.76C24.685 3.88 26.285 5.48 27.597 7.56C27.981 8.168 28.173 8.744 28.173 9.288C28.173 9.992 27.853 10.568 27.213 11.016C26.861 11.24 26.445 11.352 25.965 11.352C25.485 11.352 25.037 11.24 24.621 11.016C24.205 10.76 23.885 10.424 23.661 10.008C22.797 8.568 21.709 7.48 20.397 6.744C19.117 5.976 17.485 5.592 15.501 5.592C13.069 5.592 11.101 6.072 9.59702 7.032C8.09302 7.96 7.34102 9.32 7.34102 11.112C7.34102 12.776 8.01302 14.168 9.35702 15.288C10.701 16.408 13.101 17.144 16.557 17.496C20.397 17.88 23.373 19.048 25.485 21C27.597 22.92 28.653 25.464 28.653 28.632C28.653 30.936 28.029 32.92 26.781 34.584C25.533 36.216 23.869 37.448 21.789 38.28C19.741 39.08 17.533 39.48 15.165 39.48Z"/>
<path d="M57.4759 12.696C58.2119 12.696 58.8039 12.92 59.2519 13.368C59.6999 13.816 59.9239 14.408 59.9239 15.144V36.552C59.9239 37.256 59.6999 37.848 59.2519 38.328C58.8039 38.776 58.2119 39 57.4759 39C56.7719 39 56.1799 38.776 55.6999 38.328C55.2519 37.848 55.0279 37.256 55.0279 36.552V36.024C54.0039 37.048 52.7879 37.848 51.3799 38.424C49.9719 38.968 48.4679 39.24 46.8679 39.24C44.6599 39.24 42.6759 38.76 40.9159 37.8C39.1559 36.84 37.7799 35.448 36.7879 33.624C35.7959 31.768 35.2999 29.544 35.2999 26.952V15.144C35.2999 14.44 35.5239 13.864 35.9719 13.416C36.4519 12.936 37.0439 12.696 37.7479 12.696C38.4519 12.696 39.0279 12.936 39.4759 13.416C39.9559 13.864 40.1959 14.44 40.1959 15.144V26.952C40.1959 29.544 40.8839 31.512 42.2599 32.856C43.6679 34.168 45.5239 34.824 47.8279 34.824C49.1719 34.824 50.3879 34.552 51.4759 34.008C52.5959 33.464 53.4599 32.728 54.0679 31.8C54.7079 30.872 55.0279 29.832 55.0279 28.68V15.144C55.0279 14.408 55.2519 13.816 55.6999 13.368C56.1799 12.92 56.7719 12.696 57.4759 12.696Z"/>
<path d="M81.7466 12.552C84.2106 12.552 86.4506 13.144 88.4666 14.328C90.5146 15.48 92.1146 17.08 93.2666 19.128C94.4186 21.144 94.9946 23.4 94.9946 25.896C94.9946 28.392 94.4506 30.664 93.3626 32.712C92.3066 34.728 90.8346 36.312 88.9466 37.464C87.0906 38.616 85.0106 39.192 82.7066 39.192C80.8506 39.192 79.1226 38.808 77.5226 38.04C75.9226 37.272 74.5627 36.2 73.4426 34.824V47.784C73.4426 48.52 73.2186 49.112 72.7706 49.56C72.3226 50.008 71.7306 50.232 70.9946 50.232C70.2906 50.232 69.6986 50.008 69.2186 49.56C68.7706 49.112 68.5466 48.52 68.5466 47.784V25.896C68.5466 23.4 69.1226 21.144 70.2746 19.128C71.4586 17.08 73.0426 15.48 75.0266 14.328C77.0426 13.144 79.2826 12.552 81.7466 12.552ZM81.7466 34.872C83.3466 34.872 84.7867 34.488 86.0667 33.72C87.3787 32.92 88.4026 31.848 89.1386 30.504C89.9066 29.128 90.2906 27.592 90.2906 25.896C90.2906 24.2 89.9066 22.664 89.1386 21.288C88.4026 19.912 87.3787 18.84 86.0667 18.072C84.7867 17.272 83.3466 16.872 81.7466 16.872C80.1466 16.872 78.6906 17.272 77.3786 18.072C76.0986 18.84 75.0906 19.912 74.3546 21.288C73.6186 22.664 73.2506 24.2 73.2506 25.896C73.2506 27.592 73.6186 29.128 74.3546 30.504C75.0906 31.848 76.0986 32.92 77.3786 33.72C78.6906 34.488 80.1466 34.872 81.7466 34.872Z"/>
<path d="M125.865 25.464C125.865 26.072 125.657 26.584 125.241 27C124.825 27.384 124.297 27.576 123.657 27.576H105.417C105.769 29.816 106.777 31.624 108.441 33C110.137 34.376 112.201 35.064 114.633 35.064C115.593 35.064 116.585 34.888 117.609 34.536C118.665 34.184 119.529 33.752 120.201 33.24C120.649 32.888 121.177 32.712 121.785 32.712C122.393 32.712 122.873 32.872 123.225 33.192C123.801 33.672 124.089 34.216 124.089 34.824C124.089 35.4 123.833 35.88 123.321 36.264C122.233 37.128 120.873 37.832 119.241 38.376C117.641 38.92 116.105 39.192 114.633 39.192C112.009 39.192 109.657 38.632 107.577 37.512C105.497 36.36 103.865 34.776 102.681 32.76C101.529 30.744 100.953 28.456 100.953 25.896C100.953 23.336 101.497 21.048 102.585 19.032C103.705 16.984 105.241 15.4 107.193 14.28C109.177 13.128 111.417 12.552 113.913 12.552C116.377 12.552 118.505 13.096 120.297 14.184C122.089 15.272 123.465 16.792 124.425 18.744C125.385 20.696 125.865 22.936 125.865 25.464ZM113.913 16.68C111.577 16.68 109.673 17.32 108.201 18.6C106.761 19.88 105.849 21.592 105.465 23.736H121.449C121.161 21.592 120.361 19.88 119.049 18.6C117.737 17.32 116.025 16.68 113.913 16.68Z"/>
<path d="M144.973 12.456C146.669 12.456 147.997 12.712 148.957 13.224C149.917 13.736 150.397 14.376 150.397 15.144C150.397 15.368 150.381 15.528 150.349 15.624C150.061 16.648 149.421 17.16 148.429 17.16C148.269 17.16 148.029 17.128 147.709 17.064C146.429 16.84 145.389 16.728 144.589 16.728C142.285 16.728 140.429 17.256 139.021 18.312C137.613 19.368 136.909 20.792 136.909 22.584V36.6C136.909 37.368 136.701 37.96 136.285 38.376C135.901 38.792 135.309 39 134.509 39C133.741 39 133.149 38.808 132.733 38.424C132.317 38.008 132.109 37.4 132.109 36.6V15.144C132.109 14.376 132.317 13.784 132.733 13.368C133.149 12.952 133.741 12.744 134.509 12.744C136.109 12.744 136.909 13.544 136.909 15.144V16.056C137.869 14.936 139.053 14.056 140.461 13.416C141.869 12.776 143.373 12.456 144.973 12.456Z"/>
<path d="M165.005 39.192C162.829 39.192 160.781 38.856 158.861 38.184C156.941 37.512 155.437 36.632 154.349 35.544C153.933 35.128 153.725 34.632 153.725 34.056C153.725 33.288 154.045 32.664 154.685 32.184C155.293 31.736 155.853 31.512 156.365 31.512C157.005 31.512 157.613 31.8 158.189 32.376C158.797 33.048 159.709 33.64 160.925 34.152C162.141 34.632 163.437 34.872 164.813 34.872C166.637 34.872 168.045 34.568 169.037 33.96C170.061 33.352 170.573 32.536 170.573 31.512C170.573 30.52 170.077 29.704 169.085 29.064C168.093 28.392 166.413 27.832 164.045 27.384C157.901 26.2 154.829 23.672 154.829 19.8C154.829 18.232 155.293 16.904 156.221 15.816C157.149 14.728 158.365 13.912 159.869 13.368C161.373 12.824 162.973 12.552 164.669 12.552C166.749 12.552 168.605 12.888 170.237 13.56C171.901 14.232 173.213 15.16 174.173 16.344C174.589 16.856 174.797 17.368 174.797 17.88C174.797 18.424 174.525 18.92 173.981 19.368C173.629 19.624 173.181 19.752 172.637 19.752C171.805 19.752 171.053 19.448 170.381 18.84C169.581 18.104 168.733 17.592 167.837 17.304C166.941 16.984 165.853 16.824 164.573 16.824C163.101 16.824 161.885 17.08 160.925 17.592C159.997 18.072 159.533 18.76 159.533 19.656C159.533 20.296 159.693 20.84 160.013 21.288C160.333 21.704 160.941 22.104 161.837 22.488C162.733 22.84 164.029 23.192 165.725 23.544C169.213 24.248 171.677 25.224 173.117 26.472C174.589 27.72 175.325 29.336 175.325 31.32C175.325 32.792 174.925 34.136 174.125 35.352C173.325 36.536 172.141 37.48 170.573 38.184C169.037 38.856 167.181 39.192 165.005 39.192Z"/>
<path d="M212.858 39.48C209.434 39.48 206.298 38.632 203.45 36.936C200.634 35.24 198.41 32.92 196.778 29.976C195.146 27.032 194.33 23.784 194.33 20.232C194.33 16.712 195.146 13.496 196.778 10.584C198.41 7.64 200.634 5.32 203.45 3.624C206.298 1.896 209.434 1.032 212.858 1.032C215.29 1.032 217.386 1.352 219.146 1.992C220.938 2.632 222.746 3.688 224.57 5.16C224.954 5.448 225.21 5.752 225.338 6.072C225.466 6.36 225.53 6.712 225.53 7.128C225.53 7.768 225.29 8.296 224.81 8.712C224.362 9.128 223.834 9.336 223.226 9.336C222.618 9.336 222.058 9.128 221.546 8.712C220.234 7.592 218.954 6.792 217.706 6.312C216.458 5.8 214.842 5.544 212.858 5.544C210.362 5.544 208.058 6.2 205.946 7.512C203.866 8.824 202.202 10.616 200.954 12.888C199.738 15.128 199.13 17.576 199.13 20.232C199.13 22.92 199.738 25.384 200.954 27.624C202.202 29.864 203.866 31.64 205.946 32.952C208.058 34.264 210.362 34.92 212.858 34.92C215.93 34.92 218.874 33.864 221.69 31.752C222.234 31.368 222.762 31.176 223.274 31.176C223.882 31.176 224.378 31.4 224.762 31.848C225.178 32.264 225.386 32.824 225.386 33.528C225.386 34.2 225.13 34.792 224.618 35.304C221.162 38.088 217.242 39.48 212.858 39.48Z"/>
<path d="M242.873 12.552C245.337 12.552 247.561 13.144 249.545 14.328C251.561 15.48 253.145 17.08 254.297 19.128C255.481 21.144 256.073 23.4 256.073 25.896V36.6C256.073 37.304 255.833 37.896 255.353 38.376C254.905 38.824 254.329 39.048 253.625 39.048C252.921 39.048 252.329 38.824 251.849 38.376C251.401 37.896 251.177 37.304 251.177 36.6V34.824C250.057 36.2 248.697 37.272 247.097 38.04C245.497 38.808 243.769 39.192 241.913 39.192C239.609 39.192 237.513 38.616 235.625 37.464C233.769 36.312 232.297 34.728 231.209 32.712C230.153 30.664 229.625 28.392 229.625 25.896C229.625 23.4 230.201 21.144 231.353 19.128C232.505 17.08 234.089 15.48 236.105 14.328C238.153 13.144 240.409 12.552 242.873 12.552ZM242.873 34.872C244.473 34.872 245.913 34.488 247.193 33.72C248.505 32.92 249.529 31.848 250.265 30.504C251.001 29.128 251.369 27.592 251.369 25.896C251.369 24.2 251.001 22.664 250.265 21.288C249.529 19.912 248.505 18.84 247.193 18.072C245.913 17.272 244.473 16.872 242.873 16.872C241.273 16.872 239.817 17.272 238.505 18.072C237.225 18.84 236.201 19.912 235.433 21.288C234.697 22.664 234.329 24.2 234.329 25.896C234.329 27.592 234.697 29.128 235.433 30.504C236.201 31.848 237.225 32.92 238.505 33.72C239.817 34.488 241.273 34.872 242.873 34.872Z"/>
<path d="M274.687 5.928C272.895 5.928 271.455 6.52 270.367 7.704C269.279 8.888 268.735 10.456 268.735 12.408V13.704H273.631C274.303 13.704 274.847 13.896 275.263 14.28C275.679 14.664 275.887 15.176 275.887 15.816C275.887 16.392 275.679 16.872 275.263 17.256C274.847 17.64 274.303 17.832 273.631 17.832H268.735V36.552C268.735 37.288 268.511 37.88 268.063 38.328C267.615 38.776 266.991 39 266.191 39C265.551 39 264.991 38.776 264.511 38.328C264.063 37.88 263.839 37.288 263.839 36.552V17.832H261.775C261.103 17.832 260.559 17.64 260.143 17.256C259.727 16.872 259.519 16.392 259.519 15.816C259.519 15.176 259.727 14.664 260.143 14.28C260.559 13.896 261.103 13.704 261.775 13.704H263.839V12.888C263.839 10.616 264.287 8.632 265.183 6.936C266.111 5.208 267.391 3.88 269.023 2.952C270.687 1.992 272.575 1.512 274.687 1.512C275.391 1.512 275.967 1.72 276.415 2.136C276.895 2.552 277.135 3.08 277.135 3.72C277.135 4.36 276.895 4.888 276.415 5.304C275.967 5.72 275.391 5.928 274.687 5.928Z"/>
<path d="M303.615 25.464C303.615 26.072 303.407 26.584 302.991 27C302.575 27.384 302.047 27.576 301.407 27.576H283.167C283.519 29.816 284.527 31.624 286.191 33C287.887 34.376 289.951 35.064 292.383 35.064C293.343 35.064 294.335 34.888 295.359 34.536C296.415 34.184 297.279 33.752 297.951 33.24C298.399 32.888 298.927 32.712 299.535 32.712C300.143 32.712 300.623 32.872 300.975 33.192C301.551 33.672 301.839 34.216 301.839 34.824C301.839 35.4 301.583 35.88 301.071 36.264C299.983 37.128 298.623 37.832 296.991 38.376C295.391 38.92 293.855 39.192 292.383 39.192C289.759 39.192 287.407 38.632 285.327 37.512C283.247 36.36 281.615 34.776 280.431 32.76C279.279 30.744 278.703 28.456 278.703 25.896C278.703 23.336 279.247 21.048 280.335 19.032C281.455 16.984 282.991 15.4 284.943 14.28C286.927 13.128 289.167 12.552 291.663 12.552C294.127 12.552 296.255 13.096 298.047 14.184C299.839 15.272 301.215 16.792 302.175 18.744C303.135 20.696 303.615 22.936 303.615 25.464ZM291.663 16.68C289.327 16.68 287.423 17.32 285.951 18.6C284.511 19.88 283.599 21.592 283.215 23.736H299.199C298.911 21.592 298.111 19.88 296.799 18.6C295.487 17.32 293.775 16.68 291.663 16.68Z"/>
</mask>
<path d="M15.165 39.48C12.061 39.48 9.22902 38.776 6.66902 37.368C4.14102 35.96 2.39702 34.12 1.43702 31.848C1.27702 31.464 1.19702 31.144 1.19702 30.888C1.19702 30.408 1.37302 29.992 1.72502 29.64C2.07702 29.256 2.55702 29 3.16502 28.872C3.26102 28.84 3.42102 28.824 3.64502 28.824C4.15702 28.824 4.63702 28.984 5.08502 29.304C5.56502 29.592 5.91702 29.992 6.14102 30.504C6.71702 31.752 7.85302 32.808 9.54902 33.672C11.245 34.536 13.117 34.968 15.165 34.968C17.565 34.968 19.597 34.424 21.261 33.336C22.925 32.216 23.757 30.696 23.757 28.776C23.757 26.952 23.053 25.4 21.645 24.12C20.237 22.808 18.093 22.008 15.213 21.72C11.245 21.336 8.12502 20.184 5.85302 18.264C3.58102 16.312 2.44502 13.88 2.44502 10.968C2.44502 8.92 3.02102 7.16 4.17302 5.688C5.35702 4.184 6.95702 3.048 8.97302 2.28C11.021 1.48 13.309 1.08 15.837 1.08C18.589 1.08 20.909 1.64 22.797 2.76C24.685 3.88 26.285 5.48 27.597 7.56C27.981 8.168 28.173 8.744 28.173 9.288C28.173 9.992 27.853 10.568 27.213 11.016C26.861 11.24 26.445 11.352 25.965 11.352C25.485 11.352 25.037 11.24 24.621 11.016C24.205 10.76 23.885 10.424 23.661 10.008C22.797 8.568 21.709 7.48 20.397 6.744C19.117 5.976 17.485 5.592 15.501 5.592C13.069 5.592 11.101 6.072 9.59702 7.032C8.09302 7.96 7.34102 9.32 7.34102 11.112C7.34102 12.776 8.01302 14.168 9.35702 15.288C10.701 16.408 13.101 17.144 16.557 17.496C20.397 17.88 23.373 19.048 25.485 21C27.597 22.92 28.653 25.464 28.653 28.632C28.653 30.936 28.029 32.92 26.781 34.584C25.533 36.216 23.869 37.448 21.789 38.28C19.741 39.08 17.533 39.48 15.165 39.48Z" fill="#F56546"/>
<path d="M57.4759 12.696C58.2119 12.696 58.8039 12.92 59.2519 13.368C59.6999 13.816 59.9239 14.408 59.9239 15.144V36.552C59.9239 37.256 59.6999 37.848 59.2519 38.328C58.8039 38.776 58.2119 39 57.4759 39C56.7719 39 56.1799 38.776 55.6999 38.328C55.2519 37.848 55.0279 37.256 55.0279 36.552V36.024C54.0039 37.048 52.7879 37.848 51.3799 38.424C49.9719 38.968 48.4679 39.24 46.8679 39.24C44.6599 39.24 42.6759 38.76 40.9159 37.8C39.1559 36.84 37.7799 35.448 36.7879 33.624C35.7959 31.768 35.2999 29.544 35.2999 26.952V15.144C35.2999 14.44 35.5239 13.864 35.9719 13.416C36.4519 12.936 37.0439 12.696 37.7479 12.696C38.4519 12.696 39.0279 12.936 39.4759 13.416C39.9559 13.864 40.1959 14.44 40.1959 15.144V26.952C40.1959 29.544 40.8839 31.512 42.2599 32.856C43.6679 34.168 45.5239 34.824 47.8279 34.824C49.1719 34.824 50.3879 34.552 51.4759 34.008C52.5959 33.464 53.4599 32.728 54.0679 31.8C54.7079 30.872 55.0279 29.832 55.0279 28.68V15.144C55.0279 14.408 55.2519 13.816 55.6999 13.368C56.1799 12.92 56.7719 12.696 57.4759 12.696Z" fill="#F56546"/>
<path d="M81.7466 12.552C84.2106 12.552 86.4506 13.144 88.4666 14.328C90.5146 15.48 92.1146 17.08 93.2666 19.128C94.4186 21.144 94.9946 23.4 94.9946 25.896C94.9946 28.392 94.4506 30.664 93.3626 32.712C92.3066 34.728 90.8346 36.312 88.9466 37.464C87.0906 38.616 85.0106 39.192 82.7066 39.192C80.8506 39.192 79.1226 38.808 77.5226 38.04C75.9226 37.272 74.5627 36.2 73.4426 34.824V47.784C73.4426 48.52 73.2186 49.112 72.7706 49.56C72.3226 50.008 71.7306 50.232 70.9946 50.232C70.2906 50.232 69.6986 50.008 69.2186 49.56C68.7706 49.112 68.5466 48.52 68.5466 47.784V25.896C68.5466 23.4 69.1226 21.144 70.2746 19.128C71.4586 17.08 73.0426 15.48 75.0266 14.328C77.0426 13.144 79.2826 12.552 81.7466 12.552ZM81.7466 34.872C83.3466 34.872 84.7867 34.488 86.0667 33.72C87.3787 32.92 88.4026 31.848 89.1386 30.504C89.9066 29.128 90.2906 27.592 90.2906 25.896C90.2906 24.2 89.9066 22.664 89.1386 21.288C88.4026 19.912 87.3787 18.84 86.0667 18.072C84.7867 17.272 83.3466 16.872 81.7466 16.872C80.1466 16.872 78.6906 17.272 77.3786 18.072C76.0986 18.84 75.0906 19.912 74.3546 21.288C73.6186 22.664 73.2506 24.2 73.2506 25.896C73.2506 27.592 73.6186 29.128 74.3546 30.504C75.0906 31.848 76.0986 32.92 77.3786 33.72C78.6906 34.488 80.1466 34.872 81.7466 34.872Z" fill="#F56546"/>
<path d="M125.865 25.464C125.865 26.072 125.657 26.584 125.241 27C124.825 27.384 124.297 27.576 123.657 27.576H105.417C105.769 29.816 106.777 31.624 108.441 33C110.137 34.376 112.201 35.064 114.633 35.064C115.593 35.064 116.585 34.888 117.609 34.536C118.665 34.184 119.529 33.752 120.201 33.24C120.649 32.888 121.177 32.712 121.785 32.712C122.393 32.712 122.873 32.872 123.225 33.192C123.801 33.672 124.089 34.216 124.089 34.824C124.089 35.4 123.833 35.88 123.321 36.264C122.233 37.128 120.873 37.832 119.241 38.376C117.641 38.92 116.105 39.192 114.633 39.192C112.009 39.192 109.657 38.632 107.577 37.512C105.497 36.36 103.865 34.776 102.681 32.76C101.529 30.744 100.953 28.456 100.953 25.896C100.953 23.336 101.497 21.048 102.585 19.032C103.705 16.984 105.241 15.4 107.193 14.28C109.177 13.128 111.417 12.552 113.913 12.552C116.377 12.552 118.505 13.096 120.297 14.184C122.089 15.272 123.465 16.792 124.425 18.744C125.385 20.696 125.865 22.936 125.865 25.464ZM113.913 16.68C111.577 16.68 109.673 17.32 108.201 18.6C106.761 19.88 105.849 21.592 105.465 23.736H121.449C121.161 21.592 120.361 19.88 119.049 18.6C117.737 17.32 116.025 16.68 113.913 16.68Z" fill="#F56546"/>
<path d="M144.973 12.456C146.669 12.456 147.997 12.712 148.957 13.224C149.917 13.736 150.397 14.376 150.397 15.144C150.397 15.368 150.381 15.528 150.349 15.624C150.061 16.648 149.421 17.16 148.429 17.16C148.269 17.16 148.029 17.128 147.709 17.064C146.429 16.84 145.389 16.728 144.589 16.728C142.285 16.728 140.429 17.256 139.021 18.312C137.613 19.368 136.909 20.792 136.909 22.584V36.6C136.909 37.368 136.701 37.96 136.285 38.376C135.901 38.792 135.309 39 134.509 39C133.741 39 133.149 38.808 132.733 38.424C132.317 38.008 132.109 37.4 132.109 36.6V15.144C132.109 14.376 132.317 13.784 132.733 13.368C133.149 12.952 133.741 12.744 134.509 12.744C136.109 12.744 136.909 13.544 136.909 15.144V16.056C137.869 14.936 139.053 14.056 140.461 13.416C141.869 12.776 143.373 12.456 144.973 12.456Z" fill="#F56546"/>
<path d="M165.005 39.192C162.829 39.192 160.781 38.856 158.861 38.184C156.941 37.512 155.437 36.632 154.349 35.544C153.933 35.128 153.725 34.632 153.725 34.056C153.725 33.288 154.045 32.664 154.685 32.184C155.293 31.736 155.853 31.512 156.365 31.512C157.005 31.512 157.613 31.8 158.189 32.376C158.797 33.048 159.709 33.64 160.925 34.152C162.141 34.632 163.437 34.872 164.813 34.872C166.637 34.872 168.045 34.568 169.037 33.96C170.061 33.352 170.573 32.536 170.573 31.512C170.573 30.52 170.077 29.704 169.085 29.064C168.093 28.392 166.413 27.832 164.045 27.384C157.901 26.2 154.829 23.672 154.829 19.8C154.829 18.232 155.293 16.904 156.221 15.816C157.149 14.728 158.365 13.912 159.869 13.368C161.373 12.824 162.973 12.552 164.669 12.552C166.749 12.552 168.605 12.888 170.237 13.56C171.901 14.232 173.213 15.16 174.173 16.344C174.589 16.856 174.797 17.368 174.797 17.88C174.797 18.424 174.525 18.92 173.981 19.368C173.629 19.624 173.181 19.752 172.637 19.752C171.805 19.752 171.053 19.448 170.381 18.84C169.581 18.104 168.733 17.592 167.837 17.304C166.941 16.984 165.853 16.824 164.573 16.824C163.101 16.824 161.885 17.08 160.925 17.592C159.997 18.072 159.533 18.76 159.533 19.656C159.533 20.296 159.693 20.84 160.013 21.288C160.333 21.704 160.941 22.104 161.837 22.488C162.733 22.84 164.029 23.192 165.725 23.544C169.213 24.248 171.677 25.224 173.117 26.472C174.589 27.72 175.325 29.336 175.325 31.32C175.325 32.792 174.925 34.136 174.125 35.352C173.325 36.536 172.141 37.48 170.573 38.184C169.037 38.856 167.181 39.192 165.005 39.192Z" fill="#F56546"/>
<path d="M212.858 39.48C209.434 39.48 206.298 38.632 203.45 36.936C200.634 35.24 198.41 32.92 196.778 29.976C195.146 27.032 194.33 23.784 194.33 20.232C194.33 16.712 195.146 13.496 196.778 10.584C198.41 7.64 200.634 5.32 203.45 3.624C206.298 1.896 209.434 1.032 212.858 1.032C215.29 1.032 217.386 1.352 219.146 1.992C220.938 2.632 222.746 3.688 224.57 5.16C224.954 5.448 225.21 5.752 225.338 6.072C225.466 6.36 225.53 6.712 225.53 7.128C225.53 7.768 225.29 8.296 224.81 8.712C224.362 9.128 223.834 9.336 223.226 9.336C222.618 9.336 222.058 9.128 221.546 8.712C220.234 7.592 218.954 6.792 217.706 6.312C216.458 5.8 214.842 5.544 212.858 5.544C210.362 5.544 208.058 6.2 205.946 7.512C203.866 8.824 202.202 10.616 200.954 12.888C199.738 15.128 199.13 17.576 199.13 20.232C199.13 22.92 199.738 25.384 200.954 27.624C202.202 29.864 203.866 31.64 205.946 32.952C208.058 34.264 210.362 34.92 212.858 34.92C215.93 34.92 218.874 33.864 221.69 31.752C222.234 31.368 222.762 31.176 223.274 31.176C223.882 31.176 224.378 31.4 224.762 31.848C225.178 32.264 225.386 32.824 225.386 33.528C225.386 34.2 225.13 34.792 224.618 35.304C221.162 38.088 217.242 39.48 212.858 39.48Z" fill="#F56546"/>
<path d="M242.873 12.552C245.337 12.552 247.561 13.144 249.545 14.328C251.561 15.48 253.145 17.08 254.297 19.128C255.481 21.144 256.073 23.4 256.073 25.896V36.6C256.073 37.304 255.833 37.896 255.353 38.376C254.905 38.824 254.329 39.048 253.625 39.048C252.921 39.048 252.329 38.824 251.849 38.376C251.401 37.896 251.177 37.304 251.177 36.6V34.824C250.057 36.2 248.697 37.272 247.097 38.04C245.497 38.808 243.769 39.192 241.913 39.192C239.609 39.192 237.513 38.616 235.625 37.464C233.769 36.312 232.297 34.728 231.209 32.712C230.153 30.664 229.625 28.392 229.625 25.896C229.625 23.4 230.201 21.144 231.353 19.128C232.505 17.08 234.089 15.48 236.105 14.328C238.153 13.144 240.409 12.552 242.873 12.552ZM242.873 34.872C244.473 34.872 245.913 34.488 247.193 33.72C248.505 32.92 249.529 31.848 250.265 30.504C251.001 29.128 251.369 27.592 251.369 25.896C251.369 24.2 251.001 22.664 250.265 21.288C249.529 19.912 248.505 18.84 247.193 18.072C245.913 17.272 244.473 16.872 242.873 16.872C241.273 16.872 239.817 17.272 238.505 18.072C237.225 18.84 236.201 19.912 235.433 21.288C234.697 22.664 234.329 24.2 234.329 25.896C234.329 27.592 234.697 29.128 235.433 30.504C236.201 31.848 237.225 32.92 238.505 33.72C239.817 34.488 241.273 34.872 242.873 34.872Z" fill="#F56546"/>
<path d="M274.687 5.928C272.895 5.928 271.455 6.52 270.367 7.704C269.279 8.888 268.735 10.456 268.735 12.408V13.704H273.631C274.303 13.704 274.847 13.896 275.263 14.28C275.679 14.664 275.887 15.176 275.887 15.816C275.887 16.392 275.679 16.872 275.263 17.256C274.847 17.64 274.303 17.832 273.631 17.832H268.735V36.552C268.735 37.288 268.511 37.88 268.063 38.328C267.615 38.776 266.991 39 266.191 39C265.551 39 264.991 38.776 264.511 38.328C264.063 37.88 263.839 37.288 263.839 36.552V17.832H261.775C261.103 17.832 260.559 17.64 260.143 17.256C259.727 16.872 259.519 16.392 259.519 15.816C259.519 15.176 259.727 14.664 260.143 14.28C260.559 13.896 261.103 13.704 261.775 13.704H263.839V12.888C263.839 10.616 264.287 8.632 265.183 6.936C266.111 5.208 267.391 3.88 269.023 2.952C270.687 1.992 272.575 1.512 274.687 1.512C275.391 1.512 275.967 1.72 276.415 2.136C276.895 2.552 277.135 3.08 277.135 3.72C277.135 4.36 276.895 4.888 276.415 5.304C275.967 5.72 275.391 5.928 274.687 5.928Z" fill="#F56546"/>
<path d="M303.615 25.464C303.615 26.072 303.407 26.584 302.991 27C302.575 27.384 302.047 27.576 301.407 27.576H283.167C283.519 29.816 284.527 31.624 286.191 33C287.887 34.376 289.951 35.064 292.383 35.064C293.343 35.064 294.335 34.888 295.359 34.536C296.415 34.184 297.279 33.752 297.951 33.24C298.399 32.888 298.927 32.712 299.535 32.712C300.143 32.712 300.623 32.872 300.975 33.192C301.551 33.672 301.839 34.216 301.839 34.824C301.839 35.4 301.583 35.88 301.071 36.264C299.983 37.128 298.623 37.832 296.991 38.376C295.391 38.92 293.855 39.192 292.383 39.192C289.759 39.192 287.407 38.632 285.327 37.512C283.247 36.36 281.615 34.776 280.431 32.76C279.279 30.744 278.703 28.456 278.703 25.896C278.703 23.336 279.247 21.048 280.335 19.032C281.455 16.984 282.991 15.4 284.943 14.28C286.927 13.128 289.167 12.552 291.663 12.552C294.127 12.552 296.255 13.096 298.047 14.184C299.839 15.272 301.215 16.792 302.175 18.744C303.135 20.696 303.615 22.936 303.615 25.464ZM291.663 16.68C289.327 16.68 287.423 17.32 285.951 18.6C284.511 19.88 283.599 21.592 283.215 23.736H299.199C298.911 21.592 298.111 19.88 296.799 18.6C295.487 17.32 293.775 16.68 291.663 16.68Z" fill="#F56546"/>
<path d="M15.165 39.48C12.061 39.48 9.22902 38.776 6.66902 37.368C4.14102 35.96 2.39702 34.12 1.43702 31.848C1.27702 31.464 1.19702 31.144 1.19702 30.888C1.19702 30.408 1.37302 29.992 1.72502 29.64C2.07702 29.256 2.55702 29 3.16502 28.872C3.26102 28.84 3.42102 28.824 3.64502 28.824C4.15702 28.824 4.63702 28.984 5.08502 29.304C5.56502 29.592 5.91702 29.992 6.14102 30.504C6.71702 31.752 7.85302 32.808 9.54902 33.672C11.245 34.536 13.117 34.968 15.165 34.968C17.565 34.968 19.597 34.424 21.261 33.336C22.925 32.216 23.757 30.696 23.757 28.776C23.757 26.952 23.053 25.4 21.645 24.12C20.237 22.808 18.093 22.008 15.213 21.72C11.245 21.336 8.12502 20.184 5.85302 18.264C3.58102 16.312 2.44502 13.88 2.44502 10.968C2.44502 8.92 3.02102 7.16 4.17302 5.688C5.35702 4.184 6.95702 3.048 8.97302 2.28C11.021 1.48 13.309 1.08 15.837 1.08C18.589 1.08 20.909 1.64 22.797 2.76C24.685 3.88 26.285 5.48 27.597 7.56C27.981 8.168 28.173 8.744 28.173 9.288C28.173 9.992 27.853 10.568 27.213 11.016C26.861 11.24 26.445 11.352 25.965 11.352C25.485 11.352 25.037 11.24 24.621 11.016C24.205 10.76 23.885 10.424 23.661 10.008C22.797 8.568 21.709 7.48 20.397 6.744C19.117 5.976 17.485 5.592 15.501 5.592C13.069 5.592 11.101 6.072 9.59702 7.032C8.09302 7.96 7.34102 9.32 7.34102 11.112C7.34102 12.776 8.01302 14.168 9.35702 15.288C10.701 16.408 13.101 17.144 16.557 17.496C20.397 17.88 23.373 19.048 25.485 21C27.597 22.92 28.653 25.464 28.653 28.632C28.653 30.936 28.029 32.92 26.781 34.584C25.533 36.216 23.869 37.448 21.789 38.28C19.741 39.08 17.533 39.48 15.165 39.48Z" stroke="#5C5C5C" stroke-width="0.6" mask="url(#path-1-outside-1)"/>
<path d="M57.4759 12.696C58.2119 12.696 58.8039 12.92 59.2519 13.368C59.6999 13.816 59.9239 14.408 59.9239 15.144V36.552C59.9239 37.256 59.6999 37.848 59.2519 38.328C58.8039 38.776 58.2119 39 57.4759 39C56.7719 39 56.1799 38.776 55.6999 38.328C55.2519 37.848 55.0279 37.256 55.0279 36.552V36.024C54.0039 37.048 52.7879 37.848 51.3799 38.424C49.9719 38.968 48.4679 39.24 46.8679 39.24C44.6599 39.24 42.6759 38.76 40.9159 37.8C39.1559 36.84 37.7799 35.448 36.7879 33.624C35.7959 31.768 35.2999 29.544 35.2999 26.952V15.144C35.2999 14.44 35.5239 13.864 35.9719 13.416C36.4519 12.936 37.0439 12.696 37.7479 12.696C38.4519 12.696 39.0279 12.936 39.4759 13.416C39.9559 13.864 40.1959 14.44 40.1959 15.144V26.952C40.1959 29.544 40.8839 31.512 42.2599 32.856C43.6679 34.168 45.5239 34.824 47.8279 34.824C49.1719 34.824 50.3879 34.552 51.4759 34.008C52.5959 33.464 53.4599 32.728 54.0679 31.8C54.7079 30.872 55.0279 29.832 55.0279 28.68V15.144C55.0279 14.408 55.2519 13.816 55.6999 13.368C56.1799 12.92 56.7719 12.696 57.4759 12.696Z" stroke="#5C5C5C" stroke-width="0.6" mask="url(#path-1-outside-1)"/>
<path d="M81.7466 12.552C84.2106 12.552 86.4506 13.144 88.4666 14.328C90.5146 15.48 92.1146 17.08 93.2666 19.128C94.4186 21.144 94.9946 23.4 94.9946 25.896C94.9946 28.392 94.4506 30.664 93.3626 32.712C92.3066 34.728 90.8346 36.312 88.9466 37.464C87.0906 38.616 85.0106 39.192 82.7066 39.192C80.8506 39.192 79.1226 38.808 77.5226 38.04C75.9226 37.272 74.5627 36.2 73.4426 34.824V47.784C73.4426 48.52 73.2186 49.112 72.7706 49.56C72.3226 50.008 71.7306 50.232 70.9946 50.232C70.2906 50.232 69.6986 50.008 69.2186 49.56C68.7706 49.112 68.5466 48.52 68.5466 47.784V25.896C68.5466 23.4 69.1226 21.144 70.2746 19.128C71.4586 17.08 73.0426 15.48 75.0266 14.328C77.0426 13.144 79.2826 12.552 81.7466 12.552ZM81.7466 34.872C83.3466 34.872 84.7867 34.488 86.0667 33.72C87.3787 32.92 88.4026 31.848 89.1386 30.504C89.9066 29.128 90.2906 27.592 90.2906 25.896C90.2906 24.2 89.9066 22.664 89.1386 21.288C88.4026 19.912 87.3787 18.84 86.0667 18.072C84.7867 17.272 83.3466 16.872 81.7466 16.872C80.1466 16.872 78.6906 17.272 77.3786 18.072C76.0986 18.84 75.0906 19.912 74.3546 21.288C73.6186 22.664 73.2506 24.2 73.2506 25.896C73.2506 27.592 73.6186 29.128 74.3546 30.504C75.0906 31.848 76.0986 32.92 77.3786 33.72C78.6906 34.488 80.1466 34.872 81.7466 34.872Z" stroke="#5C5C5C" stroke-width="0.6" mask="url(#path-1-outside-1)"/>
<path d="M125.865 25.464C125.865 26.072 125.657 26.584 125.241 27C124.825 27.384 124.297 27.576 123.657 27.576H105.417C105.769 29.816 106.777 31.624 108.441 33C110.137 34.376 112.201 35.064 114.633 35.064C115.593 35.064 116.585 34.888 117.609 34.536C118.665 34.184 119.529 33.752 120.201 33.24C120.649 32.888 121.177 32.712 121.785 32.712C122.393 32.712 122.873 32.872 123.225 33.192C123.801 33.672 124.089 34.216 124.089 34.824C124.089 35.4 123.833 35.88 123.321 36.264C122.233 37.128 120.873 37.832 119.241 38.376C117.641 38.92 116.105 39.192 114.633 39.192C112.009 39.192 109.657 38.632 107.577 37.512C105.497 36.36 103.865 34.776 102.681 32.76C101.529 30.744 100.953 28.456 100.953 25.896C100.953 23.336 101.497 21.048 102.585 19.032C103.705 16.984 105.241 15.4 107.193 14.28C109.177 13.128 111.417 12.552 113.913 12.552C116.377 12.552 118.505 13.096 120.297 14.184C122.089 15.272 123.465 16.792 124.425 18.744C125.385 20.696 125.865 22.936 125.865 25.464ZM113.913 16.68C111.577 16.68 109.673 17.32 108.201 18.6C106.761 19.88 105.849 21.592 105.465 23.736H121.449C121.161 21.592 120.361 19.88 119.049 18.6C117.737 17.32 116.025 16.68 113.913 16.68Z" stroke="#5C5C5C" stroke-width="0.6" mask="url(#path-1-outside-1)"/>
<path d="M144.973 12.456C146.669 12.456 147.997 12.712 148.957 13.224C149.917 13.736 150.397 14.376 150.397 15.144C150.397 15.368 150.381 15.528 150.349 15.624C150.061 16.648 149.421 17.16 148.429 17.16C148.269 17.16 148.029 17.128 147.709 17.064C146.429 16.84 145.389 16.728 144.589 16.728C142.285 16.728 140.429 17.256 139.021 18.312C137.613 19.368 136.909 20.792 136.909 22.584V36.6C136.909 37.368 136.701 37.96 136.285 38.376C135.901 38.792 135.309 39 134.509 39C133.741 39 133.149 38.808 132.733 38.424C132.317 38.008 132.109 37.4 132.109 36.6V15.144C132.109 14.376 132.317 13.784 132.733 13.368C133.149 12.952 133.741 12.744 134.509 12.744C136.109 12.744 136.909 13.544 136.909 15.144V16.056C137.869 14.936 139.053 14.056 140.461 13.416C141.869 12.776 143.373 12.456 144.973 12.456Z" stroke="#5C5C5C" stroke-width="0.6" mask="url(#path-1-outside-1)"/>
<path d="M165.005 39.192C162.829 39.192 160.781 38.856 158.861 38.184C156.941 37.512 155.437 36.632 154.349 35.544C153.933 35.128 153.725 34.632 153.725 34.056C153.725 33.288 154.045 32.664 154.685 32.184C155.293 31.736 155.853 31.512 156.365 31.512C157.005 31.512 157.613 31.8 158.189 32.376C158.797 33.048 159.709 33.64 160.925 34.152C162.141 34.632 163.437 34.872 164.813 34.872C166.637 34.872 168.045 34.568 169.037 33.96C170.061 33.352 170.573 32.536 170.573 31.512C170.573 30.52 170.077 29.704 169.085 29.064C168.093 28.392 166.413 27.832 164.045 27.384C157.901 26.2 154.829 23.672 154.829 19.8C154.829 18.232 155.293 16.904 156.221 15.816C157.149 14.728 158.365 13.912 159.869 13.368C161.373 12.824 162.973 12.552 164.669 12.552C166.749 12.552 168.605 12.888 170.237 13.56C171.901 14.232 173.213 15.16 174.173 16.344C174.589 16.856 174.797 17.368 174.797 17.88C174.797 18.424 174.525 18.92 173.981 19.368C173.629 19.624 173.181 19.752 172.637 19.752C171.805 19.752 171.053 19.448 170.381 18.84C169.581 18.104 168.733 17.592 167.837 17.304C166.941 16.984 165.853 16.824 164.573 16.824C163.101 16.824 161.885 17.08 160.925 17.592C159.997 18.072 159.533 18.76 159.533 19.656C159.533 20.296 159.693 20.84 160.013 21.288C160.333 21.704 160.941 22.104 161.837 22.488C162.733 22.84 164.029 23.192 165.725 23.544C169.213 24.248 171.677 25.224 173.117 26.472C174.589 27.72 175.325 29.336 175.325 31.32C175.325 32.792 174.925 34.136 174.125 35.352C173.325 36.536 172.141 37.48 170.573 38.184C169.037 38.856 167.181 39.192 165.005 39.192Z" stroke="#5C5C5C" stroke-width="0.6" mask="url(#path-1-outside-1)"/>
<path d="M212.858 39.48C209.434 39.48 206.298 38.632 203.45 36.936C200.634 35.24 198.41 32.92 196.778 29.976C195.146 27.032 194.33 23.784 194.33 20.232C194.33 16.712 195.146 13.496 196.778 10.584C198.41 7.64 200.634 5.32 203.45 3.624C206.298 1.896 209.434 1.032 212.858 1.032C215.29 1.032 217.386 1.352 219.146 1.992C220.938 2.632 222.746 3.688 224.57 5.16C224.954 5.448 225.21 5.752 225.338 6.072C225.466 6.36 225.53 6.712 225.53 7.128C225.53 7.768 225.29 8.296 224.81 8.712C224.362 9.128 223.834 9.336 223.226 9.336C222.618 9.336 222.058 9.128 221.546 8.712C220.234 7.592 218.954 6.792 217.706 6.312C216.458 5.8 214.842 5.544 212.858 5.544C210.362 5.544 208.058 6.2 205.946 7.512C203.866 8.824 202.202 10.616 200.954 12.888C199.738 15.128 199.13 17.576 199.13 20.232C199.13 22.92 199.738 25.384 200.954 27.624C202.202 29.864 203.866 31.64 205.946 32.952C208.058 34.264 210.362 34.92 212.858 34.92C215.93 34.92 218.874 33.864 221.69 31.752C222.234 31.368 222.762 31.176 223.274 31.176C223.882 31.176 224.378 31.4 224.762 31.848C225.178 32.264 225.386 32.824 225.386 33.528C225.386 34.2 225.13 34.792 224.618 35.304C221.162 38.088 217.242 39.48 212.858 39.48Z" stroke="#5C5C5C" stroke-width="0.6" mask="url(#path-1-outside-1)"/>
<path d="M242.873 12.552C245.337 12.552 247.561 13.144 249.545 14.328C251.561 15.48 253.145 17.08 254.297 19.128C255.481 21.144 256.073 23.4 256.073 25.896V36.6C256.073 37.304 255.833 37.896 255.353 38.376C254.905 38.824 254.329 39.048 253.625 39.048C252.921 39.048 252.329 38.824 251.849 38.376C251.401 37.896 251.177 37.304 251.177 36.6V34.824C250.057 36.2 248.697 37.272 247.097 38.04C245.497 38.808 243.769 39.192 241.913 39.192C239.609 39.192 237.513 38.616 235.625 37.464C233.769 36.312 232.297 34.728 231.209 32.712C230.153 30.664 229.625 28.392 229.625 25.896C229.625 23.4 230.201 21.144 231.353 19.128C232.505 17.08 234.089 15.48 236.105 14.328C238.153 13.144 240.409 12.552 242.873 12.552ZM242.873 34.872C244.473 34.872 245.913 34.488 247.193 33.72C248.505 32.92 249.529 31.848 250.265 30.504C251.001 29.128 251.369 27.592 251.369 25.896C251.369 24.2 251.001 22.664 250.265 21.288C249.529 19.912 248.505 18.84 247.193 18.072C245.913 17.272 244.473 16.872 242.873 16.872C241.273 16.872 239.817 17.272 238.505 18.072C237.225 18.84 236.201 19.912 235.433 21.288C234.697 22.664 234.329 24.2 234.329 25.896C234.329 27.592 234.697 29.128 235.433 30.504C236.201 31.848 237.225 32.92 238.505 33.72C239.817 34.488 241.273 34.872 242.873 34.872Z" stroke="#5C5C5C" stroke-width="0.6" mask="url(#path-1-outside-1)"/>
<path d="M274.687 5.928C272.895 5.928 271.455 6.52 270.367 7.704C269.279 8.888 268.735 10.456 268.735 12.408V13.704H273.631C274.303 13.704 274.847 13.896 275.263 14.28C275.679 14.664 275.887 15.176 275.887 15.816C275.887 16.392 275.679 16.872 275.263 17.256C274.847 17.64 274.303 17.832 273.631 17.832H268.735V36.552C268.735 37.288 268.511 37.88 268.063 38.328C267.615 38.776 266.991 39 266.191 39C265.551 39 264.991 38.776 264.511 38.328C264.063 37.88 263.839 37.288 263.839 36.552V17.832H261.775C261.103 17.832 260.559 17.64 260.143 17.256C259.727 16.872 259.519 16.392 259.519 15.816C259.519 15.176 259.727 14.664 260.143 14.28C260.559 13.896 261.103 13.704 261.775 13.704H263.839V12.888C263.839 10.616 264.287 8.632 265.183 6.936C266.111 5.208 267.391 3.88 269.023 2.952C270.687 1.992 272.575 1.512 274.687 1.512C275.391 1.512 275.967 1.72 276.415 2.136C276.895 2.552 277.135 3.08 277.135 3.72C277.135 4.36 276.895 4.888 276.415 5.304C275.967 5.72 275.391 5.928 274.687 5.928Z" stroke="#5C5C5C" stroke-width="0.6" mask="url(#path-1-outside-1)"/>
<path d="M303.615 25.464C303.615 26.072 303.407 26.584 302.991 27C302.575 27.384 302.047 27.576 301.407 27.576H283.167C283.519 29.816 284.527 31.624 286.191 33C287.887 34.376 289.951 35.064 292.383 35.064C293.343 35.064 294.335 34.888 295.359 34.536C296.415 34.184 297.279 33.752 297.951 33.24C298.399 32.888 298.927 32.712 299.535 32.712C300.143 32.712 300.623 32.872 300.975 33.192C301.551 33.672 301.839 34.216 301.839 34.824C301.839 35.4 301.583 35.88 301.071 36.264C299.983 37.128 298.623 37.832 296.991 38.376C295.391 38.92 293.855 39.192 292.383 39.192C289.759 39.192 287.407 38.632 285.327 37.512C283.247 36.36 281.615 34.776 280.431 32.76C279.279 30.744 278.703 28.456 278.703 25.896C278.703 23.336 279.247 21.048 280.335 19.032C281.455 16.984 282.991 15.4 284.943 14.28C286.927 13.128 289.167 12.552 291.663 12.552C294.127 12.552 296.255 13.096 298.047 14.184C299.839 15.272 301.215 16.792 302.175 18.744C303.135 20.696 303.615 22.936 303.615 25.464ZM291.663 16.68C289.327 16.68 287.423 17.32 285.951 18.6C284.511 19.88 283.599 21.592 283.215 23.736H299.199C298.911 21.592 298.111 19.88 296.799 18.6C295.487 17.32 293.775 16.68 291.663 16.68Z" stroke="#5C5C5C" stroke-width="0.6" mask="url(#path-1-outside-1)"/>
</svg>
