<svg width="43" height="49" viewBox="0 0 36 41" fill="none" xmlns="http://www.w3.org/2000/svg">
<path d="M21.3177 38.8813L21.3186 38.8818C23.1306 39.9609 25.1261 40.5 27.3009 40.5C30.0871 40.5 32.5813 39.614 34.7764 37.8457L34.7847 37.839L34.7923 37.8314C35.1466 37.4771 35.3309 37.0574 35.3309 36.58C35.3309 36.101 35.1887 35.6981 34.8877 35.394C34.6091 35.072 34.2446 34.91 33.8109 34.91C33.4387 34.91 33.0692 35.0499 32.7055 35.3066L32.7055 35.3065L32.7009 35.31C30.9702 36.608 29.1715 37.25 27.3009 37.25C25.7782 37.25 24.375 36.8505 23.087 36.0504C21.8171 35.2493 20.8004 34.165 20.0361 32.7936C19.2933 31.4248 18.9209 29.9182 18.9209 28.27C18.9209 26.642 19.2932 25.1452 20.0364 23.7758C20.8009 22.3843 21.8176 21.2903 23.087 20.4895C24.375 19.6895 25.7782 19.29 27.3009 19.29C28.526 19.29 29.5076 19.4484 30.255 19.755L30.255 19.7551L30.2591 19.7567C31.0128 20.0465 31.7935 20.5328 32.601 21.2221L32.601 21.2221L32.6048 21.2252C32.9572 21.5115 33.3509 21.66 33.7809 21.66C34.2105 21.66 34.5882 21.5115 34.9045 21.2189C35.247 20.9209 35.4209 20.5363 35.4209 20.08C35.4209 19.802 35.3785 19.5538 35.2852 19.3422C35.1872 19.0996 34.9994 18.8844 34.7438 18.6922C33.5913 17.7625 32.443 17.0906 31.2987 16.6818C30.1715 16.272 28.8374 16.07 27.3009 16.07C25.1255 16.07 23.1295 16.6194 21.3174 17.7188C19.7552 18.6598 18.4794 19.9032 17.491 21.4468C17.9227 20.5781 18.1373 19.6012 18.1373 18.52C18.1373 16.4908 17.4586 14.8448 16.0925 13.6026C14.7313 12.3448 12.8257 11.6039 10.3976 11.361C8.24481 11.1418 6.79681 10.6859 6.00538 10.0263C5.20829 9.3621 4.81734 8.54722 4.81734 7.56999C4.81734 6.51817 5.2524 5.73315 6.13237 5.1902L6.13238 5.19022L6.13495 5.18857C7.03312 4.61527 8.22207 4.31999 9.71734 4.31999C10.9327 4.31999 11.9142 4.55531 12.6744 5.01149L12.6744 5.01156L12.6795 5.01442C13.4646 5.45482 14.1197 6.10727 14.6435 6.97904C14.8007 7.26917 15.025 7.50338 15.3125 7.68032L15.3123 7.6806L15.3225 7.68608C15.6121 7.84203 15.9248 7.91999 16.2573 7.91999C16.5895 7.91999 16.888 7.84207 17.1447 7.67872L17.1448 7.67888L17.152 7.67383C17.5987 7.3612 17.8373 6.94318 17.8373 6.42999C17.8373 6.04183 17.7003 5.64509 17.4464 5.24319C16.6116 3.91972 15.5897 2.89597 14.3794 2.17798C13.1616 1.45555 11.6742 1.09999 9.92734 1.09999C8.32645 1.09999 6.87155 1.35328 5.56536 1.86339C4.27628 2.3546 3.24519 3.08453 2.4802 4.05628L2.47984 4.05673C1.72963 5.01533 1.35734 6.15985 1.35734 7.47999C1.35734 9.36018 2.09424 10.9349 3.55701 12.1917L3.55825 12.1927C5.01824 13.4265 7.01104 14.1564 9.5179 14.399C11.295 14.5768 12.5856 15.0679 13.421 15.8463L13.4228 15.848C14.2632 16.6119 14.6773 17.529 14.6773 18.61C14.6773 19.7395 14.1938 20.6286 13.2068 21.2933C12.2057 21.9475 10.9761 22.28 9.50734 22.28C8.25645 22.28 7.1179 22.0164 6.08813 21.4918C5.0538 20.9649 4.38513 20.3333 4.04975 19.6079C3.8941 19.2532 3.64858 18.9733 3.31708 18.7726C3.00763 18.5533 2.66968 18.44 2.30734 18.44C2.17157 18.44 2.04824 18.4484 1.95627 18.4764C1.54952 18.5637 1.21384 18.7393 0.962857 19.0116C0.708909 19.267 0.577344 19.5762 0.577344 19.93C0.577344 20.1278 0.63814 20.3559 0.742726 20.6069L0.743114 20.6078C1.36336 22.0758 2.48809 23.2569 4.10003 24.1547L4.10096 24.1552C5.73234 25.0525 7.53582 25.5 9.50734 25.5C11.0103 25.5 12.4152 25.246 13.7201 24.7363L13.7216 24.7357C15.052 24.2035 16.1224 23.4127 16.9262 22.3615L16.9273 22.36C16.9686 22.305 17.0087 22.2496 17.0478 22.1935C16.0292 24.0315 15.5209 26.0583 15.5209 28.27C15.5209 30.522 16.0386 32.5856 17.076 34.457C18.1125 36.3268 19.5269 37.8028 21.3177 38.8813Z" fill="#F56546" stroke="#5C5C5C" stroke-width="0.4"/>
</svg>
