<svg fill="rgba(255, 255, 255, 0)" xmlns="http://www.w3.org/2000/svg">
<rect width="63" height="65" fill="rgba(255, 255, 255, 0)"/>
<path d="M31.4436 0.500202L31.4454 0.500196C38.7938 0.473298 45.9154 3.22065 51.5325 8.25676C57.1503 13.2935 60.8958 20.2908 62.0902 27.9966C63.2846 35.7026 61.8484 43.6058 58.0426 50.2877C54.2434 56.9579 48.3334 61.972 41.3751 64.4419C40.6327 64.5824 40.2632 64.445 40.0789 64.2857C39.8845 64.1176 39.7606 63.8092 39.7606 63.3311V54.2096C39.8432 53.0192 39.6853 51.8233 39.2969 50.7013C39.0102 49.8731 38.6025 49.0987 38.0896 48.4058C41.3457 47.9355 44.6753 46.9648 47.2634 44.6684C50.1107 42.1419 51.9795 38.0859 51.9803 31.5863C52.0306 28.2516 50.8987 25.0175 48.8074 22.5211C49.7127 19.6104 49.5673 16.444 48.3924 13.6349L48.3059 13.428L48.0939 13.355L47.9312 13.8278C48.0939 13.355 48.0933 13.3548 48.0928 13.3547L48.0917 13.3543L48.0894 13.3535L48.0839 13.3517L48.0699 13.3473C48.0593 13.344 48.046 13.3402 48.0301 13.3359C47.9982 13.3273 47.9556 13.317 47.9023 13.3066C47.7956 13.2858 47.6461 13.2644 47.4525 13.2545C47.0648 13.2345 46.5038 13.2606 45.759 13.426C44.3029 13.7493 42.1488 14.6041 39.211 16.6844C34.1201 15.2591 28.7665 15.2591 23.6756 16.6846C20.7267 14.604 18.567 13.7492 17.1083 13.4259C16.3622 13.2606 15.8005 13.2346 15.4126 13.2545C15.2188 13.2644 15.0692 13.2858 14.9624 13.3066C14.9091 13.317 14.8665 13.3273 14.8346 13.3359C14.8187 13.3402 14.8054 13.344 14.7948 13.3473L14.7808 13.3517L14.7753 13.3535L14.7729 13.3543L14.7718 13.3547C14.7713 13.3548 14.7708 13.355 14.9335 13.8278L14.7708 13.355L14.5588 13.428L14.4722 13.6349C13.2974 16.444 13.152 19.6104 14.0572 22.5211C11.966 25.0175 10.8341 28.2515 10.8844 31.5862C10.8851 38.0628 12.7543 42.1178 15.5946 44.6525C18.1728 46.9535 21.4858 47.9409 24.7193 48.424C23.9066 49.5101 23.3942 50.8157 23.2427 52.1952C21.8497 52.9418 20.2425 53.1066 18.7388 52.6536C17.1543 52.1763 15.8046 51.0489 14.9941 49.5087L14.9941 49.5087L14.9915 49.5038C14.4563 48.5136 13.7132 47.6635 12.8169 47.0201C11.9205 46.3766 10.8951 45.9572 9.81864 45.7961L9.78377 45.7909L9.7485 45.7906L9.74463 46.2906C9.7485 45.7906 9.74833 45.7906 9.74814 45.7906L9.74771 45.7906L9.74664 45.7906L9.74365 45.7906L9.73437 45.7906L9.70332 45.7909C9.67736 45.7912 9.64106 45.7921 9.59669 45.794C9.50842 45.7978 9.38585 45.8057 9.24783 45.8225C8.99159 45.8538 8.60588 45.9238 8.30358 46.1068C8.14589 46.2023 7.97142 46.3522 7.87582 46.5819C7.7752 46.8236 7.79254 47.0793 7.88648 47.3175C8.05665 47.7488 8.50833 48.2031 9.22853 48.7198L9.23956 48.7277L9.251 48.735C10.8774 49.7731 12.0988 51.4065 12.6802 53.3367L12.6809 53.3391L12.6866 53.3581C12.6915 53.3738 12.6983 53.3955 12.7074 53.4226C12.7255 53.477 12.7523 53.5534 12.7893 53.6482C12.8631 53.8377 12.9774 54.1014 13.1428 54.4093C13.4731 55.0241 14.0107 55.8221 14.8416 56.5544C16.4488 57.9709 19.0834 59.08 23.2389 58.2829V63.3311C23.2389 63.6538 23.1139 63.9852 22.8716 64.2024C22.6485 64.4024 22.265 64.5598 21.6237 64.4417C14.6748 61.9747 8.77121 56.9704 4.97157 50.3127C1.16516 43.6431 -0.278957 35.7529 0.90092 28.0547C2.08077 20.3567 5.8063 13.3602 11.404 8.31399C17.0011 3.26845 24.1047 0.501245 31.4436 0.500202Z" fill="#67514C" stroke="#5C5C5C"/>
</svg>
