<svg width="505" height="65" viewBox="0 0 505 65" fill="none" xmlns="http://www.w3.org/2000/svg">
<!-- <rect x="445" y="3" width="60" height="60" fill="black"/>
<path d="M452.568 3.4H497.432C501.446 3.4 504.6 6.55425 504.6 10.5676V55.4324C504.6 57.5624 503.754 59.1763 502.465 60.4649C501.268 61.6619 499.384 62.6 497.432 62.6H452.568C448.554 62.6 445.4 59.4458 445.4 55.4324V10.5676C445.4 8.61586 446.338 6.73208 447.535 5.53509C448.824 4.24647 450.438 3.4 452.568 3.4ZM462.568 43.3099C468.369 43.3099 473.148 38.6309 473.148 32.8198C473.148 27.0133 468.374 22.2396 462.568 22.2396C456.853 22.2396 451.987 27.011 451.987 32.8198C451.987 38.6332 456.858 43.3099 462.568 43.3099ZM487.432 43.3099C493.142 43.3099 498.013 38.6332 498.013 32.8198C498.013 27.011 493.147 22.2396 487.432 22.2396C481.631 22.2396 476.762 27.0088 476.762 32.8198C476.762 38.6355 481.635 43.3099 487.432 43.3099Z" fill="#67514C" stroke="#5C5C5C" stroke-width="0.8"/> -->
<!-- <path d="M375 33L357.75 43.3923L357.75 22.6077L375 33Z" fill="black"/>
<path d="M363.74 55.6C363.74 55.6 363.74 55.6 363.74 56C363.74 55.6 363.74 55.6 363.74 55.6H363.739H363.737L363.726 55.6L363.685 55.6L363.524 55.5997C363.382 55.5993 363.174 55.5986 362.906 55.5973C362.372 55.5946 361.603 55.5892 360.665 55.5784C358.788 55.5568 356.238 55.5135 353.538 55.4271C350.837 55.3407 347.991 55.2111 345.524 55.0171C343.044 54.8221 340.984 54.5644 339.831 54.2311L339.831 54.2309C338.603 53.8775 337.48 53.1847 336.576 52.2184C335.675 51.2556 335.024 50.0552 334.689 48.7355C333.801 43.5457 333.37 38.2783 333.402 33.0024L333.402 32.9976C333.37 27.7217 333.801 22.4543 334.689 17.2645C335.024 15.9448 335.675 14.7444 336.576 13.7816C337.48 12.8153 338.603 12.1225 339.831 11.7691L339.831 11.7689C340.984 11.4356 343.044 11.1779 345.524 10.9829C347.991 10.7889 350.837 10.6593 353.538 10.5729C356.238 10.4865 358.788 10.4432 360.665 10.4216C361.603 10.4108 362.372 10.4054 362.906 10.4027C363.174 10.4013 363.382 10.4007 363.524 10.4003L363.685 10.4L363.726 10.4L363.737 10.4L363.739 10.4L363.74 10.4C363.74 10.4 363.74 10.4 363.74 10C363.74 10.4 363.74 10.4 363.74 10.4L363.741 10.4L363.743 10.4L363.754 10.4L363.795 10.4L363.956 10.4003C364.098 10.4007 364.307 10.4013 364.574 10.4027C365.108 10.4054 365.877 10.4108 366.815 10.4216C368.692 10.4432 371.243 10.4865 373.942 10.5729C376.643 10.6593 379.489 10.7889 381.956 10.9829C384.436 11.1779 386.497 11.4356 387.649 11.7689L387.649 11.7691C388.877 12.1225 390 12.8153 390.904 13.7816C391.805 14.7444 392.457 15.9448 392.791 17.2645C393.679 22.4543 394.11 27.7217 394.078 32.9976L394.078 33.0024C394.11 38.2783 393.679 43.5457 392.791 48.7355C392.457 50.0552 391.805 51.2556 390.904 52.2184C390 53.1847 388.877 53.8775 387.649 54.2309L387.649 54.2311C386.497 54.5644 384.436 54.8221 381.956 55.0171C379.489 55.2111 376.643 55.3407 373.942 55.4271C371.243 55.5135 368.692 55.5568 366.815 55.5784C365.877 55.5892 365.108 55.5946 364.574 55.5973C364.307 55.5986 364.098 55.5993 363.956 55.5997L363.795 55.6L363.754 55.6L363.743 55.6H363.741H363.74ZM357.192 42.8571V43.5743L357.803 43.1975L373.765 33.3403L374.316 33L373.765 32.6597L357.803 22.8025L357.192 22.4257V23.1429V42.8571Z" fill="#67514C" stroke="#5C5C5C" stroke-width="0.8"/> -->
<!-- <rect x="232" y="20" width="41" height="18" fill="black"/>
<path d="M259.2 37.3582C259.729 37.357 260.232 37.1368 260.601 36.752C260.97 36.3675 261.176 35.8495 261.181 35.3116V35.3084L261.177 22.7863C261.177 22.7863 261.177 22.7862 261.177 22.7862C261.177 21.6721 260.303 20.7268 259.194 20.7268C258.083 20.7268 257.221 21.6754 257.221 22.7863V29.274L251.796 21.5717L251.791 21.5642L251.786 21.5571C251.429 21.0968 250.873 20.7356 250.232 20.7346C250.019 20.7323 249.807 20.7692 249.606 20.8434C248.807 21.1297 248.268 21.9186 248.268 22.7863V35.3065C248.268 35.8445 248.472 36.3642 248.839 36.7503C249.208 37.137 249.711 37.3582 250.241 37.3582C250.771 37.3582 251.275 37.137 251.643 36.7503C252.011 36.3642 252.214 35.8445 252.214 35.3065V28.8562L257.59 36.5321L257.59 36.5321L257.594 36.5384C257.781 36.7939 258.023 37.0021 258.302 37.1451C258.581 37.2878 258.888 37.3611 259.2 37.3582ZM259.2 37.3582C259.2 37.3582 259.199 37.3582 259.199 37.3582L259.198 36.9582L259.202 37.3581C259.202 37.3582 259.201 37.3582 259.2 37.3582ZM266.423 26.9946V24.8419H270.409H270.418L270.428 24.8414C270.942 24.8168 271.422 24.5856 271.772 24.2025C272.121 23.8199 272.314 23.3146 272.315 22.7921C272.317 22.2696 272.127 21.7632 271.78 21.3785C271.433 20.9933 270.953 20.7592 270.44 20.7313L270.429 20.7307H270.418H264.45C263.341 20.7307 262.481 21.6799 262.481 22.7902V35.3105V35.3109C262.481 35.8478 262.684 36.3662 263.051 36.7519C263.418 37.1383 263.92 37.3601 264.448 37.3621H264.45H270.397C270.664 37.3742 270.929 37.3302 271.178 37.2329C271.431 37.1344 271.66 36.9836 271.853 36.7908C272.046 36.598 272.198 36.3673 272.302 36.113C272.405 35.8588 272.459 35.5859 272.459 35.3105C272.459 35.0351 272.405 34.7621 272.302 34.5079C272.198 34.2537 272.046 34.0229 271.853 33.8301C271.66 33.6373 271.431 33.4865 271.178 33.388C270.929 33.2907 270.664 33.2467 270.397 33.2588H266.421V31.1059H270.4C270.666 31.1145 270.93 31.0673 271.177 30.9676C271.427 30.8669 271.653 30.7151 271.843 30.5223C272.033 30.3295 272.183 30.0995 272.285 29.8467C272.388 29.594 272.44 29.3228 272.44 29.0494C272.44 28.7759 272.388 28.5048 272.285 28.252C272.183 27.9992 272.033 27.7693 271.843 27.5765C271.653 27.3836 271.427 27.2318 271.177 27.1311C270.93 27.0314 270.666 26.9842 270.4 26.9928L266.423 26.9946ZM246.826 35.3103V35.3086L246.827 22.7883V22.7883C246.827 21.677 245.964 20.7287 244.854 20.7287C243.743 20.7287 242.881 21.6773 242.881 22.7883V35.3085V35.3089C242.882 35.8441 243.083 36.3611 243.448 36.7465C243.813 37.1325 244.313 37.3555 244.84 37.3601L244.843 37.3601C245.373 37.3608 245.878 37.1405 246.248 36.7543C246.618 36.3687 246.823 35.8492 246.826 35.3103ZM234.293 37.3601H234.294H240.263C240.792 37.3601 241.296 37.139 241.665 36.7523C242.032 36.3662 242.236 35.8465 242.236 35.3085C242.236 34.7705 242.032 34.2508 241.665 33.8647C241.296 33.478 240.792 33.2568 240.263 33.2568H236.267V22.7883C236.267 21.6773 235.406 20.7287 234.294 20.7287C233.186 20.7287 232.312 21.6742 232.312 22.7883L232.312 35.3085L232.312 35.3116C232.316 35.8496 232.522 36.3677 232.891 36.7526C233.26 37.1381 233.764 37.3588 234.293 37.3601ZM247.173 53.4029L247.158 53.3995L247.143 53.3974C232.877 51.4081 222.4 40.9563 222.4 28.57C222.4 14.7515 235.627 3.4 252 3.4C268.373 3.4 281.6 14.7515 281.6 28.57C281.6 34.0885 279.585 39.0849 275.331 43.9755L275.331 43.9754L275.324 43.983C272.208 47.7491 267.15 51.9502 262.45 55.3955C257.744 58.8447 253.451 61.4969 251.879 62.1854L251.879 62.1856C251.095 62.5294 250.593 62.6199 250.284 62.5966C250.008 62.5756 249.896 62.4675 249.831 62.3445C249.748 62.1882 249.716 61.9547 249.727 61.671C249.737 61.4392 249.771 61.2178 249.801 61.0278C249.806 60.9902 249.812 60.9538 249.817 60.9189C249.817 60.9186 249.817 60.9183 249.817 60.918L250.228 58.2442L250.229 58.2371L250.23 58.23C250.279 57.8099 250.332 57.2782 250.334 56.7471C250.335 56.2229 250.286 55.6623 250.109 55.1996L250.107 55.1964C249.882 54.6235 249.357 54.2318 248.83 53.9647C248.291 53.6922 247.679 53.5139 247.173 53.4029Z" fill="#67514C" stroke="#5C5C5C" stroke-width="0.8"/> -->
<!-- <rect x="114" y="2" width="57" height="61" fill="black"/>
<path d="M131.609 53.5646H132.109V53.0646V25.5193V25.0193H131.609H123.056H122.556V25.5193V53.0646V53.5646H123.056H131.609ZM132.672 16.9984H132.672L132.672 16.9885C132.643 15.5287 132.141 14.2129 131.219 13.2584C130.294 12.3003 128.978 11.7404 127.391 11.7404C125.806 11.7404 124.463 12.3002 123.517 13.2552C122.572 14.2089 122.05 15.5286 122.05 16.9984C122.05 19.9001 124.11 22.2564 127.277 22.2564H127.334C128.948 22.2564 130.291 21.6819 131.229 20.7185C132.165 19.7578 132.672 18.4392 132.672 16.9984ZM144.818 53.5646H145.318V53.0646V37.6812C145.318 36.8597 145.378 36.12 145.569 35.6281L145.569 35.6281L145.571 35.6227C146.149 34.0838 147.418 32.5997 149.492 32.5997C150.878 32.5997 151.798 33.1505 152.397 34.0932C153.019 35.0712 153.324 36.5173 153.324 38.3293V53.0646V53.5646H153.824H162.377H162.877V53.0646V37.2656C162.877 32.9558 161.803 29.726 159.944 27.5663C158.077 25.3981 155.468 24.3674 152.531 24.3674C150.154 24.3674 148.407 25.0691 147.103 26.0349C146.374 26.574 145.792 27.1898 145.318 27.7964V25.5193V25.0193H144.818H136.269H135.747L135.769 25.54C135.822 26.8182 135.822 33.6876 135.809 40.2603C135.802 43.5416 135.792 46.7421 135.784 49.1224C135.779 50.3125 135.776 51.2976 135.773 51.9851L135.77 52.7816L135.769 52.9908L135.769 53.0444L135.769 53.0579L135.769 53.0613L135.769 53.0622C135.769 53.0624 135.769 53.0625 136.269 53.0646L135.769 53.0625L135.766 53.5646H136.269H144.818ZM114.5 6.36912C114.5 4.21155 116.17 2.5 118.186 2.5H166.813C168.828 2.5 170.498 4.21155 170.498 6.36912V58.6309C170.498 60.7885 168.828 62.5 166.813 62.5H118.186C116.17 62.5 114.5 60.7885 114.5 58.6309V6.36912Z" fill="#67514C" stroke="#5C5C5C"/> -->
<!-- <rect width="63" height="65" fill="black"/>
<path d="M31.4436 0.500202L31.4454 0.500196C38.7938 0.473298 45.9154 3.22065 51.5325 8.25676C57.1503 13.2935 60.8958 20.2908 62.0902 27.9966C63.2846 35.7026 61.8484 43.6058 58.0426 50.2877C54.2434 56.9579 48.3334 61.972 41.3751 64.4419C40.6327 64.5824 40.2632 64.445 40.0789 64.2857C39.8845 64.1176 39.7606 63.8092 39.7606 63.3311V54.2096C39.8432 53.0192 39.6853 51.8233 39.2969 50.7013C39.0102 49.8731 38.6025 49.0987 38.0896 48.4058C41.3457 47.9355 44.6753 46.9648 47.2634 44.6684C50.1107 42.1419 51.9795 38.0859 51.9803 31.5863C52.0306 28.2516 50.8987 25.0175 48.8074 22.5211C49.7127 19.6104 49.5673 16.444 48.3924 13.6349L48.3059 13.428L48.0939 13.355L47.9312 13.8278C48.0939 13.355 48.0933 13.3548 48.0928 13.3547L48.0917 13.3543L48.0894 13.3535L48.0839 13.3517L48.0699 13.3473C48.0593 13.344 48.046 13.3402 48.0301 13.3359C47.9982 13.3273 47.9556 13.317 47.9023 13.3066C47.7956 13.2858 47.6461 13.2644 47.4525 13.2545C47.0648 13.2345 46.5038 13.2606 45.759 13.426C44.3029 13.7493 42.1488 14.6041 39.211 16.6844C34.1201 15.2591 28.7665 15.2591 23.6756 16.6846C20.7267 14.604 18.567 13.7492 17.1083 13.4259C16.3622 13.2606 15.8005 13.2346 15.4126 13.2545C15.2188 13.2644 15.0692 13.2858 14.9624 13.3066C14.9091 13.317 14.8665 13.3273 14.8346 13.3359C14.8187 13.3402 14.8054 13.344 14.7948 13.3473L14.7808 13.3517L14.7753 13.3535L14.7729 13.3543L14.7718 13.3547C14.7713 13.3548 14.7708 13.355 14.9335 13.8278L14.7708 13.355L14.5588 13.428L14.4722 13.6349C13.2974 16.444 13.152 19.6104 14.0572 22.5211C11.966 25.0175 10.8341 28.2515 10.8844 31.5862C10.8851 38.0628 12.7543 42.1178 15.5946 44.6525C18.1728 46.9535 21.4858 47.9409 24.7193 48.424C23.9066 49.5101 23.3942 50.8157 23.2427 52.1952C21.8497 52.9418 20.2425 53.1066 18.7388 52.6536C17.1543 52.1763 15.8046 51.0489 14.9941 49.5087L14.9941 49.5087L14.9915 49.5038C14.4563 48.5136 13.7132 47.6635 12.8169 47.0201C11.9205 46.3766 10.8951 45.9572 9.81864 45.7961L9.78377 45.7909L9.7485 45.7906L9.74463 46.2906C9.7485 45.7906 9.74833 45.7906 9.74814 45.7906L9.74771 45.7906L9.74664 45.7906L9.74365 45.7906L9.73437 45.7906L9.70332 45.7909C9.67736 45.7912 9.64106 45.7921 9.59669 45.794C9.50842 45.7978 9.38585 45.8057 9.24783 45.8225C8.99159 45.8538 8.60588 45.9238 8.30358 46.1068C8.14589 46.2023 7.97142 46.3522 7.87582 46.5819C7.7752 46.8236 7.79254 47.0793 7.88648 47.3175C8.05665 47.7488 8.50833 48.2031 9.22853 48.7198L9.23956 48.7277L9.251 48.735C10.8774 49.7731 12.0988 51.4065 12.6802 53.3367L12.6809 53.3391L12.6866 53.3581C12.6915 53.3738 12.6983 53.3955 12.7074 53.4226C12.7255 53.477 12.7523 53.5534 12.7893 53.6482C12.8631 53.8377 12.9774 54.1014 13.1428 54.4093C13.4731 55.0241 14.0107 55.8221 14.8416 56.5544C16.4488 57.9709 19.0834 59.08 23.2389 58.2829V63.3311C23.2389 63.6538 23.1139 63.9852 22.8716 64.2024C22.6485 64.4024 22.265 64.5598 21.6237 64.4417C14.6748 61.9747 8.77121 56.9704 4.97157 50.3127C1.16516 43.6431 -0.278957 35.7529 0.90092 28.0547C2.08077 20.3567 5.8063 13.3602 11.404 8.31399C17.0011 3.26845 24.1047 0.501245 31.4436 0.500202Z" fill="#67514C" stroke="#5C5C5C"/> -->
</svg>
