<svg width="117" height="117" viewBox="0 0 117 117" fill="none" xmlns="http://www.w3.org/2000/svg">
<path d="M40.0056 52.3043C36.6978 51.6473 33.6166 54.3207 33.6166 57.6965V69.1153C33.6166 71.4262 35.2252 73.284 37.4002 74.0996C41.5236 75.6403 44.4916 79.6278 44.4916 84.295C44.4916 90.2989 39.6205 95.17 33.6166 95.17C27.6127 95.17 22.7416 90.2989 22.7416 84.295V28.1075C22.7416 25.0942 20.3174 22.67 17.3041 22.67H6.42908C3.4158 22.67 0.991577 25.0942 0.991577 28.1075V84.295C0.991577 104.572 19.5924 120.59 40.64 116.172C52.965 113.589 62.9111 103.621 65.4939 91.3184C69.4361 72.5364 57.1111 55.7028 40.0056 52.3043ZM48.3431 0.919966C46.2588 0.806684 44.4916 2.46059 44.4916 4.54497V11.7043C44.4916 13.6301 45.9869 15.2161 47.89 15.3067C77.2072 16.8926 100.77 40.6817 102.469 70.0215C102.582 71.9246 104.168 73.42 106.071 73.42H113.344C115.428 73.42 117.082 71.6528 116.969 69.5684C115.043 32.5934 85.3181 2.8684 48.3431 0.919966ZM48.4111 22.67C46.3041 22.5114 44.4916 24.1879 44.4916 26.3176V33.5903C44.4916 35.4934 45.9642 37.0567 47.8447 37.1926C65.2447 38.62 79.1103 52.6442 80.6736 70.0895C80.8549 71.97 82.3955 73.42 84.2759 73.42H91.5713C93.6783 73.42 95.3775 71.6075 95.2189 69.5004C93.3158 44.5559 73.3556 24.5957 48.4111 22.67V22.67Z" fill="#5C5C5C"/>
</svg>
