<svg width="199" height="239" viewBox="0 0 199 239" fill="none" xmlns="http://www.w3.org/2000/svg">
<path d="M62.5621 230.489C62.0862 230.489 61.7055 230.37 61.4199 230.133C61.1344 229.871 60.9916 229.527 60.9916 229.099V204.043C60.9916 203.639 61.1225 203.306 61.3842 203.045C61.646 202.784 61.9791 202.653 62.3836 202.653H71.0573C72.4851 202.653 73.7701 202.962 74.9123 203.58C76.0783 204.174 76.9944 205.005 77.6607 206.075C78.3508 207.144 78.6959 208.344 78.6959 209.674C78.6959 210.934 78.3508 212.062 77.6607 213.06C76.9944 214.058 76.0902 214.831 74.948 215.377C76.5899 215.829 77.8868 216.648 78.8386 217.836C79.7905 219.001 80.2664 220.474 80.2664 222.256C80.2664 223.848 79.8976 225.274 79.1599 226.533C78.4222 227.769 77.399 228.743 76.0902 229.456C74.8052 230.145 73.3298 230.489 71.6641 230.489H62.5621ZM71.0573 214.272C72.5089 214.272 73.6868 213.868 74.591 213.06C75.5191 212.229 75.9831 211.1 75.9831 209.674C75.9831 208.296 75.531 207.227 74.6267 206.467C73.7225 205.706 72.5327 205.326 71.0573 205.326H63.7757V214.272H71.0573ZM71.6641 227.816C73.4012 227.816 74.8052 227.317 75.876 226.319C76.9706 225.297 77.518 223.943 77.518 222.256C77.518 220.64 76.9706 219.357 75.876 218.407C74.8052 217.432 73.4012 216.945 71.6641 216.945H63.7757V227.816H71.6641Z" fill="#5C5C5C"/>
<path d="M89.6651 230.489C88.2136 230.489 87.0237 229.919 86.0957 228.778C85.1914 227.614 84.7393 226.129 84.7393 224.323V204.007C84.7393 203.603 84.8702 203.283 85.132 203.045C85.3937 202.784 85.715 202.653 86.0957 202.653C86.5002 202.653 86.8215 202.784 87.0594 203.045C87.3212 203.283 87.4521 203.603 87.4521 204.007V224.323C87.4521 225.345 87.6543 226.177 88.0589 226.818C88.4872 227.46 89.0226 227.78 89.6651 227.78H90.5575C90.9144 227.78 91.2 227.911 91.4141 228.172C91.6283 228.41 91.7354 228.731 91.7354 229.135C91.7354 229.539 91.5807 229.871 91.2713 230.133C90.9858 230.37 90.6051 230.489 90.1291 230.489H89.6651Z" fill="#5C5C5C"/>
<path d="M103.787 230.667C101.908 230.667 100.206 230.24 98.6832 229.384C97.184 228.529 96.0061 227.353 95.1495 225.856C94.2928 224.335 93.8645 222.636 93.8645 220.759C93.8645 218.882 94.2928 217.183 95.1495 215.662C96.0061 214.142 97.184 212.953 98.6832 212.098C100.206 211.243 101.908 210.815 103.787 210.815C105.667 210.815 107.357 211.243 108.856 212.098C110.355 212.953 111.533 214.142 112.39 215.662C113.27 217.183 113.71 218.882 113.71 220.759C113.71 222.636 113.282 224.335 112.425 225.856C111.569 227.353 110.379 228.529 108.856 229.384C107.357 230.24 105.667 230.667 103.787 230.667ZM103.787 228.172C105.168 228.172 106.405 227.852 107.5 227.21C108.594 226.569 109.451 225.689 110.07 224.573C110.688 223.432 110.998 222.161 110.998 220.759C110.998 219.333 110.688 218.062 110.07 216.945C109.451 215.805 108.594 214.914 107.5 214.272C106.405 213.631 105.168 213.31 103.787 213.31C102.431 213.31 101.194 213.631 100.075 214.272C98.9806 214.914 98.1121 215.805 97.4696 216.945C96.8509 218.062 96.5415 219.333 96.5415 220.759C96.5415 222.161 96.8509 223.432 97.4696 224.573C98.1121 225.689 98.9806 226.569 100.075 227.21C101.194 227.852 102.431 228.172 103.787 228.172Z" fill="#5C5C5C"/>
<path d="M127.944 210.815C129.847 210.815 131.549 211.243 133.048 212.098C134.547 212.93 135.725 214.106 136.582 215.627C137.438 217.124 137.867 218.834 137.867 220.759V228.03C137.867 229.931 137.438 231.653 136.582 233.198C135.749 234.742 134.583 235.954 133.084 236.833C131.585 237.736 129.895 238.188 128.015 238.188C126.183 238.188 124.553 237.843 123.125 237.154C121.697 236.465 120.496 235.503 119.52 234.267C119.306 234.03 119.199 233.756 119.199 233.447C119.199 233.091 119.365 232.782 119.698 232.521C119.936 232.354 120.198 232.271 120.484 232.271C120.698 232.271 120.912 232.319 121.126 232.414C121.34 232.533 121.507 232.675 121.626 232.842C122.34 233.744 123.244 234.445 124.339 234.944C125.433 235.443 126.671 235.693 128.051 235.693C129.383 235.693 130.585 235.36 131.656 234.695C132.751 234.053 133.607 233.139 134.226 231.95C134.845 230.786 135.154 229.444 135.154 227.923V226.319C134.44 227.673 133.429 228.743 132.12 229.527C130.811 230.287 129.324 230.667 127.658 230.667C125.802 230.667 124.136 230.252 122.661 229.42C121.209 228.565 120.067 227.388 119.234 225.891C118.425 224.371 118.021 222.66 118.021 220.759C118.021 218.834 118.449 217.124 119.306 215.627C120.162 214.106 121.34 212.93 122.839 212.098C124.362 211.243 126.064 210.815 127.944 210.815ZM127.944 228.172C129.324 228.172 130.561 227.864 131.656 227.246C132.751 226.604 133.607 225.725 134.226 224.608C134.845 223.468 135.154 222.185 135.154 220.759C135.154 219.333 134.845 218.062 134.226 216.945C133.607 215.805 132.751 214.914 131.656 214.272C130.561 213.631 129.324 213.31 127.944 213.31C126.54 213.31 125.29 213.631 124.196 214.272C123.101 214.914 122.245 215.805 121.626 216.945C121.007 218.062 120.698 219.333 120.698 220.759C120.698 222.185 121.007 223.468 121.626 224.608C122.245 225.725 123.101 226.604 124.196 227.246C125.29 227.864 126.54 228.172 127.944 228.172Z" fill="#5C5C5C"/>
<path d="M1.49997 99.3496C1.49997 153.388 45.3721 197.199 99.4958 197.199C153.619 197.199 197.492 153.388 197.492 99.3496C197.492 45.3108 153.619 1.5 99.4958 1.5C45.3721 1.5 1.49997 45.3108 1.49997 99.3496Z" stroke="#A0DEB1" stroke-width="3"/>
<path d="M91.0056 92.3043C87.6978 91.6473 84.6166 94.3207 84.6166 97.6965V109.115C84.6166 111.426 86.2252 113.284 88.4002 114.1C92.5236 115.64 95.4916 119.628 95.4916 124.295C95.4916 130.299 90.6205 135.17 84.6166 135.17C78.6127 135.17 73.7416 130.299 73.7416 124.295V68.1075C73.7416 65.0942 71.3174 62.67 68.3041 62.67H57.4291C54.4158 62.67 51.9916 65.0942 51.9916 68.1075V124.295C51.9916 144.572 70.5924 160.59 91.64 156.172C103.965 153.589 113.911 143.621 116.494 131.318C120.436 112.536 108.111 95.7028 91.0056 92.3043ZM99.3431 40.92C97.2588 40.8067 95.4916 42.4606 95.4916 44.545V51.7043C95.4916 53.6301 96.9869 55.2161 98.89 55.3067C128.207 56.8926 151.77 80.6817 153.469 110.022C153.582 111.925 155.168 113.42 157.071 113.42H164.344C166.428 113.42 168.082 111.653 167.969 109.568C166.043 72.5934 136.318 42.8684 99.3431 40.92ZM99.4111 62.67C97.3041 62.5114 95.4916 64.1879 95.4916 66.3176V73.5903C95.4916 75.4934 96.9642 77.0567 98.8447 77.1926C116.245 78.62 130.11 92.6442 131.674 110.089C131.855 111.97 133.395 113.42 135.276 113.42H142.571C144.678 113.42 146.378 111.607 146.219 109.5C144.316 84.5559 124.356 64.5957 99.4111 62.67V62.67Z" fill="#5C5C5C"/>
</svg>
