<svg width="199" height="230" viewBox="0 0 199 230" fill="none" xmlns="http://www.w3.org/2000/svg">
<path d="M31.3838 229.303C31.003 229.303 30.6699 229.172 30.3843 228.911C30.1226 228.626 29.9917 228.293 29.9917 227.913V202.857C29.9917 202.453 30.1226 202.12 30.3843 201.859C30.6699 201.597 31.003 201.467 31.3838 201.467C31.7883 201.467 32.1214 201.597 32.3832 201.859C32.645 202.12 32.7758 202.453 32.7758 202.857V227.913C32.7758 228.293 32.645 228.626 32.3832 228.911C32.1214 229.172 31.7883 229.303 31.3838 229.303Z" fill="#5C5C5C"/>
<path d="M48.8139 209.593C50.5035 209.593 52.0145 209.949 53.3471 210.662C54.7035 211.375 55.7624 212.42 56.5239 213.799C57.2853 215.153 57.6661 216.781 57.6661 218.682V227.948C57.6661 228.329 57.5352 228.649 57.2734 228.911C57.0117 229.172 56.6904 229.303 56.3097 229.303C55.9052 229.303 55.572 229.172 55.3103 228.911C55.0485 228.649 54.9176 228.329 54.9176 227.948V218.682C54.9176 216.567 54.3227 214.963 53.1329 213.87C51.9669 212.753 50.4321 212.195 48.5284 212.195C47.3624 212.195 46.3035 212.42 45.3516 212.872C44.4236 213.323 43.6859 213.953 43.1386 214.761C42.5913 215.545 42.3176 216.424 42.3176 217.398V227.948C42.3176 228.352 42.1867 228.685 41.925 228.946C41.687 229.184 41.3658 229.303 40.9612 229.303C40.5567 229.303 40.2236 229.184 39.9618 228.946C39.7 228.685 39.5692 228.352 39.5692 227.948V211.197C39.5692 210.793 39.7 210.46 39.9618 210.199C40.2236 209.937 40.5567 209.807 40.9612 209.807C41.3658 209.807 41.687 209.937 41.925 210.199C42.1867 210.46 42.3176 210.793 42.3176 211.197V212.409C43.1029 211.529 44.0547 210.84 45.1731 210.341C46.2916 209.842 47.5052 209.593 48.8139 209.593Z" fill="#5C5C5C"/>
<path d="M70.543 229.481C69.0677 229.481 67.6518 229.231 66.2954 228.733C64.939 228.234 63.8444 227.533 63.0116 226.63C62.7736 226.345 62.6546 226.071 62.6546 225.81C62.6546 225.406 62.845 225.05 63.2257 224.741C63.5113 224.527 63.8087 224.42 64.1181 224.42C64.5226 224.42 64.8677 224.586 65.1532 224.919C65.7243 225.584 66.4739 226.095 67.4019 226.451C68.3538 226.808 69.4008 226.986 70.543 226.986C72.2087 226.986 73.458 226.701 74.2909 226.131C75.1238 225.56 75.5521 224.812 75.5759 223.885C75.5759 223.03 75.1595 222.317 74.3266 221.747C73.4937 221.176 72.1731 220.749 70.3645 220.464C68.0325 220.083 66.2835 219.43 65.1175 218.503C63.9753 217.553 63.4042 216.412 63.4042 215.082C63.4042 213.347 64.0705 212.005 65.4031 211.054C66.7594 210.104 68.449 209.629 70.4716 209.629C72.0422 209.629 73.4104 209.902 74.5765 210.448C75.7425 210.971 76.6824 211.708 77.3963 212.658C77.5867 212.967 77.6818 213.24 77.6818 213.478C77.6818 213.882 77.4915 214.203 77.1107 214.44C76.9442 214.559 76.7181 214.618 76.4326 214.618C75.9328 214.618 75.5164 214.44 75.1833 214.084C74.0172 212.753 72.4229 212.088 70.4002 212.088C69.0915 212.088 68.0444 212.361 67.2592 212.908C66.4739 213.43 66.0813 214.096 66.0813 214.904C66.0813 215.759 66.4501 216.448 67.1878 216.971C67.9254 217.47 69.2342 217.874 71.1141 218.183C73.6603 218.61 75.4807 219.311 76.5753 220.285C77.6699 221.236 78.2173 222.424 78.2173 223.85C78.2173 224.943 77.8841 225.917 77.2178 226.772C76.5753 227.628 75.6711 228.293 74.5051 228.768C73.3391 229.243 72.0184 229.481 70.543 229.481Z" fill="#5C5C5C"/>
<path d="M91.5691 226.558C91.9498 226.558 92.2592 226.689 92.4971 226.95C92.7351 227.212 92.8541 227.544 92.8541 227.948C92.8541 228.329 92.7113 228.649 92.4257 228.911C92.1402 229.172 91.7833 229.303 91.3549 229.303H90.6054C89.3442 229.303 88.2138 229.006 87.2144 228.412C86.215 227.794 85.4297 226.974 84.8586 225.952C84.3113 224.907 84.0376 223.731 84.0376 222.424V212.908H81.7175C81.3368 212.908 81.0274 212.801 80.7895 212.587C80.5753 212.349 80.4682 212.064 80.4682 211.731C80.4682 211.375 80.5753 211.09 80.7895 210.876C81.0274 210.638 81.3368 210.52 81.7175 210.52H84.0376V204.995C84.0376 204.591 84.1566 204.259 84.3946 203.997C84.6563 203.736 84.9895 203.605 85.394 203.605C85.7985 203.605 86.1317 203.736 86.3934 203.997C86.6552 204.259 86.7861 204.591 86.7861 204.995V210.52H90.8195C91.2003 210.52 91.4977 210.638 91.7119 210.876C91.9498 211.09 92.0688 211.375 92.0688 211.731C92.0688 212.064 91.9498 212.349 91.7119 212.587C91.4977 212.801 91.2003 212.908 90.8195 212.908H86.7861V222.424C86.7861 223.636 87.143 224.634 87.8569 225.418C88.5708 226.178 89.4869 226.558 90.6054 226.558H91.5691Z" fill="#5C5C5C"/>
<path d="M106.145 209.593C107.144 209.593 107.929 209.724 108.5 209.985C109.095 210.246 109.393 210.615 109.393 211.09C109.393 211.232 109.381 211.339 109.357 211.411C109.262 211.743 109.107 211.969 108.893 212.088C108.703 212.207 108.429 212.266 108.072 212.266C107.858 212.266 107.489 212.242 106.966 212.195C106.775 212.171 106.49 212.159 106.109 212.159C104.324 212.159 102.861 212.634 101.718 213.585C100.6 214.535 100.041 215.771 100.041 217.292V227.948C100.041 228.376 99.9219 228.709 99.6839 228.946C99.446 229.184 99.1128 229.303 98.6845 229.303C98.2562 229.303 97.923 229.184 97.6851 228.946C97.4471 228.709 97.3281 228.376 97.3281 227.948V211.161C97.3281 210.733 97.4471 210.401 97.6851 210.163C97.923 209.926 98.2562 209.807 98.6845 209.807C99.1128 209.807 99.446 209.926 99.6839 210.163C99.9219 210.401 100.041 210.733 100.041 211.161V212.729C100.731 211.731 101.611 210.959 102.682 210.413C103.753 209.866 104.907 209.593 106.145 209.593Z" fill="#5C5C5C"/>
<path d="M130.024 209.807C130.429 209.807 130.762 209.937 131.024 210.199C131.285 210.436 131.416 210.757 131.416 211.161V227.913C131.416 228.317 131.285 228.649 131.024 228.911C130.762 229.172 130.429 229.303 130.024 229.303C129.62 229.303 129.287 229.172 129.025 228.911C128.787 228.649 128.668 228.317 128.668 227.913V226.701C127.883 227.58 126.931 228.269 125.812 228.768C124.694 229.267 123.48 229.517 122.172 229.517C120.482 229.517 118.959 229.16 117.603 228.447C116.27 227.735 115.223 226.701 114.462 225.347C113.7 223.968 113.319 222.329 113.319 220.428V211.161C113.319 210.781 113.45 210.46 113.712 210.199C113.974 209.937 114.295 209.807 114.676 209.807C115.08 209.807 115.413 209.937 115.675 210.199C115.937 210.46 116.068 210.781 116.068 211.161V220.428C116.068 222.543 116.651 224.158 117.817 225.275C119.007 226.368 120.553 226.915 122.457 226.915C123.623 226.915 124.67 226.689 125.598 226.238C126.55 225.786 127.3 225.168 127.847 224.384C128.394 223.576 128.668 222.685 128.668 221.711V211.161C128.668 210.757 128.787 210.436 129.025 210.199C129.287 209.937 129.62 209.807 130.024 209.807Z" fill="#5C5C5C"/>
<path d="M146.542 229.481C144.686 229.481 143.02 229.053 141.545 228.198C140.069 227.319 138.903 226.131 138.047 224.634C137.214 223.113 136.797 221.426 136.797 219.573C136.797 217.672 137.202 215.973 138.011 214.476C138.82 212.955 139.939 211.767 141.366 210.912C142.794 210.056 144.4 209.629 146.185 209.629C149.16 209.629 151.575 210.769 153.431 213.05C153.621 213.264 153.716 213.513 153.716 213.799C153.716 214.179 153.514 214.511 153.11 214.797C152.896 214.939 152.669 215.01 152.431 215.01C152.075 215.01 151.73 214.832 151.396 214.476C150.682 213.692 149.897 213.11 149.041 212.729C148.184 212.325 147.232 212.123 146.185 212.123C144.876 212.123 143.71 212.444 142.687 213.086C141.664 213.704 140.867 214.583 140.295 215.723C139.748 216.864 139.475 218.147 139.475 219.573C139.475 220.974 139.772 222.246 140.367 223.386C140.962 224.503 141.795 225.382 142.865 226.024C143.936 226.665 145.162 226.986 146.542 226.986C148.446 226.986 149.98 226.475 151.147 225.453C151.456 225.192 151.777 225.061 152.11 225.061C152.396 225.061 152.658 225.156 152.896 225.347C153.229 225.632 153.395 225.952 153.395 226.309C153.395 226.618 153.276 226.879 153.038 227.093C151.325 228.685 149.16 229.481 146.542 229.481Z" fill="#5C5C5C"/>
<path d="M167.698 226.558C168.079 226.558 168.388 226.689 168.626 226.95C168.864 227.212 168.983 227.544 168.983 227.948C168.983 228.329 168.84 228.649 168.555 228.911C168.269 229.172 167.912 229.303 167.484 229.303H166.734C165.473 229.303 164.343 229.006 163.343 228.412C162.344 227.794 161.559 226.974 160.987 225.952C160.44 224.907 160.167 223.731 160.167 222.424V212.908H157.846C157.466 212.908 157.156 212.801 156.918 212.587C156.704 212.349 156.597 212.064 156.597 211.731C156.597 211.375 156.704 211.09 156.918 210.876C157.156 210.638 157.466 210.52 157.846 210.52H160.167V204.995C160.167 204.591 160.285 204.259 160.523 203.997C160.785 203.736 161.118 203.605 161.523 203.605C161.927 203.605 162.261 203.736 162.522 203.997C162.784 204.259 162.915 204.591 162.915 204.995V210.52H166.948C167.329 210.52 167.627 210.638 167.841 210.876C168.079 211.09 168.198 211.375 168.198 211.731C168.198 212.064 168.079 212.349 167.841 212.587C167.627 212.801 167.329 212.908 166.948 212.908H162.915V222.424C162.915 223.636 163.272 224.634 163.986 225.418C164.7 226.178 165.616 226.558 166.734 226.558H167.698Z" fill="#5C5C5C"/>
<path d="M1.50006 99.3496C1.50006 153.388 45.3722 197.199 99.4959 197.199C153.62 197.199 197.492 153.388 197.492 99.3496C197.492 45.3108 153.62 1.5 99.4959 1.5C45.3722 1.5 1.50006 45.3108 1.50006 99.3496Z" stroke="#C34AD7" stroke-width="3"/>
<path d="M60.3917 69.2533L60.3917 88.76C54.9397 90.72 50.9917 95.8533 50.9917 101.92C50.9917 107.987 54.9397 113.12 60.3917 115.08L60.3917 134.587C60.3917 135.24 60.4387 135.847 60.5797 136.453C60.8938 137.94 61.5669 139.328 62.5412 140.498C63.5155 141.669 64.7618 142.587 66.1727 143.173C67.2537 143.64 68.4757 143.92 69.7917 143.92L135.592 143.92C136.861 143.92 138.13 143.64 139.258 143.173C140.386 142.707 141.373 142.007 142.266 141.167C143.535 139.907 144.475 138.273 144.851 136.453C144.945 135.847 144.992 135.24 144.992 134.587L144.992 69.2533C144.992 64.12 140.762 59.92 135.592 59.92L69.7917 59.92C64.6217 59.92 60.3917 64.12 60.3917 69.2533ZM116.228 109.853C118.061 111.673 118.061 114.66 116.228 116.48L106.029 126.607C105.594 127.039 105.077 127.382 104.509 127.617C103.94 127.851 103.331 127.971 102.715 127.971C102.1 127.971 101.49 127.851 100.922 127.617C100.353 127.382 99.8365 127.039 99.4017 126.607L89.2027 116.48C87.3697 114.66 87.3697 111.673 89.2027 109.853C91.0357 108.033 93.9967 108.033 95.8297 109.853L102.692 116.713L109.554 109.9C111.387 108.08 114.395 108.033 116.228 109.853V109.853ZM66.2667 101.92C66.2667 103.833 64.6687 105.42 62.7417 105.42C60.8147 105.42 59.2167 103.833 59.2167 101.92C59.2167 100.007 60.8147 98.42 62.7417 98.42C64.6687 98.42 66.2667 100.007 66.2667 101.92ZM116.228 93.9866C115.793 94.4193 115.276 94.7625 114.708 94.9967C114.139 95.2308 113.53 95.3514 112.914 95.3514C112.299 95.3514 111.689 95.2308 111.121 94.9967C110.552 94.7625 110.036 94.4193 109.601 93.9866L102.692 87.1266L95.7827 93.9866C95.3479 94.4193 94.8314 94.7625 94.2628 94.9967C93.6943 95.2308 93.0847 95.3514 92.4692 95.3514C91.8536 95.3514 91.2441 95.2308 90.6756 94.9967C90.107 94.7625 89.5905 94.4193 89.1557 93.9866C87.3227 92.1666 87.3227 89.18 89.1557 87.36L99.3547 77.2333C101.188 75.4133 104.149 75.4133 105.982 77.2333L116.181 87.36C118.061 89.18 118.061 92.1666 116.228 93.9866V93.9866Z" fill="#5C5C5C"/>
</svg>
