<svg width="95" height="85" viewBox="0 0 95 85" fill="none" xmlns="http://www.w3.org/2000/svg">
<path d="M10.3917 10.2533L10.3917 29.76C4.9397 31.72 0.991697 36.8533 0.991697 42.92C0.991698 48.9866 4.9397 54.12 10.3917 56.08L10.3917 75.5866C10.3917 76.24 10.4387 76.8466 10.5797 77.4533C10.8938 78.9396 11.5669 80.3278 12.5412 81.4984C13.5155 82.669 14.7618 83.587 16.1727 84.1733C17.2537 84.64 18.4757 84.92 19.7917 84.92L85.5917 84.92C86.8607 84.92 88.1297 84.64 89.2577 84.1733C90.3857 83.7066 91.3727 83.0066 92.2657 82.1666C93.5347 80.9066 94.4747 79.2733 94.8507 77.4533C94.9447 76.8466 94.9917 76.24 94.9917 75.5866L94.9917 10.2533C94.9917 5.11998 90.7617 0.919979 85.5917 0.919979L19.7917 0.919982C14.6217 0.919982 10.3917 5.11998 10.3917 10.2533ZM66.2277 50.8533C68.0607 52.6733 68.0607 55.66 66.2277 57.48L56.0287 67.6066C55.5939 68.0393 55.0774 68.3825 54.5088 68.6167C53.9403 68.8508 53.3307 68.9714 52.7152 68.9714C52.0996 68.9714 51.4901 68.8508 50.9216 68.6167C50.353 68.3825 49.8365 68.0393 49.4017 67.6066L39.2027 57.48C37.3697 55.66 37.3697 52.6733 39.2027 50.8533C41.0357 49.0333 43.9967 49.0333 45.8297 50.8533L52.6917 57.7133L59.5537 50.9C61.3867 49.08 64.3947 49.0333 66.2277 50.8533ZM16.2667 42.92C16.2667 44.8333 14.6687 46.42 12.7417 46.42C10.8147 46.42 9.2167 44.8333 9.2167 42.92C9.2167 41.0066 10.8147 39.42 12.7417 39.42C14.6687 39.42 16.2667 41.0066 16.2667 42.92ZM66.2277 34.9866C65.7929 35.4193 65.2764 35.7625 64.7078 35.9967C64.1393 36.2308 63.5297 36.3514 62.9142 36.3514C62.2986 36.3514 61.6891 36.2308 61.1206 35.9967C60.552 35.7625 60.0355 35.4193 59.6007 34.9866L52.6917 28.1266L45.7827 34.9866C45.3479 35.4193 44.8314 35.7625 44.2628 35.9967C43.6943 36.2308 43.0847 36.3514 42.4692 36.3514C41.8536 36.3514 41.2441 36.2308 40.6756 35.9967C40.107 35.7625 39.5905 35.4193 39.1557 34.9866C37.3227 33.1666 37.3227 30.18 39.1557 28.36L49.3547 18.2333C51.1877 16.4133 54.1487 16.4133 55.9817 18.2333L66.1807 28.36C68.0607 30.18 68.0607 33.1666 66.2277 34.9866Z" fill="#5C5C5C"/>
</svg>
