<svg width="94" height="90" viewBox="0 0 94 90" fill="none" xmlns="http://www.w3.org/2000/svg">
<path d="M2.18406 41.1508C2.13045 40.5334 2.20577 39.9116 2.40522 39.3248C2.60468 38.7381 2.92392 38.1992 3.3427 37.7424C3.76147 37.2856 4.27063 36.9208 4.83787 36.6712C5.40511 36.4216 6.01803 36.2926 6.63776 36.2924H15.1763C16.3622 36.2924 17.4996 36.7635 18.3382 37.6021C19.1767 38.4407 19.6479 39.5781 19.6479 40.764V83.2441C19.6479 84.43 19.1767 85.5674 18.3382 86.406C17.4996 87.2446 16.3622 87.7157 15.1763 87.7157H10.3335C9.21436 87.716 8.13577 87.2966 7.31078 86.5403C6.4858 85.784 5.9744 84.7459 5.87759 83.6309L2.18406 41.1508V41.1508Z" stroke="#5C5C5C" stroke-width="4" stroke-linecap="round" stroke-linejoin="round"/>
<path d="M33.0626 39.3666C33.0626 37.4975 34.2252 35.8251 35.9132 35.0292C39.6 33.2897 45.8804 29.7952 48.7131 25.0709C52.3642 18.9806 53.0528 7.9783 53.1646 5.45856C53.1802 5.1053 53.1713 4.75205 53.2182 4.40326C53.8242 0.036754 62.2509 5.1366 65.4816 10.5293C67.2367 13.4538 67.4603 17.2971 67.2769 20.2998C67.0779 23.5104 66.1367 26.6114 65.2133 29.6923L63.2458 36.2589H87.5198C88.2107 36.2588 88.8922 36.4189 89.5108 36.7264C90.1294 37.034 90.6684 37.4808 91.0854 38.0316C91.5024 38.5825 91.786 39.2224 91.9141 39.9013C92.0422 40.5802 92.0113 41.2796 91.8237 41.9445L79.8175 84.4604C79.5525 85.398 78.9884 86.2235 78.2111 86.8111C77.4338 87.3987 76.4858 87.7164 75.5114 87.7157H37.5342C36.3482 87.7157 35.2108 87.2446 34.3723 86.406C33.5337 85.5674 33.0626 84.43 33.0626 83.2441V39.3666Z" stroke="#5C5C5C" stroke-width="4" stroke-linecap="round" stroke-linejoin="round"/>
</svg>
