<svg width="80" height="111" viewBox="0 0 80 111" fill="none" xmlns="http://www.w3.org/2000/svg">
<path d="M78.5605 28.8543L50.998 1.29185C50.2105 0.504346 49.423 0.110596 48.2417 0.110596H8.8667C4.53545 0.110596 0.991699 3.65435 0.991699 7.9856V102.486C0.991699 106.817 4.53545 110.361 8.8667 110.361H71.8667C76.198 110.361 79.7417 106.817 79.7417 102.486V31.6106C79.7417 30.4293 79.348 29.6418 78.5605 28.8543ZM48.2417 9.5606L70.2917 31.6106H48.2417V9.5606ZM71.8667 102.486H8.8667V7.9856H40.3667V31.6106C40.3667 35.9418 43.9104 39.4856 48.2417 39.4856H71.8667V102.486Z" fill="#5C5C5C"/>
<path d="M16.7417 78.8606H63.9917V86.7356H16.7417V78.8606Z" fill="#5C5C5C"/>
<path d="M16.7417 55.2356H63.9917V63.1106H16.7417V55.2356Z" fill="#5C5C5C"/>
</svg>
