<svg width="28" height="28" viewBox="0 0 28 28" fill="none" xmlns="http://www.w3.org/2000/svg">
<path d="M14 0.559998C6.57577 0.559998 0.558571 6.5772 0.558571 14C0.558387 15.7652 0.905934 17.5131 1.58136 19.144C2.25679 20.7749 3.24687 22.2567 4.49506 23.5049C5.74324 24.7531 7.22508 25.7432 8.85595 26.4186C10.4868 27.094 12.2348 27.4416 14 27.4414C21.4214 27.4414 27.44 21.4242 27.44 14C27.44 6.5772 21.4214 0.559998 14 0.559998ZM15.2544 5.4124C16.5648 5.4124 16.9498 6.1726 16.9498 7.042C16.9498 8.127 16.0818 9.1308 14.5992 9.1308C13.3588 9.1308 12.768 8.5078 12.8044 7.476C12.8044 6.6066 13.531 5.4124 15.2544 5.4124ZM11.8972 22.05C11.0012 22.05 10.3474 21.5054 10.9732 19.1184L11.9994 14.8834C12.1772 14.2058 12.2066 13.9342 11.9994 13.9342C11.732 13.9342 10.5686 14.4018 9.88257 14.8638L9.43597 14.1316C11.613 12.313 14.1162 11.2462 15.1872 11.2462C16.0832 11.2462 16.2316 12.3046 15.785 13.9342L14.609 18.3862C14.4004 19.173 14.49 19.4446 14.6986 19.4446C14.9674 19.4446 15.8466 19.1198 16.7118 18.438L17.2186 19.1184C15.1004 21.2352 12.7918 22.05 11.8972 22.05Z" fill="#5C5C5C"/>
</svg>
