<svg width="26" height="29" viewBox="0 0 26 29" fill="none" xmlns="http://www.w3.org/2000/svg">
<path d="M16.38 17.3255L0.779996 17.3255C0.636996 17.3255 0.519996 17.4656 0.519996 17.6367L0.519995 19.8154C0.519995 19.9866 0.636996 20.1266 0.779996 20.1266L16.38 20.1266C16.523 20.1266 16.64 19.9866 16.64 19.8154L16.64 17.6367C16.64 17.4656 16.523 17.3255 16.38 17.3255ZM16.64 9.38905C16.64 9.21787 16.523 9.07782 16.38 9.07782L0.779997 9.07782C0.636997 9.07782 0.519996 9.21787 0.519996 9.38905L0.519996 11.5677C0.519996 11.7389 0.636997 11.8789 0.779996 11.8789L16.38 11.8789C16.523 11.8789 16.64 11.7389 16.64 11.5677L16.64 9.38905ZM0.259996 28.2965L25.74 28.2965C25.883 28.2965 26 28.1565 26 27.9853L26 25.8066C26 25.6355 25.883 25.4954 25.74 25.4954L0.259997 25.4954C0.116995 25.4954 -5.5012e-06 25.6355 -5.51541e-06 25.8066L-5.69622e-06 27.9853C-5.71042e-06 28.1565 0.116995 28.2965 0.259996 28.2965ZM0.259998 3.70903L25.74 3.70903C25.883 3.70903 26 3.56898 26 3.3978L26 1.21916C26 1.04798 25.883 0.907928 25.74 0.907928L0.259999 0.907926C0.116997 0.907926 -3.46068e-06 1.04798 -3.47488e-06 1.21916L-3.65569e-06 3.3978C-3.66989e-06 3.56897 0.116997 3.70903 0.259998 3.70903ZM25.012 9.54078L19.9322 14.3299C19.898 14.3621 19.8704 14.4031 19.8514 14.45C19.8324 14.4968 19.8225 14.5482 19.8225 14.6003C19.8225 14.6523 19.8324 14.7037 19.8514 14.7506C19.8704 14.7974 19.898 14.8385 19.9322 14.8707L25.012 19.6637C25.2005 19.8426 25.48 19.6831 25.48 19.3952L25.48 9.81311C25.48 9.74813 25.4648 9.68446 25.436 9.62937C25.4072 9.57428 25.366 9.53 25.3172 9.50159C25.2684 9.47318 25.2139 9.46179 25.1599 9.46872C25.1059 9.47565 25.0547 9.50062 25.012 9.54078Z" fill="#5C5C5C"/>
</svg>
