<svg width="26" height="26" viewBox="0 0 26 26" fill="none" xmlns="http://www.w3.org/2000/svg">
<path d="M9.62 10.4148H25.22C25.363 10.4148 25.48 10.2818 25.48 10.1193V8.05114C25.48 7.88864 25.363 7.75568 25.22 7.75568H9.62C9.477 7.75568 9.36 7.88864 9.36 8.05114V10.1193C9.36 10.2818 9.477 10.4148 9.62 10.4148ZM9.36 17.9489C9.36 18.1114 9.477 18.2443 9.62 18.2443H25.22C25.363 18.2443 25.48 18.1114 25.48 17.9489V15.8807C25.48 15.7182 25.363 15.5852 25.22 15.5852H9.62C9.477 15.5852 9.36 15.7182 9.36 15.8807V17.9489ZM25.74 0H0.26C0.117 0 0 0.132955 0 0.295455V2.36364C0 2.52614 0.117 2.65909 0.26 2.65909H25.74C25.883 2.65909 26 2.52614 26 2.36364V0.295455C26 0.132955 25.883 0 25.74 0ZM25.74 23.3409H0.26C0.117 23.3409 0 23.4739 0 23.6364V25.7045C0 25.867 0.117 26 0.26 26H25.74C25.883 26 26 25.867 26 25.7045V23.6364C26 23.4739 25.883 23.3409 25.74 23.3409ZM0.988 17.8048L6.06775 13.2585C6.10195 13.228 6.1296 13.189 6.14861 13.1445C6.16763 13.1001 6.17751 13.0513 6.17751 13.0018C6.17751 12.9524 6.16763 12.9036 6.14861 12.8592C6.1296 12.8147 6.10195 12.7757 6.06775 12.7452L0.988 8.19517C0.7995 8.02528 0.52 8.1767 0.52 8.45V17.5463C0.519983 17.608 0.53524 17.6684 0.564028 17.7207C0.592816 17.773 0.633972 17.8151 0.682792 17.842C0.731612 17.869 0.786124 17.8798 0.840096 17.8732C0.894069 17.8667 0.945323 17.8429 0.988 17.8048Z" fill="#5C5C5C"/>
</svg>
