<svg fill="rgba(255, 255, 255, 0)" xmlns="http://www.w3.org/2000/svg">
<rect x="445" y="3" width="60" height="60" fill="rgba(255, 255, 255, 0)"/>
<path d="M452.568 3.4H497.432C501.446 3.4 504.6 6.55425 504.6 10.5676V55.4324C504.6 57.5624 503.754 59.1763 502.465 60.4649C501.268 61.6619 499.384 62.6 497.432 62.6H452.568C448.554 62.6 445.4 59.4458 445.4 55.4324V10.5676C445.4 8.61586 446.338 6.73208 447.535 5.53509C448.824 4.24647 450.438 3.4 452.568 3.4ZM462.568 43.3099C468.369 43.3099 473.148 38.6309 473.148 32.8198C473.148 27.0133 468.374 22.2396 462.568 22.2396C456.853 22.2396 451.987 27.011 451.987 32.8198C451.987 38.6332 456.858 43.3099 462.568 43.3099ZM487.432 43.3099C493.142 43.3099 498.013 38.6332 498.013 32.8198C498.013 27.011 493.147 22.2396 487.432 22.2396C481.631 22.2396 476.762 27.0088 476.762 32.8198C476.762 38.6355 481.635 43.3099 487.432 43.3099Z" fill="#67514C" stroke="#5C5C5C" stroke-width="0.8"/>
</svg>
