<svg fill="rgba(255, 255, 255, 0)" xmlns="http://www.w3.org/2000/svg">
<rect x="114" y="2" width="57" height="61" fill="rgba(255, 255, 255, 0)"/>
<path d="M131.609 53.5646H132.109V53.0646V25.5193V25.0193H131.609H123.056H122.556V25.5193V53.0646V53.5646H123.056H131.609ZM132.672 16.9984H132.672L132.672 16.9885C132.643 15.5287 132.141 14.2129 131.219 13.2584C130.294 12.3003 128.978 11.7404 127.391 11.7404C125.806 11.7404 124.463 12.3002 123.517 13.2552C122.572 14.2089 122.05 15.5286 122.05 16.9984C122.05 19.9001 124.11 22.2564 127.277 22.2564H127.334C128.948 22.2564 130.291 21.6819 131.229 20.7185C132.165 19.7578 132.672 18.4392 132.672 16.9984ZM144.818 53.5646H145.318V53.0646V37.6812C145.318 36.8597 145.378 36.12 145.569 35.6281L145.569 35.6281L145.571 35.6227C146.149 34.0838 147.418 32.5997 149.492 32.5997C150.878 32.5997 151.798 33.1505 152.397 34.0932C153.019 35.0712 153.324 36.5173 153.324 38.3293V53.0646V53.5646H153.824H162.377H162.877V53.0646V37.2656C162.877 32.9558 161.803 29.726 159.944 27.5663C158.077 25.3981 155.468 24.3674 152.531 24.3674C150.154 24.3674 148.407 25.0691 147.103 26.0349C146.374 26.574 145.792 27.1898 145.318 27.7964V25.5193V25.0193H144.818H136.269H135.747L135.769 25.54C135.822 26.8182 135.822 33.6876 135.809 40.2603C135.802 43.5416 135.792 46.7421 135.784 49.1224C135.779 50.3125 135.776 51.2976 135.773 51.9851L135.77 52.7816L135.769 52.9908L135.769 53.0444L135.769 53.0579L135.769 53.0613L135.769 53.0622C135.769 53.0624 135.769 53.0625 136.269 53.0646L135.769 53.0625L135.766 53.5646H136.269H144.818ZM114.5 6.36912C114.5 4.21155 116.17 2.5 118.186 2.5H166.813C168.828 2.5 170.498 4.21155 170.498 6.36912V58.6309C170.498 60.7885 168.828 62.5 166.813 62.5H118.186C116.17 62.5 114.5 60.7885 114.5 58.6309V6.36912Z" fill="#67514C" stroke="#5C5C5C"/>
</svg>
