<svg fill="rgba(255, 255, 255, 0)" xmlns="http://www.w3.org/2000/svg">
<path d="M7.80863 0L14.5711 11.25H1.04614L7.80863 0Z" fill="#FEC331"/>
<path d="M9.79614 1.15204L14.553 9.12418C15.2366 10.2692 14.9009 11.7756 13.8027 12.4885C13.4341 12.7286 13.0045 12.8566 12.5654 12.857H3.05089C1.7582 12.857 0.709717 11.7642 0.709717 10.4149C0.709717 9.95847 0.832525 9.51204 1.06324 9.12418L5.82083 1.15204C6.50373 0.00704157 7.94762 -0.343672 9.0458 0.369184C9.34963 0.566327 9.6066 0.834184 9.79614 1.15204ZM8.22021 1.75133C8.13331 1.69508 8.03597 1.65715 7.93409 1.63981C7.83221 1.62248 7.72789 1.6261 7.62744 1.65047C7.52699 1.67484 7.43249 1.71944 7.34965 1.78159C7.2668 1.84373 7.19734 1.92213 7.14546 2.01204L2.38857 9.98561C2.3113 10.1156 2.27057 10.2642 2.27074 10.4156C2.27074 10.8656 2.61999 11.2299 3.0516 11.2299H12.5647C12.7109 11.2299 12.8536 11.187 12.9771 11.107C13.1543 10.9885 13.2793 10.8058 13.326 10.5969C13.3727 10.388 13.3375 10.169 13.2277 9.98561L8.4708 2.01204C8.40841 1.90706 8.32222 1.81787 8.22021 1.75133ZM7.80848 9.9999C7.62021 9.9999 7.43965 9.92464 7.30652 9.79069C7.1734 9.65673 7.09861 9.47505 7.09861 9.28561C7.09861 9.09617 7.1734 8.91449 7.30652 8.78053C7.43965 8.64658 7.62021 8.57132 7.80848 8.57132C7.99675 8.57132 8.17731 8.64658 8.31044 8.78053C8.44357 8.91449 8.51836 9.09617 8.51836 9.28561C8.51836 9.47505 8.44357 9.65673 8.31044 9.79069C8.17731 9.92464 7.99675 9.9999 7.80848 9.9999ZM7.80848 3.57133C7.99675 3.57133 8.17731 3.64658 8.31044 3.78054C8.44357 3.91449 8.51836 4.09617 8.51836 4.28561V7.14275C8.51836 7.33219 8.44357 7.51388 8.31044 7.64783C8.17731 7.78178 7.99675 7.85704 7.80848 7.85704C7.62021 7.85704 7.43965 7.78178 7.30652 7.64783C7.1734 7.51388 7.09861 7.33219 7.09861 7.14275V4.28561C7.09861 4.09617 7.1734 3.91449 7.30652 3.78054C7.43965 3.64658 7.62021 3.57133 7.80848 3.57133Z" fill="black"/>
<path d="M23.0738 6.56951C22.3889 6.37141 21.8897 6.12866 21.5764 5.84127C21.2658 5.55109 21.1105 5.19395 21.1105 4.76984C21.1105 4.28993 21.3005 3.89373 21.6804 3.58123C22.063 3.26594 22.5594 3.10829 23.1694 3.10829C23.5854 3.10829 23.9556 3.18921 24.28 3.35104C24.6072 3.51287 24.8596 3.73608 25.037 4.02068C25.2173 4.30528 25.3074 4.61638 25.3074 4.954L24.5046 4.954C24.5046 4.58569 24.3882 4.29691 24.1552 4.08765C23.9223 3.87559 23.5937 3.76957 23.1694 3.76957C22.7757 3.76957 22.4679 3.85746 22.246 4.03324C22.027 4.20623 21.9175 4.44758 21.9175 4.75729C21.9175 5.00561 22.0214 5.21627 22.2294 5.38926C22.4402 5.55946 22.7965 5.71571 23.2984 5.85801C23.8031 6.00031 24.1968 6.15796 24.4797 6.33095C24.7653 6.50115 24.976 6.70065 25.1119 6.92944C25.2505 7.15824 25.3199 7.42749 25.3199 7.7372C25.3199 8.23106 25.1285 8.62727 24.7459 8.92581C24.3632 9.22157 23.8516 9.36945 23.211 9.36945C22.7951 9.36945 22.4069 9.28993 22.0464 9.13089C21.6859 8.96906 21.4072 8.74864 21.2103 8.46962C21.0162 8.1906 20.9192 7.87392 20.9192 7.51956L21.722 7.51956C21.722 7.88787 21.8564 8.17944 22.1254 8.39429C22.3972 8.60634 22.759 8.71237 23.211 8.71237C23.6325 8.71237 23.9556 8.62587 24.1802 8.45288C24.4048 8.27989 24.5171 8.04412 24.5171 7.74557C24.5171 7.44702 24.4131 7.21683 24.2051 7.055C23.9972 6.89038 23.62 6.72855 23.0738 6.56951Z" fill="black"/>
<path d="M27.0627 9.28575L26.2932 9.28575L26.2932 4.75729L27.0627 4.75729L27.0627 9.28575ZM26.2308 3.55612C26.2308 3.43056 26.2682 3.32453 26.3431 3.23804C26.4207 3.15154 26.5344 3.10829 26.6842 3.10829C26.8339 3.10829 26.9476 3.15154 27.0252 3.23804C27.1029 3.32453 27.1417 3.43056 27.1417 3.55612C27.1417 3.68168 27.1029 3.78631 27.0252 3.87001C26.9476 3.95372 26.8339 3.99557 26.6842 3.99557C26.5344 3.99557 26.4207 3.95372 26.3431 3.87001C26.2682 3.78631 26.2308 3.68168 26.2308 3.55612Z" fill="black"/>
<path d="M29.342 3.66075L29.342 4.75729L30.1822 4.75729L30.1822 5.35578L29.342 5.35578L29.342 8.1641C29.342 8.34546 29.3795 8.48218 29.4543 8.57425C29.5292 8.66354 29.6568 8.70818 29.837 8.70818C29.9257 8.70818 30.0478 8.69144 30.203 8.65796L30.203 9.28575C30.0006 9.34155 29.8037 9.36945 29.6124 9.36945C29.2686 9.36945 29.0093 9.26482 28.8346 9.05556C28.6599 8.84629 28.5725 8.54914 28.5725 8.1641L28.5725 5.35578L27.7531 5.35578L27.7531 4.75729L28.5725 4.75729L28.5725 3.66075L29.342 3.66075Z" fill="black"/>
<path d="M32.9524 9.36945C32.3424 9.36945 31.846 9.16856 31.4634 8.76677C31.0807 8.3622 30.8893 7.8223 30.8893 7.14708L30.8893 7.00478C30.8893 6.55556 30.9739 6.15517 31.1431 5.80361C31.315 5.44925 31.5535 5.17303 31.8585 4.97492C32.1663 4.77403 32.4991 4.67358 32.8568 4.67358C33.4419 4.67358 33.8966 4.8675 34.2211 5.25534C34.5455 5.64317 34.7077 6.19842 34.7077 6.92107L34.7077 7.24334L31.6588 7.24334C31.6699 7.68977 31.7989 8.05109 32.0457 8.32732C32.2952 8.60076 32.6114 8.73748 32.994 8.73748C33.2658 8.73748 33.4959 8.68167 33.6845 8.57007C33.873 8.45846 34.038 8.31058 34.1795 8.12643L34.6495 8.49473C34.2724 9.07788 33.7067 9.36945 32.9524 9.36945ZM32.8568 5.30974C32.5462 5.30974 32.2855 5.42414 32.0748 5.65294C31.864 5.87894 31.7337 6.19702 31.6838 6.60718L33.9382 6.60718L33.9382 6.54858C33.916 6.15517 33.8107 5.85104 33.6221 5.63619C33.4335 5.41856 33.1784 5.30974 32.8568 5.30974Z" fill="black"/>
<path d="M42.099 3.192L42.099 7.33541C42.0962 7.91019 41.916 8.38033 41.5583 8.74585C41.2034 9.11136 40.7209 9.31644 40.1108 9.36108L39.8987 9.36945C39.2359 9.36945 38.7077 9.18949 38.3139 8.82955C37.9202 8.46962 37.7205 7.97436 37.715 7.34378L37.715 3.192L38.5053 3.192L38.5053 7.31867C38.5053 7.75952 38.6259 8.10271 38.8671 8.34825C39.1084 8.59099 39.4522 8.71237 39.8987 8.71237C40.3507 8.71237 40.6959 8.59099 40.9344 8.34825C41.1756 8.1055 41.2963 7.76371 41.2963 7.32286L41.2963 3.192L42.099 3.192Z" fill="black"/>
<path d="M43.9666 4.75729L43.9916 5.32649C44.3354 4.89122 44.7846 4.67358 45.3392 4.67358C46.2903 4.67358 46.7701 5.21348 46.7784 6.29328L46.7784 9.28575L46.0089 9.28575L46.0089 6.2891C46.0061 5.96265 45.9312 5.7213 45.7843 5.56505C45.6401 5.4088 45.4141 5.33067 45.1063 5.33067C44.8567 5.33067 44.6377 5.39763 44.4491 5.53156C44.2605 5.66549 44.1136 5.84127 44.0082 6.05891L44.0082 9.28575L43.2387 9.28575L43.2387 4.75729L43.9666 4.75729Z" fill="black"/>
<path d="M47.7517 6.98385C47.7517 6.2891 47.9153 5.73106 48.2425 5.30974C48.5697 4.88564 48.9981 4.67358 49.5278 4.67358C50.0546 4.67358 50.472 4.85494 50.7798 5.21767L50.7798 2.85718L51.5493 2.85718L51.5493 9.28575L50.8421 9.28575L50.8047 8.80026C50.4969 9.17972 50.0685 9.36945 49.5194 9.36945C48.9981 9.36945 48.5725 9.15461 48.2425 8.72492C47.9153 8.29523 47.7517 7.73441 47.7517 7.04244L47.7517 6.98385ZM48.5212 7.07174C48.5212 7.58513 48.6266 7.98692 48.8373 8.2771C49.048 8.56728 49.3392 8.71237 49.7108 8.71237C50.1988 8.71237 50.5551 8.49194 50.7798 8.05109L50.7798 5.97102C50.5496 5.54412 50.1961 5.33067 49.7191 5.33067C49.342 5.33067 49.048 5.47715 48.8373 5.77012C48.6266 6.06309 48.5212 6.49696 48.5212 7.07174Z" fill="black"/>
<path d="M54.6148 9.36945C54.0047 9.36945 53.5083 9.16856 53.1257 8.76677C52.743 8.3622 52.5517 7.8223 52.5517 7.14708L52.5517 7.00478C52.5517 6.55556 52.6363 6.15517 52.8054 5.80361C52.9773 5.44925 53.2158 5.17303 53.5208 4.97492C53.8286 4.77403 54.1614 4.67358 54.5191 4.67358C55.1042 4.67358 55.5589 4.8675 55.8834 5.25534C56.2078 5.64317 56.37 6.19842 56.37 6.92107L56.37 7.24334L53.3212 7.24334C53.3323 7.68977 53.4612 8.05109 53.708 8.32732C53.9576 8.60076 54.2737 8.73748 54.6563 8.73748C54.9281 8.73748 55.1583 8.68167 55.3468 8.57007C55.5354 8.45846 55.7004 8.31058 55.8418 8.12643L56.3118 8.49473C55.9347 9.07788 55.369 9.36945 54.6148 9.36945ZM54.5191 5.30974C54.2085 5.30974 53.9479 5.42414 53.7371 5.65294C53.5264 5.87894 53.396 6.19702 53.3461 6.60718L55.6005 6.60718L55.6005 6.54858C55.5784 6.15517 55.473 5.85104 55.2844 5.63619C55.0959 5.41856 54.8408 5.30974 54.5191 5.30974Z" fill="black"/>
<path d="M59.4397 5.45204C59.3232 5.43251 59.1971 5.42275 59.0612 5.42275C58.5565 5.42275 58.2141 5.63898 58.0338 6.07146L58.0338 9.28575L57.2643 9.28575L57.2643 4.75729L58.013 4.75729L58.0255 5.28045C58.2778 4.87587 58.6355 4.67358 59.0986 4.67358C59.2484 4.67358 59.3621 4.69311 59.4397 4.73218L59.4397 5.45204Z" fill="black"/>
<path d="M62.3846 9.28575L62.3846 3.192L64.0941 3.192C64.621 3.192 65.0868 3.30919 65.4917 3.54356C65.8965 3.77794 66.2085 4.11136 66.4275 4.54384C66.6494 4.97632 66.7617 5.47297 66.7645 6.0338L66.7645 6.42302C66.7645 6.9978 66.6535 7.50143 66.4317 7.93391C66.2126 8.36638 65.8979 8.69841 65.4875 8.93C65.0799 9.16158 64.6043 9.28017 64.0608 9.28575L62.3846 9.28575ZM63.1832 3.85327L63.1832 8.62866L64.0234 8.62866C64.639 8.62866 65.1173 8.43614 65.4584 8.05109C65.8022 7.66605 65.9742 7.11778 65.9742 6.40628L65.9742 6.05054C65.9742 5.35857 65.8119 4.82146 65.4875 4.43921C65.1658 4.05416 64.7083 3.85885 64.1149 3.85327L63.1832 3.85327Z" fill="black"/>
<path d="M69.7218 9.36945C69.1118 9.36945 68.6154 9.16856 68.2327 8.76677C67.8501 8.3622 67.6587 7.8223 67.6587 7.14708L67.6587 7.00478C67.6587 6.55556 67.7433 6.15517 67.9125 5.80361C68.0844 5.44925 68.3229 5.17303 68.6279 4.97492C68.9357 4.77403 69.2684 4.67358 69.6261 4.67358C70.2112 4.67358 70.666 4.8675 70.9904 5.25534C71.3149 5.64317 71.4771 6.19842 71.4771 6.92107L71.4771 7.24334L68.4282 7.24334C68.4393 7.68977 68.5683 8.05109 68.8151 8.32732C69.0646 8.60076 69.3807 8.73748 69.7634 8.73748C70.0352 8.73748 70.2653 8.68167 70.4539 8.57007C70.6424 8.45846 70.8074 8.31058 70.9488 8.12643L71.4189 8.49473C71.0417 9.07788 70.4761 9.36945 69.7218 9.36945ZM69.6261 5.30974C69.3156 5.30974 69.0549 5.42414 68.8442 5.65294C68.6334 5.87894 68.5031 6.19702 68.4532 6.60718L70.7076 6.60718L70.7076 6.54858C70.6854 6.15517 70.58 5.85104 70.3915 5.63619C70.2029 5.41856 69.9478 5.30974 69.6261 5.30974Z" fill="black"/>
<path d="M73.7981 8.23525L74.9128 4.75729L75.6989 4.75729L74.0851 9.28575L73.4986 9.28575L71.8681 4.75729L72.6542 4.75729L73.7981 8.23525Z" fill="black"/>
<path d="M78.2487 9.36945C77.6386 9.36945 77.1422 9.16856 76.7596 8.76677C76.3769 8.3622 76.1856 7.8223 76.1856 7.14708L76.1856 7.00478C76.1856 6.55556 76.2701 6.15517 76.4393 5.80361C76.6112 5.44925 76.8497 5.17303 77.1547 4.97492C77.4625 4.77403 77.7953 4.67358 78.153 4.67358C78.7381 4.67358 79.1928 4.8675 79.5173 5.25534C79.8417 5.64317 80.0039 6.19842 80.0039 6.92107L80.0039 7.24334L76.9551 7.24334C76.9662 7.68977 77.0951 8.05109 77.3419 8.32732C77.5915 8.60076 77.9076 8.73748 78.2902 8.73748C78.562 8.73748 78.7922 8.68167 78.9807 8.57007C79.1693 8.45846 79.3343 8.31058 79.4757 8.12643L79.9457 8.49473C79.5686 9.07788 79.0029 9.36945 78.2487 9.36945ZM78.153 5.30974C77.8424 5.30974 77.5818 5.42414 77.371 5.65294C77.1603 5.87894 77.0299 6.19702 76.98 6.60718L79.2344 6.60718L79.2344 6.54858C79.2123 6.15517 79.1069 5.85104 78.9183 5.63619C78.7298 5.41856 78.4746 5.30974 78.153 5.30974Z" fill="black"/>
<path d="M81.7343 9.28575L80.9648 9.28575L80.9648 2.85718L81.7343 2.85718L81.7343 9.28575Z" fill="black"/>
<path d="M82.7658 6.97967C82.7658 6.53603 82.8518 6.13703 83.0237 5.78268C83.1984 5.42833 83.4396 5.15489 83.7474 4.96237C84.058 4.76984 84.4115 4.67358 84.8081 4.67358C85.4209 4.67358 85.9159 4.88703 86.293 5.31393C86.6729 5.74083 86.8628 6.30863 86.8628 7.01733L86.8628 7.07174C86.8628 7.51259 86.7783 7.90879 86.6091 8.26036C86.4427 8.60913 86.2029 8.88117 85.8895 9.07648C85.579 9.2718 85.2212 9.36945 84.8164 9.36945C84.2063 9.36945 83.7114 9.156 83.3315 8.72911C82.9544 8.30221 82.7658 7.7372 82.7658 7.03407L82.7658 6.97967ZM83.5395 7.07174C83.5395 7.57397 83.6545 7.97715 83.8847 8.28128C84.1176 8.58541 84.4282 8.73748 84.8164 8.73748C85.2074 8.73748 85.518 8.58402 85.7481 8.2771C85.9783 7.96739 86.0933 7.53491 86.0933 6.97967C86.0933 6.48301 85.9755 6.08123 85.7398 5.77431C85.5069 5.4646 85.1963 5.30974 84.8081 5.30974C84.4282 5.30974 84.1218 5.46181 83.8888 5.76594C83.6559 6.07007 83.5395 6.50534 83.5395 7.07174Z" fill="black"/>
<path d="M91.6295 7.07174C91.6295 7.76092 91.4729 8.31616 91.1595 8.73748C90.8462 9.15879 90.4219 9.36945 89.8867 9.36945C89.3405 9.36945 88.9107 9.19507 88.5973 8.84629L88.5973 11.0268L87.8278 11.0268L87.8278 4.75729L88.5308 4.75729L88.5682 5.25952C88.8815 4.8689 89.3169 4.67358 89.8743 4.67358C90.415 4.67358 90.842 4.87866 91.1554 5.28882C91.4715 5.69897 91.6295 6.26957 91.6295 7.00059L91.6295 7.07174ZM90.8601 6.98385C90.8601 6.47325 90.7519 6.07007 90.5356 5.77431C90.3193 5.47855 90.0226 5.33067 89.6455 5.33067C89.1796 5.33067 88.8302 5.53854 88.5973 5.95428L88.5973 8.11806C88.8275 8.531 89.1796 8.73748 89.6538 8.73748C90.0226 8.73748 90.3152 8.59099 90.5315 8.29802C90.7505 8.00227 90.8601 7.56421 90.8601 6.98385Z" fill="black"/>
<path d="M93.3349 4.75729L93.3557 5.25952C93.6857 4.8689 94.1308 4.67358 94.6909 4.67358C95.3204 4.67358 95.7488 4.91633 95.9762 5.40182C96.1259 5.18419 96.32 5.0084 96.5585 4.87448C96.7997 4.74055 97.084 4.67358 97.4112 4.67358C98.3983 4.67358 98.9002 5.19953 98.9169 6.25143L98.9169 9.28575L98.1474 9.28575L98.1474 6.29747C98.1474 5.97381 98.0739 5.73246 97.9269 5.57342C97.78 5.41159 97.5332 5.33067 97.1865 5.33067C96.9009 5.33067 96.6638 5.41717 96.4753 5.59016C96.2867 5.76036 96.1772 5.99055 96.1467 6.28073L96.1467 9.28575L95.373 9.28575L95.373 6.31839C95.373 5.65991 95.0528 5.33067 94.4122 5.33067C93.9075 5.33067 93.5623 5.54691 93.3765 5.97939L93.3765 9.28575L92.607 9.28575L92.607 4.75729L93.3349 4.75729Z" fill="black"/>
<path d="M101.949 9.36945C101.339 9.36945 100.843 9.16856 100.46 8.76677C100.077 8.3622 99.886 7.8223 99.886 7.14708L99.886 7.00478C99.886 6.55556 99.9706 6.15517 100.14 5.80361C100.312 5.44925 100.55 5.17303 100.855 4.97492C101.163 4.77403 101.496 4.67358 101.853 4.67358C102.439 4.67358 102.893 4.8675 103.218 5.25534C103.542 5.64317 103.704 6.19842 103.704 6.92107L103.704 7.24334L100.656 7.24334C100.667 7.68977 100.796 8.05109 101.042 8.32732C101.292 8.60076 101.608 8.73748 101.991 8.73748C102.262 8.73748 102.493 8.68167 102.681 8.57007C102.87 8.45846 103.035 8.31058 103.176 8.12643L103.646 8.49473C103.269 9.07788 102.703 9.36945 101.949 9.36945ZM101.853 5.30974C101.543 5.30974 101.282 5.42414 101.071 5.65294C100.861 5.87894 100.73 6.19702 100.68 6.60718L102.935 6.60718L102.935 6.54858C102.913 6.15517 102.807 5.85104 102.619 5.63619C102.43 5.41856 102.175 5.30974 101.853 5.30974Z" fill="black"/>
<path d="M105.327 4.75729L105.352 5.32649C105.695 4.89122 106.145 4.67358 106.699 4.67358C107.65 4.67358 108.13 5.21348 108.138 6.29328L108.138 9.28575L107.369 9.28575L107.369 6.2891C107.366 5.96265 107.291 5.7213 107.144 5.56505C107 5.4088 106.774 5.33067 106.466 5.33067C106.217 5.33067 105.998 5.39763 105.809 5.53156C105.62 5.66549 105.474 5.84127 105.368 6.05891L105.368 9.28575L104.599 9.28575L104.599 4.75729L105.327 4.75729Z" fill="black"/>
<path d="M110.343 3.66075L110.343 4.75729L111.183 4.75729L111.183 5.35578L110.343 5.35578L110.343 8.1641C110.343 8.34546 110.38 8.48218 110.455 8.57425C110.53 8.66354 110.658 8.70818 110.838 8.70818C110.927 8.70818 111.049 8.69144 111.204 8.65796L111.204 9.28575C111.001 9.34155 110.805 9.36945 110.613 9.36945C110.269 9.36945 110.01 9.26482 109.835 9.05556C109.661 8.84629 109.573 8.54914 109.573 8.1641L109.573 5.35578L108.754 5.35578L108.754 4.75729L109.573 4.75729L109.573 3.66075L110.343 3.66075Z" fill="black"/>
</svg>
