<svg fill="none" xmlns="http://www.w3.org/2000/svg">
<path d="M374.5 245.35C374.5 299.388 418.372 343.199 472.496 343.199C526.619 343.199 570.492 299.388 570.492 245.35C570.492 191.311 526.619 147.5 472.496 147.5C418.372 147.5 374.5 191.311 374.5 245.35Z" stroke="#A0DEB1" stroke-width="3"/>
<path d="M464.014 238.39C460.706 237.733 457.625 240.406 457.625 243.782V255.201C457.625 257.512 459.234 259.37 461.409 260.185C465.532 261.726 468.5 265.713 468.5 270.38C468.5 276.384 463.629 281.255 457.625 281.255C451.621 281.255 446.75 276.384 446.75 270.38V214.193C446.75 211.18 444.326 208.755 441.312 208.755H430.437C427.424 208.755 425 211.18 425 214.193V270.38C425 290.658 443.601 306.676 464.648 302.258C476.973 299.675 486.92 289.706 489.502 277.404C493.445 258.622 481.12 241.788 464.014 238.39ZM472.352 187.005C470.267 186.892 468.5 188.546 468.5 190.63V197.79C468.5 199.716 469.995 201.302 471.898 201.392C501.216 202.978 524.778 226.767 526.477 256.107C526.591 258.01 528.177 259.505 530.08 259.505H537.352C539.437 259.505 541.091 257.738 540.977 255.654C539.052 218.679 509.327 188.954 472.352 187.005ZM472.42 208.755C470.312 208.597 468.5 210.273 468.5 212.403V219.676C468.5 221.579 469.973 223.142 471.853 223.278C489.253 224.705 503.119 238.73 504.682 256.175C504.863 258.055 506.404 259.505 508.284 259.505H515.58C517.687 259.505 519.386 257.693 519.227 255.586C517.324 230.641 497.364 210.681 472.42 208.755V208.755Z" fill="#5C5C5C"/>
</svg>
