<svg width="199" height="199" viewBox="0 0 199 199" fill="none" xmlns="http://www.w3.org/2000/svg">
<path d="M1.49997 99.3496C1.49997 153.388 45.3721 197.199 99.4958 197.199C153.619 197.199 197.492 153.388 197.492 99.3496C197.492 45.3108 153.619 1.5 99.4958 1.5C45.3721 1.5 1.49997 45.3108 1.49997 99.3496Z" stroke="#A0DEB1" stroke-width="3"/>
<path d="M91.0056 92.3043C87.6978 91.6473 84.6166 94.3207 84.6166 97.6965V109.115C84.6166 111.426 86.2252 113.284 88.4002 114.1C92.5236 115.64 95.4916 119.628 95.4916 124.295C95.4916 130.299 90.6205 135.17 84.6166 135.17C78.6127 135.17 73.7416 130.299 73.7416 124.295V68.1075C73.7416 65.0942 71.3174 62.67 68.3041 62.67H57.4291C54.4158 62.67 51.9916 65.0942 51.9916 68.1075V124.295C51.9916 144.572 70.5924 160.59 91.64 156.172C103.965 153.589 113.911 143.621 116.494 131.318C120.436 112.536 108.111 95.7028 91.0056 92.3043ZM99.3431 40.92C97.2588 40.8067 95.4916 42.4606 95.4916 44.545V51.7043C95.4916 53.6301 96.9869 55.2161 98.89 55.3067C128.207 56.8926 151.77 80.6817 153.469 110.022C153.582 111.925 155.168 113.42 157.071 113.42H164.344C166.428 113.42 168.082 111.653 167.969 109.568C166.043 72.5934 136.318 42.8684 99.3431 40.92ZM99.4111 62.67C97.3041 62.5114 95.4916 64.1879 95.4916 66.3176V73.5903C95.4916 75.4934 96.9642 77.0567 98.8447 77.1926C116.245 78.62 130.11 92.6442 131.674 110.089C131.855 111.97 133.395 113.42 135.276 113.42H142.571C144.678 113.42 146.378 111.607 146.219 109.5C144.316 84.5559 124.356 64.5957 99.4111 62.67Z" fill="#5C5C5C"/>
</svg>
