<svg fill="rgba(255, 255, 255, 0)" xmlns="http://www.w3.org/2000/svg">
<circle r="106.762" transform="matrix(-1 0 0 1 323.372 112.762)" stroke="#FBCD5C" stroke-width="12"/>
<path d="M340.404 91.9318L307.35 96.0744L306.167 101.559L312.662 102.757C316.906 103.768 317.743 105.298 316.819 109.527L306.167 159.583C303.367 172.53 307.682 178.621 317.829 178.621C325.696 178.621 334.833 174.984 338.975 169.99L340.245 163.986C337.358 166.526 333.144 167.536 330.344 167.536C326.374 167.536 324.931 164.751 325.956 159.843L340.404 91.9318ZM341.414 61.794C341.414 65.6221 339.894 69.2934 337.187 72.0003C334.48 74.7071 330.809 76.2278 326.981 76.2278C323.152 76.2278 319.481 74.7071 316.774 72.0003C314.067 69.2934 312.547 65.6221 312.547 61.794C312.547 57.9659 314.067 54.2946 316.774 51.5877C319.481 48.8808 323.152 47.3601 326.981 47.3601C330.809 47.3601 334.48 48.8808 337.187 51.5877C339.894 54.2946 341.414 57.9659 341.414 61.794Z" fill="#5C5C5C"/>
</svg>
