<svg width="199" height="238" viewBox="0 0 199 238" fill="none" xmlns="http://www.w3.org/2000/svg">
<path d="M67.808 234.876C67.9032 235.042 67.9508 235.232 67.9508 235.446C67.9508 235.826 67.808 236.159 67.5224 236.444C67.2607 236.705 66.9394 236.836 66.5587 236.836C65.94 236.836 65.4998 236.551 65.238 235.981L62.8465 230.207H49.0329L46.6414 235.981C46.451 236.551 46.0227 236.836 45.3564 236.836C44.9518 236.836 44.6187 236.705 44.3569 236.444C44.119 236.159 44 235.826 44 235.446C44 235.209 44.0357 235.007 44.1071 234.84L54.6012 209.962C54.8629 209.321 55.315 209 55.9575 209C56.6 209 57.0403 209.321 57.2782 209.962L67.808 234.876ZM50.0323 227.819H61.8828L55.9575 213.526L50.0323 227.819Z" fill="#5C5C5C"/>
<path d="M81.8402 217.162C83.6487 217.162 85.2788 217.602 86.7303 218.481C88.2057 219.336 89.3598 220.524 90.1927 222.045C91.0493 223.542 91.4777 225.217 91.4777 227.07C91.4777 228.924 91.0374 230.611 90.157 232.131C89.3003 233.652 88.1105 234.852 86.5876 235.731C85.0884 236.587 83.4108 237.014 81.5547 237.014C79.6986 237.014 78.0091 236.587 76.4861 235.731C74.987 234.852 73.7972 233.652 72.9167 232.131C72.0601 230.611 71.6317 228.924 71.6317 227.07V218.695C71.6317 218.552 71.6436 218.445 71.6674 218.374V210.39C71.6674 209.986 71.7864 209.653 72.0244 209.392C72.2861 209.131 72.6193 209 73.0238 209C73.4283 209 73.7615 209.131 74.0232 209.392C74.285 209.653 74.4159 209.986 74.4159 210.39V220.833C75.2487 219.693 76.3077 218.801 77.5926 218.16C78.8776 217.495 80.2935 217.162 81.8402 217.162ZM81.5547 234.519C82.9111 234.519 84.1366 234.199 85.2312 233.557C86.3496 232.892 87.2182 232.001 87.8369 230.884C88.4794 229.743 88.8006 228.472 88.8006 227.07C88.8006 225.668 88.4794 224.409 87.8369 223.292C87.2182 222.152 86.3496 221.261 85.2312 220.619C84.1366 219.978 82.9111 219.657 81.5547 219.657C79.6748 219.657 78.0686 220.251 76.736 221.439C75.4272 222.627 74.6538 224.148 74.4159 226.001C74.4159 226.072 74.404 226.132 74.3802 226.179C74.3564 226.369 74.3445 226.666 74.3445 227.07C74.3445 228.472 74.6538 229.743 75.2725 230.884C75.915 232.001 76.7836 232.892 77.8782 233.557C78.9728 234.199 80.1983 234.519 81.5547 234.519Z" fill="#5C5C5C"/>
<path d="M105.756 237.014C103.877 237.014 102.175 236.587 100.652 235.731C99.153 234.876 97.9751 233.7 97.1184 232.203C96.2618 230.682 95.8335 228.983 95.8335 227.106C95.8335 225.229 96.2618 223.53 97.1184 222.009C97.9751 220.489 99.153 219.3 100.652 218.445C102.175 217.59 103.877 217.162 105.756 217.162C107.636 217.162 109.326 217.59 110.825 218.445C112.324 219.3 113.502 220.489 114.359 222.009C115.239 223.53 115.679 225.229 115.679 227.106C115.679 228.983 115.251 230.682 114.394 232.203C113.538 233.7 112.348 234.876 110.825 235.731C109.326 236.587 107.636 237.014 105.756 237.014ZM105.756 234.519C107.137 234.519 108.374 234.199 109.469 233.557C110.563 232.916 111.42 232.036 112.039 230.92C112.657 229.779 112.967 228.508 112.967 227.106C112.967 225.68 112.657 224.409 112.039 223.292C111.42 222.152 110.563 221.261 109.469 220.619C108.374 219.978 107.137 219.657 105.756 219.657C104.4 219.657 103.163 219.978 102.044 220.619C100.95 221.261 100.081 222.152 99.4386 223.292C98.8199 224.409 98.5105 225.68 98.5105 227.106C98.5105 228.508 98.8199 229.779 99.4386 230.92C100.081 232.036 100.95 232.916 102.044 233.557C103.163 234.199 104.4 234.519 105.756 234.519Z" fill="#5C5C5C"/>
<path d="M137.373 217.34C137.777 217.34 138.11 217.471 138.372 217.732C138.634 217.97 138.765 218.291 138.765 218.695V235.446C138.765 235.85 138.634 236.183 138.372 236.444C138.11 236.705 137.777 236.836 137.373 236.836C136.968 236.836 136.635 236.705 136.373 236.444C136.135 236.183 136.016 235.85 136.016 235.446V234.234C135.231 235.113 134.279 235.803 133.161 236.302C132.042 236.801 130.829 237.05 129.52 237.05C127.831 237.05 126.308 236.694 124.951 235.981C123.619 235.268 122.572 234.234 121.81 232.88C121.049 231.502 120.668 229.862 120.668 227.961V218.695C120.668 218.314 120.799 217.994 121.061 217.732C121.322 217.471 121.644 217.34 122.024 217.34C122.429 217.34 122.762 217.471 123.024 217.732C123.286 217.994 123.416 218.314 123.416 218.695V227.961C123.416 230.076 123.999 231.692 125.165 232.809C126.355 233.902 127.902 234.448 129.806 234.448C130.972 234.448 132.019 234.222 132.947 233.771C133.899 233.32 134.648 232.702 135.195 231.918C135.743 231.11 136.016 230.219 136.016 229.244V218.695C136.016 218.291 136.135 217.97 136.373 217.732C136.635 217.471 136.968 217.34 137.373 217.34Z" fill="#5C5C5C"/>
<path d="M153.783 234.092C154.164 234.092 154.474 234.222 154.711 234.484C154.949 234.745 155.068 235.078 155.068 235.482C155.068 235.862 154.926 236.183 154.64 236.444C154.355 236.705 153.998 236.836 153.569 236.836H152.82C151.559 236.836 150.428 236.539 149.429 235.945C148.429 235.327 147.644 234.508 147.073 233.486C146.526 232.44 146.252 231.264 146.252 229.957V220.441H143.932C143.551 220.441 143.242 220.334 143.004 220.12C142.79 219.883 142.683 219.597 142.683 219.265C142.683 218.908 142.79 218.623 143.004 218.409C143.242 218.172 143.551 218.053 143.932 218.053H146.252V212.529C146.252 212.125 146.371 211.792 146.609 211.531C146.871 211.269 147.204 211.139 147.608 211.139C148.013 211.139 148.346 211.269 148.608 211.531C148.87 211.792 149 212.125 149 212.529V218.053H153.034C153.415 218.053 153.712 218.172 153.926 218.409C154.164 218.623 154.283 218.908 154.283 219.265C154.283 219.597 154.164 219.883 153.926 220.12C153.712 220.334 153.415 220.441 153.034 220.441H149V229.957C149 231.169 149.357 232.167 150.071 232.951C150.785 233.712 151.701 234.092 152.82 234.092H153.783Z" fill="#5C5C5C"/>
<path d="M1.5 99.3496C1.5 153.388 45.3721 197.199 99.4958 197.199C153.619 197.199 197.492 153.388 197.492 99.3496C197.492 45.3108 153.619 1.5 99.4958 1.5C45.3721 1.5 1.5 45.3108 1.5 99.3496Z" stroke="#FBCD5C" stroke-width="3"/>
<path d="M115.104 80.7881L85.7914 84.4618L84.7418 89.3259L90.5019 90.3883C94.2652 91.2843 95.0076 92.6412 94.1884 96.3916L84.7418 140.783C82.2586 152.265 86.0858 157.666 95.0844 157.666C102.061 157.666 110.163 154.441 113.837 150.012L114.963 144.687C112.403 146.94 108.665 147.836 106.182 147.836C102.662 147.836 101.382 145.365 102.291 141.013L115.104 80.7881ZM116 54.0612C116 57.4561 114.651 60.7118 112.251 63.1124C109.85 65.5129 106.595 66.8615 103.2 66.8615C99.8049 66.8615 96.5491 65.5129 94.1486 63.1124C91.7481 60.7118 90.3995 57.4561 90.3995 54.0612C90.3995 50.6664 91.7481 47.4106 94.1486 45.0101C96.5491 42.6096 99.8049 41.261 103.2 41.261C106.595 41.261 109.85 42.6096 112.251 45.0101C114.651 47.4106 116 50.6664 116 54.0612Z" fill="#5C5C5C"/>
</svg>
