<svg width="199" height="199" viewBox="0 0 199 199" fill="none" xmlns="http://www.w3.org/2000/svg">
<path d="M1.5 99.3496C1.5 153.388 45.3721 197.199 99.4958 197.199C153.619 197.199 197.492 153.388 197.492 99.3496C197.492 45.3108 153.619 1.5 99.4958 1.5C45.3721 1.5 1.5 45.3108 1.5 99.3496Z" stroke="#FBCD5C" stroke-width="3"/>
<path d="M115.104 80.7881L85.7914 84.4618L84.7418 89.3259L90.5019 90.3883C94.2652 91.2843 95.0076 92.6412 94.1884 96.3916L84.7418 140.783C82.2586 152.265 86.0858 157.666 95.0844 157.666C102.061 157.666 110.163 154.441 113.837 150.012L114.963 144.687C112.403 146.94 108.665 147.836 106.182 147.836C102.662 147.836 101.382 145.365 102.291 141.013L115.104 80.7881ZM116 54.0612C116 57.4561 114.651 60.7118 112.251 63.1124C109.85 65.5129 106.595 66.8615 103.2 66.8615C99.8049 66.8615 96.5491 65.5129 94.1486 63.1124C91.7481 60.7118 90.3995 57.4561 90.3995 54.0612C90.3995 50.6664 91.7481 47.4106 94.1486 45.0101C96.5491 42.6096 99.8049 41.261 103.2 41.261C106.595 41.261 109.85 42.6096 112.251 45.0101C114.651 47.4106 116 50.6664 116 54.0612Z" fill="#5C5C5C"/>
</svg>
