<svg fill="none" xmlns="http://www.w3.org/2000/svg">
<path d="M187.5 99.3496C187.5 153.388 231.372 197.199 285.496 197.199C339.619 197.199 383.492 153.388 383.492 99.3496C383.492 45.3108 339.619 1.5 285.496 1.5C231.372 1.5 187.5 45.3108 187.5 99.3496Z" stroke="#FBCD5C" stroke-width="3"/>
<path d="M300.104 80.5272L270.791 84.2008L269.742 89.0649L275.502 90.1273C279.265 91.0234 280.008 92.3802 279.188 96.1307L269.742 140.522C267.259 152.004 271.086 157.405 280.084 157.405C287.061 157.405 295.163 154.18 298.837 149.751L299.963 144.426C297.403 146.679 293.665 147.575 291.182 147.575C287.662 147.575 286.382 145.104 287.291 140.752L300.104 80.5272ZM301 53.8002C301 57.1951 299.651 60.4509 297.251 62.8514C294.85 65.2519 291.595 66.6005 288.2 66.6005C284.805 66.6005 281.549 65.2519 279.149 62.8514C276.748 60.4509 275.4 57.1951 275.4 53.8002C275.4 50.4054 276.748 47.1496 279.149 44.7491C281.549 42.3486 284.805 41 288.2 41C291.595 41 294.85 42.3486 297.251 44.7491C299.651 47.1496 301 50.4054 301 53.8002Z" fill="#5C5C5C"/>
</svg>
