<svg width="199" height="199" viewBox="0 0 199 199" fill="none" xmlns="http://www.w3.org/2000/svg">
<path d="M1.50006 99.3496C1.50006 153.388 45.3722 197.199 99.4959 197.199C153.62 197.199 197.492 153.388 197.492 99.3496C197.492 45.3108 153.62 1.5 99.4959 1.5C45.3722 1.5 1.50006 45.3108 1.50006 99.3496Z" stroke="#C34AD7" stroke-width="3"/>
<path d="M60.3917 69.2533L60.3917 88.76C54.9397 90.72 50.9917 95.8533 50.9917 101.92C50.9917 107.987 54.9397 113.12 60.3917 115.08L60.3917 134.587C60.3917 135.24 60.4387 135.847 60.5797 136.453C60.8938 137.94 61.5669 139.328 62.5412 140.498C63.5155 141.669 64.7618 142.587 66.1727 143.173C67.2537 143.64 68.4757 143.92 69.7917 143.92L135.592 143.92C136.861 143.92 138.13 143.64 139.258 143.173C140.386 142.707 141.373 142.007 142.266 141.167C143.535 139.907 144.475 138.273 144.851 136.453C144.945 135.847 144.992 135.24 144.992 134.587L144.992 69.2533C144.992 64.12 140.762 59.92 135.592 59.92L69.7917 59.92C64.6217 59.92 60.3917 64.12 60.3917 69.2533ZM116.228 109.853C118.061 111.673 118.061 114.66 116.228 116.48L106.029 126.607C105.594 127.039 105.077 127.382 104.509 127.617C103.94 127.851 103.331 127.971 102.715 127.971C102.1 127.971 101.49 127.851 100.922 127.617C100.353 127.382 99.8365 127.039 99.4017 126.607L89.2027 116.48C87.3697 114.66 87.3697 111.673 89.2027 109.853C91.0357 108.033 93.9967 108.033 95.8297 109.853L102.692 116.713L109.554 109.9C111.387 108.08 114.395 108.033 116.228 109.853ZM66.2667 101.92C66.2667 103.833 64.6687 105.42 62.7417 105.42C60.8147 105.42 59.2167 103.833 59.2167 101.92C59.2167 100.007 60.8147 98.42 62.7417 98.42C64.6687 98.42 66.2667 100.007 66.2667 101.92ZM116.228 93.9866C115.793 94.4193 115.276 94.7625 114.708 94.9967C114.139 95.2308 113.53 95.3514 112.914 95.3514C112.299 95.3514 111.689 95.2308 111.121 94.9967C110.552 94.7625 110.036 94.4193 109.601 93.9866L102.692 87.1266L95.7827 93.9866C95.3479 94.4193 94.8314 94.7625 94.2628 94.9967C93.6943 95.2308 93.0847 95.3514 92.4692 95.3514C91.8536 95.3514 91.2441 95.2308 90.6756 94.9967C90.107 94.7625 89.5905 94.4193 89.1557 93.9866C87.3227 92.1666 87.3227 89.18 89.1557 87.36L99.3547 77.2333C101.188 75.4133 104.149 75.4133 105.982 77.2333L116.181 87.36C118.061 89.18 118.061 92.1666 116.228 93.9866Z" fill="#5C5C5C"/>
</svg>
