<svg fill="none" xmlns="http://www.w3.org/2000/svg">
<path d="M1.50006 245.35C1.50006 299.388 45.3722 343.199 99.4959 343.199C153.62 343.199 197.492 299.388 197.492 245.35C197.492 191.311 153.62 147.5 99.4959 147.5C45.3722 147.5 1.50006 191.311 1.50006 245.35Z" stroke="#C34AD7" stroke-width="3"/>
<path d="M134 238.2C135.972 238.2 137.886 238.374 139.8 238.664V197.6C139.8 191.22 134.58 186 128.2 186H58.6C52.22 186 47 191.22 47 197.6L47 290.4C47 296.78 52.22 302 58.6 302H100.708C96.4596 295.916 93.9609 288.784 93.4838 281.379C93.0068 273.974 94.5697 266.58 98.0025 260.002C101.435 253.424 106.606 247.913 112.953 244.068C119.3 240.224 126.58 238.195 134 238.2V238.2ZM70.2 238.2V197.6H99.2V238.2L84.7 229.5L70.2 238.2Z" fill="#5C5C5C"/>
<path d="M134 249.8C117.992 249.8 105 262.792 105 278.8C105 294.808 117.992 307.8 134 307.8C150.008 307.8 163 294.808 163 278.8C163 262.792 150.008 249.8 134 249.8ZM126.75 293.3V264.3L149.95 278.8L126.75 293.3Z" fill="#5C5C5C"/>
</svg>
