<svg width="572" height="572" viewBox="0 0 572 572" fill="none" xmlns="http://www.w3.org/2000/svg">
<!-- resume -->
<path d="M306.508 472.35C306.508 526.388 350.381 570.199 404.504 570.199C458.628 570.199 502.5 526.388 502.5 472.35C502.5 418.311 458.628 374.5 404.504 374.5C350.381 374.5 306.508 418.311 306.508 472.35Z" stroke="#5C5C5C" stroke-width="3"/>
<path d="M442.569 445.744L415.006 418.181C414.219 417.394 413.431 417 412.25 417H372.875C368.544 417 365 420.544 365 424.875V519.375C365 523.706 368.544 527.25 372.875 527.25H435.875C440.206 527.25 443.75 523.706 443.75 519.375V448.5C443.75 447.319 443.356 446.531 442.569 445.744ZM412.25 426.45L434.3 448.5H412.25V426.45ZM435.875 519.375H372.875V424.875H404.375V448.5C404.375 452.831 407.919 456.375 412.25 456.375H435.875V519.375Z" fill="#5C5C5C"/>
<path d="M380.75 495.75H428V503.625H380.75V495.75Z" fill="#5C5C5C"/>
<path d="M380.75 472.125H428V480H380.75V472.125Z" fill="#5C5C5C"/>
<!-- project -->
<path d="M69.5084 471.35C69.5084 525.388 113.381 569.199 167.504 569.199C221.628 569.199 265.5 525.388 265.5 471.35C265.5 417.311 221.628 373.5 167.504 373.5C113.381 373.5 69.5084 417.311 69.5084 471.35Z" stroke="#4065F7" stroke-width="3"/>
<path d="M219.381 438.771L181.5 463.639V442.65C181.502 441.964 181.31 441.291 180.945 440.71C180.581 440.129 180.059 439.664 179.44 439.368C178.821 439.072 178.131 438.957 177.45 439.038C176.768 439.118 176.124 439.39 175.591 439.822L152.754 458.926H138V422.894L116.25 418V458.926H109V520.551C109 521.513 109.382 522.435 110.062 523.114C110.742 523.794 111.664 524.176 112.625 524.176H221.375C222.336 524.176 223.258 523.794 223.938 523.114C224.618 522.435 225 521.513 225 520.551V441.78C224.997 441.127 224.817 440.487 224.48 439.928C224.143 439.369 223.662 438.911 223.086 438.603C222.511 438.295 221.863 438.148 221.211 438.177C220.558 438.207 219.926 438.412 219.381 438.771V438.771ZM152.5 513.301H123.5V506.051H152.5V513.301ZM152.5 498.801H123.5V491.551H152.5V498.801ZM152.5 484.301H123.5V477.051H152.5V484.301ZM181.5 513.301H174.25V502.426H181.5V513.301ZM181.5 491.551H174.25V480.676H181.5V491.551ZM196 513.301H188.75V502.426H196V513.301ZM196 491.551H188.75V480.676H196V491.551ZM210.5 513.301H203.25V502.426H210.5V513.301ZM210.5 491.551H203.25V480.676H210.5V491.551Z" fill="#5C5C5C"/>
<!-- blog -->
<path d="M374.5 245.35C374.5 299.388 418.372 343.199 472.496 343.199C526.619 343.199 570.492 299.388 570.492 245.35C570.492 191.311 526.619 147.5 472.496 147.5C418.372 147.5 374.5 191.311 374.5 245.35Z" stroke="#A0DEB1" stroke-width="3"/>
<path d="M464.014 238.39C460.706 237.733 457.625 240.406 457.625 243.782V255.201C457.625 257.512 459.234 259.37 461.409 260.185C465.532 261.726 468.5 265.713 468.5 270.38C468.5 276.384 463.629 281.255 457.625 281.255C451.621 281.255 446.75 276.384 446.75 270.38V214.193C446.75 211.18 444.326 208.755 441.312 208.755H430.437C427.424 208.755 425 211.18 425 214.193V270.38C425 290.658 443.601 306.676 464.648 302.258C476.973 299.675 486.92 289.706 489.502 277.404C493.445 258.622 481.12 241.788 464.014 238.39ZM472.352 187.005C470.267 186.892 468.5 188.546 468.5 190.63V197.79C468.5 199.716 469.995 201.302 471.898 201.392C501.216 202.978 524.778 226.767 526.477 256.107C526.591 258.01 528.177 259.505 530.08 259.505H537.352C539.437 259.505 541.091 257.738 540.977 255.654C539.052 218.679 509.327 188.954 472.352 187.005ZM472.42 208.755C470.312 208.597 468.5 210.273 468.5 212.403V219.676C468.5 221.579 469.973 223.142 471.853 223.278C489.253 224.705 503.119 238.73 504.682 256.175C504.863 258.055 506.404 259.505 508.284 259.505H515.58C517.687 259.505 519.386 257.693 519.227 255.586C517.324 230.641 497.364 210.681 472.42 208.755V208.755Z" fill="#5C5C5C"/>
<!-- instruct -->
<path d="M1.50006 245.35C1.50006 299.388 45.3722 343.199 99.4959 343.199C153.62 343.199 197.492 299.388 197.492 245.35C197.492 191.311 153.62 147.5 99.4959 147.5C45.3722 147.5 1.50006 191.311 1.50006 245.35Z" stroke="#C34AD7" stroke-width="3"/>
<path d="M134 238.2C135.972 238.2 137.886 238.374 139.8 238.664V197.6C139.8 191.22 134.58 186 128.2 186H58.6C52.22 186 47 191.22 47 197.6L47 290.4C47 296.78 52.22 302 58.6 302H100.708C96.4596 295.916 93.9609 288.784 93.4838 281.379C93.0068 273.974 94.5697 266.58 98.0025 260.002C101.435 253.424 106.606 247.913 112.953 244.068C119.3 240.224 126.58 238.195 134 238.2V238.2ZM70.2 238.2V197.6H99.2V238.2L84.7 229.5L70.2 238.2Z" fill="#5C5C5C"/>
<path d="M134 249.8C117.992 249.8 105 262.792 105 278.8C105 294.808 117.992 307.8 134 307.8C150.008 307.8 163 294.808 163 278.8C163 262.792 150.008 249.8 134 249.8ZM126.75 293.3V264.3L149.95 278.8L126.75 293.3Z" fill="#5C5C5C"/>
<!-- info -->
<path d="M187.5 99.3496C187.5 153.388 231.372 197.199 285.496 197.199C339.619 197.199 383.492 153.388 383.492 99.3496C383.492 45.3108 339.619 1.5 285.496 1.5C231.372 1.5 187.5 45.3108 187.5 99.3496Z" stroke="#FBCD5C" stroke-width="3"/>
<path d="M300.104 80.5272L270.791 84.2008L269.742 89.0649L275.502 90.1273C279.265 91.0234 280.008 92.3802 279.188 96.1307L269.742 140.522C267.259 152.004 271.086 157.405 280.084 157.405C287.061 157.405 295.163 154.18 298.837 149.751L299.963 144.426C297.403 146.679 293.665 147.575 291.182 147.575C287.662 147.575 286.382 145.104 287.291 140.752L300.104 80.5272ZM301 53.8002C301 57.1951 299.651 60.4509 297.251 62.8514C294.85 65.2519 291.595 66.6005 288.2 66.6005C284.805 66.6005 281.549 65.2519 279.149 62.8514C276.748 60.4509 275.4 57.1951 275.4 53.8002C275.4 50.4054 276.748 47.1496 279.149 44.7491C281.549 42.3486 284.805 41 288.2 41C291.595 41 294.85 42.3486 297.251 44.7491C299.651 47.1496 301 50.4054 301 53.8002Z" fill="#5C5C5C"/>
</svg>
