<svg fill="none" xmlns="http://www.w3.org/2000/svg">
<path d="M69.5084 471.35C69.5084 525.388 113.381 569.199 167.504 569.199C221.628 569.199 265.5 525.388 265.5 471.35C265.5 417.311 221.628 373.5 167.504 373.5C113.381 373.5 69.5084 417.311 69.5084 471.35Z" stroke="#4065F7" stroke-width="3"/>
<path d="M219.381 438.771L181.5 463.639V442.65C181.502 441.964 181.31 441.291 180.945 440.71C180.581 440.129 180.059 439.664 179.44 439.368C178.821 439.072 178.131 438.957 177.45 439.038C176.768 439.118 176.124 439.39 175.591 439.822L152.754 458.926H138V422.894L116.25 418V458.926H109V520.551C109 521.513 109.382 522.435 110.062 523.114C110.742 523.794 111.664 524.176 112.625 524.176H221.375C222.336 524.176 223.258 523.794 223.938 523.114C224.618 522.435 225 521.513 225 520.551V441.78C224.997 441.127 224.817 440.487 224.48 439.928C224.143 439.369 223.662 438.911 223.086 438.603C222.511 438.295 221.863 438.148 221.211 438.177C220.558 438.207 219.926 438.412 219.381 438.771V438.771ZM152.5 513.301H123.5V506.051H152.5V513.301ZM152.5 498.801H123.5V491.551H152.5V498.801ZM152.5 484.301H123.5V477.051H152.5V484.301ZM181.5 513.301H174.25V502.426H181.5V513.301ZM181.5 491.551H174.25V480.676H181.5V491.551ZM196 513.301H188.75V502.426H196V513.301ZM196 491.551H188.75V480.676H196V491.551ZM210.5 513.301H203.25V502.426H210.5V513.301ZM210.5 491.551H203.25V480.676H210.5V491.551Z" fill="#5C5C5C"/>
</svg>
