<svg width="199" height="245" viewBox="0 0 199 245" fill="none" xmlns="http://www.w3.org/2000/svg">
<path d="M37.365 236.335C36.9683 236.335 36.6417 236.207 36.385 235.95C36.1283 235.693 36 235.367 36 234.97V210.365C36 209.968 36.1283 209.642 36.385 209.385C36.6417 209.128 36.9683 209 37.365 209H44.365C46.0683 209 47.585 209.385 48.915 210.155C50.2683 210.902 51.3183 211.952 52.065 213.305C52.8117 214.635 53.185 216.163 53.185 217.89C53.185 219.593 52.8117 221.11 52.065 222.44C51.3183 223.77 50.2683 224.808 48.915 225.555C47.585 226.302 46.0683 226.675 44.365 226.675H38.73V234.97C38.73 235.367 38.6017 235.693 38.345 235.95C38.0883 236.207 37.7617 236.335 37.365 236.335ZM44.365 224.05C45.555 224.05 46.6167 223.793 47.55 223.28C48.4833 222.743 49.2067 222.008 49.72 221.075C50.2567 220.142 50.525 219.08 50.525 217.89C50.525 216.677 50.2567 215.603 49.72 214.67C49.2067 213.713 48.4833 212.967 47.55 212.43C46.6167 211.893 45.555 211.625 44.365 211.625H38.73V224.05H44.365Z" fill="#5C5C5C"/>
<path d="M65.7257 216.98C66.7057 216.98 67.4757 217.108 68.0357 217.365C68.619 217.622 68.9107 217.983 68.9107 218.45C68.9107 218.59 68.899 218.695 68.8757 218.765C68.7823 219.092 68.6307 219.313 68.4207 219.43C68.234 219.547 67.9657 219.605 67.6157 219.605C67.4057 219.605 67.044 219.582 66.5307 219.535C66.344 219.512 66.064 219.5 65.6907 219.5C63.9407 219.5 62.5057 219.967 61.3857 220.9C60.289 221.833 59.7407 223.047 59.7407 224.54V235.005C59.7407 235.425 59.624 235.752 59.3907 235.985C59.1573 236.218 58.8307 236.335 58.4107 236.335C57.9907 236.335 57.664 236.218 57.4307 235.985C57.1973 235.752 57.0807 235.425 57.0807 235.005V218.52C57.0807 218.1 57.1973 217.773 57.4307 217.54C57.664 217.307 57.9907 217.19 58.4107 217.19C58.8307 217.19 59.1573 217.307 59.3907 217.54C59.624 217.773 59.7407 218.1 59.7407 218.52V220.06C60.4173 219.08 61.2807 218.322 62.3307 217.785C63.3807 217.248 64.5123 216.98 65.7257 216.98Z" fill="#5C5C5C"/>
<path d="M80.0144 236.51C78.1711 236.51 76.5027 236.09 75.0094 235.25C73.5394 234.41 72.3844 233.255 71.5444 231.785C70.7044 230.292 70.2844 228.623 70.2844 226.78C70.2844 224.937 70.7044 223.268 71.5444 221.775C72.3844 220.282 73.5394 219.115 75.0094 218.275C76.5027 217.435 78.1711 217.015 80.0144 217.015C81.8577 217.015 83.5144 217.435 84.9844 218.275C86.4544 219.115 87.6094 220.282 88.4494 221.775C89.3128 223.268 89.7444 224.937 89.7444 226.78C89.7444 228.623 89.3244 230.292 88.4844 231.785C87.6444 233.255 86.4777 234.41 84.9844 235.25C83.5144 236.09 81.8577 236.51 80.0144 236.51ZM80.0144 234.06C81.3677 234.06 82.5811 233.745 83.6544 233.115C84.7277 232.485 85.5677 231.622 86.1744 230.525C86.7811 229.405 87.0844 228.157 87.0844 226.78C87.0844 225.38 86.7811 224.132 86.1744 223.035C85.5677 221.915 84.7277 221.04 83.6544 220.41C82.5811 219.78 81.3677 219.465 80.0144 219.465C78.6844 219.465 77.4711 219.78 76.3744 220.41C75.3011 221.04 74.4494 221.915 73.8194 223.035C73.2127 224.132 72.9094 225.38 72.9094 226.78C72.9094 228.157 73.2127 229.405 73.8194 230.525C74.4494 231.622 75.3011 232.485 76.3744 233.115C77.4711 233.745 78.6844 234.06 80.0144 234.06Z" fill="#5C5C5C"/>
<path d="M89.9109 244.525C89.5143 244.525 89.1876 244.397 88.9309 244.14C88.6743 243.883 88.5459 243.557 88.5459 243.16C88.5459 242.763 88.6743 242.437 88.9309 242.18C89.1876 241.923 89.5143 241.795 89.9109 241.795C91.5209 241.795 92.8393 241.282 93.8659 240.255C94.8926 239.228 95.4059 237.922 95.4059 236.335V218.555C95.4059 218.158 95.5226 217.832 95.7559 217.575C96.0126 217.318 96.3393 217.19 96.7359 217.19C97.1326 217.19 97.4593 217.318 97.7159 217.575C97.9726 217.832 98.1009 218.158 98.1009 218.555V236.335C98.1009 237.922 97.7509 239.333 97.0509 240.57C96.3509 241.807 95.3826 242.775 94.1459 243.475C92.9093 244.175 91.4976 244.525 89.9109 244.525ZM96.7009 213.55C96.1643 213.55 95.7093 213.363 95.3359 212.99C94.9859 212.617 94.8109 212.162 94.8109 211.625C94.8109 211.065 94.9976 210.61 95.3709 210.26C95.7443 209.91 96.1993 209.735 96.7359 209.735C97.2493 209.735 97.6926 209.91 98.0659 210.26C98.4393 210.61 98.6259 211.065 98.6259 211.625C98.6259 212.162 98.4393 212.617 98.0659 212.99C97.6926 213.363 97.2376 213.55 96.7009 213.55Z" fill="#5C5C5C"/>
<path d="M112.13 217.015C113.857 217.015 115.385 217.423 116.715 218.24C118.045 219.033 119.072 220.142 119.795 221.565C120.542 222.988 120.915 224.61 120.915 226.43C120.915 226.803 120.799 227.107 120.565 227.34C120.332 227.55 120.029 227.655 119.655 227.655H105.515C105.702 229.568 106.449 231.12 107.755 232.31C109.062 233.5 110.695 234.095 112.655 234.095C113.495 234.095 114.335 233.955 115.175 233.675C116.039 233.372 116.727 232.998 117.24 232.555C117.544 232.322 117.859 232.205 118.185 232.205C118.442 232.205 118.699 232.298 118.955 232.485C119.259 232.765 119.41 233.08 119.41 233.43C119.41 233.733 119.282 234.002 119.025 234.235C118.255 234.888 117.275 235.437 116.085 235.88C114.895 236.3 113.752 236.51 112.655 236.51C110.789 236.51 109.12 236.102 107.65 235.285C106.18 234.445 105.025 233.29 104.185 231.82C103.369 230.327 102.96 228.647 102.96 226.78C102.96 224.89 103.345 223.21 104.115 221.74C104.909 220.247 105.994 219.092 107.37 218.275C108.77 217.435 110.357 217.015 112.13 217.015ZM112.13 219.43C110.357 219.43 108.887 219.978 107.72 221.075C106.554 222.172 105.842 223.618 105.585 225.415H118.395C118.209 223.618 117.555 222.172 116.435 221.075C115.315 219.978 113.88 219.43 112.13 219.43Z" fill="#5C5C5C"/>
<path d="M133.331 236.51C131.511 236.51 129.877 236.09 128.431 235.25C126.984 234.387 125.841 233.22 125.001 231.75C124.184 230.257 123.776 228.6 123.776 226.78C123.776 224.913 124.172 223.245 124.966 221.775C125.759 220.282 126.856 219.115 128.256 218.275C129.656 217.435 131.231 217.015 132.981 217.015C135.897 217.015 138.266 218.135 140.086 220.375C140.272 220.585 140.366 220.83 140.366 221.11C140.366 221.483 140.167 221.81 139.771 222.09C139.561 222.23 139.339 222.3 139.106 222.3C138.756 222.3 138.417 222.125 138.091 221.775C137.391 221.005 136.621 220.433 135.781 220.06C134.941 219.663 134.007 219.465 132.981 219.465C131.697 219.465 130.554 219.78 129.551 220.41C128.547 221.017 127.766 221.88 127.206 223C126.669 224.12 126.401 225.38 126.401 226.78C126.401 228.157 126.692 229.405 127.276 230.525C127.859 231.622 128.676 232.485 129.726 233.115C130.776 233.745 131.977 234.06 133.331 234.06C135.197 234.06 136.702 233.558 137.846 232.555C138.149 232.298 138.464 232.17 138.791 232.17C139.071 232.17 139.327 232.263 139.561 232.45C139.887 232.73 140.051 233.045 140.051 233.395C140.051 233.698 139.934 233.955 139.701 234.165C138.021 235.728 135.897 236.51 133.331 236.51Z" fill="#5C5C5C"/>
<path d="M154.075 233.64C154.449 233.64 154.752 233.768 154.985 234.025C155.219 234.282 155.335 234.608 155.335 235.005C155.335 235.378 155.195 235.693 154.915 235.95C154.635 236.207 154.285 236.335 153.865 236.335H153.13C151.894 236.335 150.785 236.043 149.805 235.46C148.825 234.853 148.055 234.048 147.495 233.045C146.959 232.018 146.69 230.863 146.69 229.58V220.235H144.415C144.042 220.235 143.739 220.13 143.505 219.92C143.295 219.687 143.19 219.407 143.19 219.08C143.19 218.73 143.295 218.45 143.505 218.24C143.739 218.007 144.042 217.89 144.415 217.89H146.69V212.465C146.69 212.068 146.807 211.742 147.04 211.485C147.297 211.228 147.624 211.1 148.02 211.1C148.417 211.1 148.744 211.228 149 211.485C149.257 211.742 149.385 212.068 149.385 212.465V217.89H153.34C153.714 217.89 154.005 218.007 154.215 218.24C154.449 218.45 154.565 218.73 154.565 219.08C154.565 219.407 154.449 219.687 154.215 219.92C154.005 220.13 153.714 220.235 153.34 220.235H149.385V229.58C149.385 230.77 149.735 231.75 150.435 232.52C151.135 233.267 152.034 233.64 153.13 233.64H154.075Z" fill="#5C5C5C"/>
<path d="M166.407 236.51C164.961 236.51 163.572 236.265 162.242 235.775C160.912 235.285 159.839 234.597 159.022 233.71C158.789 233.43 158.672 233.162 158.672 232.905C158.672 232.508 158.859 232.158 159.232 231.855C159.512 231.645 159.804 231.54 160.107 231.54C160.504 231.54 160.842 231.703 161.122 232.03C161.682 232.683 162.417 233.185 163.327 233.535C164.261 233.885 165.287 234.06 166.407 234.06C168.041 234.06 169.266 233.78 170.082 233.22C170.899 232.66 171.319 231.925 171.342 231.015C171.342 230.175 170.934 229.475 170.117 228.915C169.301 228.355 168.006 227.935 166.232 227.655C163.946 227.282 162.231 226.64 161.087 225.73C159.967 224.797 159.407 223.677 159.407 222.37C159.407 220.667 160.061 219.348 161.367 218.415C162.697 217.482 164.354 217.015 166.337 217.015C167.877 217.015 169.219 217.283 170.362 217.82C171.506 218.333 172.427 219.057 173.127 219.99C173.314 220.293 173.407 220.562 173.407 220.795C173.407 221.192 173.221 221.507 172.847 221.74C172.684 221.857 172.462 221.915 172.182 221.915C171.692 221.915 171.284 221.74 170.957 221.39C169.814 220.083 168.251 219.43 166.267 219.43C164.984 219.43 163.957 219.698 163.187 220.235C162.417 220.748 162.032 221.402 162.032 222.195C162.032 223.035 162.394 223.712 163.117 224.225C163.841 224.715 165.124 225.112 166.967 225.415C169.464 225.835 171.249 226.523 172.322 227.48C173.396 228.413 173.932 229.58 173.932 230.98C173.932 232.053 173.606 233.01 172.952 233.85C172.322 234.69 171.436 235.343 170.292 235.81C169.149 236.277 167.854 236.51 166.407 236.51Z" fill="#5C5C5C"/>
<path d="M1.50006 99.3496C1.50006 153.388 45.3722 197.199 99.4959 197.199C153.62 197.199 197.492 153.388 197.492 99.3496C197.492 45.3108 153.62 1.5 99.4959 1.5C45.3722 1.5 1.50006 45.3108 1.50006 99.3496Z" stroke="#4065F7" stroke-width="3"/>
<path d="M55.1841 96.1508C55.1305 95.5334 55.2058 94.9116 55.4052 94.3248C55.6047 93.7381 55.9239 93.1992 56.3427 92.7424C56.7615 92.2856 57.2706 91.9208 57.8379 91.6712C58.4051 91.4216 59.018 91.2926 59.6378 91.2924H68.1763C69.3622 91.2924 70.4996 91.7635 71.3382 92.6021C72.1767 93.4407 72.6479 94.5781 72.6479 95.764V138.244C72.6479 139.43 72.1767 140.567 71.3382 141.406C70.4996 142.245 69.3622 142.716 68.1763 142.716H63.3335C62.2144 142.716 61.1358 142.297 60.3108 141.54C59.4858 140.784 58.9744 139.746 58.8776 138.631L55.1841 96.1508V96.1508Z" stroke="#5C5C5C" stroke-width="4" stroke-linecap="round" stroke-linejoin="round"/>
<path d="M86.0626 94.3666C86.0626 92.4975 87.2252 90.8251 88.9132 90.0292C92.6 88.2897 98.8804 84.7952 101.713 80.0709C105.364 73.9806 106.053 62.9783 106.165 60.4586C106.18 60.1053 106.171 59.752 106.218 59.4033C106.824 55.0368 115.251 60.1366 118.482 65.5293C120.237 68.4538 120.46 72.2971 120.277 75.2998C120.078 78.5104 119.137 81.6114 118.213 84.6923L116.246 91.2589H140.52C141.211 91.2588 141.892 91.4189 142.511 91.7264C143.129 92.034 143.668 92.4808 144.085 93.0316C144.502 93.5825 144.786 94.2224 144.914 94.9013C145.042 95.5802 145.011 96.2796 144.824 96.9445L132.817 139.46C132.552 140.398 131.988 141.223 131.211 141.811C130.434 142.399 129.486 142.716 128.511 142.716H90.5342C89.3482 142.716 88.2108 142.245 87.3723 141.406C86.5337 140.567 86.0626 139.43 86.0626 138.244V94.3666Z" stroke="#5C5C5C" stroke-width="4" stroke-linecap="round" stroke-linejoin="round"/>
</svg>
