<svg width="199" height="199" viewBox="0 0 199 199" fill="none" xmlns="http://www.w3.org/2000/svg">
<path d="M1.50006 99.3496C1.50006 153.388 45.3722 197.199 99.4959 197.199C153.62 197.199 197.492 153.388 197.492 99.3496C197.492 45.3108 153.62 1.5 99.4959 1.5C45.3722 1.5 1.50006 45.3108 1.50006 99.3496Z" stroke="#4065F7" stroke-width="3"/>
<path d="M55.1841 96.1508C55.1305 95.5334 55.2058 94.9116 55.4052 94.3248C55.6047 93.7381 55.9239 93.1992 56.3427 92.7424C56.7615 92.2856 57.2706 91.9208 57.8379 91.6712C58.4051 91.4216 59.018 91.2926 59.6378 91.2924H68.1763C69.3622 91.2924 70.4996 91.7635 71.3382 92.6021C72.1767 93.4407 72.6479 94.5781 72.6479 95.764V138.244C72.6479 139.43 72.1767 140.567 71.3382 141.406C70.4996 142.245 69.3622 142.716 68.1763 142.716H63.3335C62.2144 142.716 61.1358 142.297 60.3108 141.54C59.4858 140.784 58.9744 139.746 58.8776 138.631L55.1841 96.1508V96.1508Z" stroke="#5C5C5C" stroke-width="4" stroke-linecap="round" stroke-linejoin="round"/>
<path d="M86.0626 94.3666C86.0626 92.4975 87.2252 90.8251 88.9132 90.0292C92.6 88.2897 98.8804 84.7952 101.713 80.0709C105.364 73.9806 106.053 62.9783 106.165 60.4586C106.18 60.1053 106.171 59.752 106.218 59.4033C106.824 55.0368 115.251 60.1366 118.482 65.5293C120.237 68.4538 120.46 72.2971 120.277 75.2998C120.078 78.5104 119.137 81.6114 118.213 84.6923L116.246 91.2589H140.52C141.211 91.2588 141.892 91.4189 142.511 91.7264C143.129 92.034 143.668 92.4808 144.085 93.0316C144.502 93.5825 144.786 94.2224 144.914 94.9013C145.042 95.5802 145.011 96.2796 144.824 96.9445L132.817 139.46C132.552 140.398 131.988 141.223 131.211 141.811C130.434 142.399 129.486 142.716 128.511 142.716H90.5342C89.3482 142.716 88.2108 142.245 87.3723 141.406C86.5337 140.567 86.0626 139.43 86.0626 138.244V94.3666Z" stroke="#5C5C5C" stroke-width="4" stroke-linecap="round" stroke-linejoin="round"/>
</svg>
