<svg width="199" height="241" viewBox="0 0 199 241" fill="none" xmlns="http://www.w3.org/2000/svg">
<path d="M51.9187 237.698C52.1329 238.054 52.24 238.375 52.24 238.66C52.24 239.016 52.1091 239.302 51.8473 239.515C51.5856 239.729 51.2405 239.836 50.8122 239.836C50.5267 239.836 50.2887 239.777 50.0983 239.658C49.908 239.539 49.7414 239.361 49.5986 239.123L43.1737 228.93H37.2841V238.446C37.2841 238.85 37.1533 239.183 36.8915 239.444C36.6297 239.705 36.2966 239.836 35.8921 239.836C35.4875 239.836 35.1544 239.705 34.8926 239.444C34.6309 239.183 34.5 238.85 34.5 238.446V213.39C34.5 212.986 34.6309 212.653 34.8926 212.392C35.1544 212.131 35.4875 212 35.8921 212H42.5669C44.304 212 45.8507 212.368 47.2071 213.105C48.5635 213.818 49.6224 214.828 50.3839 216.134C51.1692 217.441 51.5618 218.926 51.5618 220.59C51.5618 222.419 51.0621 224.023 50.0626 225.401C49.087 226.779 47.7544 227.765 46.0649 228.36L51.9187 237.698ZM42.5669 226.257C43.7567 226.257 44.8275 226.019 45.7793 225.544C46.755 225.045 47.5046 224.368 48.0281 223.512C48.5754 222.657 48.849 221.683 48.849 220.59C48.849 219.449 48.5754 218.427 48.0281 217.524C47.5046 216.622 46.7669 215.921 45.815 215.422C44.8632 214.923 43.7805 214.673 42.5669 214.673H37.2841V226.257H42.5669Z" fill="#5C5C5C"/>
<path d="M64.5246 220.162C66.2855 220.162 67.8442 220.578 69.2005 221.409C70.5569 222.217 71.6039 223.346 72.3416 224.795C73.1031 226.245 73.4838 227.896 73.4838 229.75C73.4838 230.13 73.3649 230.439 73.1269 230.676C72.8889 230.89 72.5796 230.997 72.1988 230.997H57.7784C57.9688 232.945 58.7303 234.526 60.0628 235.737C61.3954 236.949 63.0612 237.555 65.06 237.555C65.9167 237.555 66.7733 237.413 67.63 237.127C68.5105 236.818 69.2124 236.438 69.736 235.987C70.0453 235.749 70.3665 235.63 70.6997 235.63C70.9615 235.63 71.2232 235.725 71.485 235.916C71.7943 236.201 71.949 236.521 71.949 236.878C71.949 237.187 71.8181 237.46 71.5564 237.698C70.7711 238.363 69.7716 238.921 68.558 239.373C67.3444 239.8 66.1784 240.014 65.06 240.014C63.1563 240.014 61.4549 239.599 59.9558 238.767C58.4566 237.911 57.2787 236.735 56.422 235.238C55.5892 233.718 55.1728 232.007 55.1728 230.106C55.1728 228.181 55.5654 226.471 56.3507 224.974C57.1597 223.453 58.2662 222.277 59.6702 221.445C61.098 220.59 62.7161 220.162 64.5246 220.162ZM64.5246 222.621C62.7161 222.621 61.217 223.18 60.0272 224.296C58.8373 225.413 58.1116 226.886 57.8498 228.716H70.9139C70.7235 226.886 70.0572 225.413 68.915 224.296C67.7728 223.18 66.3093 222.621 64.5246 222.621Z" fill="#5C5C5C"/>
<path d="M84.9509 240.014C83.4755 240.014 82.0596 239.765 80.7032 239.266C79.3469 238.767 78.2523 238.066 77.4194 237.163C77.1814 236.878 77.0625 236.605 77.0625 236.343C77.0625 235.939 77.2528 235.583 77.6336 235.274C77.9191 235.06 78.2166 234.953 78.5259 234.953C78.9304 234.953 79.2755 235.12 79.561 235.452C80.1321 236.118 80.8817 236.628 81.8098 236.985C82.7616 237.341 83.8086 237.519 84.9509 237.519C86.6166 237.519 87.8659 237.234 88.6987 236.664C89.5316 236.094 89.9599 235.345 89.9837 234.419C89.9837 233.563 89.5673 232.85 88.7344 232.28C87.9016 231.71 86.5809 231.282 84.7724 230.997C82.4404 230.617 80.6914 229.963 79.5253 229.037C78.3831 228.086 77.812 226.946 77.812 225.615C77.812 223.881 78.4783 222.538 79.8109 221.588C81.1673 220.637 82.8568 220.162 84.8795 220.162C86.45 220.162 87.8183 220.435 88.9843 220.982C90.1503 221.504 91.0902 222.241 91.8041 223.191C91.9945 223.5 92.0897 223.774 92.0897 224.011C92.0897 224.415 91.8993 224.736 91.5186 224.974C91.352 225.092 91.1259 225.152 90.8404 225.152C90.3407 225.152 89.9242 224.974 89.5911 224.617C88.4251 223.287 86.8307 222.621 84.8081 222.621C83.4993 222.621 82.4523 222.894 81.667 223.441C80.8817 223.964 80.4891 224.629 80.4891 225.437C80.4891 226.292 80.8579 226.981 81.5956 227.504C82.3333 228.003 83.6421 228.407 85.522 228.716C88.0681 229.144 89.8885 229.845 90.9832 230.819C92.0778 231.769 92.6251 232.957 92.6251 234.383C92.6251 235.476 92.2919 236.45 91.6257 237.306C90.9832 238.161 90.0789 238.826 88.9129 239.302C87.7469 239.777 86.4262 240.014 84.9509 240.014Z" fill="#5C5C5C"/>
<path d="M113.723 220.34C114.127 220.34 114.46 220.471 114.722 220.732C114.984 220.97 115.115 221.291 115.115 221.695V238.446C115.115 238.85 114.984 239.183 114.722 239.444C114.46 239.705 114.127 239.836 113.723 239.836C113.318 239.836 112.985 239.705 112.723 239.444C112.485 239.183 112.366 238.85 112.366 238.446V237.234C111.581 238.113 110.629 238.803 109.511 239.302C108.392 239.8 107.179 240.05 105.87 240.05C104.18 240.05 102.657 239.694 101.301 238.981C99.9684 238.268 98.9214 237.234 98.1599 235.88C97.3984 234.502 97.0177 232.862 97.0177 230.961V221.695C97.0177 221.314 97.1486 220.994 97.4103 220.732C97.6721 220.471 97.9933 220.34 98.3741 220.34C98.7786 220.34 99.1118 220.471 99.3735 220.732C99.6353 220.994 99.7661 221.314 99.7661 221.695V230.961C99.7661 233.076 100.349 234.692 101.515 235.809C102.705 236.902 104.252 237.448 106.155 237.448C107.321 237.448 108.368 237.222 109.296 236.771C110.248 236.319 110.998 235.702 111.545 234.918C112.093 234.11 112.366 233.219 112.366 232.244V221.695C112.366 221.291 112.485 220.97 112.723 220.732C112.985 220.471 113.318 220.34 113.723 220.34Z" fill="#5C5C5C"/>
<path d="M142.091 220.126C143.495 220.126 144.732 220.459 145.803 221.124C146.898 221.79 147.742 222.74 148.337 223.976C148.956 225.187 149.265 226.601 149.265 228.217V238.482C149.265 238.886 149.134 239.218 148.873 239.48C148.635 239.717 148.313 239.836 147.909 239.836C147.504 239.836 147.171 239.717 146.909 239.48C146.648 239.218 146.517 238.886 146.517 238.482V228.217C146.517 226.53 146.077 225.199 145.196 224.225C144.339 223.227 143.209 222.728 141.805 222.728C140.306 222.728 139.092 223.227 138.164 224.225C137.236 225.223 136.784 226.53 136.808 228.146V238.482C136.808 238.886 136.677 239.218 136.415 239.48C136.177 239.717 135.856 239.836 135.452 239.836C135.047 239.836 134.714 239.717 134.452 239.48C134.19 239.218 134.06 238.886 134.06 238.482V228.217C134.06 226.53 133.619 225.199 132.739 224.225C131.882 223.227 130.752 222.728 129.348 222.728C127.873 222.728 126.659 223.215 125.707 224.189C124.755 225.164 124.279 226.411 124.279 227.932V238.482C124.279 238.886 124.148 239.218 123.887 239.48C123.649 239.717 123.328 239.836 122.923 239.836C122.518 239.836 122.185 239.717 121.924 239.48C121.662 239.218 121.531 238.886 121.531 238.482V221.73C121.531 221.326 121.662 220.994 121.924 220.732C122.185 220.471 122.518 220.34 122.923 220.34C123.328 220.34 123.649 220.471 123.887 220.732C124.148 220.994 124.279 221.326 124.279 221.73V222.514C124.946 221.754 125.731 221.172 126.635 220.768C127.563 220.34 128.563 220.126 129.633 220.126C130.942 220.126 132.12 220.423 133.167 221.017C134.214 221.611 135.047 222.443 135.666 223.512C136.356 222.443 137.248 221.611 138.343 221.017C139.461 220.423 140.711 220.126 142.091 220.126Z" fill="#5C5C5C"/>
<path d="M163.659 220.162C165.42 220.162 166.979 220.578 168.335 221.409C169.692 222.217 170.739 223.346 171.476 224.795C172.238 226.245 172.619 227.896 172.619 229.75C172.619 230.13 172.5 230.439 172.262 230.676C172.024 230.89 171.714 230.997 171.334 230.997H156.913C157.104 232.945 157.865 234.526 159.198 235.737C160.53 236.949 162.196 237.555 164.195 237.555C165.052 237.555 165.908 237.413 166.765 237.127C167.645 236.818 168.347 236.438 168.871 235.987C169.18 235.749 169.501 235.63 169.835 235.63C170.096 235.63 170.358 235.725 170.62 235.916C170.929 236.201 171.084 236.521 171.084 236.878C171.084 237.187 170.953 237.46 170.691 237.698C169.906 238.363 168.906 238.921 167.693 239.373C166.479 239.8 165.313 240.014 164.195 240.014C162.291 240.014 160.59 239.599 159.091 238.767C157.591 237.911 156.414 236.735 155.557 235.238C154.724 233.718 154.308 232.007 154.308 230.106C154.308 228.181 154.7 226.471 155.485 224.974C156.295 223.453 157.401 222.277 158.805 221.445C160.233 220.59 161.851 220.162 163.659 220.162ZM163.659 222.621C161.851 222.621 160.352 223.18 159.162 224.296C157.972 225.413 157.246 226.886 156.985 228.716H170.049C169.858 226.886 169.192 225.413 168.05 224.296C166.908 223.18 165.444 222.621 163.659 222.621Z" fill="#5C5C5C"/>
<path d="M1.50009 100.029C1.50009 154.067 45.3722 197.878 99.4959 197.878C153.62 197.878 197.492 154.067 197.492 100.029C197.492 45.9899 153.62 2.17905 99.4959 2.17905C45.3722 2.17905 1.50009 45.9899 1.50009 100.029Z" stroke="#5C5C5C" stroke-width="3"/>
<path d="M137.56 72.8543L109.998 45.2918C109.21 44.5043 108.423 44.1106 107.242 44.1106H67.8667C63.5354 44.1106 59.9917 47.6543 59.9917 51.9856V146.486C59.9917 150.817 63.5354 154.361 67.8667 154.361H130.867C135.198 154.361 138.742 150.817 138.742 146.486V75.6106C138.742 74.4293 138.348 73.6418 137.56 72.8543ZM107.242 53.5606L129.292 75.6106H107.242V53.5606ZM130.867 146.486H67.8667V51.9856H99.3667V75.6106C99.3667 79.9418 102.91 83.4856 107.242 83.4856H130.867V146.486Z" fill="#5C5C5C"/>
<path d="M75.7417 122.861H122.992V130.736H75.7417V122.861Z" fill="#5C5C5C"/>
<path d="M75.7417 99.2356H122.992V107.111H75.7417V99.2356Z" fill="#5C5C5C"/>
</svg>
