<svg fill="none" xmlns="http://www.w3.org/2000/svg">
<path d="M306.508 472.35C306.508 526.388 350.381 570.199 404.504 570.199C458.628 570.199 502.5 526.388 502.5 472.35C502.5 418.311 458.628 374.5 404.504 374.5C350.381 374.5 306.508 418.311 306.508 472.35Z" stroke="#5C5C5C" stroke-width="3"/>
<path d="M442.569 445.744L415.006 418.181C414.219 417.394 413.431 417 412.25 417H372.875C368.544 417 365 420.544 365 424.875V519.375C365 523.706 368.544 527.25 372.875 527.25H435.875C440.206 527.25 443.75 523.706 443.75 519.375V448.5C443.75 447.319 443.356 446.531 442.569 445.744ZM412.25 426.45L434.3 448.5H412.25V426.45ZM435.875 519.375H372.875V424.875H404.375V448.5C404.375 452.831 407.919 456.375 412.25 456.375H435.875V519.375Z" fill="#5C5C5C"/>
<path d="M380.75 495.75H428V503.625H380.75V495.75Z" fill="#5C5C5C"/>
<path d="M380.75 472.125H428V480H380.75V472.125Z" fill="#5C5C5C"/>
</svg>
