<svg width="199" height="199" viewBox="0 0 199 199" fill="none" xmlns="http://www.w3.org/2000/svg">
<path d="M1.50009 100.029C1.50009 154.067 45.3722 197.878 99.4959 197.878C153.62 197.878 197.492 154.067 197.492 100.029C197.492 45.9899 153.62 2.17905 99.4959 2.17905C45.3722 2.17905 1.50009 45.9899 1.50009 100.029Z" stroke="#5C5C5C" stroke-width="3"/>
<path d="M137.56 72.8543L109.998 45.2918C109.21 44.5043 108.423 44.1106 107.242 44.1106H67.8667C63.5354 44.1106 59.9917 47.6543 59.9917 51.9856V146.486C59.9917 150.817 63.5354 154.361 67.8667 154.361H130.867C135.198 154.361 138.742 150.817 138.742 146.486V75.6106C138.742 74.4293 138.348 73.6418 137.56 72.8543ZM107.242 53.5606L129.292 75.6106H107.242V53.5606ZM130.867 146.486H67.8667V51.9856H99.3667V75.6106C99.3667 79.9418 102.91 83.4856 107.242 83.4856H130.867V146.486Z" fill="#5C5C5C"/>
<path d="M75.7417 122.861H122.992V130.736H75.7417V122.861Z" fill="#5C5C5C"/>
<path d="M75.7417 99.2356H122.992V107.111H75.7417V99.2356Z" fill="#5C5C5C"/>
</svg>
