<svg fill="rgba(255, 255, 255, 0)" xmlns="http://www.w3.org/2000/svg">
<rect x="232" y="20" width="41" height="18" fill="rgba(255, 255, 255, 0)"/>
<path d="M259.2 37.3582C259.729 37.357 260.232 37.1368 260.601 36.752C260.97 36.3675 261.176 35.8495 261.181 35.3116V35.3084L261.177 22.7863C261.177 22.7863 261.177 22.7862 261.177 22.7862C261.177 21.6721 260.303 20.7268 259.194 20.7268C258.083 20.7268 257.221 21.6754 257.221 22.7863V29.274L251.796 21.5717L251.791 21.5642L251.786 21.5571C251.429 21.0968 250.873 20.7356 250.232 20.7346C250.019 20.7323 249.807 20.7692 249.606 20.8434C248.807 21.1297 248.268 21.9186 248.268 22.7863V35.3065C248.268 35.8445 248.472 36.3642 248.839 36.7503C249.208 37.137 249.711 37.3582 250.241 37.3582C250.771 37.3582 251.275 37.137 251.643 36.7503C252.011 36.3642 252.214 35.8445 252.214 35.3065V28.8562L257.59 36.5321L257.59 36.5321L257.594 36.5384C257.781 36.7939 258.023 37.0021 258.302 37.1451C258.581 37.2878 258.888 37.3611 259.2 37.3582ZM259.2 37.3582C259.2 37.3582 259.199 37.3582 259.199 37.3582L259.198 36.9582L259.202 37.3581C259.202 37.3582 259.201 37.3582 259.2 37.3582ZM266.423 26.9946V24.8419H270.409H270.418L270.428 24.8414C270.942 24.8168 271.422 24.5856 271.772 24.2025C272.121 23.8199 272.314 23.3146 272.315 22.7921C272.317 22.2696 272.127 21.7632 271.78 21.3785C271.433 20.9933 270.953 20.7592 270.44 20.7313L270.429 20.7307H270.418H264.45C263.341 20.7307 262.481 21.6799 262.481 22.7902V35.3105V35.3109C262.481 35.8478 262.684 36.3662 263.051 36.7519C263.418 37.1383 263.92 37.3601 264.448 37.3621H264.45H270.397C270.664 37.3742 270.929 37.3302 271.178 37.2329C271.431 37.1344 271.66 36.9836 271.853 36.7908C272.046 36.598 272.198 36.3673 272.302 36.113C272.405 35.8588 272.459 35.5859 272.459 35.3105C272.459 35.0351 272.405 34.7621 272.302 34.5079C272.198 34.2537 272.046 34.0229 271.853 33.8301C271.66 33.6373 271.431 33.4865 271.178 33.388C270.929 33.2907 270.664 33.2467 270.397 33.2588H266.421V31.1059H270.4C270.666 31.1145 270.93 31.0673 271.177 30.9676C271.427 30.8669 271.653 30.7151 271.843 30.5223C272.033 30.3295 272.183 30.0995 272.285 29.8467C272.388 29.594 272.44 29.3228 272.44 29.0494C272.44 28.7759 272.388 28.5048 272.285 28.252C272.183 27.9992 272.033 27.7693 271.843 27.5765C271.653 27.3836 271.427 27.2318 271.177 27.1311C270.93 27.0314 270.666 26.9842 270.4 26.9928L266.423 26.9946ZM246.826 35.3103V35.3086L246.827 22.7883V22.7883C246.827 21.677 245.964 20.7287 244.854 20.7287C243.743 20.7287 242.881 21.6773 242.881 22.7883V35.3085V35.3089C242.882 35.8441 243.083 36.3611 243.448 36.7465C243.813 37.1325 244.313 37.3555 244.84 37.3601L244.843 37.3601C245.373 37.3608 245.878 37.1405 246.248 36.7543C246.618 36.3687 246.823 35.8492 246.826 35.3103ZM234.293 37.3601H234.294H240.263C240.792 37.3601 241.296 37.139 241.665 36.7523C242.032 36.3662 242.236 35.8465 242.236 35.3085C242.236 34.7705 242.032 34.2508 241.665 33.8647C241.296 33.478 240.792 33.2568 240.263 33.2568H236.267V22.7883C236.267 21.6773 235.406 20.7287 234.294 20.7287C233.186 20.7287 232.312 21.6742 232.312 22.7883L232.312 35.3085L232.312 35.3116C232.316 35.8496 232.522 36.3677 232.891 36.7526C233.26 37.1381 233.764 37.3588 234.293 37.3601ZM247.173 53.4029L247.158 53.3995L247.143 53.3974C232.877 51.4081 222.4 40.9563 222.4 28.57C222.4 14.7515 235.627 3.4 252 3.4C268.373 3.4 281.6 14.7515 281.6 28.57C281.6 34.0885 279.585 39.0849 275.331 43.9755L275.331 43.9754L275.324 43.983C272.208 47.7491 267.15 51.9502 262.45 55.3955C257.744 58.8447 253.451 61.4969 251.879 62.1854L251.879 62.1856C251.095 62.5294 250.593 62.6199 250.284 62.5966C250.008 62.5756 249.896 62.4675 249.831 62.3445C249.748 62.1882 249.716 61.9547 249.727 61.671C249.737 61.4392 249.771 61.2178 249.801 61.0278C249.806 60.9902 249.812 60.9538 249.817 60.9189C249.817 60.9186 249.817 60.9183 249.817 60.918L250.228 58.2442L250.229 58.2371L250.23 58.23C250.279 57.8099 250.332 57.2782 250.334 56.7471C250.335 56.2229 250.286 55.6623 250.109 55.1996L250.107 55.1964C249.882 54.6235 249.357 54.2318 248.83 53.9647C248.291 53.6922 247.679 53.5139 247.173 53.4029Z" fill="#67514C" stroke="#5C5C5C" stroke-width="0.8"/>
</svg>
