<svg fill="rgba(255, 255, 255, 0)" xmlns="http://www.w3.org/2000/svg">
<path d="M375 33L357.75 43.3923L357.75 22.6077L375 33Z" fill="rgba(255, 255, 255, 0)"/>
<path d="M363.74 55.6C363.74 55.6 363.74 55.6 363.74 56C363.74 55.6 363.74 55.6 363.74 55.6H363.739H363.737L363.726 55.6L363.685 55.6L363.524 55.5997C363.382 55.5993 363.174 55.5986 362.906 55.5973C362.372 55.5946 361.603 55.5892 360.665 55.5784C358.788 55.5568 356.238 55.5135 353.538 55.4271C350.837 55.3407 347.991 55.2111 345.524 55.0171C343.044 54.8221 340.984 54.5644 339.831 54.2311L339.831 54.2309C338.603 53.8775 337.48 53.1847 336.576 52.2184C335.675 51.2556 335.024 50.0552 334.689 48.7355C333.801 43.5457 333.37 38.2783 333.402 33.0024L333.402 32.9976C333.37 27.7217 333.801 22.4543 334.689 17.2645C335.024 15.9448 335.675 14.7444 336.576 13.7816C337.48 12.8153 338.603 12.1225 339.831 11.7691L339.831 11.7689C340.984 11.4356 343.044 11.1779 345.524 10.9829C347.991 10.7889 350.837 10.6593 353.538 10.5729C356.238 10.4865 358.788 10.4432 360.665 10.4216C361.603 10.4108 362.372 10.4054 362.906 10.4027C363.174 10.4013 363.382 10.4007 363.524 10.4003L363.685 10.4L363.726 10.4L363.737 10.4L363.739 10.4L363.74 10.4C363.74 10.4 363.74 10.4 363.74 10C363.74 10.4 363.74 10.4 363.74 10.4L363.741 10.4L363.743 10.4L363.754 10.4L363.795 10.4L363.956 10.4003C364.098 10.4007 364.307 10.4013 364.574 10.4027C365.108 10.4054 365.877 10.4108 366.815 10.4216C368.692 10.4432 371.243 10.4865 373.942 10.5729C376.643 10.6593 379.489 10.7889 381.956 10.9829C384.436 11.1779 386.497 11.4356 387.649 11.7689L387.649 11.7691C388.877 12.1225 390 12.8153 390.904 13.7816C391.805 14.7444 392.457 15.9448 392.791 17.2645C393.679 22.4543 394.11 27.7217 394.078 32.9976L394.078 33.0024C394.11 38.2783 393.679 43.5457 392.791 48.7355C392.457 50.0552 391.805 51.2556 390.904 52.2184C390 53.1847 388.877 53.8775 387.649 54.2309L387.649 54.2311C386.497 54.5644 384.436 54.8221 381.956 55.0171C379.489 55.2111 376.643 55.3407 373.942 55.4271C371.243 55.5135 368.692 55.5568 366.815 55.5784C365.877 55.5892 365.108 55.5946 364.574 55.5973C364.307 55.5986 364.098 55.5993 363.956 55.5997L363.795 55.6L363.754 55.6L363.743 55.6H363.741H363.74ZM357.192 42.8571V43.5743L357.803 43.1975L373.765 33.3403L374.316 33L373.765 32.6597L357.803 22.8025L357.192 22.4257V23.1429V42.8571Z" fill="#67514C" stroke="#5C5C5C" stroke-width="0.8"/>
</svg>
