<svg width="960" height="1100" viewBox="0 0 481 552" fill="none" xmlns="http://www.w3.org/2000/svg">
<path d="M330.898 540.346C333.427 537.458 335.494 534.638 336.373 533.636M34.0937 522.605C34.629 521.763 35.843 519.954 37.913 518.852L34.0937 522.605ZM33.978 523.092C34.6181 522.311 35.2851 521.495 37.3282 518.312L33.978 523.092ZM35.2694 526.743C37.0774 525.718 39.0374 521.954 40.7941 519.444L35.2694 526.743ZM34.0447 528.043C35.4669 525.886 37.0079 522.729 41.7631 518.349L34.0447 528.043ZM33 532.439C38.5132 527.521 40.8491 522.917 45.3213 518.034L33 532.439ZM33.4471 532.872C36.3806 529.408 38.5962 525.436 44.5571 517.794L33.4471 532.872ZM34.0231 535.565C39.8371 530.096 43.9263 525.796 49.6974 519.257L34.0231 535.565ZM34.3193 536.878C38.2109 530.465 42.7647 524.994 48.7463 517.847L34.3193 536.878ZM33.7941 541.243C41.5984 532.689 44.963 526.467 51.1573 517.206L33.7941 541.243ZM34.934 539.713C39.0999 534.753 43.3199 531.071 52.7297 519.161L34.934 539.713ZM38.1186 540.402C44.4803 533.567 48.2729 528.397 54.8699 518.35L38.1186 540.402ZM39.5673 540.424C44.0839 533.849 49.3436 526.883 55.6819 518.912L39.5673 540.424ZM41.7465 540.539C47.0515 536.513 50.655 531.654 58.9128 518.352L41.7465 540.539ZM42.2817 540.611C47.453 532.55 54.0421 526.102 59.99 518.397L42.2817 540.611ZM47.2916 539.063C51.8579 534.282 55.2907 528.991 64.5729 516.837L47.2916 539.063ZM46.5146 539.622C51.5711 532.155 58.0798 524.824 63.6015 517.519L46.5146 539.622ZM49.0261 541.585C55.6664 533.066 63.2733 524.157 66.994 518.424L49.0261 541.585ZM50.2302 540.231C55.2747 532.447 62.3511 523.971 66.5124 517.765L50.2302 540.231ZM52.8368 541.447C55.7424 537.07 59.2847 532.739 70.9948 516.853L52.8368 541.447ZM54.1298 540.826C58.4246 533.642 61.9172 529.29 71.3918 518.223L54.1298 540.826ZM57.2177 540.675C60.939 533.668 66.5343 528.398 73.4406 517.463L57.2177 540.675ZM56.4161 540.685C62.6063 532.583 69.5183 523.878 73.517 518.558L56.4161 540.685ZM62.1908 538.692C65.3327 531.493 72.2833 526.25 79.0613 518.258L62.1908 538.692ZM61.0033 539.824C63.7302 534.962 67.2726 530.86 77.9505 518.097L61.0033 539.824ZM64.0919 541.022C68.7755 535.261 72.9356 527.952 82.8228 517.065L64.0919 541.022ZM64.0046 539.671C69.7044 532.63 76.7481 525.554 81.1998 518.802L64.0046 539.671ZM67.2508 538.809C73.3141 533.012 80.2015 525.223 85.7453 517.108L67.2508 538.809ZM68.8399 539.859C72.291 534.341 76.8624 529.445 85.6345 518.227L68.8399 539.859ZM70.5008 538.968C78.1893 531.737 82.7804 525.555 88.3094 518.851L70.5008 538.968ZM71.3437 540.426C76.3007 534.076 82.0193 527.355 89.4229 518.618L71.3437 540.426ZM76.1 540.642C79.6035 534.306 82.0608 530.504 92.481 519.441L76.1 540.642ZM74.8724 540.142C79.0076 535.881 82.0196 531.6 92.6731 518.342L74.8724 540.142ZM78.9995 540.837C85.6625 533.586 90.9389 525.513 95.1172 516.807L78.9995 540.837ZM79.5508 540.241C83.8131 532.87 89.5336 525.891 95.6454 517.921L79.5508 540.241ZM84.041 541.526C88.348 532.751 94.2238 525.793 101.026 518.295L84.041 541.526ZM82.2065 539.681C89.297 531.7 95.1468 523.404 100.755 517.588L82.2065 539.681ZM86.9489 539.957C90.8161 533.332 94.2378 527.593 102.579 517.195L86.9489 539.957ZM86.306 540.413C93.2457 531.172 99.6979 523.654 103.889 518.724L86.306 540.413ZM91.5275 538.822C94.5236 534.099 98.77 529.998 106.564 516.691L91.5275 538.822ZM90.8551 539.576C95.0619 534.115 99.1969 529.681 107.442 518.353L90.8551 539.576ZM93.4123 539.634C100.772 531.31 106.497 521.689 111.041 518.645L93.4123 539.634ZM93.438 540.891C100.3 531.141 107.335 523.666 110.255 518.238L93.438 540.891ZM97.2672 540.637C100.787 535.138 103.996 531.337 115.185 517.487L97.2672 540.637ZM97.0488 539.195C103.154 532.398 110.022 524.621 114.681 518.421L97.0488 539.195ZM100.535 539.372C105.726 533.592 112.433 525.236 117.723 516.745L100.535 539.372ZM100.717 539.502C107.335 532.747 113.283 523.764 118.786 518.833L100.717 539.502ZM105.119 539.783C111.059 534.237 113.861 528.564 122.246 519.53L105.119 539.783ZM104.96 539.998C108.161 534.379 112.379 530.87 121.65 518.617L104.96 539.998ZM109.407 539.462C113.803 531.87 120.027 524.014 126.377 517.832L109.407 539.462ZM107.925 540.381C115.158 530.98 122.066 523.472 125.606 518.081L107.925 540.381ZM111.226 540.397C116.128 535.077 121.274 527.645 127.585 519.599L111.226 540.397ZM111.768 540.756C116.503 535.654 119.727 530.03 129.627 517.85L111.768 540.756ZM115.924 539.455C119.247 536.028 122.913 530.213 132.111 519.073L115.924 539.455ZM115.543 539.419C120.016 533.554 126.126 527.038 133.399 518.711L115.543 539.419ZM118.241 541.843C125.167 534.163 129.199 526.636 135.956 517.745L118.241 541.843ZM118.434 540.601C126.61 531.148 132.651 523.465 136.219 519.227L118.434 540.601ZM123.199 539.69C128.426 533.329 134.267 526.644 139.324 519.194L123.199 539.69ZM122.684 540.344C126.638 534.8 130.227 530.863 139.69 518.652L122.684 540.344ZM125.711 540.647C132.367 531.97 140.555 523.148 144.16 519.407L125.711 540.647ZM126.295 540.196C131.957 533.881 136.928 527.152 143.866 519.14L126.295 540.196ZM129.156 539.765C135.796 531.907 143.85 525.212 146.528 516.941L129.156 539.765ZM130.542 540.171C137.645 532.017 143.978 523.461 147.185 517.93L130.542 540.171ZM133.271 538.908C140.188 532.354 145.404 524.13 150.699 518.558L133.271 538.908ZM134.052 540.187C139.778 531.916 146.326 523.295 150.887 518.755L134.052 540.187ZM138.935 540.069C141.852 532.952 148.003 529.842 156.01 518.748L138.935 540.069ZM137.562 540.688C142.605 533.77 147.821 527.514 154.81 517.898L137.562 540.688ZM141.57 540.28C145.853 533.15 152.724 527.052 157.159 517.62L141.57 540.28ZM140.756 541.018C146.796 533.434 152.642 525.961 157.674 518.655L140.756 541.018ZM144.207 540.246C148.928 535.98 152.678 530.368 161.412 518.813L144.207 540.246ZM145.646 540.037C149.248 534.4 154.17 527.652 162.533 517.406L145.646 540.037ZM148.128 539.252C153.364 535.61 157.271 529.398 166.828 519.806L148.128 539.252ZM147.887 540.63C154.568 531.468 162.024 523.39 166.015 518.068L147.887 540.63ZM152.139 540.734C158.413 531.057 165.497 525.854 168.426 519.022L152.139 540.734ZM152.574 539.599C159.714 531.113 166.132 522.418 169.301 518.167L152.574 539.599ZM157 541.058C160.806 537.056 163.078 531.786 172.281 518.395L157 541.058ZM155.901 539.826C161.131 533.628 166.322 527.284 172.879 518.699L155.901 539.826ZM159.186 541.224C162.933 536.021 168.303 529.907 176.858 518.218L159.186 541.224ZM159.58 540.171C164.796 533.247 171.406 525.019 176.485 517.859L159.58 540.171ZM163.596 541.767C170.849 531.742 175.681 522.638 181.592 519.71L163.596 541.767ZM163.537 539.972C167.104 536.391 170.18 531.924 180.761 517.839L163.537 539.972ZM166.267 539.138C174.514 532.318 179.391 525.649 184.77 516.801L166.267 539.138ZM166.532 539.666C172.728 533.519 176.887 527.05 184.431 518.555L166.532 539.666ZM169.855 539C177.532 531.775 182.384 526.738 186.602 517.078L169.855 539ZM169.893 540.696C174.18 535.333 178.856 529.458 187.342 518.319L169.893 540.696ZM174.621 540.345C180.874 533.738 185.405 524.101 192.616 518.258L174.621 540.345ZM173.998 540.004C179.693 533.155 186.456 525.22 191.774 518.291L173.998 540.004ZM177.354 539.597C184.671 531.865 190.262 523.042 194.653 516.872L177.354 539.597ZM177.87 540.659C184.595 531.134 191.153 522.501 194.451 518.553L177.87 540.659ZM181.674 539.247C187.627 532.394 192.638 526.423 198.65 519.019L181.674 539.247ZM181.177 540.223C188.223 531.69 194.711 522.958 198.43 518.543L181.177 540.223ZM185.919 539.696C187.843 535.389 191.311 529.932 202.372 518.593L185.919 539.696ZM185.207 539.849C189.468 534.278 194.312 527.961 201.857 517.902L185.207 539.849ZM187.932 538.699C193.831 534.2 196.671 528.028 204.878 519.933L187.932 538.699ZM189.349 540.305C192.367 534.484 196.021 529.959 205.337 518.086L189.349 540.305ZM192.256 541.59C197.132 535.596 199.268 530.299 210.849 519.469L192.256 541.59ZM192.068 540.349C196.467 533.796 202.321 527.754 209.344 518.969L192.068 540.349ZM195.155 539.858C201.781 533.464 204.722 527.537 212.961 519.008L195.155 539.858ZM195.213 540.991C202.204 533.024 208.096 524.29 212.434 518.752L195.213 540.991ZM199.596 539.932C202.953 535.557 206.878 529.231 215.979 519.051L199.596 539.932ZM200.352 539.444C205.204 534.444 208.951 526.87 217.391 517.644L200.352 539.444ZM204.021 541.405C208.767 531.179 217.036 523.697 219.127 519.828L204.021 541.405ZM203.043 540.7C208.182 534.618 213.351 527.682 219.777 517.768L203.043 540.7ZM208.051 541.657C213.208 533.168 216.453 528.443 223.635 517.679L208.051 541.657ZM207.486 539.575C213.452 532.318 219.812 524.346 223.733 517.655L207.486 539.575ZM210.037 541.481C217.307 534.181 222.023 525.39 228.896 518.341L210.037 541.481ZM210.251 539.766C215.968 533.105 221.744 526.474 227.777 518.28L210.251 539.766ZM213.223 539.936C219.06 531.956 224.638 526.623 231.739 518.014L213.223 539.936ZM214.01 539.917C218.303 534.848 221.451 530.445 230.943 517.549L214.01 539.917ZM217.765 539.972C222.138 535.531 225.202 529.436 236.384 519.709L217.765 539.972ZM218.159 540.421C222.604 534.404 226.306 529.394 235.133 517.872L218.159 540.421ZM221.385 540.22C225.724 534.671 233.53 524.806 239.916 517.38L221.385 540.22ZM221.511 540.207C226.705 533.376 232.887 525.8 238.844 517.584L221.511 540.207ZM225.188 540.617C231.232 531.865 236.912 527.34 242.24 518.397L225.188 540.617ZM225.34 540.481C230.843 532.196 236.515 526.215 242.278 518.519L225.34 540.481ZM228.788 540.323C234.575 534.19 239.347 525.613 245.353 518.487L228.788 540.323ZM229.172 539.979C234.811 533.794 239.167 526.332 246.583 517.431L229.172 539.979ZM233.375 540.284C238.968 531.708 243.075 526.319 249.502 518.083L233.375 540.284ZM232.449 540.24C238.794 532.685 244.869 524.823 249.31 518.163L232.449 540.24ZM236.835 541.147C242.509 533.336 250.054 523.295 252.458 518.707L236.835 541.147ZM235.842 539.329C239.865 534.892 244.223 528.645 253.314 518.473L235.842 539.329ZM239.579 539.697C244.18 535.103 248.402 530.204 256.707 517.875L239.579 539.697ZM240.151 540.172C244.287 534.238 249.5 529.062 256.686 517.606L240.151 540.172ZM242.423 539.024C248.326 535.379 250.049 529.727 260.447 517.734L242.423 539.024ZM243.484 539.683C251.029 531.494 257.924 522.617 260.276 518.443L243.484 539.683ZM246.894 538.837C252.567 532.963 259.127 523.013 264.782 516.904L246.894 538.837ZM247.053 540.163C251.411 534.558 255.538 529.934 264.525 518.214L247.053 540.163ZM250.358 539.5C256.263 535.761 258.473 529.717 267.477 519.115L250.358 539.5ZM250.97 539.963C257.338 532.324 263.032 524.635 268.713 518.316L250.97 539.963ZM254.599 541.538C260.241 531.988 266.277 525.48 272.91 518.921L254.599 541.538ZM254.531 540.28C260.14 533.263 266.475 525.48 271.925 518.085L254.531 540.28ZM258.186 540.484C262.98 533.022 268.876 526.782 274.337 517.042L258.186 540.484ZM258.905 540.421C264.182 533.738 269.75 526.039 274.604 519.061L258.905 540.421ZM262.296 541.701C266.52 532.625 273.218 524.76 279.905 518.509L262.296 541.701ZM261.902 540.003C266.788 533.305 272.566 527.262 279.027 518.941L261.902 540.003ZM265.841 539.912C269.736 533.567 273.994 528.773 282.115 517.018L265.841 539.912ZM266.181 540.341C268.863 535.223 273.016 530.403 282.191 518.557L266.181 540.341ZM268.531 540.146C275.399 534.101 278.893 526.793 285.597 517.935L268.531 540.146ZM268.496 540.523C275.248 532.112 281.677 524.078 286.331 517.708L268.496 540.523ZM273.822 540.915C276.612 535.162 280.23 530.141 290.866 519.41L273.822 540.915ZM272.973 540.91C276.641 533.927 281.625 528.08 289.543 518.899L272.973 540.91ZM277.692 540.012C284.439 532.052 289.102 521.51 294.964 519.489L277.692 540.012ZM277.1 540.913C282.012 531.973 288.837 524.365 293.998 518.001L277.1 540.913ZM280.857 541.851C284.063 536.119 287.679 527.488 297.283 518.671L280.857 541.851ZM280.478 540.614C283.881 534.919 288.527 529.917 296.568 518.715L280.478 540.614ZM284.832 539.103C288.21 535.803 290.68 529.075 300.207 517.827L284.832 539.103ZM283.616 540.426C289.396 533.848 293.913 526.779 301.171 518.636L283.616 540.426ZM288.09 541.305C292.404 532.319 300.106 526.015 303.9 517.701L288.09 541.305ZM287.515 541.002C291.222 534.636 294.83 529.353 303.88 519.115L287.515 541.002ZM290.849 540.606C297.275 531.6 302.462 522.704 306.951 516.82L290.849 540.606ZM291.543 540.791C298.096 531.53 304.169 524.409 308.033 517.458L291.543 540.791ZM293.992 540.371C301.863 531.636 309.033 523.014 312.194 517.127L293.992 540.371ZM294.397 540.542C302.063 532.072 309.027 523.472 312.099 518.32L294.397 540.542ZM298.338 539.309C304.847 532.766 311.357 521.893 316.319 518.829L298.338 539.309ZM298.873 539.323C302.937 533.721 308.32 526.915 315.127 518.238L298.873 539.323ZM300.804 541.698C308.042 532.076 313.106 526.554 318.448 519.899L300.804 541.698ZM301.796 540.563C307.408 533.519 313.678 525.54 319.789 518.564L301.796 540.563ZM304.705 541.511C311.779 533.531 314.851 528.613 323.547 517.051L304.705 541.511ZM305.68 540.408C310.421 535.266 315.075 528.837 322.658 517.651L305.68 540.408ZM310.403 541.833C315.356 531.449 322.904 524.868 326.166 517.5L310.403 541.833ZM308.667 539.892C311.972 535.487 315.945 531.423 326.904 517.662L308.667 539.892ZM311.815 538.984C316.293 536.496 322.129 530.733 330.404 518.49L311.815 538.984ZM313.424 539.421C317.801 533.306 323.611 527.55 329.811 518.292L313.424 539.421ZM317.403 538.877C322.632 532.994 328.977 525.726 333.656 519.054L317.403 538.877ZM317.082 540.218C320.954 534.733 325.776 528.349 334.098 518.973L317.082 540.218ZM319.097 541.139C322.337 537.192 326.639 530.292 336.935 519.657L319.097 541.139ZM320.132 540.343C325.408 533.709 330.961 526.343 336.835 520.462L320.132 540.343ZM324.325 540.148C327.974 535.384 333.644 527.068 336.406 524.939L324.325 540.148ZM323.261 540.728C328.648 534.639 332.863 528.18 336.131 524.155L323.261 540.728ZM327.69 539.805C330.532 536.381 331.576 535.572 335.557 528.801L327.69 539.805ZM327.966 539.687C331.119 535.741 334.692 530.764 337 528.336L327.966 539.687ZM331.66 539.624C333.9 537 335.31 535.623 336.601 533.021L331.66 539.624Z" stroke="#A4A4A4" stroke-width="1.5"/>
<path d="M34.4768 539.352C33.7545 533.301 34.1927 526.515 33.8944 518.98M34.1032 518.663C135.909 517.461 235.851 517.356 335.32 517.641L34.1032 518.663ZM34.0577 518.492C154.184 519.214 274.703 518.469 334.922 517.887L34.0577 518.492ZM336.059 518.458C335.035 521.54 334.653 528.53 335.839 539.265L336.059 518.458ZM334.863 518.684C335.737 524.989 335.728 531.14 334.564 538.635L334.863 518.684ZM334.911 538.456C231.812 538.025 128.819 538.006 33.5555 539.744L334.911 538.456ZM335.073 538.825C251.517 539.453 168.176 539.541 33.9648 538.736L335.073 538.825ZM35.2935 538.512C35.5142 534.714 33.2632 529.357 34.0498 519.23L35.2935 538.512Z" stroke="#A4A4A4" stroke-width="1.5"/>
<path d="M376.935 509.468C379.863 506.58 382.256 503.76 383.274 502.759M33.2664 491.727C33.8862 490.885 35.2919 489.077 37.6887 487.975L33.2664 491.727ZM33.1324 492.215C33.8736 491.434 34.6459 490.618 37.0116 487.434L33.1324 492.215ZM34.6278 495.865C36.7212 494.841 38.9907 491.076 41.0248 488.566L34.6278 495.865ZM33.2097 497.165C34.8564 495.008 36.6408 491.851 42.1468 487.471L33.2097 497.165ZM32 501.561C38.3837 496.644 41.0885 492.039 46.2668 487.156L32 501.561ZM32.5177 501.994C35.9144 498.531 38.4798 494.558 45.3819 486.916L32.5177 501.994ZM33.1846 504.687C39.9166 499.219 44.6515 494.919 51.3339 488.379L33.1846 504.687ZM33.5276 506C38.0337 499.587 43.3065 494.116 50.2326 486.969L33.5276 506ZM32.9194 510.365C41.956 501.811 45.8519 495.589 53.0242 486.329L32.9194 510.365ZM34.2394 508.835C39.063 503.875 43.9493 500.194 54.845 488.283L34.2394 508.835ZM37.9268 509.524C45.293 502.689 49.6844 497.519 57.323 487.472L37.9268 509.524ZM39.6042 509.546C44.8339 502.971 50.9241 496.005 58.2633 488.034L39.6042 509.546ZM42.1276 509.661C48.2702 505.636 52.4427 500.776 62.0043 487.474L42.1276 509.661ZM42.7473 509.733C48.7351 501.672 56.3645 495.224 63.2516 487.519L42.7473 509.733ZM48.5482 508.185C53.8355 503.404 57.8103 498.114 68.5581 485.959L48.5482 508.185ZM47.6485 508.744C53.5033 501.277 61.0398 493.946 67.4333 486.641L47.6485 508.744ZM50.5565 510.707C58.2453 502.189 67.0533 493.279 71.3615 487.546L50.5565 510.707ZM51.9507 509.353C57.7917 501.569 65.9855 493.093 70.8039 486.887L51.9507 509.353ZM54.969 510.57C58.3333 506.193 62.435 501.861 75.994 485.975L54.969 510.57ZM56.4661 509.948C61.439 502.764 65.4831 498.412 76.4536 487.345L56.4661 509.948ZM60.0416 509.797C64.3504 502.79 70.8292 497.52 78.826 486.585L60.0416 509.797ZM59.1134 509.807C66.2809 501.705 74.2844 493 78.9144 487.68L59.1134 509.807ZM65.7999 507.815C69.4378 500.615 77.4859 495.372 85.3342 487.38L65.7999 507.815ZM64.4249 508.946C67.5824 504.084 71.684 499.982 84.048 487.22L64.4249 508.946ZM68.0011 510.144C73.4242 504.383 78.2412 497.075 89.6896 486.187L68.0011 510.144ZM67.9001 508.793C74.4998 501.752 82.6556 494.676 87.8103 487.925L67.9001 508.793ZM71.6588 507.931C78.6794 502.134 86.6544 494.346 93.0735 486.231L71.6588 507.931ZM73.4988 508.981C77.4948 503.463 82.7881 498.568 92.9452 487.349L73.4988 508.981ZM75.422 508.09C84.3244 500.86 89.6405 494.677 96.0425 487.974L75.422 508.09ZM76.398 509.549C82.1377 503.199 88.7592 496.477 97.3318 487.74L76.398 509.549ZM81.9053 509.764C85.962 503.428 88.8072 499.627 100.873 488.563L81.9053 509.764ZM80.4838 509.264C85.2719 505.004 88.7595 500.722 101.095 487.464L80.4838 509.264ZM85.2626 509.96C92.9776 502.708 99.0872 494.635 103.925 485.929L85.2626 509.96ZM85.901 509.363C90.8362 501.992 97.4599 495.013 104.537 487.044L85.901 509.363ZM91.1002 510.648C96.0872 501.874 102.891 494.916 110.767 487.417L91.1002 510.648ZM88.9759 508.803C97.186 500.822 103.96 492.526 110.453 486.71L88.9759 508.803ZM94.4671 509.079C98.945 502.455 102.907 496.715 112.565 486.317L94.4671 509.079ZM93.7228 509.536C101.758 500.294 109.229 492.776 114.082 487.846L93.7228 509.536ZM99.7687 507.944C103.238 503.222 108.155 499.12 117.18 485.814L99.7687 507.944ZM98.9901 508.699C103.861 503.237 108.649 498.803 118.196 487.475L98.9901 508.699ZM101.951 508.757C110.472 500.432 117.102 490.811 122.363 487.767L101.951 508.757ZM101.981 510.013C109.927 500.263 118.072 492.788 121.453 487.36L101.981 510.013ZM106.415 509.759C110.49 504.261 114.206 500.459 127.162 486.609L106.415 509.759ZM106.162 508.317C113.23 501.521 121.183 493.743 126.578 487.543L106.162 508.317ZM110.199 508.494C116.209 502.714 123.976 494.358 130.1 485.868L110.199 508.494ZM110.409 508.624C118.072 501.869 124.959 492.887 131.331 487.956L110.409 508.624ZM115.506 508.905C122.384 503.359 125.628 497.686 135.337 488.653L115.506 508.905ZM115.322 509.12C119.028 503.502 123.912 499.992 134.647 487.739L115.322 509.12ZM120.472 508.585C125.562 500.992 132.768 493.136 140.12 486.954L120.472 508.585ZM118.755 509.504C127.13 500.102 135.129 492.595 139.228 487.204L118.755 509.504ZM122.578 509.52C128.253 504.199 134.212 496.768 141.52 488.721L122.578 509.52ZM123.205 509.878C128.688 504.777 132.42 499.153 143.884 486.973L123.205 509.878ZM128.017 508.577C131.865 505.151 136.11 499.335 146.76 488.196L128.017 508.577ZM127.576 508.542C132.756 502.677 139.83 496.161 148.252 487.833L127.576 508.542ZM130.7 510.966C138.72 503.286 143.388 495.758 151.213 486.867L130.7 510.966ZM130.923 509.724C140.391 500.27 147.385 492.587 151.516 488.349L130.923 509.724ZM136.441 508.812C142.494 502.452 149.256 495.767 155.111 488.316L136.441 508.812ZM135.845 509.466C140.423 503.923 144.579 499.986 155.536 487.775L135.845 509.466ZM139.35 509.77C147.057 501.093 156.537 492.27 160.712 488.529L139.35 509.77ZM140.026 509.318C146.582 503.003 152.338 496.274 160.372 488.262L140.026 509.318ZM143.339 508.888C151.027 501.03 160.353 494.334 163.453 486.064L143.339 508.888ZM144.944 509.293C153.167 501.139 160.501 492.583 164.215 487.053L144.944 509.293ZM148.104 508.03C156.112 501.477 162.152 493.252 168.284 487.68L148.104 508.03ZM149.007 509.309C155.638 501.038 163.22 492.417 168.5 487.878L149.007 509.309ZM154.661 509.191C158.039 502.074 165.161 498.964 174.432 487.87L154.661 509.191ZM153.071 509.811C158.911 502.892 164.95 496.636 173.043 487.02L153.071 509.811ZM157.712 509.402C162.672 502.273 170.628 496.174 175.764 486.742L157.712 509.402ZM156.77 510.14C163.763 502.556 170.533 495.083 176.36 487.778L156.77 510.14ZM160.765 509.369C166.233 505.103 170.575 499.49 180.688 487.936L160.765 509.369ZM162.433 509.159C166.603 503.523 172.302 496.774 181.985 486.528L162.433 509.159ZM165.307 508.374C171.369 504.732 175.893 498.521 186.959 488.928L165.307 508.374ZM165.028 509.752C172.763 500.59 181.397 492.512 186.018 487.19L165.028 509.752ZM169.95 509.856C177.215 500.179 185.417 494.976 188.809 488.144L169.95 509.856ZM170.454 508.721C178.721 500.235 186.153 491.54 189.822 487.289L170.454 508.721ZM175.579 510.181C179.986 506.179 182.616 500.909 193.273 487.517L175.579 510.181ZM174.306 508.949C180.362 502.75 186.372 496.406 193.965 487.822L174.306 508.949ZM178.111 510.347C182.449 505.143 188.667 499.03 198.573 487.34L178.111 510.347ZM178.566 509.293C184.606 502.37 192.26 494.141 198.14 486.982L178.566 509.293ZM183.216 510.889C191.615 500.864 197.21 491.76 204.053 488.832L183.216 510.889ZM183.148 509.094C187.278 505.514 190.84 501.046 203.091 486.962L183.148 509.094ZM186.309 508.261C195.858 501.44 201.506 494.772 207.734 485.923L186.309 508.261ZM186.616 508.788C193.79 502.642 198.606 496.173 207.341 487.677L186.616 508.788ZM190.464 508.122C199.353 500.897 204.971 495.86 209.855 486.201L190.464 508.122ZM190.507 509.818C195.472 504.455 200.886 498.58 210.712 487.441L190.507 509.818ZM195.982 509.467C203.222 502.86 208.469 493.224 216.818 487.38L195.982 509.467ZM195.261 509.126C201.855 502.278 209.685 494.342 215.844 487.413L195.261 509.126ZM199.146 508.719C207.619 500.988 214.092 492.164 219.177 485.994L199.146 508.719ZM199.744 509.781C207.532 500.257 215.125 491.623 218.943 487.675L199.744 509.781ZM204.148 508.37C211.042 501.516 216.844 495.545 223.805 488.142L204.148 508.37ZM203.574 509.345C211.732 500.812 219.244 492.081 223.55 487.666L203.574 509.345ZM209.064 508.819C211.292 504.511 215.308 499.055 228.115 487.715L209.064 508.819ZM208.24 508.971C213.174 503.4 218.783 497.083 227.519 487.024L208.24 508.971ZM211.395 507.821C218.226 503.322 221.513 497.15 231.017 489.055L211.395 507.821ZM213.036 509.427C216.53 503.606 220.761 499.082 231.548 487.208L213.036 509.427ZM216.401 510.712C222.047 504.718 224.521 499.422 237.93 488.591L216.401 510.712ZM216.184 509.472C221.277 502.919 228.056 496.876 236.187 488.091L216.184 509.472ZM219.758 508.98C227.431 502.587 230.836 496.66 240.376 488.13L219.758 508.98ZM219.826 510.113C227.92 502.147 234.743 493.412 239.766 487.875L219.826 510.113ZM224.901 509.054C228.788 504.679 233.333 498.353 243.87 488.173L224.901 509.054ZM225.776 508.567C231.394 503.566 235.733 495.992 245.505 486.766L225.776 508.567ZM230.024 510.527C235.52 500.301 245.094 492.82 247.516 488.95L230.024 510.527ZM228.892 509.823C234.842 503.741 240.827 496.805 248.268 486.89L228.892 509.823ZM234.69 510.779C240.661 502.29 244.419 497.566 252.735 486.801L234.69 510.779ZM234.036 508.697C240.944 501.44 248.308 493.468 252.849 486.777L234.036 508.697ZM236.991 510.603C245.409 503.303 250.869 494.512 258.827 487.463L236.991 510.603ZM237.238 508.888C243.858 502.228 250.545 495.596 257.532 487.402L237.238 508.888ZM240.679 509.058C247.438 501.079 253.897 495.745 262.119 487.136L240.679 509.058ZM241.591 509.039C246.562 503.971 250.207 499.567 261.197 486.671L241.591 509.039ZM245.938 509.094C251.001 504.654 254.55 498.558 267.498 488.832L245.938 509.094ZM246.394 509.543C251.542 503.527 255.828 498.517 266.049 486.994L246.394 509.543ZM250.13 509.342C255.154 503.794 264.193 493.928 271.587 486.502L250.13 509.342ZM250.276 509.329C256.29 502.499 263.448 494.923 270.346 486.706L250.276 509.329ZM254.533 509.739C261.532 500.988 268.108 496.463 274.278 487.519L254.533 509.739ZM254.709 509.603C261.081 501.318 267.649 495.338 274.322 487.641L254.709 509.603ZM258.702 509.445C265.403 503.312 270.928 494.735 277.882 487.61L258.702 509.445ZM259.146 509.101C265.675 502.916 270.72 495.454 279.306 486.553L259.146 509.101ZM264.013 509.406C270.489 500.83 275.244 495.441 282.687 487.206L264.013 509.406ZM262.941 509.362C270.288 501.808 277.322 493.945 282.465 487.285L262.941 509.362ZM268.02 510.27C274.59 502.459 283.326 492.418 286.109 487.83L268.02 510.27ZM266.869 508.452C271.528 504.014 276.574 497.768 287.101 487.595L266.869 508.452ZM271.197 508.819C276.525 504.225 281.413 499.327 291.03 486.998L271.197 508.819ZM271.859 509.294C276.648 503.36 282.684 498.184 291.005 486.729L271.859 509.294ZM274.49 508.147C281.325 504.501 283.32 498.849 295.36 486.857L274.49 508.147ZM275.719 508.805C284.455 500.617 292.439 491.739 295.161 487.565L275.719 508.805ZM279.667 507.959C286.235 502.085 293.831 492.135 300.38 486.027L279.667 507.959ZM279.851 509.286C284.897 503.68 289.675 499.056 300.082 487.337L279.851 509.286ZM283.678 508.622C290.515 504.883 293.073 498.839 303.5 488.238L283.678 508.622ZM284.386 509.085C291.76 501.446 298.353 493.758 304.931 487.438L284.386 509.085ZM288.588 510.66C295.121 501.11 302.111 494.602 309.79 488.043L288.588 510.66ZM288.509 509.403C295.004 502.386 302.34 494.603 308.65 487.207L288.509 509.403ZM292.741 509.606C298.293 502.144 305.119 495.905 311.442 486.165L292.741 509.606ZM293.574 509.544C299.684 502.86 306.131 495.161 311.752 488.183L293.574 509.544ZM297.501 510.824C302.392 501.747 310.148 493.882 317.89 487.631L297.501 510.824ZM297.044 509.126C302.701 502.427 309.392 496.385 316.874 488.063L297.044 509.126ZM301.606 509.034C306.115 502.69 311.046 497.895 320.448 486.14L301.606 509.034ZM301.999 509.463C305.104 504.345 309.913 499.526 320.537 487.68L301.999 509.463ZM304.72 509.268C312.673 503.224 316.719 495.916 324.48 487.057L304.72 509.268ZM304.679 509.645C312.497 501.234 319.942 493.2 325.33 486.831L304.679 509.645ZM310.847 510.037C314.077 504.284 318.266 499.263 330.582 488.533L310.847 510.037ZM309.863 510.032C314.11 503.049 319.882 497.202 329.049 488.021L309.863 510.032ZM315.327 509.134C323.139 501.174 328.54 490.633 335.327 488.611L315.327 509.134ZM314.642 510.035C320.33 501.096 328.232 493.488 334.209 487.124L314.642 510.035ZM318.993 510.973C322.704 505.241 326.891 496.611 338.012 487.793L318.993 510.973ZM318.554 509.737C322.494 504.041 327.874 499.039 337.185 487.838L318.554 509.737ZM323.595 508.225C327.506 504.926 330.366 498.197 341.398 486.95L323.595 508.225ZM322.186 509.548C328.88 502.971 334.11 495.901 342.514 487.758L322.186 509.548ZM327.368 510.428C332.363 501.441 341.281 495.137 345.674 486.823L327.368 510.428ZM326.702 510.124C330.993 503.758 335.172 498.475 345.651 488.237L326.702 510.124ZM330.561 509.728C338.003 500.723 344.009 491.826 349.207 485.942L330.561 509.728ZM331.365 509.914C338.954 500.652 345.985 493.531 350.46 486.58L331.365 509.914ZM334.201 509.493C343.315 500.759 351.617 492.136 355.278 486.249L334.201 509.493ZM334.671 509.664C343.546 501.194 351.61 492.594 355.167 487.442L334.671 509.664ZM339.234 508.431C346.77 501.889 354.308 491.015 360.053 487.952L339.234 508.431ZM339.853 508.446C344.559 502.844 350.792 496.037 358.673 487.361L339.853 508.446ZM342.089 510.821C350.47 501.198 356.334 495.677 362.519 489.021L342.089 510.821ZM343.237 509.685C349.736 502.641 356.995 494.662 364.072 487.686L343.237 509.685ZM346.606 510.634C354.796 502.653 358.354 497.735 368.423 486.173L346.606 510.634ZM347.734 509.531C353.224 504.388 358.613 497.959 367.394 486.773L347.734 509.531ZM353.204 510.955C358.939 500.571 367.679 493.991 371.455 486.622L353.204 510.955ZM351.193 509.014C355.021 504.609 359.621 500.546 372.31 486.784L351.193 509.014ZM354.838 508.107C360.023 505.618 366.781 499.856 376.363 487.613L354.838 508.107ZM356.702 508.544C361.77 502.429 368.497 496.673 375.676 487.415L356.702 508.544ZM361.308 508C367.363 502.116 374.71 494.848 380.128 488.177L361.308 508ZM360.937 509.341C365.42 503.855 371.004 497.472 380.639 488.096L360.937 509.341ZM363.271 510.262C367.021 506.314 372.003 499.414 383.925 488.78L363.271 510.262ZM364.468 509.465C370.578 502.832 377.007 495.465 383.809 489.584L364.468 509.465ZM369.323 509.271C373.549 504.507 380.114 496.19 383.312 494.061L369.323 509.271ZM368.091 509.85C374.329 503.761 379.21 497.302 382.994 493.277L368.091 509.85ZM373.22 508.927C376.511 505.504 377.719 504.694 382.329 497.923L373.22 508.927ZM373.54 508.81C377.19 504.863 381.328 499.886 384 497.458L373.54 508.81ZM377.817 508.746C380.41 506.122 382.043 504.746 383.538 502.143L377.817 508.746Z" stroke="#A4A4A4" stroke-width="1.5"/>
<path d="M33.71 508.475C32.8737 502.424 33.3811 495.637 33.0357 488.103M33.2775 487.786C151.158 486.584 266.881 486.479 382.055 486.764L33.2775 487.786ZM33.2247 487.614C172.319 488.336 311.866 487.591 381.594 487.01L33.2247 487.614ZM382.911 487.58C381.725 490.662 381.282 497.652 382.656 508.387L382.911 487.58ZM381.526 487.807C382.537 494.111 382.528 500.262 381.179 507.757L381.526 487.807ZM381.581 507.579C262.204 507.147 142.949 507.129 32.6433 508.867L381.581 507.579ZM381.768 507.947C285.02 508.575 188.52 508.663 33.1172 507.859L381.768 507.947ZM34.6556 507.634C34.9112 503.837 32.3048 498.479 33.2157 488.352L34.6556 507.634Z" stroke="#A4A4A4" stroke-width="1.5"/>
<path d="M420 489.245V502.968C420 503.575 420.211 504.156 420.586 504.585C420.961 505.014 421.47 505.255 422 505.255H430C430.53 505.255 431.039 505.014 431.414 504.585C431.789 504.156 432 503.575 432 502.968V492.952C432 492.648 431.947 492.346 431.843 492.065C431.74 491.784 431.589 491.53 431.398 491.317L428.083 487.609C427.709 487.192 427.208 486.958 426.685 486.957H422C421.47 486.957 420.961 487.198 420.586 487.627C420.211 488.056 420 488.638 420 489.245V489.245Z" stroke="#5C5C5C" stroke-width="2" stroke-linecap="round" stroke-linejoin="round"/>
<path d="M428 505.255V507.543C428 508.149 427.789 508.731 427.414 509.16C427.039 509.589 426.53 509.83 426 509.83H418C417.47 509.83 416.961 509.589 416.586 509.16C416.211 508.731 416 508.149 416 507.543V494.963C416 494.356 416.211 493.774 416.586 493.345C416.961 492.917 417.47 492.676 418 492.676H420" stroke="#5C5C5C" stroke-width="2" stroke-linecap="round" stroke-linejoin="round"/>
<path d="M354.397 460.293C357.133 457.405 359.37 454.585 360.321 453.583M33.1836 442.551C33.763 441.71 35.0768 439.901 37.317 438.799L33.1836 442.551ZM33.0584 443.039C33.7512 442.258 34.473 441.442 36.6841 438.259L33.0584 443.039ZM34.4561 446.689C36.4127 445.665 38.5339 441.9 40.4351 439.39L34.4561 446.689ZM33.1307 447.99C34.6697 445.832 36.3375 442.675 41.4838 438.296L33.1307 447.99ZM32 452.386C37.9666 447.468 40.4946 442.863 45.3346 437.98L32 452.386ZM32.4839 452.819C35.6586 449.355 38.0564 445.382 44.5075 437.741L32.4839 452.819ZM33.1072 455.512C39.3993 450.043 43.8249 445.743 50.0706 439.203L33.1072 455.512ZM33.4277 456.825C37.6394 450.411 42.5677 444.941 49.0413 437.794L33.4277 456.825ZM32.8594 461.19C41.3055 452.636 44.9468 446.414 51.6505 437.153L32.8594 461.19ZM34.093 459.659C38.6015 454.7 43.1686 451.018 53.3523 439.107L34.093 459.659ZM37.5395 460.349C44.4244 453.514 48.5289 448.343 55.6684 438.297L37.5395 460.349ZM39.1073 460.371C43.9954 453.795 49.6876 446.83 56.5472 438.859L39.1073 460.371ZM41.4658 460.486C47.2071 456.46 51.1069 451.6 60.0438 438.299L41.4658 460.486ZM42.045 460.558C47.6416 452.497 54.7725 446.049 61.2096 438.343L42.045 460.558ZM47.4669 459.01C52.4087 454.229 56.1238 448.938 66.1694 436.784L47.4669 459.01ZM46.626 459.569C52.0983 452.102 59.1423 444.771 65.118 437.466L46.626 459.569ZM49.344 461.531C56.5305 453.013 64.7629 444.104 68.7896 438.371L49.344 461.531ZM50.6471 460.177C56.1065 452.394 63.7649 443.918 68.2684 437.712L50.6471 460.177ZM53.4682 461.394C56.6127 457.017 60.4463 452.686 73.1194 436.799L53.4682 461.394ZM54.8674 460.773C59.5155 453.589 63.2953 449.237 73.549 438.17L54.8674 460.773ZM58.2093 460.622C62.2366 453.615 68.2921 448.345 75.7664 437.41L58.2093 460.622ZM57.3418 460.632C64.041 452.53 71.5215 443.825 75.849 438.505L57.3418 460.632ZM63.5913 458.639C66.9916 451.44 74.5139 446.197 81.8493 438.205L63.5913 458.639ZM62.3062 459.77C65.2574 454.909 69.091 450.806 80.6471 438.044L62.3062 459.77ZM65.6488 460.968C70.7175 455.207 75.2198 447.899 85.9201 437.012L65.6488 460.968ZM65.5543 459.618C71.7229 452.576 79.3458 445.501 84.1636 438.749L65.5543 459.618ZM69.0675 458.756C75.6294 452.959 83.0832 445.17 89.0829 437.055L69.0675 458.756ZM70.7873 459.805C74.5221 454.287 79.4696 449.392 88.963 438.174L70.7873 459.805ZM72.5848 458.915C80.9055 451.684 85.8742 445.501 91.8579 438.798L72.5848 458.915ZM73.497 460.373C78.8616 454.023 85.0505 447.302 93.0629 438.565L73.497 460.373ZM78.6444 460.588C82.4361 454.253 85.0954 450.451 96.3725 439.388L78.6444 460.588ZM77.3159 460.089C81.7911 455.828 85.0508 451.547 96.5805 438.289L77.3159 460.089ZM81.7824 460.784C88.9933 453.533 94.7037 445.46 99.2255 436.753L81.7824 460.784ZM82.379 460.187C86.9918 452.817 93.1827 445.838 99.7972 437.868L82.379 460.187ZM87.2385 461.473C91.8997 452.698 98.2587 445.74 105.62 438.242L87.2385 461.473ZM85.2531 459.627C92.9267 451.647 99.2576 443.351 105.327 437.535L85.2531 459.627ZM90.3855 459.903C94.5707 453.279 98.2738 447.539 107.301 437.142L90.3855 459.903ZM89.6897 460.36C97.2001 451.119 104.183 443.601 108.719 438.671L89.6897 460.36ZM95.3406 458.769C98.5831 454.046 103.179 449.945 111.614 436.638L95.3406 458.769ZM94.6129 459.523C99.1657 454.062 103.641 449.628 112.564 438.3L94.6129 459.523ZM97.3804 459.581C105.345 451.257 111.541 441.636 116.458 438.592L97.3804 459.581ZM97.4082 460.838C104.835 451.088 112.448 443.612 115.608 438.185L97.4082 460.838ZM101.552 460.584C105.362 455.085 108.835 451.283 120.944 437.434L101.552 460.584ZM101.316 459.142C107.923 452.345 115.356 444.568 120.398 438.368L101.316 459.142ZM105.089 459.319C110.707 453.538 117.966 445.182 123.69 436.692L105.089 459.319ZM105.286 459.448C112.448 452.693 118.885 443.711 124.841 438.78L105.286 459.448ZM110.05 459.73C116.479 454.184 119.511 448.511 128.585 439.477L110.05 459.73ZM109.878 459.945C113.342 454.326 117.907 450.817 127.94 438.564L109.878 459.945ZM114.691 459.409C119.448 451.816 126.184 443.961 133.056 437.779L114.691 459.409ZM113.087 460.328C120.914 450.927 128.39 443.419 132.221 438.028L113.087 460.328ZM116.66 460.344C121.964 455.024 127.534 447.592 134.364 439.545L116.66 460.344ZM117.246 460.703C122.37 455.601 125.859 449.977 136.574 437.797L117.246 460.703ZM121.743 459.402C125.34 455.975 129.308 450.159 139.262 439.02L121.743 459.402ZM121.331 459.366C126.172 453.501 132.785 446.985 140.656 438.658L121.331 459.366ZM124.251 461.79C131.747 454.11 136.11 446.583 143.423 437.691L124.251 461.79ZM124.459 460.548C133.308 451.095 139.846 443.412 143.707 439.174L124.459 460.548ZM129.617 459.637C135.274 453.276 141.595 446.591 147.067 439.14L129.617 459.637ZM129.06 460.291C133.338 454.747 137.223 450.81 147.464 438.599L129.06 460.291ZM132.335 460.594C139.539 451.917 148.399 443.094 152.302 439.353L132.335 460.594ZM132.968 460.143C139.095 453.828 144.475 447.099 151.984 439.086L132.968 460.143ZM136.064 459.712C143.25 451.854 151.966 445.159 154.864 436.888L136.064 459.712ZM137.564 460.117C145.25 451.964 152.104 443.407 155.576 437.877L137.564 460.117ZM140.518 458.855C148.003 452.301 153.648 444.076 159.379 438.504L140.518 458.855ZM141.362 460.134C147.559 451.863 154.646 443.242 159.581 438.702L141.362 460.134ZM146.647 460.016C149.804 452.899 156.46 449.788 165.126 438.694L146.647 460.016ZM145.16 460.635C150.619 453.716 156.263 447.461 163.827 437.844L145.16 460.635ZM149.498 460.227C154.134 453.097 161.57 446.999 166.37 437.567L149.498 460.227ZM148.618 460.964C155.154 453.38 161.481 445.907 166.927 438.602L148.618 460.964ZM152.352 460.193C157.462 455.927 161.52 450.315 170.972 438.76L152.352 460.193ZM153.91 459.983C157.807 454.347 163.135 447.599 172.185 437.352L153.91 459.983ZM156.596 459.199C162.262 455.557 166.491 449.345 176.834 439.753L156.596 459.199ZM156.335 460.577C163.566 451.415 171.635 443.337 175.954 438.015L156.335 460.577ZM160.936 460.681C167.727 451.004 175.393 445.801 178.563 438.969L160.936 460.681ZM161.407 459.546C169.134 451.059 176.081 442.364 179.51 438.113L161.407 459.546ZM166.198 461.005C170.316 457.003 172.775 451.733 182.735 438.342L166.198 461.005ZM165.007 459.773C170.668 453.574 176.286 447.23 183.382 438.646L165.007 459.773ZM168.564 461.171C172.618 455.967 178.43 449.854 187.689 438.165L168.564 461.171ZM168.989 460.118C174.635 453.194 181.788 444.966 187.284 437.806L168.989 460.118ZM173.335 461.713C181.186 451.689 186.415 442.585 192.811 439.657L173.335 461.713ZM173.271 459.919C177.132 456.338 180.461 451.871 191.912 437.786L173.271 459.919ZM176.227 459.085C185.152 452.265 190.43 445.596 196.252 436.747L176.227 459.085ZM176.513 459.612C183.219 453.466 187.72 446.997 195.884 438.502L176.513 459.612ZM180.11 458.947C188.418 451.721 193.669 446.685 198.234 437.025L180.11 458.947ZM180.15 460.643C184.79 455.28 189.851 449.405 199.034 438.266L180.15 460.643ZM185.267 460.291C192.035 453.685 196.938 444.048 204.742 438.205L185.267 460.291ZM184.593 459.951C190.757 453.102 198.075 445.167 203.831 438.238L184.593 459.951ZM188.225 459.544C196.144 451.812 202.194 442.989 206.947 436.819L188.225 459.544ZM188.783 460.606C196.062 451.081 203.159 442.448 206.728 438.5L188.783 460.606ZM192.9 459.194C199.343 452.341 204.767 446.369 211.273 438.966L192.9 459.194ZM192.363 460.17C199.988 451.636 207.009 442.905 211.034 438.49L192.363 460.17ZM197.495 459.643C199.576 455.335 203.33 449.879 215.301 438.54L197.495 459.643ZM196.724 459.796C201.336 454.225 206.578 447.907 214.744 437.849L196.724 459.796ZM199.673 458.646C206.058 454.146 209.13 447.975 218.013 439.88L199.673 458.646ZM201.207 460.252C204.472 454.431 208.427 449.906 218.51 438.032L201.207 460.252ZM204.352 461.536C209.629 455.543 211.942 450.246 224.475 439.416L204.352 461.536ZM204.15 460.296C208.91 453.743 215.245 447.7 222.846 438.916L204.15 460.296ZM207.49 459.805C214.661 453.411 217.844 447.484 226.76 438.955L207.49 459.805ZM207.553 460.938C215.119 452.971 221.495 444.236 226.19 438.699L207.553 460.938ZM212.297 459.878C215.929 455.504 220.178 449.178 230.026 438.998L212.297 459.878ZM213.115 459.391C218.365 454.39 222.421 446.817 231.555 437.59L213.115 459.391ZM217.085 461.352C222.221 451.126 231.17 443.644 233.434 439.775L217.085 461.352ZM216.027 460.647C221.588 454.565 227.182 447.629 234.137 437.714L216.027 460.647ZM221.446 461.603C227.027 453.114 230.539 448.39 238.312 437.625L221.446 461.603ZM220.835 459.522C227.292 452.264 234.174 444.292 238.419 437.602L220.835 459.522ZM223.596 461.428C231.464 454.128 236.568 445.336 244.006 438.288L223.596 461.428ZM223.828 459.713C230.015 453.052 236.265 446.421 242.795 438.226L223.828 459.713ZM227.043 459.883C233.362 451.903 239.398 446.57 247.083 437.96L227.043 459.883ZM227.896 459.864C232.542 454.795 235.949 450.392 246.221 437.496L227.896 459.864ZM231.959 459.919C236.692 455.478 240.008 449.383 252.11 439.656L231.959 459.919ZM232.385 460.367C237.196 454.351 241.203 449.341 250.756 437.818L232.385 460.367ZM235.877 460.166C240.573 454.618 249.021 444.753 255.932 437.327L235.877 460.166ZM236.014 460.154C241.635 453.323 248.325 445.747 254.772 437.531L236.014 460.154ZM239.993 460.563C246.534 451.812 252.681 447.287 258.447 438.344L239.993 460.563ZM240.157 460.428C246.113 452.143 252.252 446.162 258.488 438.465L240.157 460.428ZM243.889 460.269C250.152 454.137 255.317 445.56 261.816 438.434L243.889 460.269ZM244.304 459.926C250.407 453.74 255.122 446.278 263.147 437.378L244.304 459.926ZM248.853 460.231C254.906 451.655 259.351 446.266 266.307 438.03L248.853 460.231ZM247.851 460.187C254.718 452.632 261.293 444.769 266.099 438.109L247.851 460.187ZM252.598 461.094C258.739 453.283 266.904 443.242 269.506 438.654L252.598 461.094ZM251.523 459.276C255.877 454.839 260.594 448.592 270.432 438.42L251.523 459.276ZM255.567 459.644C260.547 455.049 265.116 450.151 274.104 437.822L255.567 459.644ZM256.187 460.119C260.663 454.184 266.304 449.009 274.081 437.553L256.187 460.119ZM258.645 458.971C265.034 455.325 266.898 449.674 278.151 437.681L258.645 458.971ZM259.794 459.63C267.96 451.441 275.421 442.563 277.966 438.389L259.794 459.63ZM263.484 458.784C269.623 452.91 276.723 442.959 282.844 436.851L263.484 458.784ZM263.656 460.11C268.373 454.504 272.839 449.881 282.565 438.161L263.656 460.11ZM267.233 459.447C273.624 455.708 276.015 449.663 285.76 439.062L267.233 459.447ZM267.895 459.91C274.787 452.271 280.949 444.582 287.097 438.263L267.895 459.91ZM271.823 461.485C277.929 451.935 284.461 445.427 291.639 438.868L271.823 461.485ZM271.749 460.227C277.819 453.21 284.675 445.427 290.573 438.032L271.749 460.227ZM275.704 460.431C280.893 452.968 287.274 446.729 293.183 436.989L275.704 460.431ZM276.483 460.368C282.193 453.685 288.219 445.986 293.473 439.007L276.483 460.368ZM280.153 461.648C284.724 452.572 291.973 444.707 299.21 438.456L280.153 461.648ZM279.726 459.95C285.014 453.252 291.267 447.209 298.26 438.888L279.726 459.95ZM283.99 459.858C288.204 453.514 292.813 448.72 301.601 436.965L283.99 459.858ZM284.357 460.287C287.26 455.169 291.754 450.35 301.684 438.504L284.357 460.287ZM286.901 460.093C294.333 454.048 298.115 446.74 305.369 437.881L286.901 460.093ZM286.862 460.47C294.17 452.059 301.128 444.024 306.164 437.655L286.862 460.47ZM292.627 460.861C295.646 455.109 299.561 450.088 311.072 439.357L292.627 460.861ZM291.707 460.857C295.677 453.873 301.071 448.027 309.64 438.846L291.707 460.857ZM296.815 459.959C304.116 451.999 309.163 441.457 315.508 439.436L296.815 459.959ZM296.174 460.86C301.49 451.92 308.876 444.312 314.462 437.948L296.174 460.86ZM300.241 461.798C303.71 456.066 307.623 447.435 318.017 438.618L300.241 461.798ZM299.83 460.561C303.513 454.866 308.541 449.864 317.243 438.662L299.83 460.561ZM304.542 459.05C308.197 455.75 310.87 449.022 321.182 437.774L304.542 459.05ZM303.225 460.373C309.482 453.795 314.37 446.726 322.224 438.582L303.225 460.373ZM308.068 461.252C312.737 452.266 321.072 445.962 325.178 437.648L308.068 461.252ZM307.446 460.949C311.457 454.583 315.362 449.3 325.156 439.062L307.446 460.949ZM311.053 460.553C318.008 451.547 323.622 442.651 328.48 436.767L311.053 460.553ZM311.804 460.738C318.897 451.477 325.469 444.356 329.651 437.405L311.804 460.738ZM314.455 460.318C322.974 451.583 330.733 442.961 334.154 437.074L314.455 460.318ZM314.894 460.489C323.19 452.019 330.727 443.419 334.051 438.267L314.894 460.489ZM319.159 459.256C326.203 452.713 333.248 441.839 338.618 438.776L319.159 459.256ZM319.738 459.27C324.136 453.668 329.962 446.861 337.328 438.185L319.738 459.27ZM321.827 461.645C329.661 452.022 335.141 446.501 340.923 439.846L321.827 461.645ZM322.901 460.509C328.975 453.466 335.76 445.486 342.374 438.51L322.901 460.509ZM326.049 461.458C333.705 453.477 337.03 448.56 346.44 436.998L326.049 461.458ZM327.104 460.355C332.235 455.213 337.272 448.784 345.479 437.597L327.104 460.355ZM332.216 461.78C337.576 451.396 345.745 444.815 349.275 437.447L332.216 461.78ZM330.337 459.839C333.914 455.433 338.214 451.37 350.074 437.609L330.337 459.839ZM333.744 458.931C338.59 456.443 344.906 450.68 353.862 438.437L333.744 458.931ZM335.485 459.368C340.222 453.253 346.51 447.497 353.22 438.239L335.485 459.368ZM339.791 458.824C345.45 452.941 352.317 445.673 357.381 439.001L339.791 458.824ZM339.444 460.165C343.634 454.68 348.853 448.296 357.859 438.92L339.444 460.165ZM341.625 461.086C345.131 457.139 349.787 450.239 360.93 439.604L341.625 461.086ZM342.745 460.289C348.455 453.656 354.464 446.29 360.822 440.409L342.745 460.289ZM347.282 460.095C351.232 455.331 357.368 447.015 360.357 444.885L347.282 460.095ZM346.131 460.675C351.961 454.585 356.523 448.127 360.06 444.102L346.131 460.675ZM350.925 459.752C354 456.328 355.13 455.519 359.438 448.748L350.925 459.752ZM351.224 459.634C354.635 455.687 358.502 450.711 361 448.283L351.224 459.634ZM355.221 459.57C357.645 456.947 359.171 455.57 360.568 452.968L355.221 459.57Z" stroke="#A4A4A4" stroke-width="1.5"/>
<path d="M33.5982 459.299C32.8166 453.248 33.2908 446.462 32.9679 438.927M33.1939 438.61C143.372 437.408 251.533 437.303 359.182 437.588L33.1939 438.61ZM33.1446 438.438C163.15 439.161 293.579 438.416 358.751 437.834L33.1446 438.438ZM359.982 438.404C358.874 441.487 358.46 448.477 359.743 459.212L359.982 438.404ZM358.687 438.631C359.633 444.936 359.624 451.087 358.364 458.582L358.687 438.631ZM358.739 458.403C247.162 457.972 135.699 457.953 32.6012 459.691L358.739 458.403ZM358.914 458.772C268.488 459.4 178.292 459.487 33.0441 458.683L358.914 458.772ZM34.482 458.459C34.7209 454.661 32.2848 449.304 33.1362 439.177L34.482 458.459Z" stroke="#A4A4A4" stroke-width="1.5"/>
<path d="M420 441.213V454.936C420 455.543 420.211 456.125 420.586 456.553C420.961 456.982 421.47 457.223 422 457.223H430C430.53 457.223 431.039 456.982 431.414 456.553C431.789 456.125 432 455.543 432 454.936V444.92C432 444.616 431.947 444.314 431.843 444.033C431.74 443.752 431.589 443.498 431.398 443.285L428.083 439.577C427.709 439.16 427.208 438.926 426.685 438.926H422C421.47 438.926 420.961 439.167 420.586 439.595C420.211 440.024 420 440.606 420 441.213V441.213Z" stroke="#5C5C5C" stroke-width="2" stroke-linecap="round" stroke-linejoin="round"/>
<path d="M428 457.223V459.511C428 460.117 427.789 460.699 427.414 461.128C427.039 461.557 426.53 461.798 426 461.798H418C417.47 461.798 416.961 461.557 416.586 461.128C416.211 460.699 416 460.117 416 459.511V446.931C416 446.324 416.211 445.742 416.586 445.314C416.961 444.885 417.47 444.644 418 444.644H420" stroke="#5C5C5C" stroke-width="2" stroke-linecap="round" stroke-linejoin="round"/>
<path d="M302.46 411.117C304.756 408.229 306.633 405.409 307.431 404.407M32.9929 393.376C33.479 392.534 34.5811 390.725 36.4605 389.623L32.9929 393.376ZM32.8879 393.864C33.4691 393.083 34.0746 392.266 35.9296 389.083L32.8879 393.864ZM34.0604 397.514C35.7018 396.49 37.4814 392.725 39.0763 390.215L34.0604 397.514ZM32.9485 398.814C34.2397 396.657 35.6388 393.5 39.956 389.12L32.9485 398.814ZM32 403.21C37.0054 398.293 39.1262 393.688 43.1864 388.805L32 403.21ZM32.4059 403.643C35.0692 400.18 37.0808 396.207 42.4926 388.565L32.4059 403.643ZM32.9288 406.336C38.2074 400.868 41.92 396.568 47.1595 390.028L32.9288 406.336ZM33.1977 407.649C36.7309 401.236 40.8653 395.765 46.296 388.618L33.1977 407.649ZM32.7209 412.014C39.8064 403.46 42.8612 397.238 48.4849 387.978L32.7209 412.014ZM33.7559 410.484C37.538 405.524 41.3694 401.843 49.9125 389.932L33.7559 410.484ZM36.6472 411.173C42.4229 404.338 45.8662 399.168 51.8556 389.121L36.6472 411.173ZM37.9624 411.195C42.063 404.62 46.8383 397.654 52.5928 389.683L37.9624 411.195ZM39.9409 411.31C44.7573 407.285 48.0289 402.425 55.5261 389.123L39.9409 411.31ZM40.4268 411.382C45.1218 403.321 51.104 396.873 56.5041 389.168L40.4268 411.382ZM44.9753 409.834C49.121 405.053 52.2376 399.763 60.6649 387.608L44.9753 409.834ZM44.2699 410.393C48.8606 402.926 54.7699 395.595 59.7829 388.29L44.2699 410.393ZM46.55 412.356C52.5787 403.837 59.485 394.928 62.863 389.195L46.55 412.356ZM47.6432 411.002C52.2231 403.218 58.6477 394.742 62.4258 388.536L47.6432 411.002ZM50.0098 412.219C52.6477 407.842 55.8638 403.51 66.4953 387.624L50.0098 412.219ZM51.1836 411.597C55.0829 404.413 58.2538 400.061 66.8557 388.994L51.1836 411.597ZM53.9871 411.446C57.3657 404.439 62.4457 399.169 68.7158 388.234L53.9871 411.446ZM53.2594 411.456C58.8794 403.354 65.1548 394.649 68.7852 389.329L53.2594 411.456ZM58.5022 409.464C61.3547 402.264 67.6651 397.021 73.8188 389.029L58.5022 409.464ZM57.424 410.595C59.8998 405.733 63.1159 401.631 72.8103 388.869L57.424 410.595ZM60.2281 411.793C64.4804 406.032 68.2573 398.724 77.2339 387.836L60.2281 411.793ZM60.1489 410.442C65.3237 403.401 71.7186 396.325 75.7603 389.574L60.1489 410.442ZM63.0961 409.58C68.6009 403.783 74.854 395.995 79.8872 387.88L63.0961 409.58ZM64.5389 410.63C67.6721 405.112 71.8225 400.216 79.7866 388.998L64.5389 410.63ZM66.0468 409.739C73.0271 402.508 77.1954 396.326 82.2151 389.623L66.0468 409.739ZM66.812 411.198C71.3125 404.848 76.5044 398.126 83.2261 389.389L66.812 411.198ZM71.1303 411.413C74.3111 405.077 76.542 401.275 86.0025 390.212L71.1303 411.413ZM70.0157 410.913C73.77 406.653 76.5046 402.371 86.1769 389.113L70.0157 410.913ZM73.7627 411.608C79.812 404.357 84.6025 396.284 88.3959 387.578L73.7627 411.608ZM74.2633 411.012C78.1329 403.641 83.3265 396.662 88.8754 388.693L74.2633 411.012ZM78.3399 412.297C82.2502 403.522 87.5848 396.565 93.7604 389.066L78.3399 412.297ZM76.6743 410.452C83.1118 402.471 88.4228 394.175 93.5146 388.359L76.6743 410.452ZM80.9799 410.728C84.491 404.104 87.5975 398.364 95.1703 387.966L80.9799 410.728ZM80.3963 411.185C86.6967 401.943 92.5546 394.425 96.3597 389.495L80.3963 411.185ZM85.1368 409.593C87.857 404.871 91.7123 400.769 98.7886 387.463L85.1368 409.593ZM84.5263 410.347C88.3457 404.886 92.0998 400.452 99.5855 389.124L84.5263 410.347ZM86.848 410.405C93.5295 402.081 98.7276 392.46 102.853 389.416L86.848 410.405ZM86.8713 411.662C93.1015 401.912 99.4884 394.437 102.139 389.009L86.8713 411.662ZM90.3479 411.408C93.5436 405.909 96.4569 402.108 106.616 388.258L90.3479 411.408ZM90.1496 409.966C95.6921 403.17 101.928 395.392 106.158 389.192L90.1496 409.966ZM93.315 410.143C98.0274 404.363 104.117 396.007 108.919 387.517L93.315 410.143ZM93.4801 410.273C99.4882 403.518 104.888 394.536 109.885 389.605L93.4801 410.273ZM97.4766 410.554C102.87 405.008 105.413 399.335 113.026 390.302L97.4766 410.554ZM97.3322 410.769C100.238 405.151 104.067 401.641 112.485 389.388L97.3322 410.769ZM101.37 410.233C105.361 402.641 111.012 394.785 116.776 388.603L101.37 410.233ZM100.024 411.153C106.591 401.751 112.862 394.243 116.076 388.853L100.024 411.153ZM103.021 411.169C107.471 405.848 112.144 398.416 117.873 390.37L103.021 411.169ZM103.513 411.527C107.812 406.426 110.739 400.802 119.728 388.621L103.513 411.527ZM107.286 410.226C110.303 406.8 113.632 400.984 121.982 389.845L107.286 410.226ZM106.94 410.19C111.002 404.326 116.549 397.81 123.152 389.482L106.94 410.19ZM109.39 412.615C115.678 404.935 119.338 397.407 125.474 388.516L109.39 412.615ZM109.565 411.373C116.988 401.919 122.473 394.236 125.712 389.998L109.565 411.373ZM113.892 410.461C118.637 404.101 123.94 397.416 128.531 389.965L113.892 410.461ZM113.424 411.115C117.013 405.572 120.272 401.635 128.863 389.424L113.424 411.115ZM116.172 411.418C122.215 402.742 129.648 393.919 132.922 390.178L116.172 411.418ZM116.702 410.967C121.843 404.652 126.356 397.923 132.655 389.911L116.702 410.967ZM119.3 410.537C125.328 402.679 132.64 395.983 135.071 387.712L119.3 410.537ZM120.558 410.942C127.006 402.788 132.756 394.232 135.668 388.702L120.558 410.942ZM123.036 409.679C129.315 403.125 134.051 394.901 138.859 389.329L123.036 409.679ZM123.744 410.958C128.943 402.687 134.888 394.066 139.029 389.527L123.744 410.958ZM128.178 410.84C130.826 403.723 136.41 400.613 143.68 389.519L128.178 410.84ZM126.931 411.459C131.51 404.541 136.245 398.285 142.59 388.669L126.931 411.459ZM130.57 411.051C134.459 403.922 140.697 397.823 144.724 388.391L130.57 411.051ZM129.831 411.789C135.315 404.205 140.622 396.732 145.191 389.426L129.831 411.789ZM132.964 411.018C137.251 406.752 140.655 401.139 148.585 389.585L132.964 411.018ZM134.271 410.808C137.541 405.172 142.01 398.423 149.602 388.177L134.271 410.808ZM136.524 410.023C141.278 406.381 144.825 400.17 153.502 390.577L136.524 410.023ZM136.306 411.401C142.371 402.239 149.141 394.161 152.764 388.839L136.306 411.401ZM140.165 411.505C145.862 401.828 152.293 396.625 154.953 389.793L140.165 411.505ZM140.56 410.37C147.043 401.884 152.87 393.189 155.747 388.938L140.56 410.37ZM144.579 411.83C148.034 407.827 150.097 402.558 158.453 389.166L144.579 411.83ZM143.581 410.598C148.329 404.399 153.042 398.055 158.995 389.471L143.581 410.598ZM146.564 411.996C149.965 406.792 154.841 400.679 162.608 388.989L146.564 411.996ZM146.921 410.942C151.657 404.019 157.658 395.79 162.269 388.631L146.921 410.942ZM150.567 412.538C157.153 402.513 161.539 393.409 166.905 390.481L150.567 412.538ZM150.513 410.743C153.752 407.163 156.545 402.695 166.151 388.611L150.513 410.743ZM152.993 409.91C160.48 403.089 164.908 396.421 169.792 387.572L152.993 409.91ZM153.233 410.437C158.858 404.291 162.634 397.822 169.484 389.326L153.233 410.437ZM156.25 409.771C163.22 402.546 167.625 397.509 171.455 387.85L156.25 409.771ZM156.284 411.467C160.177 406.104 164.422 400.229 172.126 389.09L156.284 411.467ZM160.577 411.116C166.254 404.509 170.368 394.873 176.914 389.029L160.577 411.116ZM160.011 410.775C165.182 403.927 171.322 395.991 176.15 389.062L160.011 410.775ZM163.058 410.368C169.701 402.636 174.777 393.813 178.764 387.643L163.058 410.368ZM163.526 411.43C169.633 401.906 175.587 393.272 178.58 389.324L163.526 411.43ZM166.98 410.018C172.385 403.165 176.935 397.194 182.393 389.791L166.98 410.018ZM166.529 410.994C172.926 402.461 178.816 393.73 182.193 389.315L166.529 410.994ZM170.835 410.468C172.581 406.16 175.73 400.704 185.772 389.364L170.835 410.468ZM170.188 410.62C174.057 405.049 178.455 398.732 185.305 388.673L170.188 410.62ZM172.662 409.47C178.018 404.971 180.596 398.799 188.047 390.704L172.662 409.47ZM173.949 411.076C176.688 405.255 180.006 400.731 188.464 388.857L173.949 411.076ZM176.587 412.361C181.014 406.367 182.954 401.07 193.468 390.24L176.587 412.361ZM176.417 411.121C180.411 404.568 185.726 398.525 192.102 389.74L176.417 411.121ZM179.219 410.629C185.236 404.236 187.906 398.309 195.385 389.779L179.219 410.629ZM179.272 411.762C185.619 403.796 190.969 395.061 194.908 389.524L179.272 411.762ZM183.252 410.703C186.299 406.328 189.863 400.002 198.125 389.822L183.252 410.703ZM183.938 410.215C188.343 405.215 191.745 397.641 199.408 388.415L183.938 410.215ZM187.269 412.176C191.578 401.95 199.085 394.468 200.984 390.599L187.269 412.176ZM186.382 411.472C191.047 405.39 195.74 398.454 201.574 388.539L186.382 411.472ZM190.928 412.428C195.61 403.939 198.556 399.215 205.076 388.45L190.928 412.428ZM190.415 410.346C195.831 403.089 201.605 395.117 205.166 388.426L190.415 410.346ZM192.731 412.252C199.332 404.952 203.613 396.161 209.853 389.112L192.731 412.252ZM192.925 410.537C198.116 403.877 203.359 397.245 208.837 389.051L192.925 410.537ZM195.623 410.707C200.923 402.728 205.987 397.394 212.434 388.785L195.623 410.707ZM196.338 410.688C200.236 405.62 203.094 401.216 211.711 388.32L196.338 410.688ZM199.747 410.743C203.717 406.302 206.499 400.207 216.652 390.481L199.747 410.743ZM200.104 411.192C204.141 405.176 207.501 400.166 215.516 388.643L200.104 411.192ZM203.034 410.991C206.973 405.443 214.06 395.577 219.858 388.151L203.034 410.991ZM203.148 410.978C207.864 404.148 213.476 396.572 218.885 388.355L203.148 410.978ZM206.486 411.388C211.974 402.636 217.13 398.111 221.968 389.168L206.486 411.388ZM206.624 411.252C211.62 402.967 216.77 396.986 222.002 389.29L206.624 411.252ZM209.755 411.094C215.009 404.961 219.342 396.384 224.794 389.258L209.755 411.094ZM210.103 410.75C215.223 404.565 219.178 397.103 225.911 388.202L210.103 410.75ZM213.919 411.055C218.997 402.479 222.726 397.09 228.561 388.855L213.919 411.055ZM213.079 411.011C218.839 403.457 224.355 395.594 228.387 388.934L213.079 411.011ZM217.061 411.919C222.212 404.107 229.062 394.067 231.245 389.479L217.061 411.919ZM216.159 410.101C219.812 405.663 223.768 399.417 232.022 389.244L216.159 410.101ZM219.552 410.468C223.73 405.874 227.562 400.976 235.103 388.647L219.552 410.468ZM220.071 410.943C223.826 405.009 228.559 399.833 235.083 388.378L220.071 410.943ZM222.134 409.796C227.494 406.15 229.058 400.498 238.498 388.506L222.134 409.796ZM223.098 410.454C229.948 402.266 236.208 393.388 238.342 389.214L223.098 410.454ZM226.193 409.608C231.343 403.734 237.299 393.784 242.434 387.676L226.193 409.608ZM226.338 410.935C230.294 405.329 234.041 400.705 242.2 388.986L226.338 410.935ZM229.339 410.271C234.7 406.532 236.705 400.488 244.881 389.887L229.339 410.271ZM229.894 410.734C235.675 403.095 240.845 395.407 246.003 389.087L229.894 410.734ZM233.189 412.309C238.311 402.759 243.791 396.251 249.813 389.692L233.189 412.309ZM233.127 411.052C238.219 404.035 243.971 396.252 248.919 388.856L233.127 411.052ZM236.445 411.255C240.798 403.793 246.15 397.554 251.108 387.813L236.445 411.255ZM237.098 411.192C241.889 404.509 246.944 396.81 251.351 389.832L237.098 411.192ZM240.177 412.473C244.012 403.396 250.093 395.531 256.164 389.28L240.177 412.473ZM239.819 410.774C244.255 404.076 249.5 398.034 255.367 389.712L239.819 410.774ZM243.396 410.683C246.931 404.339 250.797 399.544 258.17 387.789L243.396 410.683ZM243.704 411.112C246.139 405.994 249.909 401.175 258.24 389.329L243.704 411.112ZM245.838 410.917C252.073 404.873 255.245 397.565 261.331 388.706L245.838 410.917ZM245.805 411.294C251.936 402.883 257.773 394.849 261.998 388.479L245.805 411.294ZM250.641 411.686C253.174 405.933 256.459 400.912 266.115 390.182L250.641 411.686ZM249.87 411.681C253.2 404.698 257.726 398.851 264.914 389.67L249.87 411.681ZM254.154 410.783C260.28 402.823 264.514 392.282 269.836 390.26L254.154 410.783ZM253.617 411.684C258.077 402.745 264.273 395.137 268.959 388.772L253.617 411.684ZM257.029 412.622C259.939 406.89 263.222 398.26 271.941 389.442L257.029 412.622ZM256.684 411.386C259.774 405.69 263.992 400.688 271.292 389.487L256.684 411.386ZM260.637 409.874C263.704 406.574 265.946 399.846 274.596 388.598L260.637 409.874ZM259.533 411.197C264.781 404.62 268.881 397.55 275.471 389.407L259.533 411.197ZM263.595 412.076C267.512 403.09 274.504 396.786 277.949 388.472L263.595 412.076ZM263.073 411.773C266.438 405.407 269.714 400.124 277.931 389.886L263.073 411.773ZM266.099 411.377C271.934 402.372 276.643 393.475 280.719 387.591L266.099 411.377ZM266.73 411.563C272.68 402.301 278.193 395.18 281.701 388.229L266.73 411.563ZM268.953 411.142C276.1 402.408 282.609 393.785 285.479 387.898L268.953 411.142ZM269.321 411.313C276.281 402.843 282.604 394.243 285.393 389.091L269.321 411.313ZM272.899 410.08C278.808 403.538 284.719 392.664 289.224 389.601L272.899 410.08ZM273.385 410.094C277.075 404.493 281.962 397.686 288.142 389.01L273.385 410.094ZM275.138 412.469C281.709 402.847 286.307 397.326 291.157 390.67L275.138 412.469ZM276.038 411.334C281.134 404.29 286.826 396.311 292.374 389.335L276.038 411.334ZM278.68 412.283C285.102 404.302 287.891 399.384 295.786 387.822L278.68 412.283ZM279.564 411.179C283.869 406.037 288.094 399.608 294.979 388.422L279.564 411.179ZM283.853 412.604C288.35 402.22 295.203 395.639 298.164 388.271L283.853 412.604ZM282.276 410.663C285.277 406.258 288.885 402.195 298.834 388.433L282.276 410.663ZM285.135 409.756C289.2 407.267 294.499 401.505 302.012 389.262L285.135 409.756ZM286.596 410.193C290.569 404.078 295.844 398.322 301.473 389.063L286.596 410.193ZM290.208 409.649C294.955 403.765 300.716 396.497 304.964 389.826L290.208 409.649ZM289.916 410.99C293.432 405.504 297.81 399.121 305.365 389.744L289.916 410.99ZM291.746 411.911C294.687 407.963 298.593 401.063 307.941 390.429L291.746 411.911ZM292.685 411.114C297.476 404.481 302.517 397.114 307.851 391.233L292.685 411.114ZM296.492 410.92C299.806 406.156 304.953 397.839 307.461 395.71L296.492 410.92ZM295.526 411.499C300.417 405.41 304.244 398.951 307.211 394.926L295.526 411.499ZM299.548 410.576C302.128 407.153 303.075 406.343 306.69 399.572L299.548 410.576ZM299.799 410.459C302.661 406.512 305.905 401.535 308 399.107L299.799 410.459ZM303.152 410.395C305.185 407.771 306.466 406.394 307.638 403.792L303.152 410.395Z" stroke="#A4A4A4" stroke-width="1.5"/>
<path d="M33.3409 410.123C32.6852 404.073 33.083 397.286 32.8122 389.752M33.0017 389.434C125.431 388.232 216.168 388.128 306.475 388.413L33.0017 389.434ZM32.9604 389.263C142.023 389.985 251.441 389.24 306.113 388.659L32.9604 389.263ZM307.146 389.229C306.216 392.311 305.869 399.301 306.946 410.036L307.146 389.229ZM306.06 389.456C306.853 395.76 306.846 401.911 305.788 409.406L306.06 389.456ZM306.104 409.228C212.501 408.796 118.994 408.778 32.5045 410.515L306.104 409.228ZM306.25 409.596C230.391 410.224 154.726 410.312 32.8761 409.508L306.25 409.596ZM34.0824 409.283C34.2828 405.485 32.2391 400.128 32.9533 390.001L34.0824 409.283Z" stroke="#A4A4A4" stroke-width="1.5"/>
<path d="M368.095 380.24C370.957 377.352 373.296 374.531 374.29 373.53M32.2376 362.498C32.8433 361.657 34.2171 359.848 36.5594 358.746L32.2376 362.498ZM32.1067 362.986C32.831 362.205 33.5858 361.389 35.8977 358.206L32.1067 362.986ZM33.568 366.636C35.6139 365.612 37.8318 361.847 39.8197 359.337L33.568 366.636ZM32.1822 367.937C33.7915 365.779 35.5353 362.622 40.9162 358.242L32.1822 367.937ZM31 372.333C37.2386 367.415 39.8819 362.81 44.9425 357.927L31 372.333ZM31.5059 372.765C34.8254 369.302 37.3325 365.329 44.0777 357.688L31.5059 372.765ZM32.1577 375.458C38.7367 369.99 43.364 365.69 49.8945 359.15L32.1577 375.458ZM32.4928 376.772C36.8965 370.358 42.0495 364.888 48.8182 357.74L32.4928 376.772ZM31.8985 381.136C40.7298 372.583 44.5371 366.361 51.5464 357.1L31.8985 381.136ZM33.1885 379.606C37.9025 374.646 42.6778 370.965 53.3258 359.054L33.1885 379.606ZM36.7921 380.296C43.9909 373.461 48.2825 368.29 55.7475 358.244L36.7921 380.296ZM38.4314 380.317C43.5423 373.742 49.4941 366.777 56.6664 358.805L38.4314 380.317ZM40.8974 380.433C46.9004 376.407 50.9781 371.547 60.3224 358.246L40.8974 380.433ZM41.503 380.504C47.3548 372.444 54.8108 365.996 61.5413 358.29L41.503 380.504ZM47.1721 378.956C52.3392 374.176 56.2237 368.885 66.7273 356.731L47.1721 378.956ZM46.2929 379.516C52.0146 372.049 59.3798 364.717 65.628 357.413L46.2929 379.516ZM49.1348 381.478C56.6489 372.96 65.2567 364.05 69.4669 358.318L49.1348 381.478ZM50.4973 380.124C56.2056 372.34 64.2131 363.865 68.922 357.658L50.4973 380.124ZM53.447 381.341C56.7348 376.964 60.7433 372.633 73.9942 356.746L53.447 381.341ZM54.91 380.72C59.77 373.536 63.7221 369.183 74.4433 358.116L54.91 380.72ZM58.4043 380.568C62.6152 373.562 68.9468 368.291 76.7618 357.356L58.4043 380.568ZM57.4972 380.579C64.5018 372.477 72.3233 363.771 76.8482 358.452L57.4972 380.579ZM64.0317 378.586C67.587 371.387 75.4522 366.144 83.122 358.151L64.0317 378.586ZM62.6879 379.717C65.7737 374.856 69.7821 370.753 81.8651 357.991L62.6879 379.717ZM66.1829 380.915C71.4828 375.154 76.1903 367.846 87.3784 356.959L66.1829 380.915ZM66.0842 379.565C72.5339 372.523 80.5044 365.448 85.5418 358.696L66.0842 379.565ZM69.7575 378.703C76.6186 372.906 84.4123 365.117 90.6855 357.002L69.7575 378.703ZM71.5557 379.752C75.4608 374.234 80.6338 369.339 90.5601 358.12L71.5557 379.752ZM73.4351 378.861C82.1352 371.631 87.3305 365.448 93.587 358.745L73.4351 378.861ZM74.3889 380.32C79.9982 373.97 86.4692 367.249 94.847 358.511L74.3889 380.32ZM79.7711 380.535C83.7356 374.199 86.5162 370.398 98.3074 359.335L79.7711 380.535ZM78.3819 380.035C83.0612 375.775 86.4695 371.493 98.5249 358.236L78.3819 380.035ZM83.0521 380.731C90.5918 373.479 96.5625 365.406 101.29 356.7L83.0521 380.731ZM83.676 380.134C88.499 372.763 94.9722 365.784 101.888 357.815L83.676 380.134ZM88.757 381.42C93.6307 372.645 100.28 365.687 107.977 358.189L88.757 381.42ZM86.681 379.574C94.7045 371.593 101.324 363.298 107.67 357.482L86.681 379.574ZM92.0474 379.85C96.4235 373.226 100.295 367.486 109.734 357.089L92.0474 379.85ZM91.32 380.307C99.1727 371.066 106.474 363.548 111.216 358.618L91.32 380.307ZM97.2285 378.716C100.619 373.993 105.424 369.891 114.244 356.585L97.2285 378.716ZM96.4676 379.47C101.228 374.009 105.907 369.575 115.237 358.246L96.4676 379.47ZM99.3613 379.528C107.689 371.204 114.168 361.582 119.309 358.539L99.3613 379.528ZM99.3903 380.784C107.156 371.035 115.116 363.559 118.42 358.132L99.3903 380.784ZM103.723 380.531C107.707 375.032 111.338 371.23 123.999 357.381L103.723 380.531ZM103.476 379.089C110.384 372.292 118.156 364.514 123.428 358.314L103.476 379.089ZM107.422 379.266C113.295 373.485 120.885 365.129 126.871 356.639L107.422 379.266ZM107.627 379.395C115.116 372.64 121.847 363.658 128.074 358.727L107.627 379.395ZM112.608 379.677C119.33 374.131 122.5 368.458 131.989 359.424L112.608 379.677ZM112.429 379.892C116.051 374.273 120.823 370.763 131.314 358.51L112.429 379.892ZM117.461 379.356C122.435 371.763 129.478 363.907 136.663 357.726L117.461 379.356ZM115.784 380.275C123.968 370.874 131.785 363.366 135.791 357.975L115.784 380.275ZM119.519 380.291C125.066 374.971 130.889 367.539 138.031 359.492L119.519 380.291ZM120.132 380.65C125.49 375.548 129.138 369.924 140.342 357.744L120.132 380.65ZM124.835 379.348C128.595 375.922 132.744 370.106 143.152 358.967L124.835 379.348ZM124.404 379.313C129.466 373.448 136.38 366.932 144.61 358.605L124.404 379.313ZM127.457 381.737C135.294 374.057 139.857 366.53 147.503 357.638L127.457 381.737ZM127.675 380.495C136.927 371.041 143.763 363.358 147.8 359.121L127.675 380.495ZM133.068 379.583C138.983 373.223 145.591 366.538 151.313 359.087L133.068 379.583ZM132.485 380.238C136.959 374.694 141.02 370.757 151.728 358.546L132.485 380.238ZM135.91 380.541C143.442 371.864 152.706 363.041 156.786 359.3L135.91 380.541ZM136.571 380.09C142.978 373.774 148.603 367.046 156.454 359.033L136.571 380.09ZM139.808 379.659C147.322 371.801 156.436 365.105 159.466 356.835L139.808 379.659ZM141.377 380.064C149.414 371.911 156.58 363.354 160.21 357.824L141.377 380.064ZM144.465 378.801C152.291 372.248 158.194 364.023 164.186 358.451L144.465 378.801ZM145.348 380.081C151.828 371.81 159.237 363.188 164.398 358.649L145.348 380.081ZM150.874 379.962C154.175 372.846 161.135 369.735 170.195 358.641L150.874 379.962ZM149.32 380.582C155.027 373.663 160.929 367.408 168.837 357.791L149.32 380.582ZM153.855 380.174C158.703 373.044 166.477 366.946 171.496 357.514L153.855 380.174ZM152.935 380.911C159.769 373.327 166.384 365.854 172.079 358.549L152.935 380.911ZM156.839 380.14C162.182 375.874 166.425 370.262 176.309 358.707L156.839 380.14ZM158.468 379.93C162.543 374.294 168.113 367.545 177.576 357.299L158.468 379.93ZM161.277 379.146C167.201 375.503 171.622 369.292 182.437 359.7L161.277 379.146ZM161.004 380.524C168.564 371.361 177.001 363.284 181.517 357.961L161.004 380.524ZM165.815 380.627C172.915 370.951 180.93 365.748 184.245 358.916L165.815 380.627ZM166.307 379.492C174.386 371.006 181.65 362.311 185.235 358.06L166.307 379.492ZM171.316 380.952C175.622 376.95 178.193 371.68 188.608 358.288L171.316 380.952ZM170.072 379.72C175.99 373.521 181.864 367.177 189.284 358.593L170.072 379.72ZM173.79 381.118C178.029 375.914 184.106 369.801 193.787 358.111L173.79 381.118ZM174.235 380.065C180.138 373.141 187.618 364.913 193.364 357.753L174.235 380.065ZM178.779 381.66C186.987 371.635 192.455 362.532 199.143 359.604L178.779 381.66ZM178.712 379.865C182.749 376.285 186.23 371.818 198.203 357.733L178.712 379.865ZM181.802 379.032C191.134 372.212 196.653 365.543 202.74 356.694L181.802 379.032ZM182.102 379.559C189.113 373.413 193.819 366.944 202.356 358.448L182.102 379.559ZM185.863 378.894C194.55 371.668 200.04 366.632 204.813 356.972L185.863 378.894ZM185.905 380.59C190.756 375.227 196.048 369.351 205.65 358.213L185.905 380.59ZM191.255 380.238C198.331 373.632 203.458 363.995 211.618 358.151L191.255 380.238ZM190.55 379.897C196.995 373.049 204.647 365.113 210.666 358.184L190.55 379.897ZM194.348 379.49C202.627 371.759 208.954 362.936 213.923 356.766L194.348 379.49ZM194.932 380.552C202.542 371.028 209.963 362.394 213.694 358.447L194.932 380.552ZM199.236 379.141C205.972 372.288 211.643 366.316 218.446 358.913L199.236 379.141ZM198.674 380.116C206.647 371.583 213.988 362.852 218.197 358.437L198.674 380.116ZM204.04 379.59C206.217 375.282 210.141 369.826 222.658 358.486L204.04 379.59ZM203.234 379.743C208.056 374.171 213.538 367.854 222.076 357.795L203.234 379.743ZM206.318 378.593C212.993 374.093 216.206 367.922 225.494 359.826L206.318 378.593ZM207.921 380.199C211.336 374.378 215.471 369.853 226.013 357.979L207.921 380.199ZM211.21 381.483C216.728 375.489 219.146 370.193 232.25 359.363L211.21 381.483ZM210.998 380.243C215.976 373.69 222.6 367.647 230.547 358.862L210.998 380.243ZM214.491 379.752C221.989 373.358 225.317 367.431 234.64 358.902L214.491 379.752ZM214.557 380.885C222.467 372.918 229.135 364.183 234.044 358.646L214.557 380.885ZM219.517 379.825C223.315 375.45 227.757 369.124 238.055 358.945L219.517 379.825ZM220.372 379.338C225.862 374.337 230.103 366.763 239.653 357.537L220.372 379.338ZM224.523 381.298C229.894 371.073 239.251 363.591 241.618 359.722L224.523 381.298ZM223.418 380.594C229.232 374.512 235.081 367.576 242.353 357.661L223.418 380.594ZM229.084 381.55C234.919 373.061 238.591 368.337 246.718 357.572L229.084 381.55ZM228.445 379.469C235.196 372.211 242.392 364.239 246.83 357.549L228.445 379.469ZM231.332 381.375C239.558 374.075 244.895 365.283 252.672 358.234L231.332 381.375ZM231.574 379.66C238.043 372.999 244.578 366.367 251.406 358.173L231.574 379.66ZM234.936 379.83C241.542 371.85 247.854 366.517 255.889 357.907L234.936 379.83ZM235.827 379.81C240.685 374.742 244.247 370.339 254.988 357.443L235.827 379.81ZM240.076 379.866C245.024 375.425 248.492 369.33 261.146 359.603L240.076 379.866ZM240.522 380.314C245.552 374.298 249.741 369.288 259.73 357.765L240.522 380.314ZM244.172 380.113C249.082 374.565 257.916 364.7 265.142 357.273L244.172 380.113ZM244.315 380.1C250.193 373.27 257.188 365.694 263.929 357.477L244.315 380.1ZM248.476 380.51C255.315 371.759 261.742 367.234 267.772 358.291L248.476 380.51ZM248.648 380.374C254.875 372.09 261.294 366.109 267.814 358.412L248.648 380.374ZM252.55 380.216C259.098 374.083 264.498 365.506 271.294 358.381L252.55 380.216ZM252.984 379.873C259.365 373.687 264.294 366.225 272.686 357.324L252.984 379.873ZM257.74 380.178C264.069 371.601 268.716 366.213 275.99 357.977L257.74 380.178ZM256.692 380.134C263.872 372.579 270.747 364.716 275.772 358.056L256.692 380.134ZM261.656 381.041C268.076 373.23 276.614 363.189 279.334 358.601L261.656 381.041ZM260.531 379.223C265.084 374.786 270.016 368.539 280.303 358.367L260.531 379.223ZM264.761 379.591C269.967 374.996 274.744 370.098 284.142 357.769L264.761 379.591ZM265.408 380.066C270.088 374.131 275.987 368.956 284.118 357.5L265.408 380.066ZM267.979 378.918C274.659 375.272 276.608 369.621 288.374 357.628L267.979 378.918ZM269.18 379.576C277.718 371.388 285.52 362.51 288.18 358.336L269.18 379.576ZM273.038 378.73C279.457 372.857 286.88 362.906 293.28 356.798L273.038 378.73ZM273.218 380.057C278.149 374.451 282.819 369.828 292.989 358.108L273.218 380.057ZM276.958 379.393C283.64 375.655 286.14 369.61 296.329 359.009L276.958 379.393ZM277.65 379.856C284.856 372.217 291.299 364.529 297.728 358.21L277.65 379.856ZM281.757 381.431C288.141 371.881 294.972 365.374 302.477 358.815L281.757 381.431ZM281.679 380.174C288.027 373.157 295.196 365.374 301.362 357.978L281.679 380.174ZM285.816 380.378C291.241 372.915 297.912 366.676 304.091 356.936L285.816 380.378ZM286.629 380.315C292.6 373.632 298.901 365.932 304.394 358.954L286.629 380.315ZM290.466 381.595C295.247 372.519 302.826 364.654 310.393 358.402L290.466 381.595ZM290.021 379.897C295.549 373.199 302.087 367.156 309.399 358.835L290.021 379.897ZM294.479 379.805C298.885 373.461 303.704 368.667 312.893 356.912L294.479 379.805ZM294.862 380.234C297.898 375.116 302.597 370.297 312.98 358.451L294.862 380.234ZM297.522 380.04C305.294 373.995 309.248 366.687 316.833 357.828L297.522 380.04ZM297.482 380.417C305.123 372.006 312.398 363.971 317.664 357.602L297.482 380.417ZM303.51 380.808C306.666 375.056 310.76 370.035 322.796 359.304L303.51 380.808ZM302.548 380.803C306.699 373.82 312.339 367.973 321.298 358.793L302.548 380.803ZM307.888 379.906C315.523 371.945 320.8 361.404 327.433 359.383L307.888 379.906ZM307.218 380.807C312.777 371.867 320.5 364.259 326.34 357.895L307.218 380.807ZM311.47 381.745C315.098 376.013 319.189 367.382 330.057 358.565L311.47 381.745ZM311.041 380.508C314.892 374.812 320.149 369.811 329.249 358.609L311.041 380.508ZM315.968 378.996C319.79 375.697 322.585 368.969 333.366 357.721L315.968 378.996ZM314.591 380.32C321.133 373.742 326.243 366.673 334.457 358.529L314.591 380.32ZM319.655 381.199C324.536 372.212 333.252 365.908 337.545 357.594L319.655 381.199ZM319.004 380.896C323.198 374.529 327.281 369.247 337.522 359.008L319.004 380.896ZM322.776 380.5C330.048 371.494 335.918 362.597 340.998 356.713L322.776 380.5ZM323.561 380.685C330.978 371.424 337.849 364.303 342.222 357.351L323.561 380.685ZM326.333 380.265C335.24 371.53 343.353 362.908 346.93 357.021L326.333 380.265ZM326.792 380.436C335.466 371.966 343.346 363.365 346.823 358.213L326.792 380.436ZM331.251 379.203C338.616 372.66 345.983 361.786 351.597 358.723L331.251 379.203ZM331.857 379.217C336.455 373.615 342.547 366.808 350.249 358.132L331.857 379.217ZM334.041 381.592C342.232 371.969 347.963 366.448 354.007 359.793L334.041 381.592ZM335.163 380.456C341.515 373.413 348.609 365.433 355.525 358.457L335.163 380.456ZM338.456 381.405C346.46 373.424 349.937 368.507 359.777 356.944L338.456 381.405ZM339.559 380.302C344.923 375.159 350.19 368.731 358.771 357.544L339.559 380.302ZM344.904 381.727C350.508 371.343 359.05 364.762 362.74 357.393L344.904 381.727ZM342.939 379.786C346.679 375.38 351.175 371.317 363.576 357.556L342.939 379.786ZM346.501 378.878C351.568 376.39 358.172 370.627 367.536 358.384L346.501 378.878ZM348.322 379.315C353.275 373.2 359.849 367.444 366.865 358.186L348.322 379.315ZM352.824 378.771C358.741 372.887 365.921 365.62 371.216 358.948L352.824 378.771ZM352.461 380.112C356.842 374.627 362.299 368.243 371.716 358.867L352.461 380.112ZM354.742 381.033C358.407 377.085 363.275 370.186 374.927 359.551L354.742 381.033ZM355.912 380.236C361.883 373.603 368.166 366.236 374.814 360.355L355.912 380.236ZM360.657 380.042C364.787 375.278 371.202 366.962 374.328 364.832L360.657 380.042ZM359.453 380.622C365.549 374.532 370.319 368.073 374.017 364.049L359.453 380.622ZM364.465 379.698C367.681 376.275 368.862 375.466 373.367 368.694L364.465 379.698ZM364.778 379.581C368.345 375.634 372.388 370.658 375 368.229L364.778 379.581ZM368.958 379.517C371.492 376.893 373.088 375.517 374.548 372.915L368.958 379.517Z" stroke="#A4A4A4" stroke-width="1.5"/>
<path d="M32.6711 379.246C31.8539 373.195 32.3497 366.408 32.0121 358.874M32.2484 358.557C147.45 357.355 260.542 357.25 373.099 357.535L32.2484 358.557ZM32.1969 358.385C168.13 359.107 304.506 358.363 372.648 357.781L32.1969 358.385ZM373.935 358.351C372.777 361.433 372.344 368.423 373.686 379.159L373.935 358.351ZM372.582 358.578C373.571 364.882 373.561 371.034 372.243 378.529L372.582 358.578ZM372.636 378.35C255.972 377.918 139.427 377.9 31.6287 379.638L372.636 378.35ZM372.819 378.719C278.27 379.347 183.962 379.434 32.0918 378.63L372.819 378.719ZM33.5953 378.406C33.845 374.608 31.2979 369.25 32.188 359.123L33.5953 378.406Z" stroke="#A4A4A4" stroke-width="1.5"/>
<path d="M420 358.872V372.596C420 373.202 420.211 373.784 420.586 374.213C420.961 374.642 421.47 374.883 422 374.883H430C430.53 374.883 431.039 374.642 431.414 374.213C431.789 373.784 432 373.202 432 372.596V362.58C432 362.275 431.947 361.974 431.843 361.693C431.74 361.412 431.589 361.158 431.398 360.945L428.083 357.237C427.709 356.819 427.208 356.585 426.685 356.585H422C421.47 356.585 420.961 356.826 420.586 357.255C420.211 357.684 420 358.266 420 358.872V358.872Z" stroke="#5C5C5C" stroke-width="2" stroke-linecap="round" stroke-linejoin="round"/>
<path d="M428 374.883V377.17C428 377.777 427.789 378.359 427.414 378.788C427.039 379.216 426.53 379.457 426 379.457H418C417.47 379.457 416.961 379.216 416.586 378.788C416.211 378.359 416 377.777 416 377.17V364.59C416 363.984 416.211 363.402 416.586 362.973C416.961 362.544 417.47 362.303 418 362.303H420" stroke="#5C5C5C" stroke-width="2" stroke-linecap="round" stroke-linejoin="round"/>
<path d="M467.06 550.741C467.039 501.044 467.034 451.102 467.039 337.104M467.073 336.036C471.066 337.209 475.056 337.091 479.964 336L467.073 336.036ZM467.033 336.794C469.964 336.533 472.868 336.315 479.968 336.07L467.033 336.794ZM479.932 336.436C479.964 409.505 479.998 481.126 479.999 550.434L479.932 336.436ZM479.965 336.103C480.02 380.469 480.003 425.226 479.967 549.333L479.965 336.103ZM479.983 549.587C477.372 549.199 474.758 549.989 467.048 551L479.983 549.587ZM479.967 549.956C475.555 548.781 471.148 549.033 467.038 549.796L479.967 549.956ZM467 550.787C467.041 503.543 467.059 455.376 467.062 337.86L467 550.787Z" stroke="black" stroke-width="0.880362"/>
<path d="M467.073 380.604C471.066 380.704 475.056 380.694 479.964 380.601L467.073 380.604ZM467.033 380.669C469.964 380.646 472.868 380.628 479.968 380.607L467.033 380.669ZM479.932 380.638C479.964 386.857 479.998 392.952 479.999 398.851L479.932 380.638ZM479.965 380.61C480.02 384.386 480.003 388.195 479.967 398.757L479.965 380.61ZM479.983 398.779C477.372 398.746 474.758 398.813 467.048 398.899L479.983 398.779ZM479.967 398.81C475.555 398.71 471.148 398.732 467.038 398.796L479.967 398.81ZM467 398.881C467.041 394.86 467.059 390.761 467.062 380.759L467 398.881ZM467.06 398.877C467.039 394.647 467.034 390.397 467.039 380.695L467.06 398.877Z" fill="#C4C4C4"/>
<path d="M467.06 398.877C467.039 394.647 467.034 390.397 467.039 380.695M467.073 380.604C471.066 380.704 475.056 380.694 479.964 380.601L467.073 380.604ZM467.033 380.669C469.964 380.646 472.868 380.628 479.968 380.607L467.033 380.669ZM479.932 380.638C479.964 386.857 479.998 392.952 479.999 398.851L479.932 380.638ZM479.965 380.61C480.02 384.386 480.003 388.195 479.967 398.757L479.965 380.61ZM479.983 398.779C477.372 398.746 474.758 398.813 467.048 398.899L479.983 398.779ZM479.967 398.81C475.555 398.71 471.148 398.732 467.038 398.796L479.967 398.81ZM467 398.881C467.041 394.86 467.059 390.761 467.062 380.759L467 398.881Z" stroke="black" stroke-width="0.880362"/>
<path d="M11.1624 550.741C10.4209 501.044 10.2472 451.102 10.4176 337.104M11.6303 336.036C156.319 337.209 300.893 337.091 478.697 336L11.6303 336.036ZM10.204 336.794C116.392 336.533 221.6 336.315 478.823 336.07L10.204 336.794ZM477.548 336.436C478.685 409.505 479.915 481.126 479.971 550.434L477.548 336.436ZM478.715 336.103C480.708 380.469 480.1 425.226 478.796 549.333L478.715 336.103ZM479.395 549.587C384.792 549.199 290.089 549.989 10.7496 551L479.395 549.587ZM478.798 549.956C318.949 548.781 159.276 549.033 10.3811 549.796L478.798 549.956ZM9 550.787C10.4731 503.543 11.1307 455.376 11.2442 337.86L9 550.787Z" stroke="black" stroke-width="0.880362"/>
<path d="M12.1578 322.658C11.4179 257.011 11.2446 191.041 11.4145 40.4588M12.6247 39.0475C157.006 40.5968 301.273 40.4405 478.7 39L12.6247 39.0475ZM11.2015 40.049C117.164 39.7037 222.148 39.4162 478.825 39.0928L11.2015 40.049ZM477.553 39.5757C478.688 136.096 479.916 230.701 479.971 322.252L477.553 39.5757ZM478.718 39.1366C480.707 97.7401 480.1 156.861 478.798 320.798L478.718 39.1366ZM479.396 321.134C384.994 320.622 290.493 321.664 11.7459 323L479.396 321.134ZM478.801 321.621C319.291 320.069 159.957 320.402 11.3782 321.41L478.801 321.621ZM10 322.719C11.47 260.312 12.1261 196.688 12.2394 41.4566L10 322.719Z" stroke="black" stroke-width="0.9"/>
<path d="M223.934 116.424C224.04 138.107 223.585 225.301 223.465 247.016M223.454 116.766C223.588 138.491 223.923 225.465 223.97 247.159L223.454 116.766ZM223.875 116.59C250.432 138.782 276.693 162.31 296.693 181.385L223.875 116.59ZM223.419 116.165C250.069 138.806 276.629 162.428 297.365 181.393L223.419 116.165ZM297.121 180.794C276.526 201.557 253.283 220.543 224.013 247.469L297.121 180.794ZM296.756 181.792C279.64 195.777 263.064 211.074 224.373 246.41L296.756 181.792Z" stroke="#050505" stroke-width="1.5"/>
<path d="M300.059 83.6006C337.63 83.2473 354.971 99.0013 355.922 130.873M298.116 82.8223C335.661 82.4302 354.132 98.2853 352.356 132.337M354.544 229.707C353.213 262.233 334.884 276.902 301.794 277.564M353.066 229.651C352.291 262.799 334.15 280.018 300.016 278.229M189.69 278.409C155.249 277.054 134.204 260.711 135.302 228.673M188.849 278.531C154.227 279.647 134.192 262.019 136.49 230.852M135.205 132.303C136.467 100.607 152.031 82.3388 190.699 85.2737M134.784 132.3C133.258 101.072 151.069 84.9356 190.305 84.1691M188.315 85.1836C221.905 81.3363 259.117 83.0202 300.864 81.8693L188.315 85.1836ZM190.199 83.5152C223.051 83.5537 257.704 83.2871 299.268 82.7498L190.199 83.5152ZM354.737 133.535C355.096 169.753 355.13 207.784 354.688 230.084L354.737 133.535ZM354.157 132.3C353.343 156.231 354.154 180.095 353.672 230.164L354.157 132.3ZM300.103 277.369C258.927 278.27 218.388 279.635 189.733 276.955L300.103 277.369ZM300.08 278.893C256.341 279.395 212.555 278.653 190.169 278.636L300.08 278.893ZM135.078 230.118C134.004 196.336 136.783 166.177 136.573 132.135L135.078 230.118ZM135.986 229.081C135.809 202.401 134.789 175.521 136.049 131.526L135.986 229.081Z" stroke="black" stroke-width="1.5"/>
<path d="M346.892 26.3848C349.828 23.2856 352.228 20.2591 353.248 19.1842M8.83059 26.3184C7.99198 19.8249 8.50076 12.542 8.15435 4.45634M2.26987 7.34571C2.89145 6.44257 4.30102 4.50135 6.7045 3.31874L2.26987 7.34571ZM2.13559 7.86913C2.8788 7.03107 3.65327 6.15506 6.02552 2.73894L2.13559 7.86913ZM3.63504 11.7864C5.73426 10.6871 8.01012 6.64707 10.0498 3.95341L3.63504 11.7864ZM2.21306 13.1818C3.86431 10.8665 5.65365 7.47863 11.1749 2.77854L2.21306 13.1818ZM1 17.8995C7.40142 12.622 10.1137 7.68044 15.3063 2.44033L1 17.8995ZM1.51912 18.3638C4.92521 14.6471 7.49778 10.3837 14.419 2.18309L1.51912 18.3638ZM2.1879 21.254C8.93859 15.3854 13.6866 10.7709 20.3875 3.75277L2.1879 21.254ZM2.53179 22.6632C7.0504 15.7805 12.3379 9.90977 19.2832 2.2399L2.53179 22.6632ZM1.92199 27.3473C10.9837 18.1676 14.8904 11.4906 22.0826 1.55252L1.92199 27.3473ZM3.24559 25.7052C8.0826 20.3825 12.9825 16.4317 23.9083 3.64962L3.24559 25.7052ZM6.94325 26.4449C14.3299 19.1099 18.7335 13.5612 26.3933 2.77995L6.94325 26.4449ZM8.62531 26.4683C13.8696 19.4121 19.9766 11.9369 27.3361 3.38278L8.62531 26.4683ZM11.1557 26.5919C17.3153 22.2719 21.4994 17.0566 31.0875 2.78212L11.1557 26.5919ZM11.7771 26.6689C17.7815 18.0185 25.4321 11.099 32.3383 2.82985L11.7771 26.6689ZM17.5941 25.0078C22.8961 19.8773 26.8819 14.1996 37.6596 1.1562L17.5941 25.0078ZM16.6919 25.6078C22.563 17.5947 30.1204 9.7272 36.5316 1.88807L16.6919 25.6078ZM19.608 27.7141C27.3182 18.5725 36.1506 9.01137 40.4707 2.85928L19.608 27.7141ZM21.0061 26.2609C26.8633 17.9077 35.0798 8.81208 39.9115 2.15179L21.0061 26.2609ZM24.0327 27.5668C27.4064 22.8697 31.5194 18.2215 45.1161 1.17283L24.0327 27.5668ZM25.534 26.8999C30.5207 19.1906 34.576 14.5198 45.577 2.64328L25.534 26.8999ZM29.1194 26.7376C33.4402 19.2184 39.937 13.5627 47.9559 1.82776L29.1194 26.7376ZM28.1886 26.7487C35.3761 18.0539 43.4017 8.71201 48.0446 3.00311L28.1886 26.7487ZM34.8936 24.6102C38.5417 16.8843 46.6121 11.2576 54.4821 2.68096L34.8936 24.6102ZM33.5148 25.8241C36.6811 20.607 40.7941 16.2045 53.1924 2.5088L33.5148 25.8241ZM37.101 27.1098C42.5392 20.9275 47.3695 13.0846 58.8496 1.40093L37.101 27.1098ZM36.9997 25.6604C43.6178 18.1039 51.7962 10.5109 56.9651 3.26526L36.9997 25.6604ZM40.7689 24.7356C47.809 18.5144 55.8061 10.156 62.2429 1.44749L40.7689 24.7356ZM42.614 25.8618C46.621 19.9401 51.929 14.6866 62.1143 2.64757L42.614 25.8618ZM44.5425 24.9057C53.4696 17.1463 58.8004 10.5115 65.2202 3.31788L44.5425 24.9057ZM45.5211 26.4709C51.2768 19.6567 57.9167 12.4435 66.513 3.06728L45.5211 26.4709ZM51.0437 26.7021C55.1117 19.9027 57.9648 15.8231 70.0638 3.95069L51.0437 26.7021ZM49.6183 26.1658C54.4197 21.5936 57.917 16.9988 70.2869 2.77122L49.6183 26.1658ZM54.4104 26.9119C62.1468 19.1302 68.2733 10.4665 73.1247 1.1236L54.4104 26.9119ZM55.0505 26.2718C59.9995 18.3617 66.6416 10.8722 73.738 2.31987L55.0505 26.2718ZM60.2641 27.6512C65.265 18.2345 72.0874 10.7677 79.9854 2.72095L60.2641 27.6512ZM58.134 25.6707C66.3669 17.1062 73.1592 8.20343 79.671 1.96203L58.134 25.6707ZM63.6404 25.967C68.1307 18.858 72.1036 12.6986 81.7886 1.54039L63.6404 25.967ZM62.894 26.457C70.9517 16.5398 78.4434 8.47188 83.3097 3.18131L62.894 26.457ZM68.9567 24.7494C72.4355 19.6814 77.3661 15.2796 86.416 1L68.9567 24.7494ZM68.176 25.5587C73.0605 19.6979 77.8617 14.9397 87.4352 2.78287L68.176 25.5587ZM71.1452 25.621C79.6901 16.6879 86.338 6.36278 91.6134 3.09649L71.1452 25.621ZM71.175 26.9695C79.1428 16.5066 87.3109 8.48417 90.7011 2.6597L71.175 26.9695ZM75.6212 26.6971C79.7082 20.7961 83.434 16.7164 96.4262 1.85366L75.6212 26.6971ZM75.3675 25.1497C82.4559 17.8558 90.4305 9.50931 95.8404 2.85576L75.3675 25.1497ZM79.4158 25.3396C85.4424 19.1363 93.2308 10.1692 99.3722 1.0579L79.4158 25.3396ZM79.6269 25.4787C87.3107 18.2295 94.2171 8.59028 100.607 3.29863L79.6269 25.4787ZM84.738 25.7806C91.6351 19.829 94.8881 13.7409 104.624 4.04644L84.738 25.7806ZM84.5534 26.0113C88.2699 19.9817 93.1672 16.2154 103.932 3.06619L84.5534 26.0113ZM89.7171 25.4364C94.8212 17.2883 102.048 8.85796 109.42 2.22399L89.7171 25.4364ZM87.9959 26.4226C96.3943 16.3336 104.415 8.27667 108.525 2.49151L87.9959 26.4226ZM91.8293 26.4399C97.5204 20.7304 103.496 12.755 110.824 4.11972L91.8293 26.4399ZM92.4582 26.8249C97.9558 21.3499 101.699 15.3147 113.195 2.24344L92.4582 26.8249ZM97.2832 25.4285C101.142 21.7513 105.399 15.5102 116.079 3.5561L97.2832 25.4285ZM96.8413 25.3902C102.035 19.0964 109.13 12.1039 117.574 3.16721L96.8413 25.3902ZM99.9739 27.9918C108.016 19.75 112.697 11.672 120.543 2.13009L99.9739 27.9918ZM100.198 26.6589C109.691 16.5137 116.705 8.26879 120.848 3.72099L100.198 26.6589ZM105.731 25.6807C111.8 18.8548 118.582 11.6808 124.453 3.6852L105.731 25.6807ZM105.133 26.3828C109.724 20.4335 113.891 16.2085 124.879 3.10444L105.133 26.3828ZM108.647 26.708C116.376 17.3966 125.882 7.9284 130.069 3.91365L108.647 26.708ZM109.326 26.2239C115.9 19.4468 121.672 12.2257 129.728 3.62715L109.326 26.2239ZM112.648 25.7616C120.358 17.3288 129.709 10.1435 132.818 1.26796L112.648 25.7616ZM114.257 26.1965C122.504 17.4467 129.857 8.26424 133.581 2.32948L114.257 26.1965ZM117.426 24.8413C125.456 17.8084 131.513 8.98226 137.662 3.00258L117.426 24.8413ZM118.332 26.2142C124.981 17.3383 132.584 8.08625 137.879 3.21475L118.332 26.2142ZM124.002 26.0874C127.389 18.45 134.531 15.1121 143.828 3.20648L124.002 26.0874ZM122.407 26.7521C128.263 19.3273 134.319 12.6141 142.434 2.29425L122.407 26.7521ZM127.061 26.3141C132.035 18.6628 140.013 12.1185 145.162 1.99644L127.061 26.3141ZM126.116 27.1056C133.129 18.9668 139.917 10.9471 145.76 3.10731L126.116 27.1056ZM130.123 26.2779C135.605 21.6998 139.959 15.677 150.1 3.27695L130.123 26.2779ZM131.795 26.0529C135.976 20.0042 141.691 12.7621 151.401 1.76637L131.795 26.0529ZM134.676 25.2109C140.755 21.3022 145.292 14.6364 156.389 4.34247L134.676 25.2109ZM134.397 26.6895C142.154 16.8572 150.811 8.18846 155.445 2.47703L134.397 26.6895ZM139.333 26.8009C146.618 16.4164 154.843 10.8328 158.244 3.501L139.333 26.8009ZM139.838 25.583C148.128 16.476 155.581 7.14498 159.26 2.58306L139.838 25.583ZM144.978 27.1494C149.396 22.8544 152.034 17.199 162.72 2.82793L144.978 27.1494ZM143.701 25.8272C149.774 19.1749 155.801 12.3669 163.414 3.15468L143.701 25.8272ZM147.516 27.3275C151.866 21.7431 158.101 15.1825 168.035 2.63804L147.516 27.3275ZM147.973 26.1971C154.03 18.767 161.705 9.93676 167.601 2.2533L147.973 26.1971ZM152.636 27.9094C161.058 17.1513 166.668 7.38147 173.531 4.23932L152.636 27.9094ZM152.567 25.9833C156.709 22.141 160.28 17.3467 172.566 2.23185L152.567 25.9833ZM155.737 25.0889C165.313 17.7697 170.976 10.6131 177.222 1.1171L155.737 25.0889ZM156.045 25.6546C163.239 19.0588 168.068 12.1166 176.828 2.99959L156.045 25.6546ZM159.904 24.9403C168.817 17.1864 174.451 11.7814 179.349 1.41526L159.904 24.9403ZM159.947 26.7604C164.925 21.005 170.355 14.7001 180.207 2.7466L159.947 26.7604ZM165.437 26.3834C172.697 19.2935 177.959 8.95194 186.331 2.68084L165.437 26.3834ZM164.714 26.0175C171.326 18.6682 179.178 10.1521 185.354 2.71623L164.714 26.0175ZM168.61 25.5808C177.106 17.2836 183.598 7.8151 188.697 1.19365L168.61 25.5808ZM169.209 26.7205C177.019 16.4994 184.633 7.23415 188.461 2.99778L169.209 26.7205ZM173.626 25.2056C180.538 17.8513 186.357 11.4429 193.338 3.49818L173.626 25.2056ZM173.05 26.2525C181.23 17.0952 188.763 7.72519 193.082 2.98742L173.05 26.2525ZM178.556 25.6877C180.789 21.0647 184.816 15.2094 197.659 3.04028L178.556 25.6877ZM177.729 25.8515C182.676 19.8728 188.301 13.0934 197.062 2.29887L177.729 25.8515ZM180.893 24.6175C187.743 19.7888 191.039 13.1658 200.569 4.47846L180.893 24.6175ZM182.538 26.3409C186.042 20.0942 190.285 15.2384 201.102 2.496L182.538 26.3409ZM185.913 27.7194C191.575 21.2872 194.055 15.6031 207.502 3.98071L185.913 27.7194ZM185.695 26.3886C190.803 19.3562 197.6 12.8712 205.754 3.44391L185.695 26.3886ZM189.279 25.8611C196.973 18.9999 200.388 12.6393 209.954 3.48594L189.279 25.8611ZM189.347 27.0771C197.464 18.5277 204.305 9.15394 209.343 3.21147L189.347 27.0771ZM194.436 25.9401C198.334 21.2453 202.892 14.4566 213.458 3.5321L194.436 25.9401ZM195.314 25.417C200.947 20.0506 205.299 11.9228 215.098 2.0218L195.314 25.417ZM199.573 27.5211C205.084 16.5472 214.685 8.51819 217.114 4.36599L199.573 27.5211ZM198.439 26.765C204.405 20.2382 210.407 12.7949 217.868 2.15479L198.439 26.765ZM204.253 27.7913C210.24 18.6813 214.008 13.6117 222.348 2.05929L204.253 27.7913ZM203.597 25.5574C210.524 17.7692 217.908 9.21394 222.462 2.03386L203.597 25.5574ZM206.559 27.603C215.001 19.769 220.476 10.3344 228.456 2.76994L206.559 27.603ZM206.808 25.7623C213.446 18.6147 220.152 11.4979 227.157 2.70435L206.808 25.7623ZM210.258 25.9447C217.036 17.3816 223.513 11.658 231.758 2.41872L210.258 25.9447ZM211.172 25.9242C216.157 20.4851 219.812 15.7596 230.833 1.92022L211.172 25.9242ZM215.531 25.9836C220.609 21.2178 224.167 14.6768 237.151 4.2385L215.531 25.9836ZM215.989 26.4649C221.151 20.0085 225.449 14.632 235.698 2.2664L215.989 26.4649ZM219.735 26.2492C224.773 20.2952 233.837 9.70803 241.251 1.7387L219.735 26.2492ZM219.881 26.2355C225.913 18.9054 233.09 10.7752 240.007 1.95761L219.881 26.2355ZM224.151 26.6753C231.168 17.2837 237.763 12.4277 243.95 2.8304L224.151 26.6753ZM224.327 26.5294C230.717 17.6386 237.303 11.2203 243.994 2.96069L224.327 26.5294ZM228.331 26.3597C235.05 19.7783 240.591 10.5738 247.564 2.92704L228.331 26.3597ZM228.777 25.9909C235.324 19.3531 240.382 11.3453 248.992 1.79344L228.777 25.9909ZM233.657 26.3183C240.151 17.1148 244.919 11.3318 252.383 2.49377L233.657 26.3183ZM232.582 26.2712C239.949 18.1638 247.003 9.72591 252.16 2.57877L232.582 26.2712ZM237.675 27.2447C244.263 18.8622 253.023 8.08695 255.814 3.16343L237.675 27.2447ZM236.521 25.2938C241.193 20.5319 246.253 13.8283 256.809 2.91172L236.521 25.2938ZM240.86 25.6884C246.203 20.758 251.105 15.5014 260.748 2.27058L240.86 25.6884ZM241.525 26.1981C246.327 19.8296 252.38 14.2755 260.723 1.98174L241.525 26.1981ZM244.162 24.9665C251.017 21.054 253.017 14.9891 265.09 2.11915L244.162 24.9665ZM245.395 25.6731C254.156 16.8858 262.161 7.35857 264.891 2.87924L245.395 25.6731ZM249.354 24.7652C255.94 18.4618 263.557 7.78339 270.124 1.22849L249.354 24.7652ZM249.539 26.1888C254.599 20.1731 259.39 15.2112 269.825 2.63436L249.539 26.1888ZM253.376 25.4767C260.233 21.4645 262.798 14.9778 273.253 3.60105L253.376 25.4767ZM254.087 25.9736C261.481 17.7758 268.092 9.52498 274.688 2.74333L254.087 25.9736ZM258.3 27.6638C264.851 17.4151 271.86 10.4315 279.561 3.39267L258.3 27.6638ZM258.221 26.3144C264.734 18.7841 272.09 10.4318 278.417 2.49513L258.221 26.3144ZM262.465 26.533C268.032 18.5246 274.877 11.829 281.218 1.37635L262.465 26.533ZM263.3 26.4655C269.427 19.2934 275.892 11.0311 281.528 3.54235L263.3 26.4655ZM267.237 27.8392C272.142 18.0991 279.919 9.65883 287.683 2.95031L267.237 27.8392ZM266.78 26.0169C272.452 18.8289 279.161 12.3443 286.664 3.41409L266.78 26.0169ZM271.354 25.9187C275.876 19.1105 280.82 13.9652 290.249 1.35048L271.354 25.9187ZM271.748 26.379C274.862 20.8866 279.684 15.7148 290.338 3.00232L271.748 26.379ZM274.477 26.1701C282.452 19.6834 286.509 11.8409 294.292 2.33402L274.477 26.1701ZM274.436 26.5749C282.276 17.5486 289.741 8.92637 295.144 2.0911L274.436 26.5749ZM280.621 26.9951C283.86 20.8215 288.06 15.4333 300.41 3.91782L280.621 26.9951ZM279.634 26.9898C283.893 19.4959 289.681 13.2214 298.873 3.36888L279.634 26.9898ZM285.114 26.0265C292.947 17.4838 298.362 6.17139 305.169 4.0021L285.114 26.0265ZM284.426 26.9935C290.13 17.3998 298.054 9.23517 304.047 2.40546L284.426 26.9935ZM288.789 28C292.511 21.8486 296.709 12.5866 307.861 3.12426L288.789 28ZM288.349 26.6727C292.3 20.5607 297.694 15.193 307.031 3.17205L288.349 26.6727ZM293.405 25.0506C297.326 21.5097 300.194 14.2894 311.256 2.21878L293.405 25.0506ZM291.992 26.4706C298.704 19.4118 303.948 11.8255 312.375 3.08628L291.992 26.4706ZM297.187 27.4142C302.196 17.7705 311.139 11.0053 315.544 2.08313L297.187 27.4142ZM296.519 27.0889C300.823 20.2568 305.013 14.5878 315.521 3.60045L296.519 27.0889ZM300.39 26.6639C307.852 16.9995 313.875 7.45213 319.087 1.13769L300.39 26.6639ZM301.196 26.8628C308.805 16.924 315.856 9.28208 320.343 1.82236L301.196 26.8628ZM304.039 26.4116C313.179 17.0382 321.504 7.78497 325.175 1.46749L304.039 26.4116ZM304.51 26.595C313.411 17.5055 321.497 8.27623 325.064 2.74746L304.51 26.595ZM309.086 25.272C316.643 18.2508 324.203 6.58155 329.963 3.29419L309.086 25.272ZM309.707 25.2872C314.426 19.2755 320.676 11.9709 328.58 2.65995L309.707 25.2872ZM311.949 27.8359C320.353 17.5095 326.234 11.5845 332.436 4.44202L311.949 27.8359ZM313.101 26.6174C319.617 19.0585 326.897 10.4954 333.993 3.00894L313.101 26.6174ZM316.479 27.6355C324.692 19.0709 328.259 13.7937 338.356 1.38562L316.479 27.6355ZM317.61 26.4516C323.115 20.9329 328.519 14.0341 337.325 2.02921L317.61 26.4516ZM323.095 27.9806C328.846 16.8369 337.61 9.7748 341.397 1.86748L323.095 27.9806ZM321.079 25.8978C324.917 21.17 329.53 16.8096 342.254 2.0416L321.079 25.8978ZM324.734 24.9236C329.933 22.2533 336.71 16.0689 346.318 2.93056L324.734 24.9236ZM326.603 25.3926C331.684 18.8303 338.431 12.6533 345.63 2.71775L326.603 25.3926ZM331.222 24.8087C337.293 18.4949 344.661 10.6954 350.094 3.53572L331.222 24.8087ZM330.85 26.2478C335.345 20.3613 340.945 13.5105 350.607 3.4486L330.85 26.2478ZM333.19 27.2363C336.951 22.9998 341.946 15.5953 353.902 4.18275L333.19 27.2363ZM334.391 26.3812C340.517 19.2628 346.965 11.3573 353.786 5.04602L334.391 26.3812ZM339.259 26.1727C343.497 21.0603 350.08 12.1356 353.287 9.85028L339.259 26.1727ZM338.024 26.7948C344.279 20.26 349.173 13.3287 352.968 9.00952L338.024 26.7948ZM343.167 25.804C346.466 22.13 347.678 21.2615 352.301 13.995L343.167 25.804ZM343.488 25.6781C347.148 21.4426 351.297 16.1018 353.977 13.4961L343.488 25.6781ZM347.777 25.6095C350.377 22.7939 352.014 21.3166 353.513 18.5241L347.777 25.6095ZM8.39681 4.11598C126.605 2.82604 242.648 2.71348 358.142 3.01951L8.39681 4.11598ZM8.34395 3.9318C147.824 4.70684 287.758 3.90764 357.679 3.28356L8.34395 3.9318ZM359 3.8953C357.811 7.20306 357.367 14.7043 358.744 26.2248L359 3.8953ZM357.611 4.13885C358.626 10.9044 358.616 17.5054 357.264 25.5488L357.611 4.13885ZM357.667 25.357C237.958 24.8939 118.372 24.874 7.76091 26.7391L357.667 25.357ZM357.855 25.7526C260.838 26.4266 164.07 26.5207 8.23614 25.6576L357.855 25.7526ZM9.77882 25.4167C10.0351 21.3412 7.42149 15.5917 8.33485 4.7241L9.77882 25.4167Z" stroke="#7A7A7A" stroke-width="1.5"/>
</svg>
